<?xml version="1.0" encoding="utf-8"?>
<!-- Generator: Adobe Illustrator 19.0.0, SVG Export Plug-In . SVG Version: 6.00 Build 0)  -->
<!DOCTYPE svg PUBLIC "-//W3C//DTD SVG 1.1//EN" "http://www.w3.org/Graphics/SVG/1.1/DTD/svg11.dtd">
<svg version="1.1" id="Layer_1" xmlns="http://www.w3.org/2000/svg" xmlns:xlink="http://www.w3.org/1999/xlink" x="0px" y="0px"
	 viewBox="0 0 9870.104 2778.383" enable-background="new 0 0 9870.104 2778.383" xml:space="preserve">
<path id="XMLID_445_" fill="#855E90" d="M5086.11,1257.086v219.991c0,4.219-3.47,7.689-7.717,7.689h-284.975
	c-4.247,0-7.717-3.47-7.717-7.689v-219.991c0-4.219,3.47-7.689,7.717-7.689h284.975
	C5082.641,1249.397,5086.11,1252.866,5086.11,1257.086z"/>
<path id="XMLID_433_" fill="#62258A" d="M5086.11,1476.383v44.248c0,4.247-3.47,7.717-7.717,7.717h-284.975
	c-4.247,0-7.717-3.47-7.717-7.717v-44.248c0,4.219,3.47,7.689,7.717,7.689h284.975
	C5082.641,1484.072,5086.11,1480.602,5086.11,1476.383z"/>
<g id="XMLID_431_">
	<polygon id="XMLID_432_" fill="#F7F7F6" points="4850.125,1336.13 4850.125,1397.199 4885.287,1397.199 4914.897,1426.809 
		4914.897,1306.52 4887.138,1332.428 	"/>
</g>
<g id="XMLID_429_">
	<path id="XMLID_430_" fill="#F7F7F6" d="M4957.364,1407.205l-14.498-8.195c10.775-19.067,9.962-44.191-2.025-62.519l13.939-9.117
		C4970.086,1350.778,4971.125,1382.86,4957.364,1407.205z"/>
</g>
<g id="XMLID_427_">
	<path id="XMLID_428_" fill="#F7F7F6" d="M4988.444,1429.182l-13.885-9.198c19.909-30.061,20.811-72.622,2.198-103.502
		c-2.45-4.066-5.196-7.956-8.103-12.074l13.557-9.675l-6.804,4.802l6.853-4.732c2.949,4.177,5.999,8.499,8.761,13.08
		C5013.183,1344.646,5012.147,1393.393,4988.444,1429.182z"/>
</g>
</svg>
