<?xml version="1.0" encoding="utf-8"?>
<!-- Generator: Adobe Illustrator 19.0.0, SVG Export Plug-In . SVG Version: 6.00 Build 0)  -->
<!DOCTYPE svg PUBLIC "-//W3C//DTD SVG 1.1//EN" "http://www.w3.org/Graphics/SVG/1.1/DTD/svg11.dtd">
<svg version="1.1" id="Layer_1" xmlns="http://www.w3.org/2000/svg" xmlns:xlink="http://www.w3.org/1999/xlink" x="0px" y="0px"
	 viewBox="0 0 9870.104 2778.383" enable-background="new 0 0 9870.104 2778.383" xml:space="preserve">
<g id="XMLID_416_">
	<path id="XMLID_417_" fill="#855E90" d="M5078.964,1249.386h-284.975c-4.248,0-7.717,3.47-7.717,7.689v219.991
		c0,4.219,3.47,7.689,7.717,7.689h284.975c4.248,0,7.717-3.47,7.717-7.689v-219.991
		C5086.681,1252.856,5083.211,1249.386,5078.964,1249.386z"/>
</g>
<g id="XMLID_414_">
	<path id="XMLID_415_" fill="#62258A" d="M5086.686,1476.378v44.248c0,4.247-3.47,7.717-7.717,7.717h-284.976
		c-4.247,0-7.717-3.47-7.717-7.717v-44.248c0,4.219,3.47,7.689,7.717,7.689h284.976
		C5083.216,1484.067,5086.686,1480.597,5086.686,1476.378z"/>
</g>
<g id="XMLID_254_">
	<g id="XMLID_255_">
		<polygon id="XMLID_263_" fill="#F7F7F6" points="4850.701,1336.124 4850.701,1397.194 4885.862,1397.194 4915.472,1426.804 
			4915.472,1306.514 4887.713,1332.423 		"/>
	</g>
</g>
<g id="XMLID_159_">
	<polygon id="XMLID_160_" fill="#F7F7F6" points="5023.03,1400.423 5011.481,1412.471 4980.225,1382.519 4953.493,1407.03 
		4942.223,1394.76 4968.178,1370.971 4944.859,1348.625 4956.408,1336.577 4980.502,1359.673 5008.844,1333.69 5020.115,1345.96 
		4992.55,1371.221 	"/>
</g>
</svg>
