<?xml version="1.0" encoding="utf-8"?>
<!-- Generator: Adobe Illustrator 19.0.0, SVG Export Plug-In . SVG Version: 6.00 Build 0)  -->
<!DOCTYPE svg PUBLIC "-//W3C//DTD SVG 1.1//EN" "http://www.w3.org/Graphics/SVG/1.1/DTD/svg11.dtd">
<svg version="1.1" id="Layer_1" xmlns="http://www.w3.org/2000/svg" xmlns:xlink="http://www.w3.org/1999/xlink" x="0px" y="0px"
	 width="9870.104px" height="2778.383px" viewBox="4637 -969.493 9870.104 2778.383"
	 enable-background="new 4637 -969.493 9870.104 2778.383" xml:space="preserve">
<path id="XMLID_490_" fill="#855E90" d="M10255.539,752.655v206.609c0,3.963-2.137,7.222-4.75,7.222h-664.371
	c-2.613,0-4.75-3.259-4.75-7.222V752.655c0-3.963,2.137-7.222,4.75-7.222h664.371
	C10253.402,745.433,10255.539,748.692,10255.539,752.655z"/>
<path id="XMLID_489_" fill="#62258A" d="M10255.539,958.612v41.556c0,3.989-2.137,7.248-4.75,7.248h-664.371
	c-2.613,0-4.75-3.259-4.75-7.248v-41.556c0,3.963,2.137,7.222,4.75,7.222h664.371
	C10253.402,965.834,10255.539,962.575,10255.539,958.612z"/>
<rect id="XMLID_15_" x="9582.035" y="812.762" fill="none" width="672.897" height="169.055"/>
<g id="XMLID_480_" enable-background="new    ">
	<path fill="#FFFFFF" d="M9681.029,905.742l-18.711-41.92h-1.161v41.92h-22.048v-90.076h24.514l17.842,43.225h1.16v-43.225h22.192
		v90.076H9681.029z"/>
	<path fill="#FFFFFF" d="M9717.583,905.742v-90.076h50.187l-1.449,22.192h-23.934v13.49h20.742v19.146h-20.742v14.94h25.383
		l-1.449,20.307H9717.583z"/>
	<path fill="#FFFFFF" d="M9857.557,905.742h-29.88l-7.833-39.889h-1.16l-6.527,39.889h-30.025l-9.428-90.076h23.788l3.771,47.722
		h1.451l6.092-47.722h24.224l6.673,47.722h1.449l2.611-47.722h22.918L9857.557,905.742z"/>
	<path fill="#FFFFFF" d="M9928.055,860.921c0,16.101,1.596,24.368,11.459,24.368c3.481,0,4.932-0.58,7.833-1.16v-11.024h-6.527
		V855.99h27.704v49.752h-17.115l-2.321-4.642h-0.58c-3.626,3.046-7.107,6.092-15.375,6.092c-21.468,0-30.315-17.405-30.315-45.836
		c0-28.574,8.412-47.141,34.812-47.141c10.154,0,18.856,1.596,25.964,4.642l-3.916,23.643c-7.688-2.32-14.069-4.206-19.727-4.206
		C9929.65,838.293,9928.055,847.722,9928.055,860.921z"/>
	<path fill="#FFFFFF" d="M10021.18,905.742l-2.757-14.215h-17.115l-2.756,14.215h-23.063l16.536-90.076h36.843l16.535,90.076
		H10021.18z M10010.591,842.355h-1.016l-5.076,32.201h11.168L10010.591,842.355z"/>
	<path fill="#FFFFFF" d="M10117.349,905.742v-46.996h-1.306l-8.558,46.996h-23.353l-8.123-46.996h-1.45v46.996h-22.483l3.046-90.076
		h32.637l8.123,48.737h1.16l7.833-48.737h32.2l3.047,90.076H10117.349z"/>
	<path fill="#FFFFFF" d="M10152.019,905.742v-90.076h50.188l-1.45,22.192h-23.934v13.49h20.742v19.146h-20.742v14.94h25.384
		l-1.45,20.307H10152.019z"/>
</g>
</svg>
