<?xml version="1.0" encoding="utf-8"?>
<!-- Generator: Adobe Illustrator 19.0.0, SVG Export Plug-In . SVG Version: 6.00 Build 0)  -->
<!DOCTYPE svg PUBLIC "-//W3C//DTD SVG 1.1//EN" "http://www.w3.org/Graphics/SVG/1.1/DTD/svg11.dtd">
<svg version="1.1" id="Layer_1" xmlns="http://www.w3.org/2000/svg" xmlns:xlink="http://www.w3.org/1999/xlink" x="0px" y="0px"
	 viewBox="0 0 9870.104 2778.383" enable-background="new 0 0 9870.104 2778.383" xml:space="preserve">
<path id="XMLID_156_" fill="#855E90" d="M5086.305,1257.086v219.991c0,4.219-3.47,7.689-7.717,7.689h-284.976
	c-4.247,0-7.717-3.47-7.717-7.689v-219.991c0-4.219,3.47-7.689,7.717-7.689h284.976
	C5082.834,1249.397,5086.305,1252.866,5086.305,1257.086z"/>
<path id="XMLID_155_" fill="#62258A" d="M5086.305,1476.383v44.248c0,4.247-3.47,7.717-7.717,7.717h-284.976
	c-4.247,0-7.717-3.47-7.717-7.717v-44.248c0,4.219,3.47,7.689,7.717,7.689h284.976
	C5082.834,1484.072,5086.305,1480.602,5086.305,1476.383z"/>
<g id="XMLID_153_">
	<path id="XMLID_154_" fill="#FFFFFF" d="M5052.954,1389.324l-17.176,14.993l-68.774-78.832l-75.64,17.967l-2.306,24.459
		l36.968,2.99c0,5.269-49.01,66.934-52.696,64.819c-6.879-3.929-37.948-63.24-38.471-72.193l31.458,2.547l3.875-41.034
		l104.938-24.925L5052.954,1389.324z"/>
</g>
</svg>
