<?xml version="1.0" encoding="utf-8"?>
<!-- Generator: Adobe Illustrator 19.0.0, SVG Export Plug-In . SVG Version: 6.00 Build 0)  -->
<!DOCTYPE svg PUBLIC "-//W3C//DTD SVG 1.1//EN" "http://www.w3.org/Graphics/SVG/1.1/DTD/svg11.dtd">
<svg version="1.1" id="Layer_1" xmlns="http://www.w3.org/2000/svg" xmlns:xlink="http://www.w3.org/1999/xlink" x="0px" y="0px"
	 viewBox="0 0 9870.104 2778.383" enable-background="new 0 0 9870.104 2778.383" xml:space="preserve">
<path id="XMLID_50_" fill="#855E90" d="M5086.71,1256.718v219.991c0,4.219-3.47,7.689-7.717,7.689h-284.976
	c-4.247,0-7.717-3.47-7.717-7.689v-219.991c0-4.219,3.47-7.689,7.717-7.689h284.976
	C5083.24,1249.029,5086.71,1252.499,5086.71,1256.718z"/>
<path id="XMLID_49_" fill="#62258A" d="M5086.71,1476.015v44.248c0,4.247-3.47,7.717-7.717,7.717h-284.976
	c-4.247,0-7.717-3.47-7.717-7.717v-44.248c0,4.219,3.47,7.689,7.717,7.689h284.976
	C5083.24,1483.705,5086.71,1480.235,5086.71,1476.015z"/>
<polygon id="XMLID_48_" fill="#FFFFFF" points="4861.235,1434.618 4932.085,1434.773 4924.924,1305.319 4864.664,1308.209 "/>
<polygon id="XMLID_42_" fill="#FFFFFF" points="4962.258,1434.773 4998.085,1434.773 5002.155,1302.049 4954.516,1303.493 "/>
</svg>
