<?xml version="1.0" encoding="utf-8"?>
<!-- Generator: Adobe Illustrator 19.0.0, SVG Export Plug-In . SVG Version: 6.00 Build 0)  -->
<!DOCTYPE svg PUBLIC "-//W3C//DTD SVG 1.1//EN" "http://www.w3.org/Graphics/SVG/1.1/DTD/svg11.dtd">
<svg version="1.1" id="Layer_1" xmlns="http://www.w3.org/2000/svg" xmlns:xlink="http://www.w3.org/1999/xlink" x="0px" y="0px"
	 viewBox="0 0 9870.104 2778.383" enable-background="new 0 0 9870.104 2778.383" xml:space="preserve">
<path id="XMLID_158_" fill="#855E90" d="M5450.021,1442.086v219.991c0,4.219-3.47,7.689-7.717,7.689h-284.976
	c-4.247,0-7.717-3.47-7.717-7.689v-219.991c0-4.219,3.47-7.689,7.717-7.689h284.976
	C5446.551,1434.397,5450.021,1437.866,5450.021,1442.086z"/>
<path id="XMLID_152_" fill="#62258A" d="M5450.021,1661.383v44.248c0,4.247-3.47,7.717-7.717,7.717h-284.976
	c-4.247,0-7.717-3.47-7.717-7.717v-44.248c0,4.219,3.47,7.689,7.717,7.689h284.976
	C5446.551,1669.072,5450.021,1665.602,5450.021,1661.383z"/>
<g id="XMLID_324_">
	<path fill="#E67623" d="M5284.858,1596.843c-1.942,0.009-4.231,0.018-6.958,0.018l0.009-0.073
		C5279.751,1596.816,5282.003,1596.834,5284.858,1596.843z"/>
</g>
<g id="XMLID_321_">
	<path fill="#E67623" d="M5291.114,1596.862c-2.371,0-4.432,0-6.256-0.018c2.627-0.018,4.633-0.036,6.248-0.073L5291.114,1596.862z"
		/>
</g>
<g id="XMLID_15_">
	<path id="XMLID_327_" fill="#FFFFFF" d="M5377.172,1600.014l-16.065-14.588c9.707-10.683,17.733-36.374,5.179-60.004
		c-13.896-26.166-44.142-40.604-77.059-36.794c-33.798,3.905-45.959,38.313-45.335,51.992c0.353,7.904,5.071,14.574,9.151,18.912
		l29.731-22.301c3.484,3.945,7.646,82.604,3.484,83.458c-7.754,1.613-70.321-22.207-76.652-28.565l25.243-18.939l0.787-0.597
		c-6.209-7.131-12.812-17.733-13.408-30.978c-1.248-27.264,21.014-69.508,64.519-74.537c41.837-4.84,80.584,14.072,98.696,48.169
		C5401.914,1546.246,5393.468,1582.051,5377.172,1600.014z"/>
</g>
</svg>
