<?xml version="1.0" encoding="utf-8"?>
<!-- Generator: Adobe Illustrator 19.0.0, SVG Export Plug-In . SVG Version: 6.00 Build 0)  -->
<!DOCTYPE svg PUBLIC "-//W3C//DTD SVG 1.1//EN" "http://www.w3.org/Graphics/SVG/1.1/DTD/svg11.dtd">
<svg version="1.1" id="Layer_1" xmlns="http://www.w3.org/2000/svg" xmlns:xlink="http://www.w3.org/1999/xlink" x="0px" y="0px"
	 viewBox="0 0 500 333.333" enable-background="new 0 0 500 333.333" xml:space="preserve">
<path id="XMLID_65_" fill="none" stroke="#000000" stroke-width="2" stroke-miterlimit="10" d="M133.339,192.474
	c0,0,2.95-31.142,23.87-31.074s22.567,52.063,48.152,51.994"/>
<line id="XMLID_64_" fill="none" stroke="#000000" stroke-width="2" stroke-miterlimit="10" x1="128.194" y1="161.4" x2="186.087" y2="161.4"/>
<circle id="XMLID_62_" cx="128.194" cy="161.4" r="5.276"/>
<circle id="XMLID_61_" cx="186.087" cy="161.4" r="5.276"/>
<rect id="XMLID_60_" x="153.299" y="157.491" fill="#FFFFFF" stroke="#000000" stroke-width="2" stroke-miterlimit="10" width="7.82" height="7.82"/>
<rect id="XMLID_59_" x="129.429" y="190.142" fill="#FFFFFF" stroke="#000000" stroke-width="2" stroke-miterlimit="10" width="7.82" height="7.82"/>
<path id="XMLID_58_" fill="none" d="M209.346,213.545"/>
<path id="XMLID_57_" fill="none" stroke="#000000" stroke-width="2" stroke-miterlimit="10" d="M208.797,212.173"/>
<path id="XMLID_55_" fill="none" stroke="#000000" stroke-width="2" stroke-miterlimit="10" d="M214.565,196.113
	c4.893,4.039,10.018,6.601,16.231,6.601c4.892,0,7.843-1.941,7.843-5.125v-0.155c0-3.029-1.864-4.582-10.949-6.912
	c-10.95-2.796-18.017-5.824-18.017-16.619v-0.156c0-9.862,7.921-16.385,19.026-16.385c7.921,0,14.677,2.485,20.191,6.912
	l-6.213,9.008c-4.814-3.339-9.551-5.359-14.133-5.359c-4.582,0-6.99,2.097-6.99,4.737v0.156c0,3.572,2.33,4.737,11.726,7.144
	c11.028,2.873,17.24,6.834,17.24,16.308v0.155c0,10.795-8.232,16.852-19.958,16.852l-55.06,0.119"/>
<path id="XMLID_53_" fill="none" stroke="#462851" stroke-width="0.8" stroke-miterlimit="10" d="M249.144,156.267h13.731
	l14.782,39.821l14.782-39.821h13.408l-22.86,56.946h-10.984L249.144,156.267z"/>
<path id="XMLID_51_" fill="#855E90" d="M299.77,185.254v-0.159c0-15.755,12.273-28.661,29.057-28.661
	c9.975,0,15.993,2.693,21.773,7.601l-7.68,9.263c-4.276-3.562-8.076-5.621-14.489-5.621c-8.867,0-15.913,7.838-15.913,17.26v0.158
	c0,10.134,6.967,17.577,16.784,17.577c4.433,0,8.392-1.108,11.48-3.325v-7.917H328.51v-10.531h24.069v24.069
	c-5.701,4.83-13.539,8.788-23.673,8.788C311.647,213.756,299.77,201.643,299.77,185.254z"/>
<rect id="XMLID_47_" x="201.452" y="209.485" fill="#FFFFFF" stroke="#000000" stroke-width="2" stroke-miterlimit="10" width="7.82" height="7.82"/>
<rect id="XMLID_46_" x="210.344" y="192.212" stroke="#000000" stroke-width="2" stroke-miterlimit="10" width="7.82" height="7.82"/>
<g id="XMLID_70_">
	<path id="XMLID_71_" d="M208.859,147.348l1.391-1.595c3.149,2.904,6.052,4.253,10.265,4.253c4.294,0,7.238-2.413,7.238-5.684
		v-0.082c0-3.027-1.595-4.785-8.097-6.093c-6.871-1.391-9.651-3.722-9.651-8.056v-0.082c0-4.253,3.885-7.524,9.201-7.524
		c4.171,0,6.911,1.144,9.814,3.476l-1.35,1.677c-2.699-2.332-5.398-3.231-8.547-3.231c-4.212,0-6.993,2.414-6.993,5.398v0.082
		c0,3.027,1.554,4.866,8.342,6.257c6.625,1.349,9.405,3.722,9.405,7.893v0.082c0,4.62-3.967,7.811-9.487,7.811
		C215.812,151.928,212.295,150.415,208.859,147.348z"/>
	<path id="XMLID_73_" d="M236.754,122.893h2.126v28.626h-2.126V122.893z"/>
	<path id="XMLID_75_" d="M247.265,122.893h2.004l11.491,16.931l11.491-16.931h2.004v28.626h-2.126v-24.863l-11.328,16.48h-0.163
		l-11.328-16.48v24.863h-2.045V122.893z"/>
	<path id="XMLID_77_" d="M282.357,122.893h10.387c6.298,0,10.633,3.23,10.633,8.751v0.082c0,6.011-5.194,9.119-11.164,9.119h-7.729
		v10.674h-2.126V122.893z M292.336,138.883c5.316,0,8.915-2.781,8.915-7.034v-0.082c0-4.539-3.517-6.911-8.67-6.911h-8.097v14.027
		H292.336z"/>
	<path id="XMLID_80_" d="M309.27,122.893h2.126v26.664h16.808v1.962H309.27V122.893z"/>
	<path id="XMLID_82_" d="M338.186,140.191l-12.268-17.298h2.658l10.714,15.376l10.756-15.376h2.535l-12.269,17.257v11.369h-2.126
		V140.191z"/>
</g>
<polyline id="XMLID_48_" fill="none" stroke="#462851" stroke-width="0.8" stroke-miterlimit="10" points="249.144,156.267 
	277.658,196.088 272.004,213.213 "/>
<polyline id="XMLID_49_" fill="none" stroke="#462851" stroke-width="0.8" stroke-miterlimit="10" points="305.848,156.267 
	277.658,196.088 282.988,213.213 "/>
</svg>
