<?xml version="1.0" encoding="utf-8"?>
<!-- Generator: Adobe Illustrator 19.0.0, SVG Export Plug-In . SVG Version: 6.00 Build 0)  -->
<!DOCTYPE svg PUBLIC "-//W3C//DTD SVG 1.1//EN" "http://www.w3.org/Graphics/SVG/1.1/DTD/svg11.dtd">
<svg version="1.1" id="Layer_2" xmlns="http://www.w3.org/2000/svg" xmlns:xlink="http://www.w3.org/1999/xlink" x="0px" y="0px"
	 viewBox="0 0 9870.104 2778.383" enable-background="new 0 0 9870.104 2778.383" xml:space="preserve">
<path id="XMLID_211_" fill="none" d="M2746.865,2254.569C2746.865,2254.569,2746.865,2254.569,2746.865,2254.569
	c49.051,0.85,92.447,1.422,131.047,1.711c-14.183,0.44-28.59,0.666-43.242,0.65
	C2805.188,2256.899,2775.926,2256.073,2746.865,2254.569z"/>
<path id="XMLID_210_" fill="none" d="M3889.558,2041.039C3889.559,2041.039,3889.559,2041.039,3889.558,2041.039
	c-7.262-0.337-14.546-0.625-21.85-0.86C3875.238,2040.163,3882.539,2040.429,3889.558,2041.039z"/>
<path id="XMLID_209_" fill="none" d="M6466.547,2130.79c-15.851-2.129-30.478-4.232-43.758-6.302
	C6434.817,2126.072,6449.554,2128.209,6466.547,2130.79z"/>
<path id="XMLID_205_" fill="none" d="M5115.381,2262.673C5115.381,2262.673,5115.381,2262.673,5115.381,2262.673
	c68.143-1.715,159.746-2.965,257.887-5.101C5282.931,2265.317,5197.297,2266.449,5115.381,2262.673z"/>
<path id="XMLID_204_" fill="#B6B2B7" d="M2746.865,2254.569c29.061,1.504,58.323,2.33,87.805,2.361
	c14.652,0.016,29.059-0.209,43.242-0.65c351.032,2.628,303.755-18.283,472.514-69.301c177.221-53.575,385.092-146.516,517.281-146.8
	c7.305,0.235,14.588,0.522,21.851,0.86c130.24,11.314,366.472,91.26,577.732,144.611c211.261,53.351,426.992,82.587,648.089,77.023
	c81.916,3.776,167.55,2.644,257.887-5.101c220.293-4.794,473.543-14.051,568.452-43.05
	c137.19-41.918,367.958-104.937,481.069-90.035c13.28,2.07,27.907,4.173,43.758,6.302c142.806,21.685,445.582,74.774,650.56,96.25
	c131.589,13.788,424.125,8.201,649.625,0.933c74.841,3.14,141.29,5.304,195.301,6.251c356.729,6.26,1749.625,46.854,1928.721-9.493
	c0,0,1004.562-93.932,1258.388,91.719c69.547,50.868,239.698,464.932,239.698,464.932l-19811.482-0.576v-620.274l8382.746,19.176
	c14.376,11.312,443.584,92.7,594.196,82.71c446.432-29.611,960.581-134.014,1042.514-135.911
	C1993.878,2117.315,2251.752,2245.993,2746.865,2254.569z"/>
<path id="XMLID_203_" fill="#9A989B" d="M2746.865,2254.569c-495.113-8.576-630.066-82.994-882.56-106.571
	c-132.614-12.383-248.816-19.37-296.368-19.652c0,0,195.873-9.764,271.731-8.26
	C2256.237,2128.346,2331.166,2233.057,2746.865,2254.569z"/>
<path id="XMLID_202_" fill="#9A989B" d="M4467.292,2185.65c-211.26-53.351-447.493-133.296-577.732-144.611
	c411.741,19.118,758.375,200.086,1225.822,221.634C4894.284,2268.237,4678.552,2239,4467.292,2185.65z"/>
<path id="XMLID_201_" fill="#AAAAAA" d="M2877.912,2256.28c422.577-13.123,642.133-221.818,965.352-216.69
	c8.176,0.13,16.322,0.329,24.444,0.59c-132.189,0.284-340.06,93.225-517.281,146.8
	C3181.667,2237.997,3228.945,2258.908,2877.912,2256.28z"/>
<path id="XMLID_200_" fill="#AAAAAA" d="M5941.72,2214.522c-94.908,28.999-348.159,38.256-568.452,43.05
	c2.49-0.214,4.974-0.417,7.471-0.641c549.19-49.17,758.13-176.707,1042.05-132.443
	C6309.678,2109.585,6078.91,2172.604,5941.72,2214.522z"/>
<path id="XMLID_175_" fill="#9A989B" d="M7117.106,2227.04c-204.978-21.477-507.753-74.566-650.56-96.25
	c271.73,36.494,903.845,80.555,1300.185,97.183C7541.231,2235.241,7248.696,2240.828,7117.106,2227.04z"/>
<path id="XMLID_174_" fill="#ACA8AD" d="M9293.018,2328.427c-137.501,47.284-308.953,10.162-512.569,31.305
	c-203.617,21.143-496.674,15.39-661.928-7.492c-165.254-22.882-660.802-24.76-763.853-36.055
	c-103.051-11.295-606.246-37.623-659.648-97.529c-53.402-59.906-554.368,72.587-699.485,97.529
	c-145.117,24.942-460.803,97.946-754.228,103.362c-293.426,5.417-651.121-211.439-957.15-163.048s-301.478-66.243-551.379-8.926
	s-477.104,124.302-864.481,90.099c-387.376-34.203-198.373-6.868-701.652-88.853c-270.433-44.053-890.159,69.468-1403.566,116.702
	c-442.05,40.67-596.081-102.377-803.676-128.451c-72.202-9.069-461.329,261.479-1179.616,291.659
	c-547.699,23.013-845.044,252.077-845.044,252.077l11956.011,0.011V2352.24C9890.754,2352.24,9499.207,2257.523,9293.018,2328.427z"
	/>
<path id="XMLID_164_" opacity="0.32" fill="#D2D1CA" d="M9407.063,2449.906c-217.166,14.815-581.356-25.581-757.607-41.615
	c-176.251-16.033-813.887,102.596-923.796,94.681c-109.909-7.915-844.478-59.346-901.434-101.324s-470.035-94.212-624.809-76.734
	c-154.773,17.478-414.802,246.691-727.754,250.486c-312.952,3.795-694.451-148.159-1020.845-114.251
	c-326.395,33.908-321.541-46.418-588.072-6.255c-266.531,40.163-518.04,18.978-931.195-4.989s-336.227-54.786-872.997-112.234
	c-278.416-29.798-756.59,97.551-1225.609,136.442c-435.224,36.089-654.455-96.022-873.543-84.306
	c-266.554,14.254-1481.417,390.998-1481.417,390.998l12807.536-1.491c0,0-214.402-415.081-316.153-458.733
	C10640.425,2179.464,9624.23,2435.091,9407.063,2449.906z"/>
<path id="XMLID_163_" fill="#A4A2A5" d="M9144.681,2540.11c-134.013,29.617-301.114,6.365-499.564,19.609
	s-484.072,9.64-645.133-4.693c-161.061-14.332-644.036-15.509-744.473-22.584c-100.437-7.075-590.864-23.566-642.911-61.09
	c-52.048-37.523-540.303,45.466-681.738,61.09c-141.435,15.623-321.59,24.438-607.571,27.83
	c-285.981,3.393-634.038-39.891-932.303-9.581s-462.838-45.917-706.399-10.016c-243.561,35.902-424.074,26.649-801.622,5.225
	c-377.548-21.424-193.34-4.302-683.85-55.655c-284.988-29.836-964.533,60.169-1509.287,90.013
	c-392.854,21.522-730.426-125.7-730.426-125.7l-1132.403,326.247l12392.139,0.011c0,0-223.156-302.075-365.728-345.467
	c-176.165-53.615-510.048,120.422-962.656,103.383C9704.367,2531.717,9345.64,2495.698,9144.681,2540.11z"/>
<ellipse id="XMLID_162_" opacity="0.77" fill="#989995" cx="6322.864" cy="2533.866" rx="66.696" ry="17.452"/>
<ellipse id="XMLID_161_" opacity="0.77" fill="#989995" cx="6046.634" cy="2546.683" rx="86.405" ry="21.91"/>
<ellipse id="XMLID_160_" opacity="0.39" fill="#989995" cx="4113.014" cy="2518.52" rx="103.27" ry="24.861"/>
<ellipse id="XMLID_159_" opacity="0.39" fill="#989995" cx="4374.679" cy="2524.339" rx="158.395" ry="28.954"/>
<g id="XMLID_153_">
	<path id="XMLID_158_" fill="#749383" d="M6065.018,2548.752c0,0,60.617-88.846,67.146,3.484L6065.018,2548.752z"/>
	<path id="XMLID_157_" fill="#CA3E70" d="M6325.805,2531.462c15.909-121.901,81.498,9.035,81.498,9.035
		C6403.76,2542.734,6331.629,2537.498,6325.805,2531.462z"/>
	<path id="XMLID_156_" fill="#CA3E70" d="M6061.586,2537.423c-15.649-91.228-67.162,3.189-67.162,3.189
		S6052.845,2542.389,6061.586,2537.423z"/>
	<path id="XMLID_155_" fill="#F27199" d="M6238.232,2558.846c0,0,15.692-171.94,29.964-205.306
		c-52.133,129.914-42.048,200.278-42.048,200.278L6238.232,2558.846z"/>
	<path id="XMLID_154_" fill="#749383" d="M6211.713,2550.89c0,0-1.686-117.4-13.203-140.801
		c41.417,90.927,25.656,138.06,25.656,138.06L6211.713,2550.89z"/>
</g>
<path id="XMLID_152_" fill="#749383" d="M4153.665,2504.598c22.897-84.036,62.62,9.053,62.62,9.053
	S4158.841,2511.64,4153.665,2504.598z"/>
<path id="XMLID_151_" fill="#749383" d="M4294.977,2523.399c0,0,16.786-99.807,58.75-23.484
	c99.037-70.452,147.716,20.549,147.716,20.549S4318.874,2528.178,4294.977,2523.399z"/>
<path id="XMLID_150_" fill="#3C4133" d="M4135.312,2532.39c0,0,8.528-128.628,20.714-153.465
	c-44.224,96.745-32.23,149.565-32.23,149.565L4135.312,2532.39z"/>
<path id="XMLID_149_" fill="#F27199" d="M4114.424,2534.609c0,0-6.229-162.349,3.039-195.217
	c-32.877,127.556-14.926,191.991-14.926,191.991L4114.424,2534.609z"/>
<path id="XMLID_148_" fill="#F27199" d="M4273.999,2540.861c0,0-22.941-98.052-17.996-149.155
	c-25.613,99.71,3.814,147.896,3.814,147.896L4273.999,2540.861z"/>
<path id="XMLID_147_" fill="#3C4133" d="M4343.365,2518.55c0,0,16.992-67.324,23.896-65.304c6.903,2.02,3.717,65.304,3.717,65.304
	H4343.365z"/>
<path id="XMLID_146_" fill="#749383" d="M4398.21,2495.385c0,0-14.488-29.618-9.178-32.698c5.31-3.08,30.798,24.002,30.798,24.002
	L4398.21,2495.385z"/>
<path id="XMLID_145_" fill="#3C4133" d="M4428.857,2516.515c0,0,5.841-71.806,16.461-63.023
	c10.62,8.783,13.275,69.317,13.275,69.317L4428.857,2516.515z"/>
<path id="XMLID_144_" fill="#749383" d="M4464.966,2491.555c0,0,16.992-14.574,21.24-12.641s-7.434,19.15-7.434,19.15
	L4464.966,2491.555z"/>
<path id="XMLID_143_" fill="#749383" d="M4324.78,2488.401c0,0-24.56-37.82-29.803-30.386c-5.243,7.434,14.902,46.729,14.902,46.729
	l17.556-16.342"/>
<path id="XMLID_142_" fill="#749383" d="M6459.753,2249.092c0,0,11.028-65.575,38.6-15.429
	c65.068-46.288,98.933,16.455,98.933,16.455S6475.453,2252.232,6459.753,2249.092z"/>
<path id="XMLID_141_" fill="#3C4133" d="M6566.119,2248.089c0,0,9.071-36.981,4.187-38.842c-4.884-1.861-20.467,39.54-20.467,39.54
	L6566.119,2248.089"/>
<path id="XMLID_140_" fill="#F27199" d="M6622.394,2262.218c0,0,7.085-60.671,3.543-73.292c12.289,48.883,2.159,72.465,2.159,72.465
	L6622.394,2262.218z"/>
<path id="XMLID_139_" fill="#F27199" d="M6553.691,2253.599c0,0-26.872-71.587-31.53-111.917
	c0.262,81.547,23.506,113.482,23.506,113.482L6553.691,2253.599z"/>
<path id="XMLID_138_" fill="#3C4133" d="M6520.416,2225.572c0,0-7.326-12.711-11.513-10.797c-4.187,1.915,1.396,16.367,1.396,16.367
	L6520.416,2225.572z"/>
<path id="XMLID_137_" fill="#3C4133" d="M6455.987,2254.975c0,0-21.547-57.156-30.487-66.744
	c33.352,37.792,35.173,63.393,35.173,63.393L6455.987,2254.975z"/>
<ellipse id="XMLID_136_" opacity="0.39" fill="#989995" cx="4741.559" cy="2336.728" rx="193.593" ry="30.269"/>
<ellipse id="XMLID_135_" opacity="0.79" fill="#989995" cx="2741.03" cy="2637.157" rx="178.555" ry="22.629"/>
<ellipse id="XMLID_132_" opacity="0.79" fill="#989995" cx="3550.309" cy="2632.289" rx="89.277" ry="21.404"/>
<ellipse id="XMLID_130_" opacity="0.79" fill="#989995" cx="3180.559" cy="2648.01" rx="115.658" ry="26.872"/>
<ellipse id="XMLID_129_" opacity="0.39" fill="#989995" cx="2191.564" cy="2481.765" rx="273.83" ry="29.521"/>
<ellipse id="XMLID_127_" opacity="0.39" fill="#989995" cx="3399.073" cy="2376.007" rx="116.974" ry="20.414"/>
<ellipse id="XMLID_124_" opacity="0.39" fill="#989995" cx="3986.156" cy="2344.03" rx="152.961" ry="19.992"/>
<ellipse id="XMLID_121_" opacity="0.39" fill="#989995" cx="6504.113" cy="2251.565" rx="123.589" ry="15.904"/>
<ellipse id="XMLID_120_" opacity="0.39" fill="#989995" cx="6847.855" cy="2372.318" rx="169.673" ry="21.834"/>
<ellipse id="XMLID_119_" opacity="0.77" fill="#989995" cx="7108.531" cy="2698.895" rx="271.41" ry="25.608"/>
<ellipse id="XMLID_118_" opacity="0.77" fill="#989995" cx="8551.854" cy="2609.284" rx="187.737" ry="23.793"/>
<ellipse id="XMLID_117_" opacity="0.77" fill="#989995" cx="9394.107" cy="2605.999" rx="93.868" ry="22.504"/>
<ellipse id="XMLID_116_" opacity="0.77" fill="#989995" cx="9007.85" cy="2597.661" rx="121.606" ry="28.254"/>
<path id="XMLID_115_" fill="#749383" d="M4860.968,2328.69c-15.825-58.08-43.278,6.257-43.278,6.257
	S4857.391,2333.557,4860.968,2328.69z"/>
<path id="XMLID_114_" fill="#749383" d="M4763.302,2341.684c0,0-11.602-68.98-40.604-16.231
	c-68.448-48.692-102.092,14.202-102.092,14.202S4746.786,2344.987,4763.302,2341.684z"/>
<path id="XMLID_112_" fill="#3C4133" d="M4873.652,2347.898c0,0-5.894-88.899-14.316-106.065
	c30.564,66.864,22.275,103.37,22.275,103.37L4873.652,2347.898z"/>
<path id="XMLID_111_" fill="#E78522" d="M4888.089,2349.432c0,0,4.305-112.206-2.101-134.921
	c22.723,88.159,10.316,132.692,10.316,132.692L4888.089,2349.432z"/>
<path id="XMLID_109_" fill="#E16082" d="M4777.801,2353.752c0,0,15.855-67.768,12.438-103.086
	c17.702,68.914-2.636,102.217-2.636,102.217L4777.801,2353.752z"/>
<path id="XMLID_108_" fill="#3C4133" d="M4729.859,2338.332c0,0-11.744-46.53-16.515-45.134c-4.771,1.396-2.569,45.134-2.569,45.134
	H4729.859z"/>
<path id="XMLID_107_" fill="#749383" d="M4691.954,2322.323c0,0,10.013-20.47,6.343-22.599c-3.67-2.128-21.286,16.588-21.286,16.588
	L4691.954,2322.323z"/>
<path id="XMLID_106_" fill="#3C4133" d="M4670.772,2336.926c0,0-4.037-49.628-11.376-43.557c-7.34,6.07-9.175,47.907-9.175,47.907
	L4670.772,2336.926z"/>
<path id="XMLID_105_" fill="#749383" d="M4645.816,2319.676c0,0-11.744-10.073-14.68-8.737c-2.936,1.337,5.138,13.236,5.138,13.236
	L4645.816,2319.676z"/>
<path id="XMLID_104_" fill="#749383" d="M4742.704,2317.496c0,0,16.974-26.139,20.598-21.001
	c3.624,5.138-10.299,32.296-10.299,32.296l-12.134-11.295"/>
<path id="XMLID_103_" fill="#749383" d="M3211.159,2646.551c0,0,74.547-109.264,82.578,4.284L3211.159,2646.551z"/>
<path id="XMLID_102_" fill="#749383" d="M2665.307,2634.939c0,0,21.938-130.44,76.782-30.692
	c129.433-92.075,196.795,32.733,196.795,32.733S2696.538,2641.186,2665.307,2634.939z"/>
<path id="XMLID_101_" fill="#3C4133" d="M2876.889,2632.945c0,0,18.043-73.562,8.328-77.263
	c-9.716-3.701-40.713,78.651-40.713,78.651L2876.889,2632.945"/>
<path id="XMLID_100_" fill="#E78522" d="M3531.879,2625.288c19.565-149.916,100.227,11.111,100.227,11.111
	C3627.75,2639.15,3539.042,2632.711,3531.879,2625.288z"/>
<path id="XMLID_98_" fill="#E78522" d="M3206.939,2632.62c-19.245-112.193-82.596,3.922-82.596,3.922
	S3196.189,2638.726,3206.939,2632.62z"/>
<path id="XMLID_97_" fill="#E16082" d="M2988.829,2661.05c0,0,14.095-120.684,7.047-145.79
	c24.445,97.237,4.294,144.145,4.294,144.145L2988.829,2661.05z"/>
<path id="XMLID_96_" fill="#E16082" d="M3424.181,2658.966c0,0,19.299-211.455,36.851-252.488
	c-64.114,159.77-51.712,246.304-51.712,246.304L3424.181,2658.966z"/>
<path id="XMLID_95_" fill="#749383" d="M3391.567,2649.181c0,0-2.074-144.38-16.238-173.159
	c50.936,111.823,31.552,169.788,31.552,169.788L3391.567,2649.181z"/>
<path id="XMLID_94_" fill="#E16082" d="M2852.167,2643.905c0,0-53.453-142.399-62.72-222.624
	c0.522,162.212,46.758,225.736,46.758,225.736L2852.167,2643.905z"/>
<path id="XMLID_93_" fill="#3C4133" d="M2785.977,2588.155c0,0-14.574-25.285-22.901-21.477c-8.328,3.809,2.776,32.556,2.776,32.556
	L2785.977,2588.155z"/>
<path id="XMLID_92_" fill="#3C4133" d="M2657.815,2646.642c0,0-42.861-113.694-60.643-132.766
	c66.342,75.175,69.965,126.1,69.965,126.1L2657.815,2646.642z"/>
<path id="XMLID_91_" fill="#749383" d="M9023.325,2613.243c0,0,78.381-114.883,86.824,4.504L9023.325,2613.243z"/>
<path id="XMLID_90_" fill="#749383" d="M8449.403,2601.034c0,0,23.065-137.148,80.73-32.27
	c136.088-96.81,206.915,34.416,206.915,34.416S8482.24,2607.601,8449.403,2601.034z"/>
<path id="XMLID_89_" fill="#3C4133" d="M8671.865,2598.937c0,0,18.972-77.345,8.756-81.236s-42.808,82.696-42.808,82.696
	L8671.865,2598.937"/>
<path id="XMLID_88_" fill="#E78522" d="M9360.537,2590.886c20.57-157.625,105.38,11.682,105.38,11.682
	C9461.338,2605.461,9368.068,2598.691,9360.537,2590.886z"/>
<path id="XMLID_87_" fill="#E78522" d="M9018.888,2598.595c-20.234-117.962-86.844,4.123-86.844,4.123
	S9007.584,2605.015,9018.888,2598.595z"/>
<path id="XMLID_86_" fill="#E16082" d="M8789.562,2628.487c0,0,14.819-126.891,7.409-153.288
	c25.702,102.237,4.516,151.558,4.516,151.558L8789.562,2628.487z"/>
<path id="XMLID_85_" fill="#E16082" d="M9247.301,2626.296c0,0,20.291-222.328,38.746-265.472
	c-67.411,167.985-54.371,258.97-54.371,258.97L9247.301,2626.296z"/>
<path id="XMLID_84_" fill="#749383" d="M9213.01,2616.008c0,0-2.181-151.804-17.072-182.064
	c53.555,117.574,33.174,178.519,33.174,178.519L9213.01,2616.008z"/>
<path id="XMLID_83_" fill="#E16082" d="M8645.872,2610.461c0,0-56.202-149.722-65.945-234.073
	c0.549,170.553,49.162,237.344,49.162,237.344L8645.872,2610.461z"/>
<path id="XMLID_82_" fill="#3C4133" d="M8576.278,2551.843c0,0-15.323-26.585-24.079-22.581c-8.756,4.004,2.919,34.23,2.919,34.23
	L8576.278,2551.843z"/>
<path id="XMLID_81_" fill="#3C4133" d="M8441.526,2613.339c0,0-45.064-119.541-63.762-139.594
	c69.753,79.041,73.562,132.584,73.562,132.584L8441.526,2613.339z"/>
<path id="XMLID_80_" fill="#62258A" d="M1692.105,2232.434c0,0,27.652-40.53,30.631,1.589L1692.105,2232.434z"/>
<path id="XMLID_79_" fill="#BD426A" d="M1811.071,2224.547c7.257-55.609,37.177,4.121,37.177,4.121
	C1846.632,2229.688,1813.728,2227.3,1811.071,2224.547z"/>
<path id="XMLID_78_" fill="#BD426A" d="M1690.54,2227.266c-7.139-41.616-30.638,1.455-30.638,1.455
	S1686.552,2229.531,1690.54,2227.266z"/>
<path id="XMLID_77_" fill="#BD426A" d="M1771.122,2237.039c0,0,7.158-78.435,13.669-93.656
	c-23.782,59.264-19.182,91.362-19.182,91.362L1771.122,2237.039z"/>
<path id="XMLID_76_" fill="#62258A" d="M1759.024,2233.409c0,0-0.769-53.555-6.023-64.23c18.894,41.479,11.703,62.98,11.703,62.98
	L1759.024,2233.409z"/>
<path id="XMLID_75_" fill="#62258A" d="M2384.173,2464.157c-25.184-92.43-68.874,9.957-68.874,9.957
	S2378.48,2471.903,2384.173,2464.157z"/>
<path id="XMLID_74_" fill="#62258A" d="M2228.745,2484.837c0,0-18.462-109.777-64.619-25.83
	c-108.929-77.49-162.47,22.601-162.47,22.601S2202.461,2490.093,2228.745,2484.837z"/>
<path id="XMLID_73_" fill="#C66DAF" d="M2404.359,2494.726c0,0-9.38-141.476-22.783-168.794
	c48.641,106.408,35.45,164.505,35.45,164.505L2404.359,2494.726z"/>
<path id="XMLID_72_" fill="#BD426A" d="M2427.333,2497.167c0,0,6.851-178.566-3.343-214.716
	c36.162,140.297,16.417,211.169,16.417,211.169L2427.333,2497.167z"/>
<path id="XMLID_71_" fill="#BD426A" d="M2251.819,2504.042c0,0,25.233-107.847,19.794-164.053
	c28.171,109.67-4.195,162.669-4.195,162.669L2251.819,2504.042z"/>
<path id="XMLID_70_" fill="#C66DAF" d="M2175.523,2479.503c0,0-18.689-74.049-26.282-71.827c-7.593,2.221-4.088,71.827-4.088,71.827
	H2175.523z"/>
<path id="XMLID_69_" fill="#62258A" d="M2115.2,2454.024c0,0,15.936-32.576,10.095-35.964c-5.841-3.387-33.875,26.399-33.875,26.399
	L2115.2,2454.024z"/>
<path id="XMLID_68_" fill="#C66DAF" d="M2081.492,2477.265c0,0-6.425-78.979-18.105-69.318
	c-11.681,9.661-14.601,76.241-14.601,76.241L2081.492,2477.265z"/>
<path id="XMLID_67_" fill="#62258A" d="M2041.777,2449.812c0,0-18.69-16.03-23.362-13.903s8.177,21.063,8.177,21.063
	L2041.777,2449.812z"/>
<path id="XMLID_66_" fill="#62258A" d="M2195.965,2446.343c0,0,27.013-41.598,32.78-33.421c5.767,8.177-16.39,51.396-16.39,51.396
	l-19.31-17.975"/>
<path id="XMLID_65_" fill="#62258A" d="M6995.071,2692.691c0,0,28.289-168.2,99.009-39.577
	c166.901-118.729,253.764,42.208,253.764,42.208S7035.343,2700.745,6995.071,2692.691z"/>
<path id="XMLID_64_" fill="#C66DAF" d="M7267.902,2690.119c0,0,23.267-94.857,10.739-99.63s-52.5,101.419-52.5,101.419
	L7267.902,2690.119"/>
<path id="XMLID_63_" fill="#BD426A" d="M7412.247,2726.36c0,0,18.174-155.621,9.087-187.994
	c31.521,125.385,5.538,185.873,5.538,185.873L7412.247,2726.36z"/>
<path id="XMLID_62_" fill="#BD426A" d="M7236.024,2704.252c0,0-68.927-183.621-80.876-287.07
	c0.673,209.169,60.293,291.083,60.293,291.083L7236.024,2704.252z"/>
<path id="XMLID_61_" fill="#C66DAF" d="M7150.673,2632.363c0,0-18.792-32.605-29.531-27.693c-10.739,4.911,3.58,41.981,3.58,41.981
	L7150.673,2632.363z"/>
<path id="XMLID_60_" fill="#C66DAF" d="M6985.411,2707.782c0,0-55.268-146.607-78.199-171.2
	c85.547,96.937,90.219,162.604,90.219,162.604L6985.411,2707.782z"/>
<path id="XMLID_59_" fill="#62258A" d="M8260.527,2434.092c0,0,27.652-40.529,30.631,1.589L8260.527,2434.092z"/>
<path id="XMLID_58_" fill="#BD426A" d="M8379.492,2426.205c7.258-55.609,37.178,4.121,37.178,4.121
	C8415.054,2431.347,8382.149,2428.958,8379.492,2426.205z"/>
<path id="XMLID_57_" fill="#BD426A" d="M8258.962,2428.924c-7.139-41.616-30.638,1.455-30.638,1.455
	S8254.975,2431.189,8258.962,2428.924z"/>
<path id="XMLID_56_" fill="#BD426A" d="M8339.544,2438.697c0,0,7.158-78.435,13.669-93.656
	c-23.782,59.264-19.182,91.362-19.182,91.362L8339.544,2438.697z"/>
<path id="XMLID_55_" fill="#62258A" d="M8327.446,2435.067c0,0-0.77-53.555-6.022-64.23c18.894,41.479,11.703,62.98,11.703,62.98
	L8327.446,2435.067z"/>
<path id="XMLID_54_" fill="#6F4A37" d="M5989.568,1851.625c0,0,10.72,25.061,20.785,44.124
	c6.207,11.967,12.175,21.676,14.996,21.676c1.01,0,3.059,1.129,5.76,3.267c3.712,2.702,8.7,7.007,14.342,12.204
	c5.286,4.84,11.046,10.482,16.807,16.124c3.741,3.741,7.334,7.453,10.72,10.957c6.889,7.126,12.857,13.54,16.598,17.727
	c1.931,2.376,3.267,3.95,3.504,4.632c0.683,1.455,3.593,9.799,7.542,20.429c2.495,7.097,5.553,15.352,8.701,23.34
	c4.187,10.749,8.344,21.231,11.729,28.357c2.049,4.513,3.86,7.661,4.988,8.789c1.901,1.93,7.661,11.729,14.876,24.497
	c3.979,7.097,8.374,15.114,12.887,23.25c5.078,9.472,10.274,19.182,14.788,27.645c2.583,4.959,5.078,9.591,7.097,13.422
	c4.187,7.809,6.77,12.768,6.77,12.768h94.04c0,0-22.478-11.848-41.898-22.122h-0.089c-13.452-7.008-25.181-13.333-26.665-14.55
	c-0.326-0.237-1.128-1.366-2.257-2.94c-2.257-3.504-6.087-9.71-10.482-17.281c-5.642-9.354-12.293-20.874-18.736-32.039
	c-6.325-10.957-12.293-21.557-16.599-29.248c-3.95-7.097-6.533-11.61-6.533-11.61s8.908-9.591,19.301-21.558
	c6.325-7.245,13.184-15.233,18.945-22.478c8.254-10.274,14.46-18.945,14.46-21.766c0-0.801,0.119-2.375,0.327-4.632
	c0.92-8.017,2.939-24.497,5.315-42.67c0.683-5.315,1.366-10.838,2.019-16.361c0.476-3.266,0.802-6.562,1.248-9.829
	c3.059-25.625,5.523-48.638,4.306-50.657c-2.821-4.751-25.418-16.035-25.418-16.035s-0.238,6.592-0.802,16.866
	c-0.683,12.204-1.812,29.575-3.593,47.243c-0.238,2.583-0.445,5.196-0.802,7.779c-0.564,5.434-1.128,10.957-1.9,16.153
	c-1.574,12.174-3.504,23.25-5.761,31.713c-1.009,3.593-2.019,6.651-3.147,9.146c-1.692,3.712-3.741,7.335-5.998,10.719
	c-4.959,7.898-10.958,14.995-16.361,20.875c-9.473,10.036-17.608,16.361-17.608,16.361s-0.684-1.693-1.812-4.395
	c-4.068-9.591-13.748-31.95-17.49-34.207c-0.119,0-0.119-0.119-0.237-0.208c-3.474-2.256-13.066-15.143-19.183-24.289
	c-2.583-3.831-4.513-7.097-5.077-8.463c-0.208-0.445-0.119-2.256,0.237-5.077c0.772-5.315,2.465-14.431,4.632-25.18
	c2.019-9.918,4.395-21.201,6.771-32.366c1.574-7.246,3.147-14.461,4.632-20.994v-0.119c1.217-5.998,2.464-11.284,3.474-16.034
	c2.375-10.155,3.86-16.807,3.86-16.807h-30.139l-4.305,11.61l-4.841,13.451l-2.494,6.651l-2.702,16.48l-3.622,20.993l-2.702,16.361
	l-3.504-2.94l-14.55-12.085l-10.155-8.463l-0.238-0.564h-0.088l-25.062-53.953l-11.105,12.382L5989.568,1851.625"/>
<path id="XMLID_53_" fill="#D3C9B7" d="M6168.59,2138.642c-0.003,0.001-0.005,0.003-0.009,0.004
	c2.596,4.969,5.082,9.595,7.112,13.433c0,0,0,0,0.001,0c-0.003-0.005-0.005-0.009-0.007-0.014
	c-2.019-3.831-4.513-8.463-7.097-13.422C6168.591,2138.643,6168.591,2138.642,6168.59,2138.642 M6205.603,2125.216
	c-0.005,0.001-0.01,0.002-0.015,0.003c0.001,0.001,0.001,0.002,0.002,0.003c1.128,1.574,1.931,2.702,2.257,2.94
	c0.437,0.358,1.76,1.158,3.752,2.288c-1.988-1.131-3.308-1.935-3.739-2.299C6207.523,2127.924,6206.732,2126.794,6205.603,2125.216"
	/>
<path id="XMLID_52_" fill="#7C573F" d="M6205.587,2125.218c0.001,0.001,0.001,0.002,0.002,0.003c1.128,1.574,1.931,2.702,2.257,2.94
	c0.437,0.358,1.76,1.158,3.752,2.288c4.777,2.716,13.416,7.32,22.898,12.261c-13.431,0.562-41.198,2.37-58.803,9.369
	c-0.001-0.005-0.003-0.01-0.006-0.014c-2.019-3.831-4.513-8.463-7.097-13.422c0,0,0-0.001-0.001-0.002
	C6177.279,2134.355,6192.053,2127.815,6205.587,2125.218"/>
<path id="XMLID_51_" fill="#D3C9B7" d="M6143.258,2091.942c3.321,6,6.893,12.49,10.538,19.052c0.001-0.001,0.003-0.002,0.004-0.003
	C6150.156,2104.423,6146.59,2097.933,6143.258,2091.942 M6176.369,2075.894l-0.002,0c0.001,0.002,0.002,0.005,0.004,0.007
	c0.366,0.634,0.732,1.269,1.099,1.905C6177.103,2077.167,6176.735,2076.53,6176.369,2075.894"/>
<path id="XMLID_50_" fill="#7C573F" d="M6176.367,2075.894c0.001,0.002,0.002,0.005,0.004,0.007
	c0.366,0.634,0.732,1.269,1.099,1.905c6.088,10.564,12.314,21.306,17.636,30.141c-6.743-2.037-13.587-3.136-19.947-3.136
	c-8.437,0-16.017,1.934-21.359,6.18c-3.644-6.568-7.209-13.058-10.542-19.049c-0.791-1.429-1.568-2.831-2.328-4.199
	C6149.507,2083.116,6163.164,2077.135,6176.367,2075.894"/>
<path id="XMLID_49_" fill="#D3C9B7" d="M6153.697,2035.844c0.907,1.593,3.104,5.47,6.076,10.808
	c0.001,0.002,0.003,0.005,0.004,0.008h0.001C6156.812,2041.318,6154.609,2037.443,6153.697,2035.844 M6109.327,2026.118
	L6109.327,2026.118c0.64,1.643,1.281,3.282,1.918,4.903C6110.608,2029.4,6109.968,2027.761,6109.327,2026.118"/>
<path id="XMLID_48_" fill="#7C573F" d="M6121.523,2025.319c10.865,0,23.117,2.087,31.71,9.715c0,0,0.161,0.28,0.463,0.809
	c0.907,1.593,3.104,5.47,6.076,10.808c0.001,0.002,0.003,0.005,0.004,0.008c-2.25-0.195-4.936-0.355-7.906-0.355
	c-9.098,0-20.852,1.505-30.806,8.142c-2.867-6.022-6.299-14.47-9.82-23.427c-0.636-1.62-1.276-3.259-1.917-4.903
	C6112.941,2025.662,6117.117,2025.319,6121.523,2025.319"/>
<path id="XMLID_47_" fill="#D3C9B7" d="M6093.006,1982.162c0.029,0.06,0.052,0.115,0.068,0.165c0.316,0.682,1.121,2.858,2.289,6.058
	c-1.164-3.2-1.965-5.371-2.283-6.048C6093.062,1982.283,6093.037,1982.225,6093.006,1982.162 M6126.863,1981.192
	c3.468,7.182,7.012,15.415,9.092,20.319c0.003,0.001,0.006,0.002,0.009,0.003C6133.887,1996.61,6130.336,1988.374,6126.863,1981.192
	 M6118.208,1967.088c0.008,0.005,0.016,0.01,0.023,0.015c0.084,0.064,0.109,0.143,0.159,0.183c-0.045-0.041-0.069-0.119-0.147-0.197
	C6118.231,1967.088,6118.22,1967.088,6118.208,1967.088"/>
<path id="XMLID_46_" fill="#7C573F" d="M6117.658,1967.082c0.183,0,0.368,0.002,0.55,0.006c0.008,0.005,0.016,0.01,0.023,0.015
	c0.084,0.064,0.109,0.143,0.159,0.183c0.02,0.018,0.044,0.029,0.079,0.029c1.821,1.103,5.071,7.008,8.394,13.877
	c3.468,7.182,7.012,15.415,9.092,20.319c-3.714-1.151-10.682-2.917-18.222-2.917c-5.766,0-11.866,1.033-17.097,4.162
	c-2.11-5.672-3.931-10.697-5.272-14.372c-1.164-3.2-1.965-5.371-2.283-6.048c-0.019-0.053-0.043-0.111-0.075-0.174
	c-0.361-0.751-1.655-2.27-3.431-4.464C6097.43,1972.498,6107.994,1967.081,6117.658,1967.082"/>
<path id="XMLID_45_" fill="#D3C9B7" d="M6062.265,1949.026c-0.001,0.001-0.002,0.001-0.003,0.002
	c2.879,2.879,5.688,5.757,8.379,8.532C6067.956,1954.788,6065.154,1951.916,6062.265,1949.026 M6098.294,1941.683
	c0.245,0.371,0.497,0.748,0.755,1.131c0.002,0.003,0.004,0.006,0.007,0.01c0,0,0,0,0.001,0
	C6098.795,1942.437,6098.541,1942.056,6098.294,1941.683 M6093.886,1933.966c0.019,0.173,0.047,0.303,0.085,0.385
	c0.371,0.899,1.334,2.622,2.686,4.786c-1.351-2.167-2.309-3.888-2.679-4.778C6093.936,1934.274,6093.906,1934.142,6093.886,1933.966
	 M6094.107,1930.117c-0.148,1.289-0.231,2.323-0.244,3.058C6093.877,1932.439,6093.963,1931.406,6094.107,1930.117"/>
<path id="XMLID_44_" fill="#7C573F" d="M6094.204,1929.277c-0.035,0.291-0.067,0.571-0.097,0.84
	c-0.148,1.289-0.231,2.323-0.244,3.058c-0.006,0.322,0.001,0.587,0.023,0.791c0.019,0.173,0.047,0.303,0.085,0.385
	c0.371,0.899,1.334,2.622,2.686,4.786c0.496,0.795,1.044,1.65,1.637,2.546c0.245,0.371,0.497,0.748,0.755,1.131
	c0.002,0.003,0.004,0.006,0.007,0.01c-8.014,2.37-20.429,7.449-26.072,17.156c-0.77-0.796-1.551-1.603-2.343-2.419
	c-2.686-2.772-5.487-5.644-8.376-8.534C6071.182,1941.692,6084.159,1932.214,6094.204,1929.277"/>
<path id="XMLID_43_" fill="#D3C9B7" d="M6213.825,1904.005c-0.069,0.523-0.142,1.046-0.217,1.567
	c0.002,0.001,0.005,0.003,0.008,0.004C6213.688,1905.053,6213.757,1904.529,6213.825,1904.005 M6214.854,1895.753
	c-0.111,0.815-0.215,1.631-0.315,2.448c0.102-0.815,0.207-1.63,0.32-2.445C6214.857,1895.755,6214.855,1895.754,6214.854,1895.753"
	/>
<path id="XMLID_42_" fill="#7C573F" d="M6200.634,1891.539c5.007,0,10.039,1.112,14.22,4.213c-0.111,0.815-0.215,1.631-0.315,2.448
	c-0.242,1.935-0.464,3.869-0.714,5.804c-0.069,0.523-0.142,1.046-0.217,1.567c-4.812-2.495-11.734-5.271-19.101-5.27
	c-1.961,0-3.954,0.197-5.947,0.648c0.339-2.595,0.565-5.194,0.791-7.79C6192.817,1892.22,6196.718,1891.539,6200.634,1891.539"/>
<path id="XMLID_41_" fill="#D3C9B7" d="M6206.918,1959.112c-0.251,2.107-0.468,3.952-0.645,5.486
	c0.002,0.003,0.004,0.005,0.007,0.008C6206.453,1963.07,6206.667,1961.222,6206.918,1959.112 M6186.646,1917.089
	c-0.001,0-0.003,0-0.005,0.001c-1.582,12.188-3.5,23.248-5.756,31.714l0.001,0c2.256-8.462,4.185-19.534,5.758-31.704
	C6186.646,1917.096,6186.646,1917.092,6186.646,1917.089"/>
<path id="XMLID_40_" fill="#7C573F" d="M6194.069,1916.619c6.583,0,13.282,1.252,17.516,5.323
	c-1.915,14.687-3.611,28.27-4.667,37.17c-0.251,2.107-0.468,3.952-0.645,5.486c-5.531-6.32-15.009-14.891-25.387-15.795
	c2.256-8.462,4.185-19.534,5.758-31.704c0-0.003,0.001-0.007,0.001-0.01C6189.004,1916.806,6191.527,1916.619,6194.069,1916.619"/>
<path id="XMLID_39_" fill="#D3C9B7" d="M6191.489,1991.001c-0.001,0.002-0.002,0.003-0.004,0.005
	c-3.322,4.177-7.009,8.602-10.748,12.989c3.744-4.386,7.438-8.814,10.757-12.978
	C6191.493,1991.012,6191.491,1991.007,6191.489,1991.001 M6156.116,1988.745c-0.247,0.271-0.494,0.539-0.739,0.804
	c0.001,0,0.001,0,0.002,0.001C6155.624,1989.284,6155.869,1989.016,6156.116,1988.745 M6171.742,1968.67
	c-1.498,2.383-3.088,4.694-4.728,6.922c1.64-2.224,3.229-4.534,4.725-6.915C6171.74,1968.675,6171.742,1968.673,6171.742,1968.67
	C6171.743,1968.671,6171.743,1968.671,6171.742,1968.67"/>
<path id="XMLID_38_" fill="#7C573F" d="M6171.743,1968.671c7.669,5.188,17.257,13.195,19.746,22.33
	c-0.001,0.002-0.002,0.003-0.004,0.005c-3.322,4.177-7.009,8.602-10.748,12.989c-2.75,3.222-5.527,6.421-8.204,9.48
	c-2.596-9.479-7.561-19.974-17.154-23.925c0.245-0.266,0.49-0.534,0.737-0.805c3.569-3.906,7.349-8.332,10.898-13.153
	c1.64-2.224,3.229-4.534,4.725-6.915C6171.74,1968.675,6171.742,1968.673,6171.743,1968.671"/>
<polyline id="XMLID_37_" fill="#D3C9B7" points="6073.097,1865.96 6073.096,1865.967 6072.912,1867.036 6073.097,1865.96 
	6073.097,1865.96 "/>
<path id="XMLID_36_" fill="#7C573F" d="M6082.788,1865.39c8.159,0,17.493,1.32,22.813,6.327c-2.37,11.174-4.74,22.46-6.77,32.391
	c-7.64-7.64-19.178-17.227-28.062-17.226c-0.435,0-0.864,0.023-1.285,0.07l3.427-19.916l0.185-1.069l0.001-0.006
	C6075.797,1865.648,6079.178,1865.39,6082.788,1865.39"/>
<path id="XMLID_35_" fill="#D3C9B7" d="M6080.28,1837.314l-1.992,5.508c0.004-0.001,0.007-0.002,0.01-0.003L6080.28,1837.314
	 M6113.719,1834.576c0,0.002,0,0.003-0.001,0.005c-0.751,3.535-1.634,7.365-2.538,11.565c0.912-4.198,1.794-8.037,2.55-11.563
	C6113.726,1834.58,6113.723,1834.578,6113.719,1834.576"/>
<path id="XMLID_34_" fill="#7C573F" d="M6087.139,1829.318c8.781,0,19.861,1.078,26.58,5.258c0,0.002,0,0.003-0.001,0.005
	c-0.751,3.535-1.634,7.365-2.538,11.565c-0.314,1.445-0.631,2.932-0.949,4.463c-6.748-3.829-16.958-8.691-25.87-8.691
	c-2.115,0-4.157,0.274-6.062,0.9l1.981-5.505l2.864-7.922C6084.399,1829.345,6085.74,1829.318,6087.139,1829.318"/>
<path id="XMLID_33_" fill="#D3C9B7" d="M6031.113,1920.695c-0.001,0.002-0.002,0.005-0.003,0.007
	c3.726,2.706,8.691,6.996,14.334,12.188v0C6039.808,1927.698,6034.823,1923.396,6031.113,1920.695 M6060.478,1898.064l2.791,2.318
	l0.006,0.005c0-0.001,0.001-0.001,0.001-0.001L6060.478,1898.064"/>
<path id="XMLID_32_" fill="#7C573F" d="M6048.719,1888.308l11.759,9.756l2.791,2.318l0.006,0.005
	c-5.529,4.854-18.056,17.606-17.83,32.503c-5.637-5.192-10.622-9.494-14.332-12.195
	C6035.289,1910.76,6042.851,1894.514,6048.719,1888.308"/>
<path id="XMLID_31_" fill="#D3C9B7" d="M6002.697,1880.475c2.466,5.139,5.078,10.405,7.645,15.281
	c0.002-0.004,0.006-0.008,0.009-0.012C6007.779,1890.873,6005.165,1885.612,6002.697,1880.475 M6013.164,1825.327l-12.781,14.251
	l1.687-1.879L6013.164,1825.327L6013.164,1825.327"/>
<path id="XMLID_30_" fill="#7C573F" d="M6013.164,1825.327l25.059,53.951c-4.74,1.355-20.082,6.543-27.872,16.467
	c-2.572-4.872-5.186-10.132-7.654-15.269c-7.18-14.965-13.121-28.849-13.121-28.849l10.806-12.048l1.687-1.879L6013.164,1825.327"/>
<g id="XMLID_27_">
	<path id="XMLID_29_" fill="#749383" d="M5922.87,1821.998c21.56,37.586,61.063,44.243,89.28,18.848
		c54.625,15.916,62.978-15.687,62.978-15.687s6.66,16.591,38.603,2.483c-3.952,33.408,32.392,41.986,58.577,37.021
		c4.74-1.017,9.143-2.37,12.979-4.064c2.282,5.566,5.329,10.43,8.895,14.416c3.041,3.397,7.529-0.814,14.583-21.272
		c0,17.988,3.038,32.709,6.985,33.111c9.918,1.011,20.314-3.397,28.793-14.969c13.094,36.456,55.646,25.169,58.241,12.191
		c0,0,85.664-2.822,47.064-81.828c30.135-62.981-41.421-78.103-41.421-78.103c22.574-37.586-97.744-60.159-97.744-60.159
		c0.678-37.134-14.445-65.35-32.73-82.281c-27.426-25.734-62.077-26.073-60.385,6.095c-47.065-31.038-75.282-13.204-79.007,35.778
		c-50.338-41.082-30.473,16.252-29.344,19.639c-50.677-27.087-67.607,30.137-67.607,30.137
		c-42.325-31.942-46.955,68.734-46.955,68.734C5859.779,1769.29,5855.15,1821.094,5922.87,1821.998z"/>
	<path id="XMLID_28_" fill="#91A89B" d="M5922.87,1821.998c21.56,37.586,61.063,44.243,89.28,18.848
		c54.625,15.916,62.978-15.687,62.978-15.687s6.66,16.591,38.603,2.483c-3.952,33.408,32.392,41.986,58.577,37.021
		c9.03-19.752-16.591-43.904-48.194-41.986c26.751-11.965,26.751-74.719-16.93-35.894c10.609-26.861-26.75-32.504-54.967-24.039
		c0,0,13.32-27.539-12.075-36.004c0,0,81.15-14.786,50.112-41.537c19.074,6.999,64.898-12.753,64.221-43.113
		c43.681-1.582,31.038-42.664,23.477-60.385c-27.426-25.734-62.077-26.073-60.385,6.095c-47.065-31.038-75.282-13.204-79.007,35.778
		c-50.338-41.082-30.473,16.252-29.344,19.639c-50.677-27.087-67.607,30.137-67.607,30.137
		c-42.325-31.942-46.955,68.734-46.955,68.734C5859.779,1769.29,5855.15,1821.094,5922.87,1821.998z"/>
</g>
<path id="XMLID_26_" fill="#6C8C7C" d="M3932.344,2338.033c-7.096,0-110.663-13.938-3.886-16.642
	c-68.932-57.443-0.676-62.174,25.005-12.165c-27.708-79.745,25.005-144.622,56.768-66.229c-1.352-108.804,104.074-212.202,60.822,0
	c91.909-139.215,83.124-2.703,35.817,19.598c87.854-12.84,5.407,61.498,5.407,61.498c60.146-31.087,68.932-23.653,38.521-0.676
	c45.279-12.165,60.146,7.096-4.055,13.178C4082.541,2342.679,3934.371,2338.033,3932.344,2338.033z"/>
<path id="XMLID_25_" opacity="0.78" fill="#94B2A4" d="M3998.139,2308.473c0,0-19.582-39.804,3.072-39.51
	s32.019,35.496,32.019,35.496s-8.034-116.179,14.782-108.281s3.441,95.136,3.441,95.136s25.593-46.571,33.963-32.087
	c8.37,14.484-19.671,34.668-19.671,34.668s33.885-18.1,42.549-7.464c8.664,10.636-13.417,35.94-13.417,35.94
	S4016.171,2343.891,3998.139,2308.473z"/>
<path id="XMLID_24_" fill="#855E90" d="M3490.335,2374.465c0,0,28.466-56.414-21.737-11.127c8.281-45.804-0.259-39.593-10.61-14.233
	c-23.29-77.375-25.888-47.464-38.31-27.797c-23.118-68.318-33.114-30.688-33.114-30.688c-37.523-66.765-91.866-77.634-19.15,3.882
	c-57.966-67.024-165.101-109.463,12.767,49.427c-53.654-22.772-42.785-13.974-7.073,14.492
	c-35.711-18.115-53.826-15.009-24.325,2.07c-28.983-12.939-33.124-2.07-10.351,7.763
	C3365.345,2378.088,3484.901,2376.535,3490.335,2374.465z"/>
<path id="XMLID_23_" fill="#E78522" d="M6759.571,2365.711c0,0-53.107-85.349,10.125-28.31c-10.43-57.691,4.542-67.515,17.58-35.573
	c29.334-97.455,36.862-39.662,34.269-5.21c29.117-86.047,38.901-7.531,38.901-7.531c47.261-84.092,127.896-95.139,36.308,7.531
	c73.01-84.417,240.885-167.577,16.857,32.548c67.578-28.682,88.187-27.953,43.208,7.9c44.979-22.816,71.026-7.248,33.869,14.264
	c36.505-16.297,47.74,3.938,19.058,16.324C6975.847,2380.039,6766.416,2368.319,6759.571,2365.711z"/>
<path id="XMLID_22_" fill="#AAAAAA" d="M1468.471,2143.383c0,0-186.006,48.041-362.183,75.618
	c-268.234,41.987-567.203,44.065-567.203,44.065s258.993-22.817,345.062-32.891c98.098-11.481,182.36-26.376,311.053-43.483
	C1453.565,2152.348,1468.471,2143.383,1468.471,2143.383"/>
<ellipse id="XMLID_21_" opacity="0.79" fill="#989995" cx="554.413" cy="2583.135" rx="91.805" ry="24.021"/>
<ellipse id="XMLID_19_" opacity="0.79" fill="#989995" cx="174.194" cy="2600.778" rx="118.932" ry="30.158"/>
<path id="XMLID_18_" fill="#749383" d="M199.498,2603.625c0,0,83.436-122.292,92.425,4.795L199.498,2603.625z"/>
<path id="XMLID_17_" fill="#CA3E70" d="M558.46,2579.826c21.898-167.792,112.178,12.436,112.178,12.436
	C665.763,2595.342,566.478,2588.134,558.46,2579.826z"/>
<path id="XMLID_15_" fill="#CA3E70" d="M194.775,2588.032c-21.54-125.571-92.445,4.389-92.445,4.389
	S182.742,2594.867,194.775,2588.032z"/>
<path id="XMLID_14_" fill="#F27199" d="M437.921,2617.52c0,0,21.6-236.668,41.245-282.595
	c-71.759,178.821-57.878,275.673-57.878,275.673L437.921,2617.52z"/>
<path id="XMLID_13_" fill="#749383" d="M401.418,2606.568c0,0-2.321-161.596-18.174-193.807
	c57.009,125.157,35.314,190.034,35.314,190.034L401.418,2606.568z"/>
<ellipse id="XMLID_12_" opacity="0.39" fill="#989995" cx="965.209" cy="2327.946" rx="193.593" ry="30.269"/>
<path id="XMLID_11_" fill="#749383" d="M1084.618,2319.907c-15.825-58.08-43.278,6.257-43.278,6.257
	S1081.041,2324.774,1084.618,2319.907z"/>
<path id="XMLID_10_" fill="#749383" d="M986.952,2332.901c0,0-11.601-68.98-40.605-16.231
	c-68.448-48.692-102.091,14.202-102.091,14.202S970.436,2336.205,986.952,2332.901z"/>
<path id="XMLID_9_" fill="#3C4133" d="M1097.303,2339.116c0,0-5.894-88.899-14.316-106.065
	c30.565,66.864,22.276,103.37,22.276,103.37L1097.303,2339.116z"/>
<path id="XMLID_8_" fill="#E78522" d="M1111.739,2340.649c0,0,4.305-112.206-2.1-134.921
	c22.723,88.158,10.316,132.692,10.316,132.692L1111.739,2340.649z"/>
<path id="XMLID_7_" fill="#E16082" d="M1001.451,2344.97c0,0,15.856-67.767,12.438-103.086
	c17.702,68.913-2.636,102.217-2.636,102.217L1001.451,2344.97z"/>
<path id="XMLID_6_" fill="#3C4133" d="M953.509,2329.55c0,0-11.744-46.53-16.515-45.134c-4.771,1.396-2.569,45.134-2.569,45.134
	H953.509z"/>
<path id="XMLID_5_" fill="#749383" d="M915.604,2313.54c0,0,10.013-20.47,6.343-22.598c-3.67-2.129-21.286,16.588-21.286,16.588
	L915.604,2313.54z"/>
<path id="XMLID_4_" fill="#3C4133" d="M894.423,2328.144c0,0-4.037-49.628-11.377-43.558c-7.34,6.07-9.175,47.907-9.175,47.907
	L894.423,2328.144z"/>
<path id="XMLID_3_" fill="#749383" d="M869.467,2310.893c0,0-11.744-10.073-14.68-8.736c-2.936,1.336,5.138,13.235,5.138,13.235
	L869.467,2310.893z"/>
<path id="XMLID_2_" fill="#749383" d="M966.354,2308.713c0,0,16.974-26.139,20.598-21.001s-10.299,32.296-10.299,32.296
	l-12.134-11.295"/>
<path id="XMLID_1_" fill="#9A989B" d="M366.851,2251.36c0,0-167.298-9.225-284.017-32.359
	c-28.093-5.568-387.551-39.964-387.551-39.964s175.773-7.058,222.134-5.166c50.626,2.066,110.899,12.825,184.914,29.354
	C253.888,2237.07,366.851,2251.36,366.851,2251.36z"/>
</svg>
