<?xml version="1.0" encoding="utf-8"?>
<!-- Generator: Adobe Illustrator 19.0.0, SVG Export Plug-In . SVG Version: 6.00 Build 0)  -->
<!DOCTYPE svg PUBLIC "-//W3C//DTD SVG 1.1//EN" "http://www.w3.org/Graphics/SVG/1.1/DTD/svg11.dtd">
<svg version="1.1" xmlns="http://www.w3.org/2000/svg" xmlns:xlink="http://www.w3.org/1999/xlink" x="0px" y="0px"
	 viewBox="0 0 9870.104 2778.383" enable-background="new 0 0 9870.104 2778.383" xml:space="preserve">
<g id="pebble">
	<path id="XMLID_1358_" fill="#635964" d="M4581.331,2121.101c16.64-0.942,54.317-1.126,62.46,2.126
		c8.144,3.251,39.82,11.26,52.709,17.662c5.677,2.82,17.182,5.128,28.278,6.829c-0.669-3.116-1.745-6.167-1.745-6.167
		s0.138-0.167,0.339-0.466c-1.762-0.998-3.29-1.869-4.435-2.533c-7.843-4.551-11.74-5.452-21.333-8.354s-24.435-0.86-29.079-7.408
		s-9.041-8.249-17.334-10.851c-8.293-2.602-26.436,4.835-33.081,3.983c-6.646-0.852-3.142-13.043-9.037-17.143
		c-5.895-4.1-47.07-0.62-51.917-0.373c-0.666,0.034-2.476-0.3-5.096-0.9c-3.021,3.205-5.526,8.069-7.555,13.089
		C4560.2,2116.698,4574.782,2121.471,4581.331,2121.101z"/>
	<path id="XMLID_1417_" fill="#635964" d="M4731.422,2167.432c-0.241-1.667-0.62-3.089-1.083-4.325
		c-1.063-2.904-2.566-4.791-3.692-6.314c-6.74-1.035-13.532-2.246-20.06-3.622c-11.59-2.433-22.381-5.391-30.726-8.85
		c-5.369-2.216-14.32-4.122-23.725-5.66c-16.854-2.748-35.169-4.283-36.93-4.26c-2.124,0.043-23.082,1.858-38.808-0.044
		c-4.602-0.561-8.761-1.441-11.86-2.773c-5.945-2.565-15.094-6.898-23.54-10.986c-1.122,3.61-1.961,6.659-2.542,8.373
		c-1.964,5.786-8.249,17.964-10.627,23.408c7.831,3.956,16.136,7.098,24.458,8.529c20.154,3.48,45.623,4.75,67.145,6.709
		l-0.096-0.782c0,0,12.249-2.638,34.436-0.936c22.185,1.712,37.773,5.317,39.915,7.865c2.15,2.55-24.331,4.638-24.331,4.638
		l-0.001,0.492c18.28,6.392,40.824,12.365,49.208,11.573c2.541-0.244,6.55-2.314,11.164-5.311
		C4731.025,2177.358,4731.852,2170.498,4731.422,2167.432z M4677.702,2165.962c0,0-34.775-9.406-42.771-13.308
		c-7.987-3.9-24.625-2.964-37.571-3.217c-12.15-0.233-20.947-4.536-21.984-5.063c3.851,1.322,24.202,0.269,35.042-0.848
		c5.475,0.383,12.325,0.808,18.563,1.172c9.896,2.566,22.244,7.001,28.138,9.657c9.292,4.201,42.718,10.565,42.718,10.565
		L4677.702,2165.962z"/>
	<path id="XMLID_1375_" fill="#716872" d="M4538.455,2128.977c0.58-1.712,1.422-4.764,2.544-8.375
		c-5.19-2.51-10.104-4.92-13.861-6.772c-2.113,5.808-3.465,11.901-4.324,17.689c-0.642,4.325-3.83,9.137-6.992,14.003
		c3.821,2.426,7.845,4.755,12.005,6.856C4530.208,2146.942,4536.493,2134.763,4538.455,2128.977z"/>
	<path id="XMLID_1377_" fill="#716872" d="M4552.061,2097.504c-3.194-0.731-7.597-1.858-12.622-3.2
		c-3.39,3.117-6.153,6.818-8.396,10.861c4.472,1.859,9.011,3.697,13.462,5.428
		C4546.535,2105.573,4549.039,2100.709,4552.061,2097.504z"/>
	<path id="XMLID_1412_" fill="#454149" d="M4718.565,2190.468c-8.386,0.795-30.931-5.181-49.212-11.571l0.084,31.687
		c10.56,5.53,39.95-0.073,56.955-7.717c1.154-5.635,2.372-11.926,3.333-17.706
		C4725.112,2188.156,4721.105,2190.227,4718.565,2190.468z"/>
	<path id="XMLID_1414_" fill="#454149" d="M4552.282,2160.913c-8.315-1.433-16.623-4.578-24.456-8.535
		c-0.23,0.525-0.426,0.991-0.576,1.378c-0.703,1.817-2.638,10.479-4.666,20.016c5.877,1.899,13.985,3.446,24.993,4.528
		c30.244,2.972,55.157,8.353,74.698,14.035l-2.848-24.719C4597.903,2165.663,4572.441,2164.388,4552.282,2160.913z"/>
	<path id="XMLID_1419_" fill="#524F56" d="M4527.25,2153.757c0.15-0.387,0.346-0.853,0.576-1.378
		c-4.16-2.101-8.184-4.431-12.005-6.856c-6.941,10.683-13.742,21.624,6.763,28.25
		C4524.613,2164.235,4526.548,2155.573,4527.25,2153.757z"/>
	<path id="XMLID_1427_" fill="#766E77" d="M4646.003,2092.947l-14.484-14.298l-8.947,6.142l-14.237-9.45
		c0,0-2.458-0.566-5.246-0.922c-11.431,4.832-36.345,16.209-46.331,19.788c-1.689,0.605-3.252,1.764-4.698,3.298
		c2.62,0.6,4.43,0.934,5.096,0.9c4.847-0.248,46.023-3.728,51.917,0.373c5.895,4.1,2.391,16.291,9.037,17.143
		c6.646,0.853,24.788-6.585,33.081-3.983c8.294,2.602,12.69,4.303,17.334,10.851s19.486,4.506,29.079,7.408
		s13.49,3.803,21.333,8.354c1.145,0.664,2.673,1.536,4.435,2.533c1.091-1.625,4.04-7.158-3.132-11.128
		c-8.492-4.701-10.137-15.345-10.137-15.345c-12.854-5.117-24.164-10.877-33.901-16.64l-8.116,0.082L4646.003,2092.947z"/>
	<path id="XMLID_1432_" fill="#7E787F" d="M4552.061,2097.504c1.446-1.534,3.009-2.692,4.698-3.298
		c9.986-3.578,34.9-14.956,46.331-19.788c-2.576-0.33-5.432-0.48-6.896,0.167c-3.049,1.348-34.534,13.227-41.281,15.772
		c-2.983,1.126-6.815,0.716-10.163-0.09c-1.922,1.193-3.688,2.547-5.309,4.037
		C4544.464,2095.647,4548.867,2096.774,4552.061,2097.504z"/>
	<path id="XMLID_1437_" fill="#3C383F" d="M4604.587,2073.79c-0.466,0.193-0.973,0.406-1.499,0.629
		c2.787,0.356,5.246,0.922,5.246,0.922l14.237,9.45l8.947-6.142l14.484,14.298l22.084,5.106l8.116-0.082
		c-24.438-14.463-38.937-28.937-42.829-33.262c0,0-3.108-6.746-9.926-8.581C4618.485,2062.544,4610.974,2071.143,4604.587,2073.79z"
		/>
	<path id="XMLID_1436_" fill="#8B858C" d="M4604.587,2073.79c-0.466,0.193-0.973,0.406-1.499,0.629
		c2.787,0.356,5.246,0.922,5.246,0.922l14.237,9.45l8.947-6.142l14.484,14.298l22.084,5.106l8.116-0.082
		c-24.438-14.463-38.937-28.937-42.829-33.262c0,0-3.108-6.746-9.926-8.581C4618.485,2062.544,4610.974,2071.143,4604.587,2073.79z"
		/>
	<path id="XMLID_1444_" fill="#A29FA3" d="M4554.911,2090.358c6.747-2.545,38.232-14.424,41.281-15.772
		c1.464-0.647,4.32-0.497,6.896-0.167c0.525-0.222,1.033-0.436,1.499-0.629c6.387-2.647,13.897-11.246,18.86-17.663
		c-3.95-1.063-9.142-0.483-15.706,4.023c-17.894,12.284-42.333,20.319-59.175,28.056c-1.339,0.616-2.606,1.31-3.818,2.061
		C4548.096,2091.074,4551.928,2091.484,4554.911,2090.358z"/>
	<path id="XMLID_1449_" fill="#5A515B" d="M4730.343,2163.108c0.458,1.243,0.84,2.665,1.074,4.329
		c0.431,3.061-0.397,9.927-1.693,17.724c4.426-2.875,9.408-6.601,14.192-10.39c0.358-3.353,0.508-6.933,0.366-10.629
		C4739.705,2163.896,4734.677,2163.558,4730.343,2163.108z"/>
	<path id="XMLID_1451_" fill="#3C383F" d="M4724.778,2147.718c4.841,0.742,9.601,1.367,13.769,1.87
		c-5.206-2.9-10.898-6.083-15.174-8.504c-0.201,0.299-0.339,0.466-0.339,0.466S4724.109,2144.601,4724.778,2147.718z"/>
	<path id="XMLID_1450_" fill="#5A515B" d="M4724.778,2147.718c4.841,0.742,9.601,1.367,13.769,1.87
		c-5.206-2.9-10.898-6.083-15.174-8.504c-0.201,0.299-0.339,0.466-0.339,0.466S4724.109,2144.601,4724.778,2147.718z"/>
	<path id="XMLID_1456_" fill="#37333B" d="M4726.392,2202.867c5.602-2.518,9.863-5.257,11.659-7.894
		c2.304-3.381,4.875-10.919,5.866-20.202c-4.785,3.79-9.767,7.516-14.192,10.39
		C4728.763,2190.941,4727.545,2197.232,4726.392,2202.867z"/>
	<path id="XMLID_1461_" fill="#716872" d="M4720.24,2129.956c7.172,3.97,4.223,9.503,3.132,11.128
		c4.276,2.421,9.968,5.603,15.174,8.504c1.284,0.155,2.512,0.298,3.668,0.429c-3.733-14.072-12.964-27.783-32.111-35.406
		C4710.104,2114.611,4711.748,2125.255,4720.24,2129.956z"/>
	<path id="XMLID_1466_" fill="#766E77" d="M4575.275,2144.333c0,0,9.142,4.851,22.084,5.107c12.941,0.255,29.582-0.687,37.575,3.214
		c7.994,3.901,42.768,13.311,42.768,13.311l22.137-1.04c0,0-33.426-6.361-42.719-10.562c-5.891-2.663-18.242-7.094-28.141-9.665
		c-6.24-0.365-13.086-0.785-18.567-1.165C4599.478,2144.651,4578.868,2145.724,4575.275,2144.333z"/>
	<path id="XMLID_1477_" fill="#5A585E" d="M4544.505,2110.594c-4.451-1.731-8.99-3.569-13.462-5.428
		c-1.53,2.758-2.818,5.674-3.906,8.664c3.757,1.852,8.671,4.262,13.861,6.772C4541.957,2117.515,4543.12,2114.022,4544.505,2110.594
		z"/>
	<path id="XMLID_1486_" fill="#3C383F" d="M4725.177,2152.994c-0.234,1.013,0.159,1.906,0.851,2.932
		c0.168,0.04,0.338,0.079,0.497,0.116c3.036,0.702,9.941,0.693,17.055,0.596c-0.238-1.58-0.538-3.167-0.904-4.753
		c-1.314-0.731-2.702-1.503-4.129-2.298c-4.167-0.502-8.928-1.128-13.769-1.87
		C4725.207,2149.709,4725.47,2151.727,4725.177,2152.994z"/>
	<path id="XMLID_1485_" opacity="0.59" fill="#37333B" d="M4725.177,2152.994c-0.234,1.013,0.159,1.906,0.851,2.932
		c0.168,0.04,0.338,0.079,0.497,0.116c3.036,0.702,9.941,0.693,17.055,0.596c-0.238-1.58-0.538-3.167-0.904-4.753
		c-1.314-0.731-2.702-1.503-4.129-2.298c-4.167-0.502-8.928-1.128-13.769-1.87
		C4725.207,2149.709,4725.47,2151.727,4725.177,2152.994z"/>
	<path id="XMLID_1256_" fill="#454249" d="M4743.863,2158.724c-2.893-0.094-5.869-0.32-8.894-0.732
		c-2.757-0.371-5.53-0.765-8.325-1.196c-0.219-0.297-0.428-0.592-0.619-0.872c-0.688-1.021-1.087-1.914-0.853-2.927
		c0.293-1.266,0.031-3.287-0.392-5.274c4.838,0.739,9.599,1.367,13.763,1.868c1.428,0.792,2.819,1.566,4.13,2.29
		c0.371,1.594,0.67,3.183,0.902,4.755C4743.681,2157.338,4743.778,2158.027,4743.863,2158.724z"/>
	<path id="XMLID_1496_" fill="#766E77" d="M4595.718,2129.902l-19.323,4.455c15.722,1.908,36.683,0.088,38.809,0.05
		c1.764-0.031,20.076,1.509,36.931,4.257c-10.876-3.755-24.621-8.532-26.834-9.449
		C4621.553,2127.664,4595.718,2129.902,4595.718,2129.902z"/>
	<path id="XMLID_1509_" fill="#5A515B" d="M4726.649,2156.795c1.123,1.516,2.622,3.408,3.693,6.313
		c4.334,0.45,9.362,0.788,13.94,1.033c-0.069-1.784-0.206-3.593-0.421-5.418c-2.89-0.096-5.868-0.322-8.893-0.729
		C4732.216,2157.625,4729.436,2157.224,4726.649,2156.795z"/>
	<path id="XMLID_1260_" fill="#504D54" d="M4726.645,2156.796c-6.74-1.035-13.532-2.246-20.06-3.622
		c-11.59-2.433-22.381-5.391-30.726-8.85c-5.369-2.217-14.319-4.122-23.725-5.66c-10.874-3.756-24.62-8.536-26.832-9.448
		c-3.746-1.554-29.584,0.683-29.584,0.683l-19.322,4.462c-4.602-0.561-8.761-1.441-11.86-2.773
		c-5.945-2.565-15.094-6.898-23.541-10.986c0.959-3.083,2.127-6.58,3.505-10.008c15.699,6.104,30.277,10.881,36.83,10.507
		c16.641-0.945,54.319-1.122,62.457,2.125c8.147,3.249,39.827,11.262,52.716,17.66c5.67,2.82,17.176,5.131,28.277,6.836
		c0.423,1.986,0.685,4.007,0.392,5.274c-0.234,1.013,0.165,1.906,0.853,2.927
		C4726.217,2156.204,4726.426,2156.499,4726.645,2156.796z"/>
	<path id="XMLID_1315_" fill="#37333B" d="M4669.354,2178.404l0,0.492l0.084,31.684c-7.69-4.026-23.474-11.36-47.162-18.244
		l-2.845-24.716l-0.096-0.782c0,0,12.25-2.638,34.436-0.936c22.185,1.712,37.773,5.316,39.915,7.864
		C4695.835,2176.316,4669.354,2178.404,4669.354,2178.404z"/>
</g>
<g id="Layer_1">
</g>
</svg>
