<?xml version="1.0" encoding="utf-8"?>
<!-- Generator: Adobe Illustrator 19.0.0, SVG Export Plug-In . SVG Version: 6.00 Build 0)  -->
<!DOCTYPE svg PUBLIC "-//W3C//DTD SVG 1.1//EN" "http://www.w3.org/Graphics/SVG/1.1/DTD/svg11.dtd">
<svg version="1.1" id="Layer_1" xmlns="http://www.w3.org/2000/svg" xmlns:xlink="http://www.w3.org/1999/xlink" x="0px" y="0px"
	 viewBox="0 0 9870.1 2778.38" enable-background="new 0 0 9870.1 2778.38" xml:space="preserve">
<path id="XMLID_96_" opacity="0.12" fill="#676865" d="M4865.475,1944.074c0,0,75.48-49.156,116.468-93.519
	c86.188-93.285,260.796-114.617,260.796-114.617s839.062-131.801,1191.589-104.127
	c352.526,27.673,1488.255,244.016,1488.255,244.016l521.896,125.975c0,0-1217.088,199.042-1364.306,222.453
	c-147.217,23.411-176.334,118.064-501.039,31.565c-324.706-86.499-567.901-55.86-713.697-57.684
	c-145.796-1.824-422.268-191.138-589.227-158.772C5109.251,2071.73,4916.956,1959.677,4865.475,1944.074z"/>
<path id="XMLID_33_" fill="#DFD5D1" d="M6156.498,1834.624c0,0,153.144-250.971,188.97-413.648
	c9.135-41.479,84.703-48.806,94.847-85.844c22.011-80.369,170.407-360.362,187.752-381.41
	c15.913-19.309,36.241-55.003,59.906-38.946c20.162,13.68,92.525,88.631,111.387,80.552
	c46.494-19.915,121.753-253.664,232.321-292.094c15.796-5.49,130.398,20.421,146.395,20.421
	c38.19,0,130.711-223.721,159.125-221.512c47.513,3.693,118.585,67.499,165.188,113.564v1270.68
	C7502.39,1886.387,6804.758,2037.32,6156.498,1834.624z"/>
<path id="XMLID_341_" fill="#969B91" d="M6494.03,1808.239l12.073-6.149c0,0-17.899-105.656-29.225-185.82l-8.973-84.73
	c2.9-34.516,110.484-22.17,110.484-22.17s0.265-0.695,0.744-1.975l44.557-165.109c0.589-6.487,0.83-12.561,0.639-18.064
	c-1.13-32.627-1.603-59.738,3.073-104.528l21.279-141.389c1.021-5.763,2.076-11.669,3.178-17.765
	c13.439-74.389,23.048-120.649,29.528-148.976c2.165,0.651,4.361,1.703,6.586,3.213c20.162,13.68,92.525,88.631,111.387,80.552
	c0.745-0.319,1.498-0.695,2.258-1.123c50.044,107.774,89.84,73.89,89.84,73.89l28-132c0,0,24.568-47.138,44-116
	c10.315-36.553,56.71-78.737,58.223-112.816c3.301-1.52,6.634-2.875,10-4.044c14.226-4.944,108.585,15.578,138.886,19.706
	c6.728,36.814,30.068,53.761,46.892,63.154c28.654,16,32-18,32-18l79.559-262.208c3.111-2.589,5.862-3.925,8.183-3.744
	c47.513,3.693,118.585,36.374,165.188,82.439c0,0,109.447,101.197,235.001,222.663c18.999,18.38,69.798,155.733,89.211,174.76
	c24.25,23.768,72.22-227.754,95.981-203.959c85.26,85.382,210.215,288.492,251.949,341.932
	c121.736,155.881,305.939,713.857,305.939,713.857l-975.073,108.112c0,0-363.435,52.429-946.559-23.023L6494.03,1808.239z"/>
<path id="XMLID_346_" fill="#AFB2AB" d="M7205.736,815.665c-16.823-9.394-28.44-55.91-35.168-92.725
	c3.343,0.455,5.919,0.715,7.509,0.715c35.071,0,115.958-188.658,150.941-217.768l-51.876,334.503
	C7277.142,840.39,7234.39,831.665,7205.736,815.665z"/>
<path id="XMLID_348_" fill="#AFB2AB" d="M6963.259,1045.226l-63.208,206.543c0,0-48.387-149.79-98.431-257.564
	c45.214-25.426,116.678-239.305,220.063-286.927c-1.513,34.079-5.546,78.971-15.861,115.525
	C6986.39,891.665,6963.259,1045.226,6963.259,1045.226z"/>
<path id="XMLID_353_" fill="#AFB2AB" d="M6648.682,1078.305l-72.912-32.697c25.742-48.325,46.455-84.797,52.298-91.887
	c14.416-17.494,32.457-48.435,53.32-42.159c-6.479,28.327-16.089,74.588-29.528,148.976
	C6650.758,1066.636,6649.703,1072.542,6648.682,1078.305z"/>
<path id="XMLID_354_" opacity="0.5" fill="#B4C7BD" d="M6518.095,1157.693l109.308,62.001c-4.676,44.791-4.203,71.901-3.073,104.528
	c0.191,5.503-0.05,11.577-0.639,18.064l-153.964-82.671C6483.477,1228.714,6500.423,1193.271,6518.095,1157.693z"/>
<path id="XMLID_355_" opacity="0.5" fill="#B4C7BD" d="M6345.468,1420.976c3.478-15.793,16.59-26.633,32.051-36.049l201.615,122.469
	c-0.479,1.28-0.744,1.975-0.744,1.975s-107.584-12.345-110.484,22.17l-126.125-95.093
	C6343.118,1431.212,6344.35,1426.051,6345.468,1420.976z"/>
<path id="XMLID_406_" fill="#AFB2AB" d="M6295.585,1566.609l181.293,49.662c11.326,80.164,29.225,185.82,29.225,185.82
	l-12.073,6.149l-274.753-84.607C6243.766,1677.795,6271.647,1622.387,6295.585,1566.609z"/>
<path id="XMLID_410_" fill="#C2C4C0" d="M6575.77,1045.608l72.912,32.697c-11.301,63.8-17.755,107.626-21.279,141.389
	l-109.308-62.001C6537.547,1118.527,6557.874,1079.204,6575.77,1045.608z"/>
<path id="XMLID_435_" fill="#AFB2AB" d="M6440.315,1335.132c4.76-17.381,15.434-44.102,29.412-75.517l153.964,82.671
	c-5.312,58.435-39.119,150.576-44.557,165.109l-201.615-122.469C6402.666,1369.612,6434.033,1358.068,6440.315,1335.132z"/>
<path id="XMLID_439_" fill="#C2C4C0" d="M6341.781,1436.448l126.125,95.093c-0.02,0.239-0.054,0.471-0.064,0.714
	c-0.477,11.638,3.492,44.772,9.037,84.016l-181.293-49.662C6314.784,1521.874,6331.445,1476.904,6341.781,1436.448z"/>
<path id="XMLID_443_" opacity="0.5" fill="#CDDDCF" d="M6219.276,1723.632l274.753,84.607l-147.702,75.22
	c-65.362-13.657-128.992-29.812-189.83-48.834C6156.498,1834.624,6184.457,1788.803,6219.276,1723.632z"/>
<path id="XMLID_685_" fill="#AEB2AA" d="M5194.15,1887.674c121.995,14.296,247.409,30.66,369.617,9.477
	c120.782-20.936,241.904-1.724,363.838,1.448c64.171,1.669,126.79-5.061,190.608-10.195c20.3-1.633,44.534-7.249,64.319-0.605
	c28.154,9.454,49.424,36.482,76.661,48.511c23.964,10.584,53.228,8.614,78.882,11.034c28.694,2.707,57.355,5.766,85.993,9.014
	c66.829,7.579,133.518,16.326,200.263,24.597c-52.009-91.205-107.075-181.425-168.004-266.982
	c-23.882-33.536-47.878-68.988-77.354-97.913c-32.431-31.825-75.169-50.353-111.01-77.833
	c-41.149-31.551-45.688-58.178-49.432-108.285c-3.631-48.596,1.054-110.02-11.846-156.982
	c-8.052-29.311-44.068-31.313-71.213-40.136c-15.582-5.065-37.898-8.231-50.822-19.076c-11.931-10.012-8.759-11.625-4.306-29.138
	c9.661-37.988-3.298-67.501-23.438-100.407c-9.46-15.456-19.969-30.254-29.682-45.551c-11.155-17.568-25.215-53.68-43.062-63.704
	c-24.479-13.75-66.098,27.722-86.438,41.876c-37.232,25.907-62.514,63.339-99.724,87.687
	c-16.976,11.108-36.572,20.106-50.798,34.903c-15,15.602-24.627,37.047-36.364,55.15c-10.073,15.537-19.739,34.113-32.129,47.782
	c-15.757,17.383-28.103,13.944-48.46,23.904c-33.234,16.26-19.16,55.21-31.009,82.798c-13.235,30.816-63.347,9.025-80.401,44.514
	c-7.255,15.098-3.679,34.953-8.446,51.075c-7.065,23.897-22.1,45.677-34.51,67.031c-25.226,43.406-46.715,89.331-77.105,129.527
	c-33.708,44.584-67.898,88.824-101.526,133.499c-16.229,21.56-32.833,42.838-50.535,63.215
	C5233.058,1853.626,5214.97,1880.832,5194.15,1887.674c37.99,4.452,76.021,8.986,114.141,12.195
	c5.778,0.486,29.042,5.9,34.285,1.456c-3.635,3.082-56.797-10.076-63.965-10.902
	C5253.513,1887.528,5218.883,1879.546,5194.15,1887.674C5321.692,1902.62,5230.239,1875.814,5194.15,1887.674z"/>
<path id="XMLID_684_" opacity="0.5" fill="#B4C7BD" d="M5194.15,1887.674c121.675,14.259,250.557,27.884,372.637,8.663
	c11.176-1.76,31.883-2.344,41.801-8.783c6.216-4.036,10.053-14.13,13.966-20.582c11.556-19.052,23.111-38.103,34.668-57.154
	c24.377-40.187,48.743-80.381,73.15-120.549c17.878-29.423,15.203-69.037,17.092-102.559c1.274-22.621,3.146-45.984,0.435-68.562
	c-2.201-18.325,2.703-32.659,9.122-50.635c16.271-45.565,36.84-87.917,60.006-129.85c19.167-34.695,21.207-78.093,40.818-112.244
	c12.404-21.601,29.623-40.772,41.832-62.866c14.099-25.515,21.537-55.373,32.359-82.472c14.821-37.114,30.311-73.949,45.52-110.904
	c-11.624,0-29.702,15.183-38.825,20.81c-21.109,13.02-41.796,26.863-61.594,41.809c-28.085,21.203-45.731,50.451-74.692,69.817
	c-17.823,11.918-39.295,21.496-54.596,36.796c-15.228,15.226-23.872,38.235-36.089,56.104
	c-12.314,18.012-25.124,43.246-41.695,57.495c-15.107,12.99-46.089,6.937-57.661,26.818c-8.905,15.301-8.821,42.707-12.371,60.134
	c-2.812,13.807-0.922,19.125-11.389,23.995c-18.622,8.665-43.951,2.707-61.384,16.45c-17.89,14.102-11.091,51.802-19.993,72.377
	c-34.543,79.85-84.301,156.248-136.354,225.349c-31.214,41.437-62.005,83.198-94.299,123.809
	c-15.574,19.584-31.362,39.103-48.378,57.463C5219.162,1868.192,5207.458,1883.3,5194.15,1887.674
	C5509.448,1924.623,5230.239,1875.814,5194.15,1887.674z"/>
<path id="XMLID_683_" opacity="0.5" fill="#CDDDCF" d="M5742.307,1143.785l113.364,86.789c1.722-4.245,2.866-6.945,3.631-7.331
	c4.779-3.277,47.793-67.503,49.324-80.423c0.191-1.158,0.766-3.663,2.101-7.136l-74.938-63.837
	C5823.364,1095.568,5759.319,1123.147,5742.307,1143.785z"/>
<path id="XMLID_682_" opacity="0.5" fill="#CDDDCF" d="M5595.292,1362.106l150.455,143.492
	c4.588-31.246,55.634-150.049,65.762-158.729c1.148-0.963,2.487-3.087,4.209-6.171l-148.541-84.861
	c-0.196,0.193-0.196,0.193-0.196,0.193s-52.572,9.643-55.055,24.108C5609.629,1294.603,5595.292,1362.106,5595.292,1362.106z"/>
<path id="XMLID_680_" opacity="0.5" fill="#CDDDCF" d="M5194.15,1887.674c315.297,36.949,404.493,1.098,414.438-0.12l1.853-0.609
	c0,0,122.831-202.529,127.693-210.436c0.232-0.455,0.463-1.216,0.695-2.129l-333.811-40.9c-3.699,5.776-6.709,9.577-8.093,10.795
	C5384.896,1653.854,5230.239,1875.814,5194.15,1887.674z"/>
<g id="XMLID_675_" opacity="0.3">
	<path id="XMLID_45_" fill="#619D84" d="M6244.373,1716.591c0,0-120.081-177.797-127.25-187.44
		c-7.169-9.643,70.495,165.743,74.08,165.743S6244.373,1716.591,6244.373,1716.591z"/>
</g>
<g id="XMLID_671_" opacity="0.3">
	<polygon id="XMLID_46_" fill="#619D84" points="6041.65,1800.969 6004.212,1628.194 6007.398,1785.7 	"/>
</g>
<path id="XMLID_670_" opacity="0.3" fill="#619D84" d="M5920.882,1435.664c0,0.761,111.039,67.509,113.58,67.509
	c2.084-0.304,48.35-9.275,48.35-9.275l-0.463-0.152c-4.625-1.825-41.64-16.421-43.487-16.421c0,0-87.211-50.786-87.211-52.001
	c-1.621-0.911-10.872-51.241-20.36-76.784c-2.773-7.755-5.552-13.23-8.325-14.446
	C5908.852,1327.555,5921.113,1435.664,5920.882,1435.664z"/>
<g id="XMLID_665_" opacity="0.5">
	<path id="XMLID_59_" fill="#ABB7AA" d="M5469.312,1522.375h0.191c43.971,0.772,205.319,3.473,203.406,1.351
		c-1.909-1.931-134.012-20.831-188.111-29.509c-1.531,3.086-3.253,6.173-4.971,9.45
		C5476.387,1509.841,5472.943,1516.011,5469.312,1522.375z"/>
</g>
<g id="XMLID_662_" opacity="0.5">
	<path id="XMLID_58_" fill="#ABB7AA" d="M5491.767,1481.279c58.99,1.064,187.146,2.888,185.526,1.064
		c-1.615-1.672-111.733-17.638-171.875-26.911c-0.694,1.366-1.389,2.736-2.084,4.104
		C5499.866,1466.074,5495.935,1473.372,5491.767,1481.279z"/>
</g>
<g id="XMLID_580_" opacity="0.5">
	<path id="XMLID_57_" fill="#ABB7AA" d="M5511.664,1441.138c56.674,0.759,116.822,1.216,115.664-0.152
		c-1.158-1.216-58.064-9.731-112.428-17.943C5513.974,1429.734,5512.822,1436.273,5511.664,1441.138z"/>
</g>
<g id="XMLID_558_" opacity="0.5">
	<path id="XMLID_56_" fill="#ABB7AA" d="M5416.817,1614.931c42.566,0.455,78.423,0.607,77.497-0.457
		c-0.926-0.913-32.152-5.93-70.325-11.556C5421.442,1607.176,5418.901,1611.282,5416.817,1614.931z"/>
</g>
<g id="XMLID_554_" opacity="0.5">
	<path id="XMLID_55_" fill="#ABB7AA" d="M5449.812,1557.671c62.896,0.965,181.758,3.76,180.419,2.218
		c-1.531-1.351-110.069-13.598-169.138-22.469C5457.457,1544.171,5453.634,1551.112,5449.812,1557.671z"/>
</g>
<g id="XMLID_523_" opacity="0.5">
	<path id="XMLID_54_" fill="#ABB7AA" d="M5429.929,1592.387c53.146,0.77,167.596,5.221,166.448,4.065
		c-1.144-1.158-109.097-12.166-157.464-19.495h-0.191c0,0.193-0.191,0.579-0.191,0.772
		C5435.474,1582.937,5432.608,1587.759,5429.929,1592.387z"/>
</g>
<g id="XMLID_323_" opacity="0.5">
	<path id="XMLID_52_" fill="#ABB7AA" d="M5711.717,1194.506c6.693,2.703,13.955,5.787,21.414,8.873
		c43.588,18.321,84.403,33.864,87.078,33.864c-3.631-3.277-36.61-22.871-75.419-45.628c-7.645-4.629-15.295-9.064-22.174-13.116
		C5719.367,1183.513,5715.54,1188.914,5711.717,1194.506z"/>
</g>
<g id="XMLID_319_" opacity="0.5">
	<path id="XMLID_41_" fill="#ABB7AA" d="M5692.6,1221.507c0,0,0,0,0.191,0c4.206,1.735,8.411,3.473,12.621,5.401
		c37.278,15.621,112.102,52.925,114.398,52.925c-2.87-2.698-71.198-42.703-103.313-61.606c-4.971-2.891-9.941-5.785-14.912-8.871
		c0,0,0,0-0.191,0c-1.909,2.7-3.822,5.401-5.736,8.101C5694.514,1218.807,5693.557,1220.158,5692.6,1221.507z"/>
</g>
<g id="XMLID_314_" opacity="0.5">
	<path id="XMLID_40_" fill="#ABB7AA" d="M5675.205,1245.231c1.334,0.577,2.483,0.963,3.822,1.542
		c27.911,11.571,110.783,47.927,112.505,47.927c-0.383-0.965-79.624-39.632-104.286-54.097c-1.909-1.158-4.014-2.317-6.114-3.473
		C5679.027,1240.217,5676.922,1242.915,5675.205,1245.231z"/>
</g>
<path id="XMLID_313_" opacity="0.5" fill="#B4C7BD" d="M5931.291,1345.348v3.192c9.488,25.543,18.739,75.872,20.36,76.784
	c0,1.216,87.211,52.001,87.211,52.001c1.847,0,38.861,14.596,43.487,16.421l0.463,0.152l122.836-235.372l-130.241-48.2
	L5931.291,1345.348z"/>
<path id="XMLID_311_" opacity="0.5" fill="#B4C7BD" d="M6244.326,1716.591l24.421,225.503c32.69-1.351,355.583,38.86,355.583,38.86
	s-207.391-365.246-285.965-394.948c0,0-0.187-0.193-0.378-0.386L6244.326,1716.591z"/>
<polygon id="XMLID_31_" fill="#787C72" points="6897.626,1424.815 6810.573,1529.749 6846.018,1677.738 6925.109,1780.838 
	6882.034,1847.383 6882.846,1774.731 6785.851,1700.84 6790.651,1502.89 "/>
<polygon id="XMLID_345_" fill="#787C72" points="7131.683,934.741 7237.801,1008.715 7207.47,1401.194 7367.903,1471.075 
	7142.682,1432.489 7141.968,1171.044 7163.73,1146.08 7212.853,1083.439 7180.875,1024.857 "/>
<polygon id="XMLID_634_" fill="#787C72" points="7191.137,1604.277 7281.603,1688.577 7308.449,1802.498 7308.449,1842.988 
	7249.793,1737.894 "/>
<ellipse id="XMLID_500_" opacity="0.39" fill="#989995" cx="7192.093" cy="2017.547" rx="113.618" ry="19.829"/>
<path id="XMLID_499_" fill="#855E90" d="M7280.737,2016.05c0,0,27.649-54.795-21.114-10.808c8.043-44.49-0.251-38.457-10.306-13.825
	c-22.622-75.155-25.146-46.102-37.21-26.999c-22.455-66.358-32.164-29.807-32.164-29.807c-36.447-64.85-89.231-75.407-18.601,3.77
	c-56.304-65.101-160.365-106.323,12.4,48.009c-52.114-22.119-41.558-13.573-6.871,14.076c-34.687-17.595-52.282-14.579-23.627,2.011
	c-28.152-12.568-32.173-2.011-10.054,7.541C7159.332,2019.569,7275.458,2018.061,7280.737,2016.05z"/>
<ellipse id="XMLID_379_" opacity="0.77" fill="#989995" cx="5387.431" cy="2078.376" rx="207.384" ry="35.081"/>
<path id="XMLID_112_" fill="#CC3A6B" d="M5550.802,2073.555c8.163,0,127.304-16.034,4.47-19.144
	c79.298-66.082,0.777-71.524-28.765-13.994c31.875-91.737-28.765-166.37-65.304-76.188c1.555-125.167-119.725-244.114-69.969,0
	c-105.73-160.151-95.624-3.11-41.204,22.546c-101.066-14.771-6.22,70.746-6.22,70.746c-69.191-35.762-79.298-27.21-44.313-0.778
	c-52.088-13.994-69.191,8.163,4.665,15.16C5378.018,2078.9,5548.47,2073.555,5550.802,2073.555z"/>
<path id="XMLID_111_" fill="#D799A9" d="M5477.651,2029.116c0,0,22.527-45.79-3.534-45.452
	c-26.061,0.338-36.834,40.834-36.834,40.834s9.243-133.65-17.005-124.565c-26.248,9.086-3.959,109.443-3.959,109.443
	s-29.442-53.574-39.07-36.912c-9.628,16.662,22.629,39.882,22.629,39.882s-38.981-20.822-48.948-8.586s15.435,41.345,15.435,41.345
	S5456.908,2069.861,5477.651,2029.116z"/>
<path id="XMLID_422_" fill="#787C72" d="M7718.624,796.042c0,0,5.999,203.959,29.994,269.946s95.981,329.934,95.981,329.934
	l173.965,215.957l-113.977-251.95c0,0-53.989-215.957-53.989-233.953c0-17.996-23.995-143.971-23.995-143.971
	s-64.444-133.563-89.211-174.76"/>
<path id="XMLID_482_" fill="#AFB2AB" d="M7922.583,778.045c0,0-29.994,0-41.992,41.992c-11.998,41.992-23.995,95.981-23.995,95.981
	l-29.994,65.987l5.999,83.983l71.986-65.987l17.997-131.974V778.045"/>
<polygon id="XMLID_1158_" fill="#787C72" points="7550.657,814.038 7610.645,874.026 7562.655,922.016 7628.642,1071.986 
	7586.65,1179.965 7454.676,1143.972 7412.685,1053.99 7472.673,1101.98 7556.656,1107.979 7544.658,988.003 7448.678,856.03 
	7532.661,868.027 "/>
<path id="XMLID_1159_" fill="#787C72" d="M8294.509,1497.901l-65.987,107.978l59.988,89.982l-65.987,113.977l-353.929,53.989
	c0,0,239.952,5.999,269.946,5.999s341.932-35.993,341.932-35.993l-79.517-240.169l-94.449-251.732l-125.975-191.962
	L8294.509,1497.901z"/>
<polygon id="XMLID_1160_" fill="#787C72" points="7712.625,1755.85 7658.636,1599.881 7742.619,1413.918 7670.633,1293.942 
	7802.607,1419.917 7748.618,1581.884 7916.584,1719.857 7520.663,1887.823 "/>
<g id="XMLID_1_">
</g>
<g id="XMLID_2_">
</g>
<g id="XMLID_3_">
</g>
<g id="XMLID_4_">
</g>
<g id="XMLID_5_">
</g>
<g id="XMLID_6_">
</g>
</svg>
