<?xml version="1.0" encoding="utf-8"?>
<!-- Generator: Adobe Illustrator 19.0.0, SVG Export Plug-In . SVG Version: 6.00 Build 0)  -->
<!DOCTYPE svg PUBLIC "-//W3C//DTD SVG 1.1//EN" "http://www.w3.org/Graphics/SVG/1.1/DTD/svg11.dtd">
<svg version="1.1" id="Layer_2" xmlns="http://www.w3.org/2000/svg" xmlns:xlink="http://www.w3.org/1999/xlink" x="0px" y="0px"
	 viewBox="0 0 9870.104 2778.383" enable-background="new 0 0 9870.104 2778.383" xml:space="preserve">
<rect id="XMLID_24_" x="-8151.372" y="17.466" fill="#F1F0EA" width="7995.627" height="2263.947"/>
<path id="XMLID_23_" fill="#F1F0EA" d="M11560.806,772.412c-76.811,9.693-153.857,18.455-158.798,21.752
	c-8.911,5.94-796.097,35.652-956.508-2.97c-160.412-38.613-285.478-97.859-285.478-97.859s-546.133-102.967-1004.605-79.206
	c-458.482,23.762-970.894,118.809-1368.695,79.206c-397.801-39.603-244.31,158.411-577.261,198.014
	c-332.951,39.603-858.857-82.77-1182.492-140.392c-323.625-57.622-297.843-240.518-775.958-216.4
	c-478.116,24.128-760.979,142.937-1354.458,63.731S2844.632,133.588,2547.947,75.53c-294.358-57.612-879.896-58.058-889.025-58.068
	h8501.101v371.871c0,0,169.629,107.779,288.447,167.193s496.075,133.67,781.246,196.054
	C11354.891,779.966,11472.619,779.877,11560.806,772.412z"/>
<path id="XMLID_22_" fill="#F1F0EA" d="M972.855,17.466h685.957h0.108c9.131,0.004,594.666,0.454,889.031,58.061
	c296.684,58.061,755.12,443.552,1348.599,522.758c593.478,79.206,876.35-39.603,1354.465-63.725
	c478.115-24.122,452.327,158.772,775.958,216.396c323.632,57.624,849.534,179.993,1182.484,140.39
	c332.951-39.603,179.467-237.617,577.264-198.014c397.798,39.603,910.215-55.444,1368.693-79.206s1004.607,79.206,1004.607,79.206
	v364.346c0,0-316.89-79.206-411.282-95.047c-94.393-15.841-377.57-55.444-431.509-39.603
	c-53.939,15.841,404.54,126.729,471.963,134.65c67.423,7.921,370.828,187.279,370.828,187.279v414.685
	c0,0-384.312-182.173-559.341-324.743s-620.567-261.379-878.69-277.22c-258.123-15.841-685.803,79.206-868.876,187.279
	c-183.074,108.073-545.099,121.624-823.22,135.958c-278.121,14.335-989.437-156.905-1266.153-212.349
	s-518.878-213.855-681.639-213.855s-457.535,142.57-779.915,139.442c-322.381-3.128-783.362-76.078-1050.211-131.522
	c-266.849-55.444-542.23-198.014-704.025-253.458c-161.795-55.444-458.5,55.444-671.474,142.57
	c-212.975,87.126-1122.007,205.935-1331.39,206.418c-209.383,0.483-700.832-48.006-700.832-48.006V747.628
	c0,0,411.282,9.068,668.886,32.83c257.603,23.762,1778.58-316.823,1434.541-445.014s-613.372-38.141-820.272-46.062
	c-206.9-7.921-372.941,79.206-582.324,168.894c-209.383,89.688-700.832,92.485-700.832,92.485V335.444
	c0,0,438.252-61.903,619.503-164.87S972.855,17.466,972.855,17.466z"/>
<path id="XMLID_21_" opacity="0.07" fill="#BFC1BA" d="M972.855,17.466h685.957h0.108c9.131,0.004,594.666,0.454,889.031,58.061
	c296.684,58.061,755.12,443.552,1348.599,522.758c593.478,79.206,876.35-39.603,1354.465-63.725
	c478.115-24.122,452.327,158.772,775.958,216.396c323.632,57.624,849.534,179.993,1182.484,140.39
	c332.951-39.603,179.467-237.617,577.264-198.014c397.798,39.603,910.215-55.444,1368.693-79.206s1004.607,79.206,1004.607,79.206
	v364.346c0,0-316.89-79.206-411.282-95.047c-94.393-15.841-377.57-55.444-431.509-39.603
	c-53.939,15.841,404.54,126.729,471.963,134.65c67.423,7.921,370.828,187.279,370.828,187.279v414.685
	c0,0-384.312-182.173-559.341-324.743s-620.567-261.379-878.69-277.22c-258.123-15.841-685.803,79.206-868.876,187.279
	c-183.074,108.073-545.099,121.624-823.22,135.958c-278.121,14.335-989.437-156.905-1266.153-212.349
	s-518.878-213.855-681.639-213.855s-457.535,142.57-779.915,139.442c-322.381-3.128-783.362-76.078-1050.211-131.522
	c-266.849-55.444-542.23-198.014-704.025-253.458c-161.795-55.444-458.5,55.444-671.474,142.57
	c-212.975,87.126-1122.007,205.935-1331.39,206.418c-209.383,0.483-700.832-48.006-700.832-48.006V747.628
	c0,0,411.282,9.068,668.886,32.83c257.603,23.762,1778.58-316.823,1434.541-445.014s-613.372-38.141-820.272-46.062
	c-206.9-7.921-364.801,92.316-582.324,168.894c-253.538,89.258-861.798,78.365-700.832,79.933V335.444
	c-155.434,24.01,392.592-54.849,619.503-164.87C653.996,78.335,972.855,17.466,972.855,17.466z"/>
<path id="XMLID_20_" opacity="0.84" fill="#B5B6B4" d="M5507.237,1806.635c0,0-907.794-718.674-962.911-758.601
	c-55.116-39.926-97.264-76.781-158.864-104.423c-61.601-27.641-77.811-42.998-110.232-67.568
	c-32.421-24.57-38.905-30.713-61.6-49.14c-22.695-18.427-64.843-33.784-64.843-33.784s-16.21-27.641-25.937-27.641
	c-9.726,0-22.695,0-55.116,0s-25.937,9.214-68.084,0c-42.148-9.214-38.906,18.428-58.358,21.499
	c-19.453,3.071-77.811,24.57-100.506,49.14s-35.663,61.425-64.843,61.425c-29.179,0-168.59,116.708-230.191,147.42
	c-61.6,30.713-123.201,98.28-165.348,119.779c-42.147,21.499-408.507,248.772-408.507,248.772l-528.466,429.976
	c0,0,1212.554,85.995,1663.209,98.28S5507.237,1806.635,5507.237,1806.635z"/>
<path id="XMLID_19_" opacity="0.6" fill="#E5E3DA" d="M545.087,1057.022c209.383-0.483,1118.415-119.291,1331.39-206.418
	c212.975-87.126,509.679-198.014,671.474-142.57c161.795,55.444,437.176,198.014,704.025,253.458
	c266.849,55.444,727.83,128.394,1050.211,131.522c322.38,3.128,617.155-139.442,779.915-139.442s404.922,158.411,681.639,213.855
	s988.032,226.683,1266.153,212.349s640.146-27.885,823.22-135.958c183.073-108.073,610.753-203.12,868.876-187.279
	c258.123,15.841,703.662,134.65,878.69,277.22s559.341,324.743,559.341,324.743l1181.565,814.201l-12602.012-1.396
	l1104.679-1462.292C-155.745,1009.016,335.704,1057.505,545.087,1057.022z"/>
<path id="XMLID_17_" fill="#F1F0EA" d="M1127.411,289.382c206.9,7.921,476.233-82.13,820.272,46.062S770.745,804.22,513.142,780.458
	c-257.604-23.762-668.886-16.851-668.886-16.851V530.777c0,0,491.449,17.189,700.832-72.5
	C754.47,368.588,920.511,281.462,1127.411,289.382z"/>
<path id="XMLID_16_" fill="#F1F0EA" d="M972.855,17.466c0,0-327.846,50.14-509.097,153.108s-619.503,164.87-619.503,164.87V17.466
	H972.855z"/>
<path id="XMLID_15_" fill="#E8E4DE" d="M7842.877,2259.159c0,0-355.833-892.011-501.561-971.217
	c-145.728-79.206-222.87-275.555-218.811-407.077c4.058-131.522-38.003-305.774-38.003-305.774l-143.147-40.751
	c0,0-161.238-260.231-216.662-315.675s-155.317-142.57-155.317-142.57s-130.74,261.379-179.359,332.664
	s-128.43,87.126-192.063,174.253s-80.889,277.22-124.03,372.267c-43.141,95.047-138.051,134.65-138.051,134.65
	s-103.539,118.809-129.423,316.823c-25.885,198.014-207.077,852.409-207.077,852.409H7842.877z"/>
<path id="XMLID_14_" opacity="0.3" fill="#C2C7BF" d="M9686.428,1757.706c0,0-305.667-692.486-430.85-753.975
	c-125.182-61.489-191.448-213.919-187.962-316.022s-32.646-237.379-32.646-237.379l-122.966-31.636
	c0,0-138.506-202.022-186.116-245.065c-47.609-43.042-133.419-110.68-133.419-110.68s-112.308,202.913-154.072,258.254
	s-110.323,67.638-164.985,135.276s-69.485,215.211-106.544,288.998S8048.28,850.009,8048.28,850.009s-88.941,92.233-111.176,245.956
	c-22.235,153.722-177.882,661.741-177.882,661.741H9686.428z"/>
<path id="XMLID_12_" opacity="0.47" fill="#E7DCDA" d="M2647.364,2125.365c0,0-346.684-1054.075-461.489-1106.977
	c-114.805-52.901-175.578-184.042-172.381-271.885c3.197-87.843-29.939-204.226-29.939-204.226l-112.772-27.217
	c0,0-127.025-173.807-170.688-210.838S1577.733,209,1577.733,209s-102.998,174.574-141.3,222.185s-101.178,58.191-151.309,116.383
	c-50.13,58.191-63.725,185.154-97.712,248.636s-108.758,89.932-108.758,89.932s-81.568,79.352-101.961,211.605
	S704.323,2126.254,704.323,2126.254L2647.364,2125.365z"/>
<path id="XMLID_10_" opacity="0.3" fill="#C2C7BF" d="M6658.059,2224.692c0,0-225.168-664.602-351.009-736.064
	c-125.842-71.463-192.457-248.617-188.953-367.281c3.505-118.664-220.146-776.12-220.146-776.12l-114.76,185.803
	c0,0-120.592,228.68-168.453,178.656c-47.861-50.024-107.271-57.17-107.271-57.17s-93.772,91.866-135.757,156.182
	s-52,43.913-106.949,122.522s-14.902,171.51-52.156,257.265c-37.254,85.755-119.212,121.486-119.212,121.486
	s-89.41,107.194-111.762,285.85c-22.352,178.656-174.784,628.87-174.784,628.87H6658.059z"/>
<path id="XMLID_9_" opacity="0.65" fill="#EBDEDA" d="M10160.022,389.337V17.466H8878.386c0,0-462.464,105.584-687.946,105.584
	c-225.482,0-895.502-105.584-895.502-105.584H6074.36c0,0-161.15,145.187-390.313,121.425
	C5454.883,115.13,5174.34,17.466,5174.34,17.466H4069.709c0,0,104.466,105.586,329.616,105.584
	c225.151-0.002,449.758,41.893,637.654,80.351c187.897,38.458,497.273,125.584,797.599,85.981
	c300.325-39.603,780.839-221.776,955.594-158.411s347.258,340.585,691.02,348.505c343.761,7.921,586.467,166.332,905.127,0
	c318.66-166.332,375.822-205.935,707.252-190.094c331.43,15.841,411.432-118.809,581.437-79.206
	S10005.018,227.912,10160.022,389.337z"/>
<path id="XMLID_8_" fill="#F1F0EA" d="M10160.022,1057.678c0,0-316.89-79.206-411.282-95.047
	c-94.393-15.841-377.57-55.444-431.509-39.603c-53.939,15.841,404.54,126.729,471.963,134.65
	c67.423,7.921,370.828,187.279,370.828,187.279V1057.678z"/>
<path id="XMLID_6_" opacity="0.07" fill="#BFC1BA" d="M-272.094,797.168c0,0-121.791-83.174-237.641-62.381
	s-347.55,139.614-454.488,139.614s332.697,26.735,392.107-2.97C-512.706,841.726-355.268,770.434-272.094,797.168z"/>
<path id="XMLID_4_" opacity="0.07" fill="#BFC1BA" d="M-251.311,369.384c0,0-222.788-115.85-427.754-92.086
	s-469.341,175.26-469.341,175.26s427.754-121.791,522.81-92.086C-530.539,390.178-334.486,393.148-251.311,369.384z"/>
<path id="XMLID_3_" opacity="0.07" fill="#BFC1BA" d="M-471.129,562.468c0,0-166.349-62.381-421.813,0
	s-432.813,122.525-575.355,92.829c-183.591-38.248-267.243,14.833-344.476,65.332c-77.233,50.499-179.258,141.861-194.111,132.95
	s323.786,121.791,561.427,35.646s540.633-252.493,704.011-249.523s475.282,74.263,487.164,65.351S-468.159,618.907-471.129,562.468z
	"/>
<path id="XMLID_2_" opacity="0.65" fill="#EBDEDA" d="M10403.188,376.152c0,0,142.542,112.846,326.658,154.42
	s498.896-23.757,593.924-23.757c95.028,0,391.99,59.392,391.99,59.392s-225.691-219.752-362.294-231.63
	s-350.415,112.846-498.896,89.089c-148.481-23.757-421.687-190.056-469.2-219.752
	C10337.855,174.218,10290.342,251.428,10403.188,376.152z"/>
<path id="XMLID_1_" opacity="0.07" fill="#BFC1BA" d="M10349.734,1278.917c0,0,320.719,148.481,587.984,100.967
	c267.267-47.514,706.771-148.481,706.771-148.481s-184.117,184.116-356.354,219.752c-172.238,35.635-671.135,112.846-783.98,29.696
	S10349.734,1278.917,10349.734,1278.917z"/>
</svg>
