<?xml version="1.0" encoding="utf-8"?>
<!-- Generator: Adobe Illustrator 19.0.0, SVG Export Plug-In . SVG Version: 6.00 Build 0)  -->
<!DOCTYPE svg PUBLIC "-//W3C//DTD SVG 1.1//EN" "http://www.w3.org/Graphics/SVG/1.1/DTD/svg11.dtd">
<svg version="1.1" id="Layer_3" xmlns="http://www.w3.org/2000/svg" xmlns:xlink="http://www.w3.org/1999/xlink" x="0px" y="0px"
	 viewBox="0 -0.02 9870.1 2778.4" enable-background="new 0 -0.02 9870.1 2778.4" xml:space="preserve">
<path id="XMLID_86_" fill="#635964" d="M1710.852,2729.765c-3.091,10.06-23.6,14.613-32.5,16.25
	c-16.544,3.043-35.026,3.998-51.75,5.75c-46.426,4.865-90.855,2.995-137.5,4.5c-49.033,1.582-94.47,2.896-143.5,1
	c-35.084-1.356-75.415-0.908-109.5-10.25c-8.909-2.442-15.216-1.437-18.25-12.083c-1.909-6.701-1.261-17.318,0-24
	c6.993-37.068,11.824-70.063,23.333-106c13.734-42.885,28.586-113.427,82.667-117.417c19.944-1.471,55.037-0.575,75-1.75
	c13.197-0.777,35.364-1.038,47.25-7.5c15.415-8.381,29.536-37.062,42.25-49c10.578-9.932,13.748-12.49,24-23
	c11.369-11.655,21.567-19.995,34.25-30.25c7.089-5.732,8.129-7.243,17.75-7c12.045,0.304,20.425,6.047,28.5,13.75
	c9.532,9.093,23.022,23.829,30.75,34.5c19.184,26.49,28.606,49.809,43.583,79c16.77,32.685,30.957,63.401,38,99.333
	c6.466,32.99,12.04,63.552,10.667,97.333C1715.376,2704.629,1714.186,2718.542,1710.852,2729.765"/>
<path id="XMLID_85_" fill="#766E77" d="M1588.352,2545.765c21.019,0,52.712,9.652,69.71,23.642
	c-9.846,0.057-17.407-0.898-26.414-4.188c-11.168-4.08-22.518-7.529-34.311-5.71c-13.02,2.008-24.959,4.399-37.515,8.43
	c-7.281,2.338-19.542,9.52-27.093,8.654c-3.408-0.391-6.036-2.867-9.18-4.823c15.094-5.851,26.072-11.625,41.054-17.755
	C1570.933,2551.424,1581.335,2545.765,1588.352,2545.765"/>
<path id="XMLID_84_" fill="#454149" d="M1238.325,2693.766c-1.781,20.197-4.033,43.697-5.414,58.128
	c0.046,0.013,0.099,0.029,0.145,0.043c24.914,7.34,71.461,11.369,126.12,12.841c16.357,0.439,33.448,0.648,50.892,0.648
	c41.4,0,84.838-1.178,125.452-3.262l-97.857-64.171c-0.557,7.322-13.806,10.012-18.052,10.012c-0.23,0-0.435-0.008-0.608-0.023
	C1397.271,2706.169,1268.1,2699.364,1238.325,2693.766"/>
<path id="XMLID_83_" fill="#454149" d="M1212.711,2688.761L1212.711,2688.761c-0.387,1.859-0.761,3.677-1.122,5.45
	c0.362-1.759,0.738-3.563,1.127-5.406c0.003-0.014,0.006-0.027,0.009-0.04C1212.72,2688.763,1212.716,2688.762,1212.711,2688.761"/>
<path id="XMLID_82_" fill="#454149" d="M1706.845,2671.055L1706.845,2671.055c-21.317,19.053-61.001,23.576-97.46,23.576
	c-16.478,0-32.299-0.924-45.465-1.848c-13.171-0.923-23.685-1.848-29.549-1.848c-1.678,0-2.975,0.076-3.845,0.249
	c-1.089,0.188-2.067,0.317-3.001,0.317c-0.579,0-1.14-0.05-1.701-0.166l10.43,70.822c75.598-3.888,143.462-10.842,167.506-19.97
	C1703.76,2742.187,1713.352,2723.265,1706.845,2671.055"/>
<path id="XMLID_407_" fill="#766E77" d="M1312.882,2479.381C1312.379,2479.575,1312.379,2479.575,1312.882,2479.381
	 M1581.102,2392.515c-12.109,0-21.825,10.245-33.5,12.25c-6.508,1.117-13.275,0.079-19.548,1.741
	c-7.373,1.953-13.793,7.439-20.967,10.062c-4.317,1.578-4.942,0.273-9.235,0.696c-2.715-2.344-6.131-1.225-7.627,1.724
	c-1.579,1.496-3.115,3.035-4.609,4.616c-7.548,6.269-15.072,12.157-22.488,18.71c-11.414,10.087-25.825,24.338-40.569,28.762
	c-9.774,2.932-22.179,2.156-32.272,2.771c-15.109,0.921-30.229,1.652-45.343,2.504c-7.987,0.45-21.922-1.366-29.381,2.213
	c-4.384,2.104-8.268,9.328-11.201,13.165c-7.139,9.338-14.286,18.724-20.754,28.546c5.783-2.952,14.132,0.038,20.55-0.308
	c8.202-0.442,16.412-1.977,24.501-3.35c24.211-4.109,48.221-9.37,72.291-14.216c20.409-4.109,41.311-9.228,62.153-10.491
	c7.484-0.454,10.285,1.441,16.763,3.452c7.136,2.216,15.081,1.192,22.385,0.216c16.572-2.215,33.365-6.52,49.006-12.43
	c13.904-5.253,15.827-11.835,25.379-22.149c11.652-12.582,23.248-4.815,34.338,4.016c16.081,12.806,30.375,27.772,45.765,41.375
	c-9.952-22.685-19.338-45.613-30.575-67.711c-3.044-5.987-5.883-13.154-9.967-18.504c-4.526-5.929-9.62-8.236-16.009-12.338
	C1596.402,2405.407,1585.618,2392.515,1581.102,2392.515"/>
<path id="XMLID_411_" fill="#504D54" d="M1597.719,2514.82c3.967,0,7.134,0.482,9.258,1.541
	c8.804,4.375,36.633,12.339,62.102,19.079c0.001,0.003,0.003,0.006,0.004,0.01c5.419,10.867,13.619,26.099,18.911,35.79
	c-0.008,0.002-0.017,0.004-0.025,0.006c-6.003,1.276-12.045,2.177-17.182,2.177c-5.074,0-9.266-0.878-11.671-3.14
	c-0.327-0.262-0.654-0.613-1.055-0.875l-0.109-0.176c-0.031-0.024-0.062-0.048-0.094-0.072c-0.051-0.039-0.104-0.08-0.156-0.119
	c-0.032-0.024-0.062-0.046-0.094-0.07c-0.105-0.078-0.213-0.158-0.322-0.236c-0.052-0.037-0.103-0.074-0.155-0.111
	c-0.138-0.099-0.281-0.199-0.426-0.298c-0.102-0.07-0.204-0.14-0.31-0.21c-0.21-0.141-0.43-0.285-0.652-0.428
	c-0.033-0.021-0.062-0.04-0.095-0.061c-0.113-0.072-0.23-0.146-0.347-0.219c-0.001-0.001,0,0-0.001-0.001
	c-2.252-1.405-5.071-2.881-8.281-4.367c-0.061-0.028-0.119-0.055-0.181-0.083c-0.225-0.104-0.454-0.208-0.683-0.312
	c-0.273-0.124-0.547-0.247-0.826-0.372c-0.138-0.062-0.281-0.125-0.421-0.187c-0.003-0.001-0.006-0.002-0.009-0.004
	c-0.008-0.003-0.014-0.006-0.022-0.01c-16.956-7.485-42.928-14.946-56.194-14.946l0,0l0,0c-0.004,0-0.007,0-0.011,0
	c-2.346,0-4.292,0.235-5.722,0.743c-0.082,0.029-0.163,0.06-0.242,0.091l0,0c-6.113,2.453-32.964,13.656-59.161,23.811
	c-23.99,9.281-47.383,17.652-53.701,17.652c-0.476,0-0.854-0.047-1.129-0.145c-3.603-1.313-124.582-7.966-153.652-14.443l0,0l0,0
	c-18.083-4.027-36.711-7.878-50.502-10.24l0,0l0,0c1.783-4.641,4.293-9.98,6.622-15.144l0,0
	c30.247,5.601,108.152,11.243,160.187,11.243c26.022,0,45.567-1.41,49.46-4.941C1497.913,2540.36,1568.872,2514.82,1597.719,2514.82
	"/>
<path id="XMLID_412_" fill="#504D54" d="M1697.739,2595.247c1.764,5.747,3.229,12.4,4.552,19.659
	c0.001,0.004,0.002,0.01,0.002,0.014c-0.008,0.002-0.016,0.004-0.024,0.006c-20.084,4.814-52.976,11.378-86.195,12.253
	c-53.375,1.49-79.354,17.507-96.055,17.507c-2.255,0-6.113-0.262-11.17-0.787h-0.073l0,0l0,0
	c-28.708-2.801-188.29-12.343-207.391-13.655l0,0l0,0l0,0l0,0c-1.551-0.109-2.797-0.184-3.686-0.184
	c-0.549,0-0.962,0.029-1.227,0.096c-3.637,0.787-29.798,7.615-52.976,13.742l0,0l0,0c2.257-9.542,5.712-21.358,9.06-32.563l0,0
	c11.103-4.207,23.615-7.579,35.16-7.579c4.308,0,8.479,0.469,12.395,1.54c20.822,5.778,104,16.019,166.509,16.019
	c32.188,0,58.896-2.715,68.789-10.154c11.35-8.532,33.212-10.85,56.522-10.85c13.866,0,28.242,0.82,41.229,1.64
	c12.983,0.821,24.576,1.641,32.87,1.641c5.232,0,9.15-0.326,11.28-1.185C1682.754,2600.223,1690.334,2597.605,1697.739,2595.247"/>
<path id="XMLID_434_" fill="#766E77" d="M1301.385,2630.244c69.069,4.743,138.478,6.93,207.391,13.655
	c-14.217,13.5-45.87,3.385-62.554,1.809c-11.804-1.115-23.8-1.076-35.643-1.594c-22.287-0.973-44.575-1.99-66.847-3.269
	C1326.833,2639.875,1314.397,2641.468,1301.385,2630.244"/>
<path id="XMLID_436_" fill="#766E77" d="M1264.564,2564.593L1264.564,2564.593c13.791,2.363,32.419,6.214,50.502,10.24
	c0,0-6.038,2.381-8.542,2.381c-0.533,0-0.906-0.108-1.027-0.369c-0.691-1.4-39.549-2.363-43.407-2.363l0,0
	C1261.982,2572.208,1262.999,2568.706,1264.564,2564.593"/>
<path id="XMLID_442_" fill="#37333B" d="M1536.114,2453.838c0.001,0.012,0.002,0.024,0.003,0.035l0,0
	C1536.116,2453.861,1536.115,2453.85,1536.114,2453.838 M1536.112,2453.806c0,0.01,0.001,0.02,0.002,0.03
	C1536.113,2453.826,1536.113,2453.816,1536.112,2453.806 M1536.111,2453.779c0,0.002,0,0.005,0,0.005
	S1536.111,2453.781,1536.111,2453.779 M1546.096,2438.926c-5.171,0-9.348,5.491-9.932,13.813l-0.003,0.53l0.084,2.204
	c3.34,12.63,5.716,14.265,9.596,15.485c1.208,0.381,2.617,0.733,4.101,0.733c3.319,0,9.911-3.176,9.911-11.176
	c0-9.95-4.193-18.329-10.673-20.958C1548.127,2439.13,1547.093,2438.926,1546.096,2438.926"/>
<path id="XMLID_448_" fill="#A4BDC8" d="M1453.221,2523.22l0,0.001L1453.221,2523.22 M1453.219,2523.17
	c0,0.007,0.001,0.013,0.001,0.02C1453.219,2523.183,1453.219,2523.177,1453.219,2523.17 M1453.241,2522.554
	c-0.015,0.218-0.03,0.435-0.022,0.609c-0.007-0.172,0.012-0.376,0.05-0.51L1453.241,2522.554L1453.241,2522.554"/>
<path id="XMLID_449_" fill="#8B858C" d="M1536.133,2453.17l0.07,0.636c3.34,12.63,5.758,15.931,9.637,17.151
	c1.208,0.381,2.617,0.733,4.101,0.733c3.319,0,7.023-1.719,9.679-8.863c-0.699,8.033-4.854,13.259-9.907,13.259
	c-0.989,0-2.012-0.201-3.051-0.623c-6.003-2.437-10.456-11.256-10.559-20.441C1536.099,2454.865,1536.133,2453.17,1536.133,2453.17"
	/>
<path id="XMLID_457_" fill="#8B858C" d="M1563.928,2359.738c10.147,0,20.27,11.033,27.257,17.36
	c12.091,10.95,19.844,29.436,28.167,43.333c-8.317-4.404-22.161-14.17-29.689-19.821c-2.286-1.716-5.117-5.213-7.936-5.834
	c-8.604-1.895-21.951,7.587-30.022,9.92c-8.33,2.408-16.784-0.095-24.888,2.346c-11.767,3.545-21.33,15.219-34.296,9.601
	c13.993-14.183,27.457-29.154,42.747-41.98C1543.017,2368.164,1553.188,2359.738,1563.928,2359.738"/>
<path id="XMLID_81_" fill="#716872" d="M1221.667,2649.763c-0.595,2.373-1.173,4.722-1.737,7.042
	c-2.527,10.466-4.73,20.407-6.676,29.428c-0.179,0.851-0.356,1.695-0.529,2.531c7.49,1.512,16.302,3.177,25.55,4.992
	c0.017,0.003,0.034,0.007,0.05,0.01c0.002-0.02,0.004-0.04,0.005-0.06c1.382-15.669,2.475-29.325,2.656-35.102
	c0.11-3.502,1.055-8.666,2.51-14.706C1235.493,2646.087,1227.889,2648.099,1221.667,2649.763"/>
<path id="XMLID_80_" fill="#716872" d="M1246.408,2570.019c-2.564,6.58-5.006,13.323-7.328,20.131
	c-3.572,10.554-6.873,21.279-9.903,31.836c5.891-3.146,14.129-7.247,23.379-10.651l0,0c5.022-16.982,9.752-32.563,9.533-36.853l0,0
	C1258.343,2574.482,1247.135,2570.281,1246.408,2570.019"/>
<path id="XMLID_79_" fill="#716872" d="M1283.608,2520.276c-0.025,0.013-0.051,0.026-0.076,0.039
	c-7.492,3.935-17.333,14.526-26.884,26.328c0.019,0.002,0.038,0.004,0.057,0.004c4.585,0.875,9.46,1.838,14.481,2.801l0,0
	c3.71-7.966,7.096-15.406,6.805-18.208c-0.146-1.488,2.074-5.515,5.603-10.941
	C1283.598,2520.292,1283.603,2520.283,1283.608,2520.276"/>
<path id="XMLID_509_" fill="#524F56" d="M1212.725,2688.764c7.49,1.512,16.302,3.177,25.55,4.992c0.017,0.003,0.034,0.007,0.05,0.01
	c-1.781,20.197-4.033,43.697-5.414,58.128c-0.024-0.007-0.046-0.014-0.07-0.021c-2.971-0.886-5.743-1.816-8.302-2.792
	c-7.144-2.742-12.657-5.844-16.222-9.354c-1.896-1.88-3.237-3.882-3.984-6.016c0,0,2.42-15.727,7.255-39.5
	c0.362-1.759,0.738-3.563,1.127-5.406C1212.719,2688.791,1212.722,2688.778,1212.725,2688.764"/>
<path id="XMLID_510_" fill="#7E787F" d="M1314.325,2478.869c-8.441,10.77-22.834,29.437-30.717,41.407
	c-0.025,0.013-0.051,0.026-0.076,0.039c-7.492,3.935-17.333,14.526-26.884,26.328c-0.124-0.017-0.244-0.082-0.339-0.084
	c0.013-0.02,0.026-0.041,0.04-0.061c14.988-32.691,33.501-58.723,55.247-66.593c0.315-0.139,0.617-0.263,0.909-0.378
	c0.125-0.049,0.251-0.097,0.377-0.146C1313.379,2479.194,1313.853,2479.03,1314.325,2478.869"/>
<path id="XMLID_513_" fill="#BEBBB6" d="M1249.675,2561.794c-0.07,0.174-0.141,0.348-0.21,0.522c0.002,0,0.004,0,0.007,0.001
	C1249.539,2562.142,1249.607,2561.967,1249.675,2561.794"/>
<path id="XMLID_522_" fill="#5A585E" d="M1256.648,2546.643c0.019,0.002,0.038,0.004,0.057,0.004
	c4.585,0.875,9.46,1.838,14.481,2.801c-2.329,5.164-4.839,10.503-6.622,15.144l0,0c-6.145-1.139-11.346-1.925-15.092-2.276
	c0.068-0.175,0.136-0.349,0.204-0.523c0.833-2.06,1.686-4.117,2.556-6.14c0.289-0.638,0.583-1.269,0.885-1.892
	c0.736-1.968,1.619-3.935,2.501-5.752l0,0c0.295-0.455,0.731-0.907,1.026-1.362
	C1256.645,2546.646,1256.646,2546.645,1256.648,2546.643"/>
<path id="XMLID_527_" fill="#5A585E" d="M1252.557,2611.335c-3.348,11.206-6.803,23.022-9.06,32.563l0,0
	c-8.003,2.189-15.607,4.201-21.83,5.865c1.935-7.657,4.057-15.635,6.319-23.715c0.388-1.343,0.782-2.687,1.183-4.031
	c0.003-0.011,0.006-0.021,0.009-0.031C1235.068,2618.84,1243.307,2614.739,1252.557,2611.335"/>
<path id="XMLID_528_" fill="#95928D" d="M1249.465,2562.316L1249.465,2562.316L1249.465,2562.316c0.002,0,0.004,0,0.007,0.001
	c-0.01,0.024-0.019,0.049-0.028,0.073c-0.051,0.119-0.102,0.239-0.152,0.358C1249.349,2562.604,1249.406,2562.46,1249.465,2562.316"
	/>
<path id="XMLID_529_" fill="#7E787F" d="M1249.471,2562.316c3.746,0.351,8.947,1.137,15.092,2.276
	c-1.565,4.113-2.582,7.615-2.474,9.89l0,0l0,0c-3.747,0-14.954-4.201-15.682-4.463c0.961-2.478,1.922-4.878,2.883-7.271
	c0.05-0.12,0.101-0.239,0.152-0.358C1249.452,2562.365,1249.462,2562.341,1249.471,2562.316"/>
<path id="XMLID_78_" fill="#5A515B" d="M1702.293,2614.919c2.495,13.921,3.965,29.656,2.936,45.39
	c0.588,3.784,1.177,7.265,1.617,10.745l0,0c5.289-4.843,9.549-10.594,12.194-17.405c-1.468-11.804-3.675-25.426-6.612-41.318
	L1702.293,2614.919z"/>
<path id="XMLID_77_" fill="#5A515B" d="M1656.739,2506.391c4.115,9.232,6.615,15.437,6.615,16.194
	c0.144,1.361,2.495,6.353,5.726,12.854c0.003,0.001,0.005,0.001,0.008,0.002c9.634,2.625,18.908,5.075,26.726,7.087
	c-1.467-4.378-3.078-8.754-4.838-12.982l0,0c-1.177-0.757-2.496-1.36-3.673-2.119h-0.147c-6.905-3.933-14.105-8.172-20.127-12.56
	C1664.38,2513.05,1661.002,2510.023,1656.739,2506.391"/>
<path id="XMLID_533_" fill="#37333B" d="M1719.039,2653.65L1719.039,2653.65c2.009,15.43,2.919,27.927,2.924,38.637
	c0.007,16.708-2.19,29.065-5.862,41.424c-0.884,2.877-5.145,5.752-12.341,8.476c4.551-15.135,7.196-39.046,3.085-71.132
	C1712.134,2666.212,1716.394,2660.46,1719.039,2653.65"/>
<path id="XMLID_76_" fill="#6C646D" d="M1690.972,2529.545c-10.588-6.877-26.666-12.45-34.23-23.15
	c-3.13-4.428-4.843-11.203-6.994-16.217c-3.238-7.546-6.494-15.085-9.857-22.577c-12.459-27.76-33.448-57.349-43.706-86.002
	c8.888,9.679,22.804,22.429,29.5,33.833c7.91,13.472,18.47,28.361,27,41.5C1667.952,2480.447,1680.545,2503.526,1690.972,2529.545
	C1689.802,2528.785,1689.942,2526.975,1690.972,2529.545z"/>
<path id="XMLID_535_" fill="#454249" d="M1669.079,2535.439c0.003,0.001,0.005,0.001,0.008,0.002
	c9.634,2.625,18.908,5.075,26.726,7.087c0.004,0.011,0.008,0.023,0.012,0.034c2.611,7.646,4.714,14.205,6.693,21.869
	c0.138,0.551,0.526,2.324,0.659,2.874c-4.577,1.398-9.878,2.797-15.184,3.933c-5.292-9.691-13.491-24.923-18.911-35.79
	C1669.082,2535.446,1669.081,2535.442,1669.079,2535.439"/>
<path id="XMLID_75_" fill="#454249" d="M1708.418,2591.815c-3.274,1.049-6.913,2.188-10.625,3.414
	c-0.018,0.006-0.036,0.011-0.054,0.017c1.764,5.747,3.229,12.4,4.552,19.659c0.001,0.004,0.002,0.01,0.002,0.014
	c3.884-0.961,7.259-1.835,10.091-2.533L1708.418,2591.815z"/>
<path id="XMLID_539_" fill="#95928D" d="M1536.255,2762.156l0.001,0.008h-0.16
	C1536.154,2762.161,1536.196,2762.159,1536.255,2762.156"/>
<path id="XMLID_540_" fill="#37333B" d="M1501.872,2666.212c11.313,0,11.608,23.155,23.953,25.122l0,0l10.43,70.822
	c-0.059,0.003-0.101,0.005-0.159,0.008h-0.575l-97.857,3.028v-67.198l0,0c0.014-0.17,0.021-0.342,0.022-0.515
	c0.006-1.674-0.613-3.494-2.076-5.689c-0.482-0.692-0.71-1.39-0.71-2.092C1434.898,2678.417,1493.714,2666.212,1501.872,2666.212"/>
<path id="XMLID_541_" fill="#635964" d="M4928.519,2720.265c6.054,11.661,33.142,11.617,44,13.333
	c21.101,3.335,56.734-1.281,78,0.667c45.081,4.128,115.439,0.935,160.667,2.667c91.924,3.519,158.021,0.69,250-0.667
	c97.828-1.443,172.595,6.939,270-2.667c44.968-4.435,83.144-7.994,126.667-20.667c10.563-3.076,24.917-3.549,30.667-14.667
	c3.397-6.568-1.799-15.737-4-22.667c-27.399-86.272-54.394-169.903-110-242c-24.712-32.042-42.715-49.99-78.667-69.333
	c-36.28-19.52-89.666-23.956-128-38.667c-82.822-31.782-147.94-87.764-226.667-127.333c-28.717-14.434-50.781-23.37-82.667-10.667
	c-40.588,16.171-81.375,37.664-115.333,64.667c-67.917,54.007-118.779,115.828-160.667,192.667
	c-21.687,39.782-31.688,80.276-42.667,124c-9.481,37.761-23.59,68.91-17.333,108
	C4924.802,2691.195,4921.955,2707.427,4928.519,2720.265"/>
<path id="XMLID_542_" fill="#766E77" d="M5218.933,2444.093c17.351,0,35.575,6.457,52.332,10.255
	c33.226,7.53,66.478,14.951,99.793,22.075c-8.561,3.632-14.875,7.416-23.901,7.276c-20.554-0.319-42.71-7.376-62.92-10.887
	c-34.29-5.956-70.52-11.081-105.36-11.031c-23.782,0.034-50.464,7.375-73.285,13.738c-17.292,4.822-35.092,5.025-53.123,5.408
	c1.726-2.726,9.255-4.225,11.587-5.115c16.506-6.302,33.814-10.747,50.949-14.943
	C5148.522,2452.661,5184.223,2444.09,5218.933,2444.093"/>
<path id="XMLID_74_" fill="#454149" d="M5567.947,2755.187c62.418-2.523,124.845-6.109,186.967-12.813
	c25.229-2.723,54.443-3.498,78.709-11.188c15.16-4.804,11.826,0.193,12.896-11.588c0.796-8.768-7.105-20.155-8.638-28.804
	c-1.99-11.234-2.789-23.797-6.084-34.733c-2.247-7.455-2.069-12.141-2.069-12.141c-7.208,1.678-19.926,2.868-25.774,3.703
	c-29.511,4.218-59.034,8.37-88.597,12.21c-14.008,1.82-135.715,25.274-136.447-3.982
	C5575.255,2688.963,5571.601,2722.075,5567.947,2755.187"/>
<path id="XMLID_73_" fill="#454149" d="M5355.031,2759.103c-83.016-0.381-166.006-1.862-248.917-6.353
	c-36.589-1.982-73.541-3.879-109.859-8.857c-13.76-1.886-36.514-1.357-48.702-7.585c6.74,3.444-1.036-7.585-1.541-9.485
	c-2.248-8.453-5.241-16.394-6.74-25.095c-3.917-22.733-2.652-46.231,1.485-68.833c50.416,26.323,114.521,27.946,170.04,29.082
	c63.559,1.3,127.053-2.664,190.423-7.1c7.869-0.551,51.795-8.947,57.587-2.44c3.044,3.419-0.926,26.16-1.081,30.528
	C5356.828,2708.343,5355.93,2733.723,5355.031,2759.103z"/>
<path id="XMLID_549_" fill="#7392A2" d="M5362.984,2198.583c1.859,0.997,3.726,2.023,5.602,3.072
	C5366.7,2200.611,5364.832,2199.587,5362.984,2198.583"/>
<path id="XMLID_551_" fill="#766E77" d="M5325.186,2212.265c15.937-0.001,34.881,11.022,49.333,16.667
	c15.997,6.247,31.297,17.173,48.667,18.667c6.534,0.562,16.099-1.658,21.954-0.705c5.893,0.959,13.542,7.999,18.925,11.116
	c17.583,10.183,35.39,20,53.561,29.096c36.327,18.186,74.096,34.1,113.67,43.702c1.696,0.412,10.933,2.881,12.557,3.458
	c14.877,5.281,19.307,15.054,31.874,24.85c13.735,10.707,27.479,21.5,40.463,33.118c-12.001-3.669-22.87,0.581-35.029-0.214
	c-11.698-0.765-23.372-3.218-34.815-5.634c-34.165-7.214-67.854-16.734-101.483-26.075c-35.064-9.74-70.048-19.844-105.355-28.679
	c-18.282-4.575-49.774-17.119-68.555-9.893c-13.01,5.006-22.805,9.351-37.482,9.855c-15.746,0.54-31.762-1.012-47.187-4.166
	c-7-1.431-26.167-3.85-30.298-11.333c-3.417-6.191,1.873-13.011,4.78-18.305c2.141-3.899,7.151-10.138,4.088-14.712
	c-3.192-4.765-13.782-2.915-18.571-1.924c-17.084,3.533-33.669,13.506-48.847,21.666c-49.272,26.488-95.915,57.506-144.263,85.583
	c20.771-30.897,31.105-52.372,54.431-81.385c12.132-15.09,36.844-50.273,54.435-58.288c18.53-8.442,43.607-17.388,62.481-25.129
	c9.327-3.825,15.2-6.744,25.333-6c12.701,0.933,23.684,7.985,36.065,10.793c4.363,0.99,15.646,4.57,19.935,2.54
	c6.12-2.897,7.479-15.977,17.386-15.977"/>
<path id="XMLID_553_" fill="#504D54" d="M5198.62,2397.215c44.445,0.002,89.324,7.733,132.895,15.779
	c41.206,7.608,83.384,15.847,122.888,30.156c17.392,6.3,31.182,12.041,50.253,12.898c26.438,1.189,53.102-0.772,79.441-2.891
	c30.354-2.442,60.636-5.775,90.862-9.462c15.415-1.88,30.815-3.869,46.206-5.939c5.7-0.766,20.246-5.522,25.473-3.5
	c5.209,2.016,13.101,17.039,16.235,21.822c-39.838,5.267-79.547,11.531-119.203,18.016c-41.731,6.823-83.475,13.703-125.057,21.393
	c-26.222,4.849-48.97,0.566-75.308-4.386c-46.46-8.735-92.647-18.949-138.778-29.263c-27.115-6.062-57.529-17.746-85.594-17.746l0,0
	c-44.838,0.224-91.98,12.237-134.673,25.046c-10.646,3.194-21.061,6.765-31.185,11.346c-22.406,10.137-47.254,7.476-71.356,4.912
	c12.914-15.549,24.967-36.222,40.123-49.415c14.512-12.632,49.275-13.089,68.857-17.083
	C5125.443,2411.812,5163.055,2397.213,5198.62,2397.215"/>
<path id="XMLID_556_" fill="#504D54" d="M5715.416,2514.827c22.62,0,55.406,4.931,77.603,9.107c0,0,3.597,6.83,9.328,18.424
	c4.687,9.481,9.3,19.019,13.32,28.806c-29.527-4.08-59.057-8.137-88.597-12.122c-16.232-2.189-32.568-5.6-48.974-4.478
	c-90.01,6.214-179.52,19.092-269.412,26.786c-68.625,6.091-137.739-14.63-206.53-17.399c-84.654-3.407-168.356-3.261-252.688-13.633
	c1.598-6.169,3.451-12.283,5.605-18.281c3.103-8.638,2.276-9.773,10.9-9.724c12.932,0.075,26.846,5.376,39.581,7.611
	c21.735,3.816,44.666,1.16,66.557-0.154c58.949-3.539,117.948-8.489,177.053-7.726c25.89,0.334,52.59,1.148,77.872,7.274
	c22.256,5.392,41.87,13.991,65.088,16.296c53.335,5.292,108.031-0.345,160.991-7.025c28.394-3.581,56.69-7.933,84.882-12.855
	C5663.694,2521.247,5689.191,2514.827,5715.416,2514.827"/>
<path id="XMLID_559_" fill="#766E77" d="M5678.096,2554.564c-35.989,20.418-78.073,21.573-118.76,25.495
	c-22.97,2.214-45.863,5.215-68.845,7.302c-24.446,2.22-59.418,6.418-81.807-6.011
	C5498.571,2573.656,5588.084,2560.657,5678.096,2554.564"/>
<path id="XMLID_560_" fill="#766E77" d="M5762.872,2456.078c3.856,5.942,6.395,11.019,6.223,14.363l0,0
	c-9.132,0.23-101.109,3.944-102.694,6.039c-0.308,0.432-1.353,0.606-2.84,0.606c-6.164,0-19.891-2.993-19.891-2.993
	C5686.338,2467.116,5730.307,2460.362,5762.872,2456.078L5762.872,2456.078"/>
<path id="XMLID_72_" fill="#37333B" d="M5510.54,2379.827c-25.41,0-31.179,33.042-30.046,35.731
	c9.358,22.207,35.125,16.587,46.561,1.702c4.734-6.162,9.293-13.937,7.739-21.65c-2.004-9.943-13.168-15.863-22.49-15.863
	L5510.54,2379.827z"/>
<path id="XMLID_565_" fill="#8B858C" d="M5535.258,2399.171c1.333,33.333-49.189,50.616-54.931,16.054
	c7.707,12.135,23.346,15.758,36.445,10.081C5526.994,2420.876,5531.491,2408.982,5535.258,2399.171"/>
<path id="XMLID_570_" fill="#37333B" d="M5585.824,2394.103C5585.819,2394.139,5585.819,2394.139,5585.824,2394.103
	 M5572.352,2382.64c-11.873,0-17.833,7.125-15.558,21.783c-0.142-0.856-0.343-1.725-0.43-2.587
	c17.655,27.263,44.528-19.131,17.176-19.133L5572.352,2382.64z"/>
<path id="XMLID_576_" fill="#8B858C" d="M5585.019,2391.598c1.833,7.667-4.581,17.649-12.077,19.734
	c-1.431,0.398-2.842,0.588-4.204,0.588c-6.209,0-11.354-3.952-12.375-10.085c3.364,5.295,7.839,6.658,11.904,6.658
	c2.042,0,3.981-0.344,5.623-0.707C5578.76,2406.71,5581.051,2401.571,5585.019,2391.598"/>
<path id="XMLID_578_" fill="#686868" d="M5368.586,2201.655c4.804,2.659,9.721,5.448,14.685,8.369
	c19.421,11.333,40.08,23.922,61.869,36.869l0,0c-21.789-12.947-42.448-25.536-61.869-36.869
	C5378.297,2207.188,5373.41,2204.35,5368.586,2201.655"/>
<path id="XMLID_582_" fill="#8B858C" d="M5276.093,2168.631c24.295,0,48.443,11.104,69.679,21.747
	c34.188,17.135,66.524,37.999,99.368,57.515c-33.068,9.315-68.212-13.344-98.465-24.699c-9.015-3.384-22.831-12.314-29.732-2.214
	c-4.811,7.041-0.892,12.601-9.188,13.487c-8.67,0.926-21.664-5.08-30.204-6.943c-10.484-2.288-23.146-6.589-33.988-5.912
	c-8.823,0.552-17.882,6.42-26.066,9.725c-19.513,7.881-39.226,15.291-59.016,22.446c10.126-11.156,18.142-23.951,25.156-37.238
	c6.222-11.785,19.478-17.426,30.835-24.076C5232.81,2181.732,5254.252,2168.631,5276.093,2168.631"/>
<path id="XMLID_70_" fill="#5A515B" d="M5815.667,2571.164c3.666,8.774,6.099,16.292,6.483,21.423
	c0.644,8.463,3.729,28.432,7.578,51.334l0,0c22.079-3.123,42.775-6.21,60.471-8.71c-6.201-17.062-13.751-36.274-22.626-56.737l0,0
	C5852.779,2576.402,5834.699,2573.9,5815.667,2571.164"/>
<path id="XMLID_69_" fill="#5A515B" d="M5806.06,2462.964c-1.712,0.428-28.094,7.256-36.965,7.477l0,0
	c-0.359,6.305,11.41,28.88,23.924,53.493l0,0c22.094,4.458,41.801,10.003,55.873,14.276
	C5836.453,2513.083,5822.186,2487.229,5806.06,2462.964L5806.06,2462.964"/>
<path id="XMLID_586_" fill="#37333B" d="M5890.198,2635.21L5890.198,2635.21c14.336,38.829,21.552,65.375,21.552,65.375
	c-5.928,11.197-30.005,20.537-67.047,28.402c-3.804-21.104-10.009-55.511-14.976-85.067
	C5851.806,2640.797,5872.502,2637.71,5890.198,2635.21"/>
<path id="XMLID_588_" fill="#5A515B" d="M5716.188,2392.233c17.978,5.333,41.799,20.283,64.634,37.057
	c-10.823,1.554-22.333,3.256-34.186,4.967l0,0c-9.08-11.464-17.367-22.179-16.779-26.305
	C5730.147,2405.76,5724.744,2399.986,5716.188,2392.233"/>
<path id="XMLID_612_" fill="#6C646D" d="M5640.781,2333.194c2.165,0.46,4.332,0.92,6.499,1.38
	c52.07,10.388,96.704,47.431,133.486,94.563c-0.259,0.007-0.598,0.144-0.943,0.153l0,0c-22.835-16.774-46.656-31.724-64.634-37.057
	l0,0C5696.054,2375.11,5661.163,2348.487,5640.781,2333.194"/>
<path id="XMLID_613_" fill="#454249" d="M5780.823,2429.29L5780.823,2429.29c0.875,0.62,1.754,1.24,2.631,1.862l0,0
	c2.136,2.643,4.188,5.419,6.244,8.323c3.031,4.036,5.982,8.201,8.844,12.37c-8.86,0.735-21.153,2.199-35.67,4.234l0,0
	c-4.392-6.701-10.534-14.384-16.235-21.822C5758.489,2432.546,5770,2430.844,5780.823,2429.29"/>
<path id="XMLID_615_" fill="#454249" d="M5793.019,2523.934c22.094,4.458,41.801,10.003,55.873,14.276l0,0
	c6.722,13.708,13.011,27.3,18.68,40.263c-14.792-2.072-32.872-4.573-51.905-7.31l0,0
	C5809.972,2557.301,5801.354,2540.171,5793.019,2523.934"/>
<path id="XMLID_616_" fill="#6C646D" d="M5798.542,2451.844L5798.542,2451.844c2.507,3.664,5.01,7.328,7.518,11.119
	c-1.712,0.428-28.094,7.256-36.965,7.477l0,0l0,0c0.172-3.344-2.367-8.42-6.223-14.363
	C5777.389,2454.044,5789.682,2452.579,5798.542,2451.844"/>
<path id="XMLID_68_" fill="#716872" d="M4926.423,2547.193L4926.423,2547.193c-6.397,23.417-11.063,43.576-14.335,61.004
	c6.625,9.856,16.83,17.951,29.67,24.697l0,0c0.904-5.162,2.068-10.33,3.398-15.76c-2.904-23.054-0.125-46.38,5.312-66.816
	C4941.211,2549.135,4933.168,2548.052,4926.423,2547.193"/>
<path id="XMLID_67_" fill="#716872" d="M4946.564,2480.519L4946.564,2480.519c-1.7,4.411-3.146,8.686-4.501,13.09
	c-2.471,8.027-4.778,15.793-7.004,23.173c7.792,1.348,16.449,2.801,25.28,4.379l0,0c5.215-12.08,10.753-21.599,15.436-27.368
	c1.84-2.23,4.181-5.116,6.945-8.397C4970.1,2484.041,4957.471,2482.302,4946.564,2480.519"/>
<path id="XMLID_60_" fill="#716872" d="M5054.171,2388.4c-9.688,5.64-17.849,10.212-23.898,13.062
	c-14.14,6.778-31.042,13.497-47.354,19.559c0.001,0.127-0.084,0.129-0.084,0.129c-2.988,1.104-5.896,2.075-8.799,3.177l0,0
	c-3.892,6.392-7.52,12.907-10.978,19.419c18.447-3.417,40.326-7.563,63.061-11.987l0,0c7.516-9.696,12.759-17.151,13.052-19.212
	C5039.314,2411.386,5044.861,2402.252,5054.171,2388.4"/>
<path id="XMLID_623_" fill="#524F56" d="M4911.087,2608.198c6.625,9.856,16.83,17.951,29.67,24.697
	c-8.646,47.242-1.391,82.265,9.761,104.085c-16.984-3.428-27.341-7.41-29.514-11.595c-9.698-18.969-15.46-38.038-15.465-64.75
	C4905.536,2645.902,4907.284,2628.845,4911.087,2608.198L4911.087,2608.198"/>
<path id="XMLID_625_" fill="#7E787F" d="M5162.352,2251.515c-31.216,34.04-63.456,73.026-90.254,110.612
	c-5.071,7.113-12.289,19.523-17.58,26.471c-6.015,7.901-11.348,6.792-20.281,11.381c-19.673,10.106-40.604,17.534-61.202,25.348
	c16.083-5.876,21.542-24.437,32.817-37.062c14.356-16.077,29.736-33.175,44-49.333c8.027-9.093,20.531-18.293,30-26
	c11.894-9.681,25.725-22.976,37.333-33c13.587-11.733,27.216-30.814,44.417-36.417L5162.352,2251.515z"/>
<path id="XMLID_626_" fill="#5A585E" d="M5026.118,2431.759c-12.609,16.377-31.516,39.334-43.399,53.637l0,0
	c-12.62-1.355-25.248-3.094-36.155-4.877c4.435-12.188,10.075-24.537,16.494-36.773l0,0
	C4981.505,2440.328,5003.384,2436.183,5026.118,2431.759"/>
<path id="XMLID_627_" fill="#5A585E" d="M4935.059,2516.782c7.792,1.348,16.449,2.801,25.28,4.379
	c-3.664,8.571-7.126,18.424-9.872,29.156l0,0c-9.255-1.182-17.298-2.266-24.044-3.125
	C4929.026,2537.619,4931.878,2527.526,4935.059,2516.782L4935.059,2516.782"/>
<path id="XMLID_37_" fill="#A29FA3" d="M5194.102,2204.765c-4.643,9.298-14.621,22.471-20.436,31.096
	c-2.854,4.233-5.859,9.327-9.629,12.866c-4.646,4.362-8.528,4.399-13.555,7.519c-15.86,9.841-29.84,27.263-44.252,39.4
	c-14.861,12.514-31.609,23.801-44.711,38.198c-14.486,15.918-28.583,32.214-42.918,48.27
	c-12.673,14.194-25.589,35.394-43.564,42.213c51.073-86.498,131.581-159.807,214.316-215.312L5194.102,2204.765z"/>
<path id="XMLID_630_" fill="#37333B" d="M5610.979,2591.711c4.621,0,6.549,2.11,6.634,5.482c0.001,0.06,0.002,0.122,0.002,0.184
	c0,0.604-0.068,1.315-0.204,2.134c-0.068,0.643-0.221,1.418-0.462,2.194l-0.083,0.131l0.003,0.129l0,0l0,0
	c-0.408,0.909-1.96,4.287-4.086,8.966l0,0l0,0c-0.079,0.259-0.162,0.39-0.16,0.519c-6.772,11.861-18.989,26.558-28.845,35.798
	c-3.371,3.22-4.86,6.027-4.872,8.429c0,0.058,0,0.115,0.002,0.172l-10.963,99.336c-9.558,0.368-19.119,0.737-28.767,0.978
	c-41.255,1.547-83.819,2.356-126.309,2.776c-6.12,0.025-12.238,0.049-18.359,0.074c-4.793,0.053-9.585,0.07-14.367,0.07
	c-4.333,0-8.657-0.014-12.96-0.029c-2.184,0.055-4.368,0.073-6.552,0.073c-1.867,0-3.734-0.013-5.602-0.026l3.788-106.994l0,0
	c1.283,0.129,2.701,0.191,4.248,0.191c47.94,0,218.302-59.852,247.512-60.583
	C5610.714,2591.713,5610.847,2591.711,5610.979,2591.711"/>
<path id="XMLID_34_" fill="#37333B" d="M1423.565,2512.105c-4.627-2.308-9.479-1.776-13.716,5.41l-1.583,3.25
	c-2.917,9.75-3.511,18.26-0.583,21.083c0.911,0.88,4.089,2.838,5.417,3.5c2.97,1.481,10.251-3.512,12.196-6.282
	c7.056-10.051,5.372-19.776,0.747-25.02C1425.292,2513.194,1424.457,2512.55,1423.565,2512.105"/>
<path id="XMLID_32_" fill="#8B858C" d="M1408.292,2520.406l-0.02,0.101c-2.647,12.793-2.159,17.326,0.768,20.149
	c0.911,0.88,2.015,1.823,3.343,2.486c2.97,1.481,7.06,1.552,12.625-3.655c-4.21,6.877-10.269,9.742-14.791,7.487
	c-0.885-0.441-1.711-1.078-2.452-1.92c-4.285-4.86-4.591-14.606-0.583-22.872C1407.249,2522.04,1408.292,2520.406,1408.292,2520.406
	"/>
<path id="XMLID_30_" fill="#5A515B" d="M1703.178,2567.306l5.24,24.51c-3.274,1.049-6.913,2.188-10.625,3.414
	c-0.018,0.006-0.036,0.011-0.054,0.017c-0.002-0.005-0.003-0.01-0.005-0.016c-2.201-8.174-4.699-14.53-6.758-18.314
	c-0.735-1.513-1.765-3.48-2.938-5.599c-0.014-0.026-0.029-0.053-0.043-0.079C1693.3,2570.103,1698.601,2568.703,1703.178,2567.306z"
	/>
</svg>
