<?xml version="1.0" encoding="utf-8"?>
<!-- Generator: Adobe Illustrator 19.0.0, SVG Export Plug-In . SVG Version: 6.00 Build 0)  -->
<!DOCTYPE svg PUBLIC "-//W3C//DTD SVG 1.1//EN" "http://www.w3.org/Graphics/SVG/1.1/DTD/svg11.dtd">
<svg version="1.1" xmlns="http://www.w3.org/2000/svg" xmlns:xlink="http://www.w3.org/1999/xlink" x="0px" y="0px"
	 viewBox="0 0 9870.104 2778.383" enable-background="new 0 0 9870.104 2778.383" xml:space="preserve">
<g id="car">
	<circle id="XMLID_328_" fill="#0B051B" cx="4314.858" cy="2088.529" r="25.711"/>
	<circle id="XMLID_318_" fill="#0B051B" cx="4094.488" cy="2049.444" r="25.711"/>
	<path id="XMLID_315_" fill="#403844" d="M3959.548,2003.382c-0.661,3.03,0.845,6.07,3.523,7.611
		c-0.445,4.161-1.232,10.768-1.914,13.091c-1.033,3.491,0.773,4.937,0.773,4.937s17.152,4.284,21.247,3.789
		c4.098-0.51,2.519-5.479,2.519-5.479l-6.18-5.814l-2.129,6.106c0,0-9.973-2.973-10.582-5.083
		c-0.389-1.361,1.164-7.019,2.303-10.853c2.418-0.701,4.349-2.608,4.903-5.151c0.83-3.806-1.727-7.585-5.731-8.459
		C3964.292,1997.208,3960.378,1999.576,3959.548,2003.382z"/>
	<path id="XMLID_300_" fill="#403844" d="M3983.297,2030.559c-1.601,0.027-12.623-1.081-14.621-1.517
		c-1.998-0.436-6.224-0.714-6.312-3.049c-0.089-2.335,1.869-14.966,1.869-14.966s3.147,1.112,3.707,0.373
		c0.56-0.739-4.703-3.117-5.556-4.233s-0.683-6.921-0.683-6.921l-0.961,0.539c1.644-2.202,4.57-3.355,7.542-2.707
		c3.034,0.662,5.229,2.993,5.757,5.739c-0.484,0.302-0.904,0.785-0.999,1.565c-0.135,1.12-0.169,2.586-0.174,3.698
		c-0.914,1.25-2.239,2.167-3.758,2.607c-1.571,0.052-5.38,10.792-4.119,11.865c1.261,1.073,12.559,5.032,12.559,5.032l-0.105-1.122
		l2.073-5.945l6.18,5.814c0,0,0.004,0.013,0.005,0.017C3984.983,2028.92,3984.125,2030.545,3983.297,2030.559z"/>
	<path id="XMLID_297_" fill="#201923" d="M3982.958,2033.261c-4.095,0.494-21.247-3.789-21.247-3.789s-1.806-1.446-0.773-4.937
		c0.682-2.323,1.469-8.93,1.915-13.091c-2.678-1.541-4.184-4.581-3.523-7.611l0.588,0.162l0.71,0.155c0,0,0.683,2.352,1.536,3.468
		c0.853,1.116,6.116,3.494,5.556,4.233s-3.706-0.373-3.706-0.373s-1.958,12.631-1.869,14.966c0.089,2.335,4.314,2.613,6.312,3.049
		c1.998,0.436,13.02,1.544,14.621,1.517c0.828-0.014,1.687-1.639,2.404-3.211
		C3985.538,2027.981,3986.978,2032.761,3982.958,2033.261z"/>
	<path id="XMLID_274_" fill="#524C56" d="M3964.989,2023.552c-1.261-1.073,2.548-11.812,4.119-11.865
		c-1.139,3.834-2.692,9.492-2.303,10.853c0.608,2.11,10.582,5.083,10.582,5.083l0.056-0.161l0.105,1.122
		C3977.548,2028.584,3966.25,2024.625,3964.989,2023.552z"/>
	<path id="XMLID_272_" fill="#736D77" d="M3974.207,2004.696c0.169,0.878,0.006,0.919-0.196,1.842
		c-0.206,0.946-0.604,1.803-1.146,2.543c0.004-1.112,0.038-2.578,0.174-3.698
		C3973.134,2004.602,3973.723,2004.998,3974.207,2004.696z"/>
	<polygon id="XMLID_271_" fill="#0B051B" points="4058.027,2041.934 4059.768,2047.239 4180.893,2072.008 4202.304,2071.338 
		4088.222,2038.652 	"/>
	<path id="XMLID_268_" fill="#726A72" d="M4087.672,1829.401c13.24,0.23,144.613,26.759,148.627,30.292
		c4.014,3.534,14.102,134.89,14.102,134.89s117.758,49.645,121.311,50.42c-14.41-3.143-131.71,19.651-215.79-48.427
		C4083.499,1937.936,4080.925,1829.283,4087.672,1829.401z"/>
	<path id="XMLID_262_" fill="#635863" d="M4055.62,1859.357c6.772-11.548,18.812-30.187,32.052-29.957
		c6.507,0.113,110.443,20.744,110.443,20.744s-18.158,158.107-16.116,159.904c4.014,3.534,112.957,28.603,112.957,28.603
		s73.204,5.576,76.756,6.351c3.552,0.775-3.676,29.625-3.554,32.043c0.378,7.485-7.387,11.367-7.387,11.367
		c-1.177-0.264-68.777,1.257-85.705-2.166c-0.765-8.128-7.979-33.109-27.907-36.537c-18.887-3.249-28.87,15.477-32.969,24.232
		c-44.194-8.93-118.643-24.433-156.162-32.008c-1.875-10.652-2.421-33.503-29.39-35.99c-21.198-1.955-25.264,13.567-31.294,22.826
		c-21.196-4.278-24.576-4.047-24.576-4.047S4048.848,1870.905,4055.62,1859.357z"/>
	<path id="XMLID_260_" fill="#703F11" d="M4300.7,2048.781c-7.9,1.273-23.401,20.245,0.873,29.156
		C4325.847,2086.849,4322.25,2045.309,4300.7,2048.781z"/>
	<path id="XMLID_258_" fill="#703F11" d="M4354.406,2053.099c-16.455-3.549-20.018,17.434-5.017,23.001
		C4364.39,2081.667,4370.861,2056.648,4354.406,2053.099z"/>
	<path id="XMLID_256_" fill="#E099C6" d="M4232.984,1864.872l12.76,132.132l-59.412,8.62l14.732-147.963
		C4201.065,1857.661,4234.944,1864.768,4232.984,1864.872z"/>
	<path id="XMLID_253_" fill="#CE74B5" d="M4193.449,1855.925l-17.6,150.071l-111.091-24.231c0,0,47.023-132.164,51.397-137.59
		C4120.528,1838.748,4131.417,1845.053,4193.449,1855.925z"/>
	<path id="XMLID_252_" fill="#403844" d="M4175.005,2009.863l-20.203,47.865l-93.409-20.375c0,0,0.01-19.575-10.426-26.538
		s-18.641-5.938-18.641-5.938l25.842-18.462L4175.005,2009.863z"/>
	<polygon id="XMLID_251_" fill="#A85296" points="4106.417,1990.85 4110.627,1911.65 4149.464,1921.27 4156.365,2001.745 	"/>
	
		<ellipse id="XMLID_245_" transform="matrix(-0.9953 -0.0964 0.0964 -0.9953 8057.9536 4184.3989)" fill="#A85296" cx="4130.058" cy="1897.546" rx="16.881" ry="13.864"/>
	<path id="XMLID_243_" fill="none" d="M4191.358,1928.028c1.422,0.138,2.812,0.11,4.157-0.036l-0.672,5.685l-12.045-2.984
		l0.732-5.097C4185.803,1926.884,4188.466,1927.748,4191.358,1928.028z"/>
	<polygon id="XMLID_210_" fill="#C478AD" points="4193.32,1933.345 4212.1,1937.952 4218.393,2000.973 4186.333,2005.624 	"/>
	<path id="XMLID_204_" fill="#C478AD" d="M4209.497,1915.856c-0.625,6.453-7.971,11.023-15.403,11.826l2.709-27.213
		C4203.642,1902.812,4210.105,1909.569,4209.497,1915.856z"/>
	<polygon id="XMLID_200_" fill="#A85296" points="4184.955,1931.521 4175.849,2005.995 4169.212,2004.548 4173.263,1928.332 	"/>
	<path id="XMLID_164_" fill="#A85296" d="M4175.892,1912.601c0.544-5.616,6.355-11.349,12.427-12.935l-3.085,26.302
		C4180.212,1923.126,4175.384,1917.847,4175.892,1912.601z"/>
	<polygon id="XMLID_163_" fill="#C478AD" points="4218.735,1861.441 4219.281,1870.429 4228.995,1872.548 4229.667,1878.257 
		4202.509,1874.307 4203.518,1869.682 4214.346,1870.07 4215.013,1860.629 	"/>
	<g id="XMLID_161_">
		<path id="XMLID_162_" fill="#C478AD" d="M4237.301,1998.017c-3.812-5.521-9.208-9.546-15.592-10.939
			c-10.731-2.341-21.282,0.465-28.222,7.505l4.439,4.376c5.43-5.508,12.89-9.007,21.52-7.124c4.331,0.945,10.958,2.275,11.317,6.891
			C4230.893,2000.399,4237.301,1998.017,4237.301,1998.017z"/>
	</g>
	<path id="XMLID_157_" fill="#E9983E" d="M4216.044,2010.802"/>
	<path id="XMLID_141_" fill="#F4AB53" d="M4303.625,2051.949c-7.9,1.273-23.401,20.245,0.873,29.156
		C4328.772,2090.016,4325.176,2048.477,4303.625,2051.949z"/>
	<path id="XMLID_136_" fill="#F69D25" d="M4357.686,2056.65c-16.455-3.549-20.018,17.434-5.017,23.001
		S4374.14,2060.199,4357.686,2056.65z"/>
	<path id="XMLID_132_" fill="#403844" d="M4012.702,1978.463c-0.926,4.246,2.395,8.576,7.418,9.672
		c5.023,1.096,9.846-1.458,10.772-5.704c0.926-4.246-2.395-8.576-7.418-9.672c-3.377-0.737-6.664,0.176-8.737,2.144
		C4013.728,1975.862,4013.006,1977.072,4012.702,1978.463z"/>
	<path id="XMLID_129_" fill="#352D38" d="M4055.819,1992.46c0,0-2.094,3.993,5.1,6.906c7.194,2.913,16.437-1.075,16.437-1.075
		L4055.819,1992.46z"/>
	<path id="XMLID_119_" fill="#352D38" d="M4022.223,1985.125l-7.248-7.942c0,0-1.546,3.431,0.45,5.25
		C4017.42,1984.252,4022.223,1985.125,4022.223,1985.125z"/>
	<path id="XMLID_118_" fill="#352D38" d="M4025.953,1983.519l-6.289-7.54c0,0,3.787-1.146,7.574,1.652
		C4031.024,1980.43,4025.953,1983.519,4025.953,1983.519z"/>
	<path id="XMLID_117_" fill="#726A72" d="M4079.719,1994.771c0,0,0.682,4.184-0.84,3.852c-1.522-0.332-23.059-6.163-23.059-6.163
		s-0.046-1.242,1.344-2.133C4058.554,1989.436,4079.719,1994.771,4079.719,1994.771z"/>
	<path id="XMLID_51_" fill="#964285" d="M4175.01,1905.916c-0.51,0.06-1.78,0.03-3.6-0.07c0.15,0.94,0.23,1.91,0.23,2.9
		c0,8.44-5.86,15.58-13.96,18.03l1.4,2.86c0,0,4.58,5.61,7.23,11.96c2.64,6.35,0,4.76-1.06,15.1c-1.06,10.34-1.59,24.07,0,33.53
		c1.59,9.46,3.96,14.32,3.96,14.32l-55.41-12.09c0,0-2.02-14.86-0.6-20.13c1.43-5.26,8.11-29.67,11.28-38.65
		c1.62-4.57,9.87-6.97,17.57-8.22c-6.35-3.18-10.66-9.47-10.66-16.71c0-2.14,0.38-4.19,1.07-6.1c-1.45-0.13-2.29-0.21-2.29-0.21
		s1.07-5.14,3.1-4.89c2.03,0.25-3.19-3.81-0.58-5.26c2.61-1.45,9.62-7.38,14.22-4.93c0,0,1.82-4.23,9.46-3.71
		c7.64,0.52,12.76,8.43,15.27,13.9c2.51,5.47,2.51,5.47,2.51,5.47l2.93,1.16C4177.08,1904.176,4178.54,1905.496,4175.01,1905.916z"
		/>
	<path id="XMLID_114_" fill="#AA6197" d="M4240.485,1992.063v5.704l-7.104,1.16l0.456-7.443l-13.875-27.164l4.367,22.918
		l-2.235,13.197l0,0l-30.533,4.43l-5.231,0.754l6.851-68.8l6.479-3.473l-5.564-5.664l2.356-23.675c0,0,4.087-5.23,13.087-4.341
		c9,0.889,8.232,2.695,12.139,9.08c3.917,6.374,2.023,10.55,0.605,17.223c-0.984,4.628-6.088,6.298-8.875,7.709
		c-4.052,2.051-1.308,4.275-1.308,4.275l7.862,5.942l6.663,15.07l13.861,23.924V1992.063z"/>
	<path id="XMLID_105_" fill="#B6B2B7" d="M4026.909,2021.867"/>
	<polygon id="XMLID_104_" fill="#B6B2B7" points="4026.909,2035.151 4029.557,2034.302 4029.553,2034.29 	"/>
</g>
</svg>
