<?xml version="1.0" encoding="utf-8"?>
<!-- Generator: Adobe Illustrator 19.0.0, SVG Export Plug-In . SVG Version: 6.00 Build 0)  -->
<!DOCTYPE svg PUBLIC "-//W3C//DTD SVG 1.1//EN" "http://www.w3.org/Graphics/SVG/1.1/DTD/svg11.dtd">
<svg version="1.1" xmlns="http://www.w3.org/2000/svg" xmlns:xlink="http://www.w3.org/1999/xlink" x="0px" y="0px"
	 viewBox="0 0 9870.104 2778.383" enable-background="new 0 0 9870.104 2778.383" xml:space="preserve">
<g id="car_x5F_tire_x5F_1">
	<circle id="XMLID_312_" fill="#403844" cx="4026.909" cy="2035.219" r="25.711"/>
	<circle id="XMLID_309_" fill="#635863" cx="4026.909" cy="2035.219" r="16.306"/>
	<path id="XMLID_308_" fill="#201923" d="M4042.043,2035.166c0,3.314-1.115,6.372-2.931,8.858
		c-2.581,3.568-6.691,5.926-11.343,6.181c-0.287,0.032-0.573,0.095-0.86,0.095c-6.914,0-12.649-4.652-14.497-10.961
		c-0.382-1.338-0.637-2.74-0.637-4.174c0-3.122,0.956-6.022,2.549-8.443c2.74-4.047,7.36-6.723,12.585-6.723
		c6.404,0,11.821,3.983,14.051,9.59C4041.629,2031.311,4042.043,2033.191,4042.043,2035.166z"/>
	<path id="XMLID_305_" fill="#635863" d="M4040.885,2035.165c0,3.06-1.03,5.885-2.707,8.18c-2.383,3.295-6.179,5.473-10.474,5.708
		c-0.265,0.03-0.53,0.088-0.795,0.088c-6.385,0-11.681-4.296-13.387-10.122c-0.353-1.236-0.588-2.53-0.588-3.854
		c0-2.883,0.883-5.561,2.354-7.797c2.531-3.737,6.797-6.208,11.622-6.208c5.914,0,10.916,3.678,12.976,8.856
		C4040.502,2031.605,4040.885,2033.341,4040.885,2035.165z"/>
	<path id="XMLID_301_" fill="#B6B2B7" d="M4030.323,2035.154c0,0.747-0.251,1.437-0.661,1.998c-0.582,0.805-1.509,1.337-2.558,1.394
		c-0.065,0.007-0.129,0.021-0.194,0.021c-1.559,0-2.853-1.049-3.27-2.472c-0.086-0.302-0.144-0.618-0.144-0.941
		c0-0.704,0.216-1.358,0.575-1.904c0.618-0.913,1.66-1.516,2.839-1.516c1.445,0,2.666,0.898,3.169,2.163
		C4030.229,2034.284,4030.323,2034.708,4030.323,2035.154z"/>
	<path id="XMLID_266_" fill="#9E9A9E" d="M4039.895,2035.163c0,2.844-0.957,5.471-2.514,7.602c-0.722,0.992-1.583,1.861-2.549,2.609
		c-0.104,0.078-0.2,0.165-0.304,0.244l-0.713-0.974c0.635-0.47,1.235-0.992,1.766-1.574c0.287-0.322,0.565-0.661,0.826-1.018
		c1.409-1.931,2.279-4.314,2.279-6.889c0-0.461-0.035-0.922-0.096-1.365c-0.096-0.774-0.261-1.522-0.496-2.235
		c-0.009-0.017-0.009-0.035-0.017-0.052c-0.078-0.226-0.148-0.461-0.235-0.687c-1.731-4.366-5.949-7.463-10.933-7.463
		c-4.062,0-7.663,2.087-9.794,5.236c-0.583,0.879-1.052,1.853-1.392,2.879c-0.374,1.166-0.592,2.401-0.592,3.688
		c0,1.113,0.2,2.209,0.496,3.244c0.748,2.548,2.314,4.74,4.392,6.271c1.922,1.418,4.297,2.261,6.889,2.261
		c0.226,0,0.444-0.052,0.67-0.078c2.322-0.122,4.462-0.931,6.228-2.218l0.713,0.974c-1.957,1.426-4.314,2.314-6.871,2.453
		c-0.244,0.026-0.496,0.078-0.74,0.078c-2.853,0-5.471-0.931-7.602-2.496c-2.296-1.679-4.018-4.097-4.836-6.906
		c-0.331-1.148-0.548-2.348-0.548-3.584c0-1.418,0.235-2.783,0.652-4.062c0.374-1.139,0.887-2.209,1.531-3.183
		c2.357-3.47,6.315-5.767,10.803-5.767c5.497,0,10.142,3.418,12.055,8.228c0.096,0.244,0.183,0.505,0.261,0.757
		c0.009,0.017,0.017,0.035,0.017,0.052c0.035,0.104,0.07,0.191,0.104,0.287C4039.695,2032.641,4039.895,2033.885,4039.895,2035.163z
		"/>
</g>
<g id="Layer_1">
</g>
</svg>
