<?xml version="1.0" encoding="utf-8"?>
<!-- Generator: Adobe Illustrator 19.0.0, SVG Export Plug-In . SVG Version: 6.00 Build 0)  -->
<!DOCTYPE svg PUBLIC "-//W3C//DTD SVG 1.1//EN" "http://www.w3.org/Graphics/SVG/1.1/DTD/svg11.dtd">
<svg version="1.1" xmlns="http://www.w3.org/2000/svg" xmlns:xlink="http://www.w3.org/1999/xlink" x="0px" y="0px"
	 viewBox="0 0 9870.104 2778.383" enable-background="new 0 0 9870.104 2778.383" xml:space="preserve">
<g id="spider">
	<g id="XMLID_1151_" opacity="0.61">
		<rect id="XMLID_1152_" x="3640.071" y="1301.914" fill="#E7DCE5" width="0.03" height="3.105"/>
	</g>
	<path id="XMLID_998_" fill="#999295" d="M3639.883,1304.461c0,0-0.107,0.192-0.113,0.208c-0.006,0.016,0.002,0.245,0.016,0.282
		s0.163,0.251,0.163,0.251s-0.019-0.074-0.002-0.115c0.017-0.041,0.084-0.101,0.115-0.107c0.031-0.006,0.115,0.008,0.144,0.035
		c0.029,0.027,0.043,0.097,0.045,0.12s0.002,0.07,0.002,0.07s0.142-0.202,0.148-0.216s0.033-0.167,0.035-0.218
		c0.002-0.052,0.01-0.08,0.002-0.095s-0.13-0.229-0.124-0.231c0.006-0.002,0.07,0.109,0.101,0.148
		c0.031,0.039,0.058,0.082,0.053,0.101c-0.004,0.018-0.033,0.301-0.037,0.307c-0.004,0.006-0.249,0.334-0.249,0.334l0.008,0.014
		c0,0,0.266-0.144,0.282-0.15c0.017-0.006,0.064-0.014,0.084-0.006c0.021,0.008,0.194,0.076,0.21,0.091
		c0.016,0.014,0.136,0.192,0.128,0.202s-0.099-0.157-0.132-0.175c-0.033-0.018-0.225-0.103-0.253-0.095
		c-0.029,0.008-0.315,0.157-0.319,0.163c-0.004,0.006,0,0.023,0,0.023s0.264,0.177,0.276,0.196s0.113,0.157,0.126,0.206
		c0.012,0.049,0.056,0.218,0.047,0.227c-0.008,0.008-0.012,0.041-0.019,0.029c-0.006-0.012,0.008-0.053-0.029-0.161
		c-0.037-0.107-0.05-0.138-0.084-0.192c-0.035-0.054-0.072-0.093-0.103-0.122c-0.031-0.029-0.225-0.161-0.225-0.161l-0.008,0.033
		c0,0,0.167,0.272,0.181,0.301c0.014,0.029,0.025,0.053,0.033,0.107s0.008,0.26-0.01,0.282s-0.056,0.15-0.064,0.167
		s-0.021,0.058-0.031,0.062c-0.01,0.004-0.031,0.01-0.029-0.002c0.002-0.012,0.045-0.074,0.054-0.117
		c0.008-0.043,0.058-0.183,0.058-0.227c0-0.043,0.002-0.177-0.023-0.231c-0.025-0.054-0.15-0.268-0.15-0.268l-0.031-0.054
		l-0.019,0.015c0,0,0.012,0.027,0.002,0.031c-0.01,0.004-0.016-0.019-0.027-0.019c-0.01,0-0.029-0.008-0.033,0.002
		c-0.004,0.01-0.012,0.037-0.021,0.023s0.002-0.033-0.004-0.039c-0.006-0.006-0.025-0.006-0.025-0.006s-0.144,0.276-0.15,0.297
		s-0.035,0.039-0.037,0.101c-0.002,0.062-0.004,0.223,0.012,0.26c0.016,0.037,0.086,0.216,0.086,0.229
		c0,0.012,0.004,0.025-0.014,0.01s-0.111-0.231-0.111-0.257c0-0.027-0.016-0.27,0-0.301c0.017-0.031,0.148-0.282,0.153-0.297
		c0.004-0.015,0.031-0.056,0.031-0.056s0.004-0.029,0.004-0.037c0-0.008-0.058,0.043-0.058,0.043s-0.192,0.128-0.196,0.148
		c-0.004,0.021-0.093,0.095-0.128,0.224c-0.035,0.13-0.041,0.185-0.041,0.192c0,0.006-0.017,0.01-0.019,0.002
		c-0.002-0.008,0.019-0.14,0.033-0.194s0.08-0.194,0.113-0.229s0.152-0.128,0.198-0.159c0.045-0.031,0.082-0.062,0.082-0.062
		l0.008-0.025c0,0-0.111-0.072-0.126-0.076s-0.175-0.082-0.189-0.084s-0.189,0.074-0.206,0.08c-0.016,0.006-0.037,0.015-0.045,0.033
		c-0.008,0.019-0.089,0.115-0.091,0.128c-0.002,0.012-0.012,0.041-0.025,0.035c-0.012-0.006,0.004-0.06,0.033-0.101
		c0.029-0.041,0.056-0.097,0.074-0.107c0.019-0.01,0.229-0.103,0.249-0.103c0.021,0,0.111,0.041,0.142,0.052
		c0.031,0.01,0.14,0.078,0.14,0.078l0.045,0.025c0,0-0.012-0.016-0.025-0.035c-0.012-0.019-0.109-0.144-0.132-0.177
		s-0.066-0.084-0.08-0.109c-0.014-0.025-0.045-0.262-0.041-0.295s0.019-0.068,0.033-0.091
		C3639.773,1304.603,3639.868,1304.419,3639.883,1304.461z"/>
</g>
<g id="Layer_1">
</g>
</svg>
