<?xml version="1.0" encoding="utf-8"?>
<!-- Generator: Adobe Illustrator 19.0.0, SVG Export Plug-In . SVG Version: 6.00 Build 0)  -->
<!DOCTYPE svg PUBLIC "-//W3C//DTD SVG 1.1//EN" "http://www.w3.org/Graphics/SVG/1.1/DTD/svg11.dtd">
<svg version="1.1" xmlns="http://www.w3.org/2000/svg" xmlns:xlink="http://www.w3.org/1999/xlink" x="0px" y="0px"
	 viewBox="0 0 9870.104 2778.383" enable-background="new 0 0 9870.104 2778.383" xml:space="preserve">
<g id="spidernet" opacity="0.71">
	<g id="XMLID_834_" opacity="0.71">
		<path id="XMLID_1049_" fill="#E7DCE5" d="M3636.02,1302.005l-0.01-0.023c-0.008-0.018-0.759-1.806-1.582-3.102
			c-0.823-1.295-3.429-3.475-3.456-3.496l-0.006-0.005l0-0.008c0.002-0.016,0.185-1.595-0.041-2.829
			c-0.226-1.231-0.886-2.006-0.893-2.014l0.022-0.02c0.007,0.008,0.672,0.789,0.899,2.028c0.219,1.192,0.057,2.706,0.042,2.83
			c0.144,0.12,2.65,2.23,3.456,3.499c0.773,1.218,1.483,2.868,1.574,3.083l7.66-9.595l0.011,0.007l1.917,1.208l1.097,0.331
			l0.475-0.124l0.008,0.029l-0.484,0.126l-0.004-0.001l-1.104-0.333l-1.909-1.202L3636.02,1302.005z"/>
	</g>
	<g id="XMLID_982_">
		<polygon id="XMLID_1047_" fill="#E7DCE5" points="3638.601,1318.772 3638.572,1318.764 3642.405,1304.66 3645.509,1293.597 
			3645.538,1293.605 3642.434,1304.668 		"/>
	</g>
	<g id="XMLID_838_">
		
			<rect id="XMLID_1046_" x="3640.329" y="1300.794" transform="matrix(0.0717 0.9974 -0.9974 0.0717 4683.2368 -2430.1982)" fill="#E7DCE5" width="13.66" height="0.03"/>
	</g>
	<g id="XMLID_839_">
		
			<rect id="XMLID_1045_" x="3628.669" y="1290.586" transform="matrix(0.9999 0.0118 -0.0118 0.9999 15.4877 -42.8267)" fill="#E7DCE5" width="14.147" height="0.03"/>
	</g>
	<g id="XMLID_827_">
		<path id="XMLID_1044_" fill="#E7DCE5" d="M3647.551,1306.896c-0.006-0.029-0.615-2.95-1.675-3.113
			c-1.067-0.164-3.203,0.226-3.224,0.229l-0.01,0.002l-0.006-0.008c-0.009-0.013-0.888-1.337-2.181-1.932
			c-1.229-0.566-3.756-0.582-4.032-0.582c-0.015,0-0.023,0-0.024,0h-0.012l-0.003-0.011c-0.006-0.024-0.636-2.429-1.685-3.724
			c-1.049-1.296-2.813-2.733-2.831-2.748l-0.007-0.006l0.002-0.009c0.002-0.013,0.248-1.282,0.083-2.433
			c-0.164-1.149-0.844-2.026-0.851-2.035l0.023-0.019c0.007,0.009,0.692,0.892,0.857,2.049c0.158,1.104-0.06,2.318-0.081,2.434
			c0.123,0.1,1.81,1.489,2.828,2.747c1.015,1.254,1.639,3.542,1.688,3.723c0.003,0,0.007,0,0.012,0c0.275,0,2.81,0.016,4.045,0.585
			c1.248,0.574,2.111,1.821,2.188,1.935c0.159-0.028,2.188-0.388,3.225-0.228c1.081,0.167,1.675,3.016,1.7,3.137L3647.551,1306.896z
			"/>
	</g>
	<g id="XMLID_830_">
		<path id="XMLID_1043_" fill="#E7DCE5" d="M3647.343,1304.169c-0.004-0.012-0.424-1.203-1.323-1.407
			c-0.115-0.026-0.252-0.038-0.404-0.038c-1.029,0-2.714,0.531-2.734,0.537l-0.019,0.006l-0.001-0.019
			c0-0.017-0.099-1.642-1.448-2.112c-1.357-0.473-4.176-0.623-4.205-0.624l-0.015-0.001l0.001-0.015
			c0.002-0.032,0.234-3.208-1.075-3.944c-1.318-0.742-3.272-1.802-3.292-1.812l-0.01-0.005l0.003-0.012
			c0.005-0.02,0.517-2.007,0.23-2.971c-0.287-0.962-0.638-1.24-0.641-1.243l0.019-0.023c0.015,0.011,0.361,0.285,0.651,1.257
			c0.278,0.934-0.185,2.812-0.226,2.976c0.155,0.084,2.013,1.094,3.282,1.807c1.279,0.72,1.108,3.715,1.092,3.958
			c0.227,0.013,2.888,0.168,4.197,0.625c1.289,0.449,1.452,1.933,1.467,2.119c0.215-0.067,2.269-0.695,3.135-0.495
			c0.915,0.208,1.34,1.414,1.344,1.426L3647.343,1304.169z"/>
	</g>
	<g id="XMLID_831_">
		<path id="XMLID_1042_" fill="#E7DCE5" d="M3647.328,1303.03c-0.012-0.008-1.237-0.771-2.12-0.956
			c-0.884-0.185-2.024,0.019-2.036,0.021l-0.008,0.001l-0.006-0.006c-0.013-0.016-1.286-1.544-2.847-2.016
			c-1.563-0.473-2.363-0.52-2.372-0.52l-0.011-0.001l-0.002-0.011c-0.006-0.026-0.612-2.609-1.371-3.41
			c-0.76-0.801-2.849-1.613-2.87-1.621l-0.013-0.005l0.003-0.013c0.004-0.017,0.439-1.655,0.604-2.458
			c0.163-0.796-0.387-1.439-0.393-1.446l0.022-0.02c0.006,0.006,0.565,0.661,0.399,1.471c-0.157,0.766-0.559,2.29-0.601,2.446
			c0.176,0.069,2.134,0.851,2.868,1.624c0.739,0.779,1.333,3.228,1.376,3.413c0.103,0.007,0.9,0.077,2.367,0.521
			c1.516,0.458,2.761,1.907,2.855,2.019c0.107-0.019,1.19-0.197,2.039-0.019c0.889,0.186,2.118,0.952,2.13,0.96L3647.328,1303.03z"
			/>
	</g>
	<g id="XMLID_833_">
		<path id="XMLID_1041_" fill="#E7DCE5" d="M3647.223,1301.988c-0.01-0.007-0.968-0.708-2.055-0.81
			c-1.088-0.104-1.659-0.064-1.664-0.062l-0.01,0l-0.004-0.009c-0.006-0.012-0.618-1.164-1.99-1.492
			c-1.381-0.33-2.821-0.829-2.835-0.834l-0.011-0.004l0-0.011c0.001-0.017,0.074-1.669-0.725-2.489
			c-0.802-0.822-2.914-2.171-2.935-2.185l-0.011-0.007l0.005-0.012c0.005-0.012,0.499-1.155,0.478-2.223
			c-0.021-1.061-0.243-1.3-0.246-1.302l0.021-0.021c0.009,0.01,0.233,0.246,0.254,1.323c0.02,1.016-0.423,2.099-0.476,2.224
			c0.165,0.105,2.155,1.389,2.93,2.183c0.772,0.792,0.739,2.351,0.734,2.5c0.133,0.046,1.504,0.515,2.821,0.83
			c1.323,0.316,1.946,1.391,2.005,1.499c0.08-0.004,0.645-0.032,1.659,0.063c1.095,0.104,2.061,0.809,2.07,0.815L3647.223,1301.988z
			"/>
	</g>
	<g id="XMLID_836_">
		<path id="XMLID_1040_" fill="#E7DCE5" d="M3647.075,1299.695c-0.005-0.005-0.545-0.541-1.117-0.663
			c-0.057-0.012-0.123-0.018-0.195-0.018c-0.651,0-1.825,0.449-1.838,0.455l-0.01,0.004l-0.007-0.008
			c-0.008-0.01-0.822-0.984-1.746-1.56c-0.922-0.573-2.373-0.5-2.387-0.498l-0.013,0l-0.002-0.013
			c-0.003-0.016-0.362-1.651-1.122-2.514c-0.758-0.86-2.741-1.035-2.761-1.037l-0.024-0.002l0.013-0.021
			c0.007-0.011,0.69-1.09,0.978-1.769c0.286-0.676,0.167-1.36,0.166-1.367l0.029-0.005c0.001,0.007,0.123,0.7-0.167,1.383
			c-0.267,0.628-0.871,1.599-0.967,1.752c0.231,0.023,2.037,0.228,2.756,1.045c0.729,0.828,1.091,2.361,1.125,2.515
			c0.146-0.005,1.508-0.048,2.392,0.503c0.883,0.55,1.665,1.461,1.747,1.557c0.125-0.047,1.207-0.453,1.836-0.453
			c0.075,0,0.144,0.006,0.204,0.019c0.582,0.125,1.127,0.666,1.133,0.671L3647.075,1299.695z"/>
	</g>
	<g id="XMLID_832_">
		<path id="XMLID_1039_" fill="#E7DCE5" d="M3647.177,1301.108c-0.004-0.007-0.382-0.726-1.241-0.951
			c-0.862-0.226-2.25,0.121-2.263,0.125l-0.017,0.004l-0.002-0.017c-0.001-0.011-0.165-1.123-1.782-1.696
			c-1.622-0.576-2.712-0.418-2.722-0.417l-0.017,0.002l-0.001-0.016c-0.001-0.02-0.131-1.96-0.684-2.595
			c-0.554-0.636-2.847-1.714-2.87-1.725l0.013-0.027c0.023,0.011,2.322,1.092,2.88,1.733c0.532,0.611,0.676,2.408,0.69,2.597
			c0.143-0.017,1.198-0.121,2.721,0.42c1.527,0.541,1.772,1.562,1.799,1.704c0.156-0.038,1.443-0.334,2.263-0.121
			c0.871,0.229,1.256,0.959,1.259,0.966L3647.177,1301.108z"/>
	</g>
	<g id="XMLID_840_">
		<polygon id="XMLID_1038_" fill="#E7DCE5" points="3641.903,1296.388 3640.69,1296.366 3640.691,1296.336 3641.854,1296.357 
			3641.385,1295.421 3641.412,1295.407 		"/>
	</g>
	<g id="XMLID_842_">
		
			<rect id="XMLID_1037_" x="3641.846" y="1296.649" transform="matrix(0.9766 0.2152 -0.2152 0.9766 364.4285 -753.678)" fill="#E7DCE5" width="2.709" height="0.03"/>
	</g>
	<g id="XMLID_841_">
		<path id="XMLID_1036_" fill="#E7DCE5" d="M3646.972,1298.717c-0.006-0.006-0.649-0.543-1.018-0.728
			c-0.37-0.185-1.445-0.517-1.456-0.52l0.009-0.028c0.011,0.003,1.088,0.336,1.46,0.522s1.017,0.725,1.024,0.73L3646.972,1298.717z"
			/>
	</g>
	<g id="XMLID_843_">
		<path id="XMLID_1030_" fill="#E7DCE5" d="M3647.016,1299.135c-0.011-0.006-1.086-0.605-1.477-0.749
			c-0.388-0.143-1.295,0.04-1.304,0.042l-0.006-0.029c0.038-0.007,0.926-0.187,1.321-0.041c0.393,0.145,1.47,0.745,1.481,0.751
			L3647.016,1299.135z"/>
	</g>
	<g id="XMLID_844_">
		<path id="XMLID_1029_" fill="#E7DCE5" d="M3647.121,1300.365c-0.019-0.01-0.051-0.043-0.117-0.111
			c-0.208-0.215-0.637-0.659-1.082-0.659c-0.008,0-0.016,0-0.023,0c-0.575,0.021-1.984,0.248-1.998,0.25l-0.005-0.029
			c0.014-0.002,1.425-0.229,2.002-0.25c0.008,0,0.016,0,0.024,0c0.458,0,0.893,0.45,1.104,0.669
			c0.052,0.054,0.093,0.097,0.109,0.104L3647.121,1300.365z"/>
	</g>
	<g id="XMLID_847_">
		<path id="XMLID_1025_" fill="#E7DCE5" d="M3644.16,1297.884c-0.012-0.009-1.193-0.894-2.033-0.935
			c-0.846-0.042-1.805-0.228-1.815-0.23l0.006-0.029c0.01,0.002,0.967,0.188,1.811,0.229c0.849,0.042,2.038,0.932,2.049,0.94
			L3644.16,1297.884z"/>
	</g>
	<g id="XMLID_899_">
		<path id="XMLID_1024_" fill="#E7DCE5" d="M3640.509,1296.354c-0.002-0.012-0.214-1.195-0.79-2.099
			c-0.573-0.9-1.995-1.013-2.009-1.014l0.002-0.03c0.015,0.001,1.452,0.115,2.033,1.028c0.578,0.908,0.792,2.097,0.793,2.109
			L3640.509,1296.354z"/>
	</g>
	<g id="XMLID_900_">
		<path id="XMLID_1023_" fill="#E7DCE5" d="M3641.009,1295.643c0-0.013-0.067-1.357-0.477-2.013
			c-0.169-0.271-0.547-0.633-1.383-0.816c-0.024-0.005-0.04-0.009-0.046-0.011l0.01-0.028c0.006,0.002,0.021,0.005,0.043,0.01
			c0.847,0.186,1.229,0.554,1.402,0.83c0.414,0.662,0.48,2.014,0.481,2.028L3641.009,1295.643z"/>
	</g>
	<g id="XMLID_970_">
		<path id="XMLID_1021_" fill="#E7DCE5" d="M3642.072,1294.439l-0.354-1.354c-0.381-0.666-1.026-0.718-1.214-0.718v-0.03
			c0.193,0,0.852,0.053,1.242,0.737l0.355,1.358L3642.072,1294.439z"/>
	</g>
	<g id="XMLID_902_">
		
			<rect id="XMLID_1020_" x="3641.547" y="1293.482" transform="matrix(0.6689 0.7434 -0.7434 0.6689 2167.4614 -2279.1072)" fill="#E7DCE5" width="1.121" height="0.03"/>
	</g>
	<g id="XMLID_971_">
		<path id="XMLID_1019_" fill="#E7DCE5" d="M3644.83,1295.615c-0.019-0.009-1.863-0.875-2.849-0.957
			c-0.512-0.042-0.524-0.377-0.537-0.73c-0.013-0.353-0.027-0.753-0.53-0.958l-1.021-0.417l0.012-0.027l1.021,0.417
			c0.521,0.212,0.535,0.623,0.548,0.984c0.013,0.355,0.024,0.662,0.51,0.702c0.991,0.083,2.84,0.951,2.859,0.96L3644.83,1295.615z"
			/>
	</g>
	<g id="XMLID_901_">
		<path id="XMLID_1018_" fill="#E7DCE5" d="M3640.843,1295.96c-0.004-0.013-0.442-1.361-0.895-2.122
			c-0.45-0.756-1.274-0.949-1.282-0.951l-0.018-0.004l0.007-0.017c0.003-0.008,0.333-0.796,0.353-1.349
			c0.021-0.548-0.386-0.88-0.39-0.883l0.019-0.023c0.004,0.003,0.422,0.344,0.401,0.908c-0.019,0.515-0.301,1.228-0.349,1.344
			c0.122,0.032,0.864,0.254,1.284,0.96c0.454,0.764,0.893,2.115,0.897,2.128L3640.843,1295.96z"/>
	</g>
	<g id="XMLID_972_">
		<path id="XMLID_1017_" fill="#E7DCE5" d="M3637.267,1293.337l-0.028-0.011c0.003-0.012,0.353-1.214,0.353-1.891
			c0-0.673-0.02-0.785-0.021-0.789l0.029-0.006c0.001,0.004,0.021,0.114,0.021,0.795c0,0.522-0.206,1.353-0.304,1.717
			c0.156-0.345,0.502-1.124,0.629-1.534c0.165-0.534,0.208-0.869,0.208-0.873l0.007-0.06l0.021,0.057
			c0,0.002,0.064,0.174,0.25,0.751c0.188,0.582-0.288,1.481-0.292,1.49l-0.026-0.014c0.005-0.009,0.474-0.897,0.291-1.468
			c-0.129-0.4-0.199-0.605-0.23-0.693c-0.02,0.119-0.075,0.411-0.2,0.818C3637.811,1292.163,3637.272,1293.325,3637.267,1293.337z"
			/>
	</g>
	<g id="XMLID_973_">
		<path id="XMLID_1016_" fill="#E7DCE5" d="M3646.68,1294.904c-0.003-0.003-0.293-0.268-0.7-0.309
			c-0.41-0.042-0.759,0.143-0.763,0.144l-0.009,0.005l-0.008-0.008c-0.006-0.006-0.61-0.587-1.248-0.998
			c-0.632-0.408-1.147-0.189-1.152-0.187l-0.013,0.006l-0.006-0.012c-0.003-0.005-0.294-0.545-0.623-0.935
			c-0.326-0.387-1.232-0.535-1.241-0.537l-0.013-0.002l0-0.014c0-0.003,0.021-0.378-0.021-0.748
			c-0.04-0.365-0.203-0.552-0.204-0.554l0.022-0.02c0.007,0.008,0.17,0.195,0.212,0.571c0.037,0.332,0.025,0.668,0.021,0.739
			c0.119,0.02,0.931,0.17,1.246,0.544c0.303,0.361,0.576,0.847,0.62,0.929c0.086-0.031,0.58-0.186,1.168,0.193
			c0.601,0.387,1.172,0.925,1.245,0.995c0.054-0.026,0.322-0.149,0.647-0.149c0.04,0,0.081,0.002,0.123,0.006
			c0.417,0.042,0.714,0.314,0.717,0.316L3646.68,1294.904z"/>
	</g>
	<g id="XMLID_974_">
		<path id="XMLID_1015_" fill="#E7DCE5" d="M3646.812,1295.532c-0.008-0.002-0.753-0.188-1.021-0.25
			c-0.267-0.062-0.703-0.124-0.707-0.125l0.004-0.029c0.004,0,0.441,0.063,0.71,0.125c0.268,0.062,1.014,0.248,1.021,0.25
			L3646.812,1295.532z"/>
	</g>
	<g id="XMLID_975_">
		<path id="XMLID_1014_" fill="#E7DCE5" d="M3646.874,1296.407c-0.006-0.001-0.608-0.188-1.018-0.228
			c-0.411-0.041-0.992-0.021-0.998-0.021l-0.001-0.03c0.006,0,0.589-0.019,1.002,0.021c0.413,0.042,1.018,0.228,1.024,0.23
			L3646.874,1296.407z"/>
	</g>
	<g id="XMLID_977_">
		
			<rect id="XMLID_1013_" x="3644.951" y="1295.847" transform="matrix(0.9085 0.4178 -0.4178 0.9085 874.96 -1404.7083)" fill="#E7DCE5" width="1.146" height="0.03"/>
	</g>
	<g id="XMLID_976_">
		<path id="XMLID_1012_" fill="#E7DCE5" d="M3646.891,1297.405c-0.005-0.003-0.545-0.332-1.119-0.393
			c-0.572-0.062-1.196,0.102-1.203,0.104l-0.008-0.029c0.006-0.001,0.632-0.166,1.213-0.104c0.58,0.062,1.126,0.395,1.131,0.398
			L3646.891,1297.405z"/>
	</g>
	<g id="XMLID_978_">
		<path id="XMLID_1011_" fill="#E7DCE5" d="M3646.83,1296.844c-0.007-0.003-0.691-0.291-1.182-0.311
			c-0.044-0.002-0.088-0.003-0.13-0.003c-0.433,0-0.778,0.085-0.782,0.086l-0.007,0.001l-0.006-0.004
			c-0.005-0.004-0.527-0.397-1.245-0.623c-0.721-0.227-2.009-0.704-2.022-0.708l0.011-0.028c0.013,0.005,1.3,0.482,2.02,0.708
			c0.683,0.214,1.19,0.579,1.249,0.623c0.051-0.012,0.379-0.085,0.782-0.085c0.043,0,0.087,0.001,0.131,0.002
			c0.497,0.021,1.186,0.311,1.193,0.314L3646.83,1296.844z"/>
	</g>
	<g id="XMLID_979_">
		<path id="XMLID_1010_" fill="#E7DCE5" d="M3639.537,1292.629l-0.026-0.014c0.003-0.006,0.288-0.563,0.145-1.073
			c-0.144-0.513-0.351-0.91-0.353-0.914l0.026-0.014c0.002,0.004,0.21,0.403,0.355,0.919
			C3639.83,1292.055,3639.54,1292.624,3639.537,1292.629z"/>
	</g>
	<g id="XMLID_980_">
		<path id="XMLID_1009_" fill="#E7DCE5" d="M3640.247,1292.355l-0.029-0.007c0.001-0.006,0.146-0.627,0.125-1.017
			c-0.021-0.386-0.245-0.676-0.247-0.679l0.023-0.019c0.002,0.003,0.232,0.3,0.253,0.696
			C3640.393,1291.723,3640.248,1292.348,3640.247,1292.355z"/>
	</g>
	<g id="XMLID_981_">
		<path id="XMLID_1008_" fill="#E7DCE5" d="M3646.534,1301.57c-0.009-0.009-0.917-0.956-1.159-1.017
			c-0.248-0.062-1.854,0.123-1.87,0.125l-0.004-0.03c0.057-0.006,1.201-0.138,1.693-0.138c0.085,0,0.151,0.004,0.188,0.013
			c0.251,0.063,1.136,0.986,1.174,1.025L3646.534,1301.57z"/>
	</g>
	<g id="XMLID_983_">
		<path id="XMLID_1007_" fill="#E7DCE5" d="M3647.182,1301.426c-0.012-0.008-1.212-0.791-1.806-0.873l0.004-0.029
			c0.601,0.083,1.807,0.869,1.819,0.877L3647.182,1301.426z"/>
	</g>
	<g id="XMLID_984_">
		<path id="XMLID_1006_" fill="#E7DCE5" d="M3646.664,1294.407c-0.008-0.003-0.793-0.291-1.182-0.291v-0.03
			c0.394,0,1.185,0.29,1.193,0.292L3646.664,1294.407z"/>
	</g>
	<g id="XMLID_985_">
		<path id="XMLID_1005_" fill="#E7DCE5" d="M3645.386,1294.151c-0.004-0.005-0.42-0.565-0.769-0.915
			c-0.346-0.346-1.251-0.371-1.261-0.371l-0.006,0l-0.004-0.004l-1.088-1.15v-0.985h0.03v0.973l1.075,1.137
			c0.088,0.002,0.932,0.036,1.275,0.379c0.351,0.351,0.768,0.913,0.772,0.918L3645.386,1294.151z"/>
	</g>
	<g id="XMLID_986_">
		<path id="XMLID_1004_" fill="#E7DCE5" d="M3645.266,1294.281l-2.104-1.208l-1.486-1.131l0-0.007c0-0.011-0.021-1.126-0.021-1.23
			h0.03c0,0.099,0.019,1.125,0.021,1.222l1.474,1.121l2.102,1.207L3645.266,1294.281z"/>
	</g>
	<g id="XMLID_987_">
		<polygon id="XMLID_1001_" fill="#E7DCE5" points="3644.976,1295.281 3642.226,1294.156 3642.238,1294.129 3644.828,1295.189 
			3642.558,1293.76 3642.572,1293.734 3645.197,1294.921 3645.184,1294.948 3642.759,1293.851 3644.99,1295.255 		"/>
	</g>
	<g id="XMLID_988_" opacity="0.71">
		<polygon id="XMLID_1003_" fill="#E7DCE5" points="3620.007,1298.032 3620,1298.003 3630.895,1295.337 3642.945,1291.528 
			3642.801,1290.52 3642.83,1290.516 3642.978,1291.549 3642.966,1291.553 3630.903,1295.365 		"/>
	</g>
	<g id="XMLID_835_">
		<path id="XMLID_999_" fill="#E7DCE5" d="M3645.792,1292.929l-0.005-0.002l-1.901-1.026l-0.375-0.625
			c-0.01-0.023-0.23-0.523-0.251-0.586l0.028-0.01c0.021,0.061,0.247,0.577,0.25,0.582l0.372,0.62l1.888,1.017l1.204-0.187
			l0.005,0.029L3645.792,1292.929z"/>
	</g>
	<g id="XMLID_990_">
		<line id="XMLID_837_" fill="none" x1="3645.795" y1="1292.914" x2="3645.607" y2="1293.58"/>
	</g>
	<g id="XMLID_991_">
		
			<rect id="XMLID_997_" x="3646.073" y="1293.388" transform="matrix(0.2189 0.9758 -0.9758 0.2189 4110.5605 -2547.8594)" fill="#E7DCE5" width="1.046" height="0.03"/>
	</g>
	<g id="XMLID_992_">
		<polygon id="XMLID_996_" fill="#E7DCE5" points="3645.752,1292.221 3645.747,1292.219 3644.366,1291.612 3644.364,1291.606 
			3644.093,1290.689 3644.121,1290.68 3644.39,1291.59 3645.755,1292.19 3646.77,1291.941 3646.777,1291.97 		"/>
	</g>
	<g id="XMLID_989_">
		<polygon id="XMLID_995_" fill="#E7DCE5" points="3643.695,1292.314 3643.68,1292.299 3642.936,1291.534 3642.955,1291.525 
			3643.517,1291.254 3644.209,1291.128 3644.214,1291.157 3643.526,1291.282 3642.987,1291.543 3643.687,1292.263 3643.888,1291.88 
			3643.895,1291.878 3644.707,1291.649 3644.715,1291.678 3643.909,1291.905 		"/>
	</g>
	<g id="XMLID_993_">
		<line id="XMLID_603_" fill="none" x1="3645.753" y1="1292.205" x2="3645.711" y2="1292.83"/>
	</g>
	<g id="XMLID_994_">
		
			<rect id="XMLID_604_" x="3628.79" y="1299.411" transform="matrix(0.784 0.6207 -0.6207 0.784 1597.3048 -1969.3262)" fill="#E7DCE5" width="0.03" height="22.88"/>
	</g>
</g>
<g id="Layer_1">
</g>
</svg>
