<?xml version="1.0" encoding="utf-8"?>
<!-- Generator: Adobe Illustrator 19.0.0, SVG Export Plug-In . SVG Version: 6.00 Build 0)  -->
<!DOCTYPE svg PUBLIC "-//W3C//DTD SVG 1.1//EN" "http://www.w3.org/Graphics/SVG/1.1/DTD/svg11.dtd">
<svg version="1.1" xmlns="http://www.w3.org/2000/svg" xmlns:xlink="http://www.w3.org/1999/xlink" x="0px" y="0px"
	 viewBox="0 0 9870.104 2778.383" enable-background="new 0 0 9870.104 2778.383" xml:space="preserve">
<g id="bay">
	<path id="XMLID_846_" fill="#ED8BA8" d="M3752.017,1143.849l-23.595,307.759l-140.222,7.396c0,0-7.293-111.459-11.586-133.264
		c-4.294-21.806-21.778-112.597-23.562-126.229c-1.785-13.632-2.948-33.911-2.948-33.911L3752.017,1143.849z"/>
	<path id="XMLID_845_" fill="#F05E89" d="M3555.831,1216.095l191.473-10.771l4.713-61.474l-201.914,21.751
		C3550.103,1165.6,3553.46,1203.057,3555.831,1216.095z"/>
	<path id="XMLID_806_" fill="#EFB7CD" d="M3679.073,1209.162c0,0,3.338,18.856,19.97,24.003
		c16.632,5.148-8.893,14.924-10.797,13.709c-1.904-1.215-10.219-8.156-21.594-7.531s-30.148,5.383-36.928,3.211
		c-6.78-2.173-14.1-10.528-18.161-8.976c-4.061,1.552-12.468,8.277-19.335,1.681c-6.867-6.596-13.137-16.241,4.819-20.2
		C3615.003,1211.1,3679.073,1209.162,3679.073,1209.162"/>
	<path id="XMLID_805_" fill="#DD7699" d="M3653.174,1213.507c0,0,7.818,7.19,4.067,12.311c-3.751,5.121-9.803,4.449-9.855,3.854
		c-0.052-0.595,10.815-6.203,4.067-11.181c-5.225-3.854-7.52,3.36-8.691,4.13c-2.146,1.41-6.184-5.19-0.297-8.184
		C3648.681,1211.277,3653.174,1213.507,3653.174,1213.507z"/>
	<path id="XMLID_804_" fill="#DD7699" d="M3747.304,1205.323l-18.882,246.285l-119.04,6.279c0,0,4.063-11.867,12.987-12.643
		c8.924-0.776,46.937-2.882,65.101-8.657c18.164-5.775,24.449-29.999,24.449-29.999s6.959-68.117,2.523-76.085
		s-33.435-59.095-13.518-64.423c19.917-5.328,23.092-16.694,23.092-16.694s-3.879-22.324-15.613-28.014
		c-16.439-7.972-27.88-9.812-20.402-13.723L3747.304,1205.323z"/>
	<path id="XMLID_803_" fill="#EE759E" d="M3710.817,1148.287l-160.714,17.312c0,0,1.736,23.836,2.108,27.315
		c0.372,3.48,3.62,23.179,3.62,23.179s21.821-1.564,22.83-10.643c1.009-9.079,22.254-12.704,25.755-16.625
		c3.501-3.922,15.589-2.779,37.084-10.642c21.495-7.863,19.777-14.532,33.46-15.722S3710.817,1148.287,3710.817,1148.287z"/>
	<path id="XMLID_802_" fill="#542438" d="M3730.026,1470.051l-47.844,77.107c0,0-4.123,7.734-3.011,13.632
		c1.112,5.898,4.139,6.234,4.139,6.234l74.29-83.185L3730.026,1470.051z"/>
	<polygon id="XMLID_801_" fill="#733D50" points="3587.585,1451.858 3590.741,1488.16 3622.292,1492.611 3620.79,1475.334 
		3732.664,1472.819 3745.267,1445.342 	"/>
	
		<rect id="XMLID_800_" x="3723.097" y="1452.206" transform="matrix(-0.0866 -0.9962 0.9962 -0.0866 2607.1499 5321.002)" fill="#4F2234" width="39.413" height="26.276"/>
	<path id="XMLID_799_" fill="#733D50" d="M3622.292,1492.605c0,0-0.088,52.799-0.198,59.777c-0.11,6.978-0.993,23.047-3.166,25.634
		c-2.173,2.587-8.924,0.776-8.924,0.776l-19.263-90.632L3622.292,1492.605z"/>
	<g id="XMLID_763_">
		<path id="XMLID_764_" fill="#43172B" d="M3729.639,1456.108c2.903-0.656,4.915-1.938,5.98-3.808
			c1.024-1.8,1.121-4.019,0.286-6.595l-1.769,0.343l0.065,0.209c0.673,2.077,1.457,3.444,0.692,4.788
			c-0.806,1.415-2.871,3.346-5.262,3.885L3729.639,1456.108z"/>
	</g>
	<g id="XMLID_736_">
		<path id="XMLID_737_" fill="#43172B" d="M3730.516,1462.201c11.232-3.074,12.725-11.432,11.463-16.561l-0.885-0.085l-0.326-0.873
			l0.001,3.493c0.172,3.552-1.051,9.65-10.725,12.299L3730.516,1462.201z"/>
	</g>
	<g id="XMLID_734_">
		<path id="XMLID_735_" fill="#43172B" d="M3730.498,1466.511c1.028-0.089,4.252,0.183,9.581-2.991
			c10.103-6.02,6.076-18.341,6.04-18.454l-1.705,0.554c0.028,0.092,4.381,9.979-4.508,15.274c-6.177,3.68-9.707,3.839-9.726,3.839
			l-0.18,1.781C3730.082,1466.524,3730.242,1466.533,3730.498,1466.511z"/>
	</g>
	<g id="XMLID_732_">
		<path id="XMLID_733_" fill="#43172B" d="M3738.916,1476.755c1.179-0.103,4.064-0.196,5.417-0.511
			c9.506-2.218,11.749-18.4,11.829-19.059l-1.779-0.219c-0.018,0.149-1.933,14.895-10.222,16.828
			c-8.472,1.979-13.3-1.198-13.348-1.231l-1.01,1.479C3729.99,1474.172,3732.004,1477.356,3738.916,1476.755z"/>
	</g>
	<g id="XMLID_730_">
		<path id="XMLID_731_" fill="#43172B" d="M3744.767,1482.964c1.198-0.104,2.364-0.478,3.485-1.12
			c5.997-3.431,8.704-13.416,8.816-13.839l-1.731-0.46c-0.026,0.097-1.342,8.118-6.688,11.174c-1.652,0.945-4.641,2.726-6.481,2.213
			c-6.609-1.843-10.8-2.456-11.811-1.722l1.053,1.449l-0.527-0.724l0.37,0.812c0.067-0.02,0.588-1.582,9.245,0.833
			C3741.547,1481.87,3743.762,1483.051,3744.767,1482.964z"/>
	</g>
	<g id="XMLID_728_">
		<path id="XMLID_729_" fill="#43172B" d="M3620.287,1471.131l0.901-0.624l-0.384-1.039l-0.457,0.71l0.197-0.81
			c-1.695-0.515-20.661-8.946-22.644-18.026l-1.751,0.382C3598.549,1466.426,3619.439,1471.092,3620.287,1471.131z"/>
	</g>
	<g id="XMLID_726_">
		<path id="XMLID_727_" fill="#43172B" d="M3620.425,1476.851l0.194-1.782c-0.074-0.008-7.558-0.89-16.169-6.815
			c-8.562-5.893-11.811-16.867-11.843-16.978l-1.113,0.322c0.137,0.475,0.222,11.397,9.307,17.65
			C3609.809,1475.446,3620.103,1476.816,3620.425,1476.851z"/>
	</g>
	<g id="XMLID_724_">
		<path id="XMLID_725_" fill="#43172B" d="M3621.127,1483.115l0.531-1.711c-0.158-0.05-15.897-4.967-21.282-9.098
			c-7.073-5.429-10.965-17.998-11.003-18.124l-1.714,0.521c0.165,0.539,6.206,15.543,13.732,21.317
			C3607.028,1480.346,3620.467,1482.911,3621.127,1483.115z"/>
	</g>
	<g id="XMLID_722_">
		<path id="XMLID_723_" fill="#43172B" d="M3615.42,1486.855l2.714-0.707c-0.131-0.035-15.481-4.548-19.88-9.277
			c-4.503-4.843-7.885-10.868-7.918-10.928l-1.564,0.874c0.141,0.254,3.106,7.114,7.755,12.114
			C3601.277,1484.039,3614.862,1486.708,3615.42,1486.855z"/>
	</g>
	<path id="XMLID_721_" fill="#43172B" d="M3731.422,1486.114l-1.396-16.063c0,0-39.92,63.658-42.034,67.246
		c-2.114,3.588-6.578,8.987-7.512,12.982C3679.546,1554.274,3731.422,1486.114,3731.422,1486.114z"/>
	<g id="XMLID_717_">
		<path id="XMLID_718_" fill="#43172B" d="M3590.625,1489.048l-3.311-38.085l32.164-1.076l3.162,36.921L3590.625,1489.048z
			 M3589.262,1452.69l2.995,34.448l28.442-1.99l-2.861-33.414L3589.262,1452.69z"/>
	</g>
	<g id="XMLID_715_">
		<path id="XMLID_716_" fill="#43172B" d="M3619.51,1464.604l0.545-1.707c-0.07-0.022-7.013-2.263-10.009-5.076
			c-3.078-2.89-6.192-7.25-6.223-7.294l-1.46,1.038c0.131,0.184,1.927,4.93,5.137,7.945
			C3610.793,1462.601,3619.21,1464.508,3619.51,1464.604z"/>
	</g>
	<g id="XMLID_713_">
		<path id="XMLID_714_" fill="#43172B" d="M3619.093,1458.502l0.315-1.763c-0.062-0.011-6.245-1.182-8.084-5.977l-2.501,0.678
			C3611.027,1457.189,3618.799,1458.45,3619.093,1458.502z"/>
	</g>
	<g id="XMLID_711_">
		<path id="XMLID_712_" fill="#43172B" d="M3601.793,1488.033l4.461-1.629c-0.045-0.014-6.789-1.273-9.422-3.963
			c-2.667-2.726-5.495-5.519-5.506-5.545l-1.657,0.681c0.05,0.12,1.242,2.981,4.167,5.972
			C3596.805,1486.583,3601.59,1487.975,3601.793,1488.033z"/>
	</g>
	<g id="XMLID_707_">
		<path id="XMLID_708_" fill="#43172B" d="M3727.899,1445.178l27.103-1.549l3.567,41.024l-27.981,2.433L3727.899,1445.178z
			 M3753.506,1447.106l-23.704-0.242l2.455,38.279l24.372-2.119L3753.506,1447.106z"/>
	</g>
	<g id="XMLID_705_">
		<path id="XMLID_706_" fill="#43172B" d="M3737.869,1471.581c2.012-0.175,4.082-0.651,5.74-1.688
			c4.751-2.974,11.128-17.729,11.354-21.213l-0.872-1.103c-0.201,3.101-6.728,16.758-10.888,19.362
			c-4.195,2.624-12.533,2.441-12.612,2.425l-0.565,0.686C3730.254,1470.099,3734.056,1471.913,3737.869,1471.581z"/>
	</g>
	<g id="XMLID_703_">
		<path id="XMLID_704_" fill="#43172B" d="M3753.571,1484.263c0.223-0.109,3.6-3.155,3.841-7.415l-1.204,1.213
			c-0.182,3.208-8.253,5.698-8.298,5.72L3753.571,1484.263z"/>
	</g>
	<path id="XMLID_696_" opacity="0.36" fill="#43172B" d="M3731.589,1477.451c0.142-0.521,17.921-7.519,21.656-15.337
		c3.734-7.818,2.674-7.339,2.674-7.339s2.707,29.874,1.758,29.956c-0.948,0.082-25.897,2.251-25.897,2.251L3731.589,1477.451z"/>
	<path id="XMLID_695_" opacity="0.26" fill="#CC92AE" d="M3741.864,1447.345c0,0,2.458,3.733-1.185,7.78
		c-3.643,4.047-10.636,5.348-10.636,5.348s-0.229-9.757,1.475-9.458s3.229-3.183,3.229-3.183S3739.699,1445.898,3741.864,1447.345z"
		/>
	<path id="XMLID_694_" opacity="0.36" fill="#43172B" d="M3620.619,1475.069l0.978,11.242l-30.855,1.849l-2.235-24.387
		c0,0-0.915,1.149,7.867,6.932S3620.619,1475.069,3620.619,1475.069z"/>
	<path id="XMLID_693_" opacity="0.26" fill="#CC92AE" d="M3609.765,1453.205c0,0,2.753,3.239,4.378,4.482s4.642,0.835,4.439,2.725
		c-0.203,1.891-4.552,2.581-8.847,1.515c-4.295-1.066-10.031-9.586-10.031-9.586S3608.167,1451.41,3609.765,1453.205z"/>
	<path id="XMLID_692_" fill="#43172B" d="M3597.365,1488.576c1.569-0.077,12.668,48.773,10.94,62.715
		c-1.717,13.859,1.402,16.125,1.402,16.125l2.157,5.819l-1.86,5.557c0,0-12.253-46.81-13.14-56.403
		c-0.887-9.592-3.81-23.346-3.81-23.346l-2.313-10.883L3597.365,1488.576z"/>
	<path id="XMLID_691_" opacity="0.26" fill="#CC92AE" d="M3622.64,1486.807c0,0-2.122,25.866-4.718,31.037
		c-2.596,5.171-1.284,46.758-1.284,46.758l-0.589,13.664c0,0-1.176-6.012-1.195-13.743c-0.019-7.731,0.156-21.613,0.52-26.288
		c0.364-4.675,0.502-5.81-0.062-16.102s6.284-35.823,6.284-35.823L3622.64,1486.807z"/>
	<path id="XMLID_645_" fill="#43172B" d="M3727.899,1445.178l1.903,28.865c0,0-13.921-0.847-17.049-0.777s-9.101,1.105-9.101,1.105
		l-19.433-0.464c0,0,21.271-3.948,23.601-5.887c2.33-1.939,14.272-5.575,13.932-7.793s3.02-10.913,3.02-10.913L3727.899,1445.178z"
		/>
	<path id="XMLID_644_" fill="#43172B" d="M3647.579,1473.232c17.192-3.952,27.157-5.387,37.128-7.048
		c9.971-1.661,27.787-11.333,27.787-11.333l8.053-8.487l-3.707,0.153c0,0-1.421,9.539-22.181,15.642
		c-20.76,6.103-44.895,7.313-48.971,10.01s-5.732,2.984-5.732,2.984L3647.579,1473.232z"/>
	<path id="XMLID_643_" fill="#43172B" d="M3626.947,1475.052c0,0,5.661-8.569,16.67-9.492c11.236-0.942,31.407-5.035,36.916-8.888
		s10.199-9.077,10.199-9.077l-3.353,0.139c0,0-2.323,4.822-9.34,8.254c-7.017,3.432-36.957,5.321-41.264,7.114
		c-4.306,1.793-12.056,12.143-12.056,12.143L3626.947,1475.052z"/>
	<path id="XMLID_642_" fill="#43172B" d="M3664.988,1448.66c0,0-12.249,6.382-20.608,8.457s-17.346,4.714-19.434,6.552
		c-2.088,1.838-4.401,5.7-4.401,5.7l-0.213-3.3c0,0,0.294-3.062,3.205-4.441c2.911-1.379,17.678-4.757,23.345-6.787
		c5.668-2.031,9.765-5.836,9.765-5.836L3664.988,1448.66z"/>
	<g id="XMLID_640_">
		<path id="XMLID_641_" fill="#43172B" d="M3634.58,1474.94c0.035-0.047,5.178-3.969,12.879-5.053
			c8.197-1.155,29.697-6.37,42.224-9.416c12.661-3.079,15.333-13.055,15.411-13.468l-3.025,0.125
			c-0.072,0.367-1.311,8.806-12.809,11.603c-12.492,3.038-29.214,7.882-37.359,9.029c-8.492,1.198-20.53,7.126-20.685,7.341
			L3634.58,1474.94z"/>
	</g>
	<path id="XMLID_639_" opacity="0.36" fill="#43172B" d="M3723.405,1448.187c0.232,0.099-3.54,5.822-5.217,8.511
		c-1.677,2.689-6.99,6.86-10.501,7.839c-3.511,0.98-14.493,4.594-18.184,5.44s-16.491,2.803-19.247,3.555
		c-2.756,0.752-11.419,0.647-11.419,0.647s9.388-2.671,15.211-3.57c5.823-0.9,20.079-3.686,26.135-5.771
		c6.057-2.085,14.76-7.335,16.011-9.103C3717.445,1453.967,3721.362,1447.318,3723.405,1448.187z"/>
	<path id="XMLID_638_" opacity="0.36" fill="#43172B" d="M3620.303,1459.378c0,0-1.319-2.878,5.188-3.015s13.913-1.568,15.758-2.964
		c1.845-1.397,4.156-3.93,4.156-3.93l-6.485,0.405c0,0,0.453,2.62-3.687,3.486c-4.139,0.866-12.97,2.065-13.932,1.989
		c-0.962-0.076-1.351,0.908-1.351,0.908L3620.303,1459.378z"/>
	<path id="XMLID_637_" opacity="0.26" fill="#CC92AE" d="M3652.69,1457.961c0.223-0.304,17.848-2.497,19.956-4.115
		s3.495-1.818,3.341-1.653c-0.154,0.166-7.686-0.495-12.215,1.062c-4.529,1.557-17.181,5.342-18.529,5.353
		C3643.895,1458.62,3651.509,1459.574,3652.69,1457.961z"/>
	<path id="XMLID_636_" opacity="0.36" fill="#43172B" d="M3728.715,1445.484l-2.982,13.973l-4.938,10.422l-36.158,3.812
		l-30.882,0.901c0,0,32.174-7.589,39.549-9.81c7.375-2.221,15.801-8.723,17.443-12.238c1.643-3.515,1.591-5.843,1.591-5.843
		L3728.715,1445.484z"/>
	<path id="XMLID_635_" opacity="0.36" fill="#43172B" d="M3619.684,1487.014c0,0-9.111,3.528-9.799,7.676
		c-0.688,4.148-2.99,8.994-2.99,8.994l1.514,7.511c0,0,4.522,4.252,2.687,10.107c-1.835,5.854,0.811,12.667,0.811,12.667
		s0.707,11.028-0.588,13.388s1.024-6.533-1.515-10.208c-2.539-3.676,0.483-16.282-2.867-20.581s-9.323-14.924-10.332-17.833
		c-1.008-2.91-1.954-10.809-1.954-10.809L3619.684,1487.014z"/>
	<path id="XMLID_611_" fill="#733D50" d="M3732.723,1490.497c0.152,0.66,3.29,7.507-0.803,11.909s-9.712,10.435-9.712,10.435
		s-8.885,4.669-11.42,9.984c-2.535,5.315-7.081,16.8-8.019,18.081c-0.938,1.28-5.368,10.646-4.631,10.513
		c0.738-0.134,35.238-39.399,41.452-42.037c6.215-2.638,8.91-5.87,11.19-9.065c2.28-3.195,5.086-12.281,6.238-12.831
		s1.552-2.832,1.552-2.832l-26.789,2.329C3731.78,1486.982,3732.336,1488.818,3732.723,1490.497z"/>
	<path id="XMLID_610_" opacity="0.26" fill="#CC92AE" d="M3749.874,1489.905c-0.63,0.637,1.23,3.789-3.131,7.016
		c-4.361,3.226-8.085,8.645-11.164,11.161s-15.151,13.605-15.151,13.605s-4.255,6.214-5.452,7.967
		c-1.196,1.752-5.386,9.122-6.692,9.405c-1.307,0.282-3.002,3.362-3.002,3.362l14.873-14.643c0,0,15.583-19.593,18.508-20.43
		c2.924-0.837,10.052-8.596,12.368-10.349C3753.346,1495.244,3757.165,1482.527,3749.874,1489.905z"/>
	<path id="XMLID_609_" opacity="0.36" fill="#43172B" d="M3744.578,1485.87l-16.573,0.616l-47.525,63.793
		c0,0-3.428,7.278-0.448,8.578c2.98,1.3,9.134-12.423,16.76-22.077c7.625-9.654,30.304-38.301,32.008-41.146
		C3730.504,1492.787,3744.578,1485.87,3744.578,1485.87z"/>
	<path id="XMLID_608_" fill="#D65F90" d="M3704.607,1387.146c0,0-87.574-2.402-87.85,4.712c-0.276,7.113,5.088,25.036,13.994,24.863
		s88.251,5.192,90.354-2.114C3723.209,1407.301,3714.701,1387.698,3704.607,1387.146z"/>
	<path id="XMLID_607_" fill="#D65F90" d="M3693.703,1273.202c-15.852-3.558-28.499-33.568-49.955-32.506
		s-38.012,34.425-47.495,37.663c0,0,26.183-2.456,48.688-3.538C3667.445,1273.739,3693.703,1273.202,3693.703,1273.202z"/>
	<path id="XMLID_606_" fill="#EFBACE" d="M3693.711,1273.442c-15.842-3.274-28.411-31.063-49.869-30.049
		c-21.458,1.014-38.099,31.952-47.589,34.966c0,0,26.188-2.313,48.694-3.348C3667.453,1273.977,3693.711,1273.442,3693.711,1273.442
		z"/>
	<path id="XMLID_605_" fill="#D65F90" d="M3693.711,1273.442c-15.842-3.274-26.588-25.75-48.046-24.736
		c-21.458,1.014-36.943,26.426-49.412,29.653c0,0,28.011,2.999,50.517,1.965C3669.276,1279.29,3693.711,1273.442,3693.711,1273.442z
		"/>
	<g id="XMLID_602_">
		<path fill="#D65F90" d="M3689.143,1274.456c1.39-2.718,6.947-0.818,9.187,1.134s3.793,1.612,3.811,4.788
			c0.018,3.176-1.785,16.481-2.219,19.607c-1.159,8.36,0.247,25.985,0.524,34.479c0.277,8.494,1.114,23.706-2.137,19.077
			c-1.078-3.637-0.152-4.277-1.23-7.914c-3.09,12.26-2.456,32.723-4.788,26.266c-2.08-16.786-4.161-33.573-6.241-50.359
			c-0.47-3.793-0.938-7.682-0.223-11.395c0.635-3.3-2.943-21.96-1.776-25.054c2.85-7.557-8.239-14.704,2.425-11.795"/>
	</g>
	<path id="XMLID_601_" fill="#EFBACE" d="M3686.82,1275.186l5.888,112.218l10.216-0.198l0.658,18.84c0,0-88.736,3.516-89.977,1.749
		c-1.241-1.767-5.297-19.225-4.164-20.542c1.134-1.318,6.914-2.799,6.914-2.799l-4.87-104.818L3686.82,1275.186z"/>
	<path id="XMLID_600_" fill="#9C3665" d="M3680.208,1288.851c2.155,0.343,3.228,28.592,1.032,29.53
		c-2.195,0.938-22.187,2.67-24.23,0.471c-2.043-2.199-3.233-25.01-0.969-27.74
		C3658.305,1288.382,3677.704,1288.452,3680.208,1288.851z"/>
	<path id="XMLID_599_" fill="#9C3665" d="M3682.308,1326.42c0.889,0.54,1.751,20.114-0.02,21.939
		c-1.771,1.825-25.404,3.628-25.854,0.503s-2.359-20.998-0.766-21.924S3680.165,1325.119,3682.308,1326.42z"/>
	<path id="XMLID_598_" fill="#9C3665" d="M3683.403,1357.74c2.52,0.846,3.235,25.01,1.76,25.934
		c-1.476,0.924-25.549,1.392-27.492,0.534c-1.943-0.858-3.317-25.904-0.907-25.951
		C3659.173,1358.211,3683.403,1357.74,3683.403,1357.74z"/>
	<path id="XMLID_597_" fill="#9C3665" d="M3648.174,1358.492c0,0,2.415,24.111,0.877,25.107s-23.131,1.899-24.361,0.474
		c-1.229-1.426-2.006-23.636-0.878-25.107C3624.941,1357.494,3646.175,1357.564,3648.174,1358.492z"/>
	<path id="XMLID_596_" fill="#9C3665" d="M3647.746,1326.244c0,0,2.318,23.815,0.862,24.65c-1.456,0.835-25.19,2.37-25.943,0.504
		c-0.753-1.865-2.121-24.13-0.862-24.65C3623.062,1326.228,3647.746,1326.244,3647.746,1326.244z"/>
	<path id="XMLID_595_" fill="#9C3665" d="M3647.456,1317.204c0,0-23.545,5.037-25.129,2.83c-1.585-2.208-2.653-26.978-1.456-28.345
		c1.197-1.366,23.571-1.967,25.682-0.327C3648.663,1293.003,3647.456,1317.204,3647.456,1317.204z"/>
	<path id="XMLID_594_" fill="#F2DEE6" d="M3666.282,1387.539c0,0-34.608,0.075-40.102,0.341c-5.494,0.266-13.48-2.296-13.94,0.485
		s-0.319,9.944,0.466,9.917c0.785-0.027,1.978-8.127,4.153-7.87c2.175,0.256,36.268-0.943,40.038-0.96
		C3660.668,1389.433,3674.35,1387.514,3666.282,1387.539z"/>
	<path id="XMLID_593_" fill="#F2DEE6" d="M3666.41,1279.878c0,0-49.448,1.509-51.121,3.583c-1.673,2.075-2.777,3.681-1.978,8.134
		c0.799,4.452,1.044,24.578,1.312,31.19c0.267,6.612,1.267,26.962,1.267,26.962s2.537,8.871,2.601-2.331
		c0.063-11.203-1.84-34.972-1.459-39.42c0.381-4.448-0.446-17.859-0.158-20.109c0.288-2.25,0.806-0.303,2.428-1.007
		c1.622-0.703,18.677-3.567,22.975-3.717C3644.954,1283.069,3674.937,1281.372,3666.41,1279.878z"/>
	<path id="XMLID_592_" fill="#F2DEE6" d="M3637.632,1321.958c0,0,29.099-0.124,28.272-0.991c-0.827-0.867-14.17-0.399-13.848-1.755
		c0.322-1.355-0.246-13.944-0.959-12.207c-0.713,1.737,1.124,11.842-3.655,12.525
		C3642.663,1320.213,3638.147,1320.371,3637.632,1321.958z"/>
	<path id="XMLID_591_" fill="#F2DEE6" d="M3640.021,1356.07c0,0,30.704-1.105,29.876-1.972s-16.632-0.928-16.311-2.283
		s-0.128-11.429-0.841-9.692c-0.713,1.737,1.513,10.693-3.265,11.376C3644.702,1354.181,3640.537,1354.484,3640.021,1356.07z"/>
	<path id="XMLID_590_" fill="#C14F83" d="M3611.485,1279.635c0,0-5.348-1.901,0.761-7.043s17.833-10.932,29.919-9.002
		c12.087,1.93,23.979-0.279,30.472,3.974c6.493,4.253,17.216,6.458,17.658,7.504c0.442,1.046,3.086,28.507,3.164,34.104
		c0.078,5.597-1.856,57.169-1.856,57.169l-4.783-91.155L3611.485,1279.635z"/>
	<path id="XMLID_589_" fill="#0B051B" d="M3677.948,1292.556c1.994,0.304,2.951,25.436,0.918,26.273
		c-2.033,0.836-20.537,2.391-22.425,0.436c-1.888-1.955-2.961-22.25-0.863-24.68
		C3657.677,1292.153,3675.631,1292.203,3677.948,1292.556z"/>
	<path id="XMLID_587_" fill="#0B051B" d="M3679.97,1330.037c0.821,0.458,1.568,17.102-0.075,18.657
		c-1.643,1.555-23.51,3.122-23.918,0.465c-0.408-2.657-2.127-17.853-0.652-18.643S3677.992,1328.933,3679.97,1330.037z"/>
	<path id="XMLID_579_" fill="#0B051B" d="M3681.125,1361.482c2.383,0.739,3.002,21.933,1.602,22.746
		c-1.399,0.813-24.186,1.255-26.023,0.506c-1.837-0.75-3.077-22.717-0.795-22.761
		C3658.19,1361.928,3681.125,1361.482,3681.125,1361.482z"/>
	<path id="XMLID_571_" fill="#0B051B" d="M3645.834,1362.11c0,0,2.199,20.812,0.758,21.675c-1.441,0.862-21.648,1.672-22.794,0.443
		s-1.817-20.403-0.758-21.675C3624.098,1361.281,3643.966,1361.312,3645.834,1362.11z"/>
	<path id="XMLID_563_" fill="#0B051B" d="M3645.413,1329.959c0,0,2.099,20.696,0.749,21.423c-1.35,0.727-23.332,2.087-24.026,0.467
		c-0.694-1.62-1.916-20.97-0.749-21.423C3622.555,1329.972,3645.413,1329.959,3645.413,1329.959z"/>
	<path id="XMLID_557_" fill="#0B051B" d="M3645.032,1317.62c0,0-21.677,4.438-23.132,2.503c-1.455-1.935-2.4-23.66-1.297-24.859
		c1.104-1.199,21.696-1.745,23.636-0.308C3646.179,1296.393,3645.032,1317.62,3645.032,1317.62z"/>
	<path id="XMLID_555_" fill="#9C3665" d="M3611.485,1279.635c0,0,27.748-4.612,37.091-5.18c9.862-0.599,39.56,0.688,39.56,0.688
		l2.835,79.141l-5.655-76.375L3611.485,1279.635z"/>
	<path id="XMLID_552_" fill="#EE8DB3" d="M3654.072,1154.782l-104.052,10.597c0,0,1.672,22.201,2.008,25.444
		c0.335,3.243,3.111,21.617,3.111,21.617s6.952,0.356,7.6-8.077s6.127-14.274,8.764-17.873c2.636-3.599,10.724-0.266,27.139-7.277
		c16.415-7.012,13.091-12.827,23.594-13.74S3654.072,1154.782,3654.072,1154.782z"/>
	<path id="XMLID_545_" fill="#D65F90" d="M3654.11,1228.675c0,0,2.725-2.146,2.884-5.7s-0.995-6.489-2.743-7.854
		c-1.748-1.365-6.383-2.314-6.383-2.314s3.218-1.12,7.916,1.844c4.697,2.963,3.07,9.455,2.437,10.578
		C3657.587,1226.35,3655.194,1228.523,3654.11,1228.675z"/>
	<path id="XMLID_521_" fill="#D65F90" d="M3642.762,1222.622c0,0-0.471-1.348,1.243-3.071c1.714-1.723,4.973-2.661,5.948-2.261
		c0.975,0.401-2.412-0.692-4.483,2.19C3643.398,1222.362,3642.762,1222.622,3642.762,1222.622z"/>
	<path id="XMLID_520_" fill="#F2DEE6" d="M3643.612,1223.969c0,0,1.055-4.026,3.882-3.822c2.828,0.204,4,1.282,3.175,3.489
		c-0.825,2.207-1.401,4.898-3.525,4.577C3645.021,1227.893,3643.612,1223.969,3643.612,1223.969z"/>
	<path id="XMLID_519_" fill="#BF4C86" d="M3728.715,1445.484l11.134-142.928c0,0-3.938,2.089-7.595,48.139
		s-8.327,85.119-10.27,86.187c-1.943,1.068-11.438,2.791-13.674,4.335c-2.236,1.544-75.161,3.753-75.927,8.276L3728.715,1445.484z"
		/>
</g>
<g id="Layer_1">
</g>
</svg>
