<?xml version="1.0" encoding="utf-8"?>
<!-- Generator: Adobe Illustrator 19.0.0, SVG Export Plug-In . SVG Version: 6.00 Build 0)  -->
<!DOCTYPE svg PUBLIC "-//W3C//DTD SVG 1.1//EN" "http://www.w3.org/Graphics/SVG/1.1/DTD/svg11.dtd">
<svg version="1.1" xmlns="http://www.w3.org/2000/svg" xmlns:xlink="http://www.w3.org/1999/xlink" x="0px" y="0px"
	 viewBox="0 0 9870.104 2778.383" enable-background="new 0 0 9870.104 2778.383" xml:space="preserve">
<g id="bottom_x5F_floor">
	<polygon id="XMLID_1624_" fill="#28233D" points="3555.418,2024.088 3518.372,2070.126 3508.184,2071.012 3501.118,2042.243 
		3509.982,2038.187 3513.817,2059.102 3544.831,2019.058 3557.385,2015.545 	"/>
	<polygon id="XMLID_1623_" fill="#28233D" points="3520.87,2020.432 3523.74,2035.342 3515.485,2036.06 3511.5,2021.247 	"/>
	<path id="XMLID_1622_" fill="#403C60" d="M3523.392,1948.606c0,0,9.02,60.657,6.909,63.96c2.111-3.303-9.289-63.753-9.289-63.753
		L3523.392,1948.606z"/>
	<path id="XMLID_1621_" fill="#1B1930" d="M3534.963,2006.718l-9.92-58.256l1.785-0.155l11.654,63.547c0,0-8.891,3.465-8.436,1.292
		C3530.852,2012.271,3534.963,2006.718,3534.963,2006.718z"/>
	<polygon id="XMLID_1620_" fill="#403C60" points="3507.36,1949.999 3515.762,2013.829 3505.321,1950.177 	"/>
	<polygon id="XMLID_1599_" fill="#1B1930" points="3509.001,1949.857 3510.787,1949.702 3520.633,2013.406 3515.762,2013.829 
		3517.697,2009.793 	"/>
	<path id="XMLID_1598_" fill="#28233D" d="M3530.301,2012.565c-0.147,0.231-0.222,0.418-0.256,0.581
		C3529.819,2013.393,3529.838,2013.29,3530.301,2012.565z"/>
	<path id="XMLID_1597_" fill="#28233D" d="M3523.392,1948.606l1.651-0.144l9.92,58.256c0,0-4.111,5.553-4.918,6.429
		c0.034-0.163,0.109-0.351,0.256-0.581C3532.412,2009.263,3523.392,1948.606,3523.392,1948.606z"/>
	<polygon id="XMLID_1596_" fill="#28233D" points="3507.267,1949.294 3509.001,1949.857 3507.36,1949.999 	"/>
	<polygon id="XMLID_1595_" fill="#28233D" points="3509.001,1949.857 3517.697,2009.793 3515.762,2013.829 3507.36,1949.999 	"/>
	<polygon id="XMLID_1594_" fill="#0B051B" points="3535.183,1932.818 3494.156,1936.385 3499.724,1952.162 3538.72,1948.771 	"/>
	<polygon id="XMLID_1593_" fill="#0B051B" points="3552.437,2010.641 3509.925,2014.337 3510.845,2024.924 3554.757,2021.107 	"/>
	<polygon id="XMLID_1592_" fill="#0B051B" points="3523.74,2035.342 3495.183,2037.825 3498.882,2045.896 3525.222,2043.605 	"/>
	<polygon id="XMLID_1591_" fill="#0B051B" points="3514.783,2059.018 3483.475,2061.74 3484.411,2072.505 3514.753,2069.867 	"/>
	<path id="XMLID_1590_" fill="#28233D" d="M3525.359,1933.746l-31.203,2.639l3.438,10.159c0,0-2.896-3.93,2.775-5.968
		C3506.039,1938.539,3525.359,1933.746,3525.359,1933.746z"/>
	<path id="XMLID_1589_" fill="#403C60" d="M3495.183,2037.825l16.658-1.448c0,0-7.075,3.088-9.752,3.32
		C3499.412,2039.93,3495.183,2037.825,3495.183,2037.825z"/>
	<path id="XMLID_1588_" fill="#403C60" d="M3483.475,2061.74l15.654-1.361c0,0-8.952,2.608-10.737,2.763
		c-1.785,0.155-4.581,2.466-4.581,2.466L3483.475,2061.74z"/>
	<path id="XMLID_1587_" fill="#1B1930" d="M3509.925,2014.337l0.46,5.294c0,0-0.541-4.5,3.526-4.259
		c4.067,0.241,16.39-2.806,16.39-2.806L3509.925,2014.337z"/>
	<path id="XMLID_1586_" fill="#403C60" d="M3494.156,1936.385l0.807,2.384c0,0,3.357-0.315,6.222-1.768s10.001-2.097,10.001-2.097
		L3494.156,1936.385z"/>
	<path id="XMLID_1585_" fill="#1B1930" d="M3513.897,2060.025c0,0,6.301-0.721,12.442-7.687c6.14-6.966,22.062-30.679,22.062-30.679
		l9.445-0.821l-39.473,49.288l-10.188,0.886L3513.897,2060.025z"/>
	<path id="XMLID_1584_" fill="#E0ACC8" d="M3795.258,1811.378c7.217,7.165,9.229,106.157,9.229,106.157l-192.111,12.245
		c0,0,4.005,12.839,11.946,14.547c7.941,1.707,121.482,25.259,132.074,29.878c10.592,4.619-106.962,7.713-110.924,13.44
		c-3.962,5.727-55.181,19.527-22.167,23.878c33.014,4.351,247.68-15.511,247.68-15.511l-315.054,30.388l-52.394-236.325
		c64.191-0.478,218.949,3.724,234.148,7.127C3756.968,1801.519,3788.042,1804.213,3795.258,1811.378z"/>
	<path id="XMLID_1583_" fill="#CE99B6" d="M3849.26,1746.141l21.724,249.87c0,0-218.294,22.084-251.307,17.733
		c-33.014-4.351,14.694-19.752,18.656-25.479c3.963-5.727,122.551-10.71,111.959-15.328
		c-10.592-4.619-117.718-23.333-125.659-25.041c-7.941-1.707-12.256-18.116-12.256-18.116l192.111-12.245
		c0,0-5.047-96.33-12.264-103.496c-7.217-7.165-34.894-8.355-54.177-12.673c-15.198-3.403-168.293-2.635-232.485-2.156l-3.87-17.456
		L3849.26,1746.141z"/>
	<path id="XMLID_1582_" fill="#B783A2" d="M3802.45,1823.617c0,0,13.822-5.675,16.512-2.312c2.69,3.363,7.941,15.494,8.129,35.259
		c0.188,19.765,2.01,50.7,2.01,50.7s-14.039,10.888-21.618-0.442c-7.579-11.33,1.32-19.296,1.32-19.296
		S3794.781,1828.48,3802.45,1823.617z"/>
	<path id="XMLID_1581_" fill="#B783A2" d="M3769.46,1924.515c0,0-60.605,13.062-84.752,14.562
		c-24.146,1.5-47.136,5.962-50.269,4.403c-3.133-1.559-23.86-9.503-13.851-9.956c10.009-0.453,14.673-1.276,14.673-1.276
		L3769.46,1924.515z"/>
	<path id="XMLID_1580_" fill="#B783A2" d="M3849.26,1746.141l16.448,189.188c0,0-4.408-2.439-6.769-29.595
		s-16.725-70.564-18.577-83.591c-1.852-13.026-36.468-38.727-50.418-40.601c-13.95-1.874-253.199-3.38-253.199-3.38
		L3849.26,1746.141z"/>
	<polygon id="XMLID_1579_" fill="#933A7F" points="3624.09,1842.444 3633.141,1932.419 3590.835,1942.742 3579.385,1849.155 	"/>
	<polygon id="XMLID_1578_" fill="#A84890" points="3761.598,1834.085 3624.09,1842.444 3633.141,1932.419 3769.46,1924.515 	"/>
	<polygon id="XMLID_1577_" fill="#0B051B" points="3749.777,1842.906 3756.242,1917.272 3707.309,1919.803 3700.992,1847.147 	"/>
	<polygon id="XMLID_1576_" fill="#0B051B" points="3689.094,1848.182 3695.242,1918.902 3644.078,1923.351 3637.619,1849.06 	"/>
	<polygon id="XMLID_1575_" fill="#BA5BA1" points="3616.458,1853.865 3619.096,1884.206 3594.413,1889.874 3588.334,1857.878 	"/>
	<polygon id="XMLID_1574_" fill="#BA5BA1" points="3620.157,1896.419 3622.467,1922.984 3597.991,1931.03 3595.566,1903.144 	"/>
	<polygon id="XMLID_1573_" fill="#A84890" points="3761.598,1834.085 3807.627,1822.291 3816.162,1920.454 3769.46,1924.515 	"/>
	<polygon id="XMLID_1572_" fill="#C15FA6" points="3772.047,1878.433 3774.763,1909.667 3803.586,1907.161 3800.741,1874.44 	"/>
	<polygon id="XMLID_1571_" fill="#C15FA6" points="3770.78,1863.858 3799.344,1858.377 3797.327,1835.175 3768.814,1841.25 	"/>
	<path id="XMLID_1570_" fill="#8E337B" d="M3761.598,1834.085l7.862,90.429l-6.711,0.387c0,0-3.455-65.365-2.125-65.705
		C3761.953,1858.856,3763.317,1853.867,3761.598,1834.085z"/>
	<polygon id="XMLID_1569_" fill="#8E337B" points="3797.638,1838.745 3771.274,1843.509 3773.734,1863.291 3770.78,1863.858 
		3768.814,1841.25 3797.327,1835.175 	"/>
	<polygon id="XMLID_1568_" fill="#8E337B" points="3800.741,1874.44 3772.047,1878.433 3774.763,1909.667 3778.183,1909.37 
		3775.51,1881.204 3800.993,1877.341 	"/>
	<polygon id="XMLID_1567_" fill="#D381BC" points="3776.564,1892.31 3792.536,1908.122 3797.221,1907.715 3776.01,1886.475 	"/>
	<polygon id="XMLID_1566_" fill="#D381BC" points="3803.062,1901.138 3781.928,1880.231 3787.867,1879.331 3802.276,1892.094 	"/>
	<polygon id="XMLID_1565_" fill="#D381BC" points="3798.258,1845.884 3790.205,1840.088 3784.544,1841.111 3798.795,1852.056 	"/>
	<polygon id="XMLID_1564_" fill="#D381BC" points="3773.336,1843.136 3792.203,1859.747 3786.811,1860.782 3771.574,1846.966 
		3771.274,1843.509 	"/>
	<path id="XMLID_1563_" fill="#8E337B" d="M3625.624,1860.09l7.516,72.329l81.522-4.747c0,0,5.647-2.256,1.496-3.469
		c-4.152-1.213-20.787-3.812-20.787-3.812l-51.293,2.96c0,0-2.93-36.379-6.561-28.158
		C3633.653,1903.944,3632.796,1862.335,3625.624,1860.09z"/>
	<polygon id="XMLID_1562_" fill="#8E337B" points="3619.096,1884.206 3613.975,1882.623 3612.418,1854.441 3616.458,1853.865 	"/>
	<polygon id="XMLID_1561_" fill="#A84890" points="3593.894,1887.144 3613.975,1882.623 3619.096,1884.206 3594.413,1889.874 	"/>
	<polygon id="XMLID_1560_" fill="#8E337B" points="3616.471,1897.427 3619.087,1920.729 3622.467,1922.984 3620.157,1896.419 	"/>
	<polygon id="XMLID_1559_" fill="#A84890" points="3597.674,1927.385 3619.087,1920.729 3622.467,1922.984 3597.991,1931.03 	"/>
	<polygon id="XMLID_1558_" fill="#A84890" points="3624.09,1842.444 3616.367,1841.617 3574.932,1848.516 3579.385,1849.155 	"/>
	<polyline id="XMLID_1557_" fill="#A84890" points="3590.835,1942.742 3586.776,1940.397 3574.932,1848.516 3579.385,1849.155 	"/>
	<path id="XMLID_1556_" fill="#CE74B5" d="M3463.014,1642.375c7.135,57.248,17.038,136.195,17.643,138.804
		c0.97,4.124,9.442,5.185,9.442,5.185l373.441-41.459l-10.802-143.067c-4.697,29.541-11.513,64.282-19.274,78.84
		c-14.687,27.568-11.469,4.809-17.246-4.345c-5.777-9.155-31.526,53.542-31.526,53.542s-39.498-19.944-49.584-37.499
		c-10.05-17.559-45.669,45.996-52.73,52.688c-7.061,6.692-40.003,15.616-67.862,15.575c-27.878-0.058-68.596,2.367-75.873-27.139
		c-7.292-29.469-6.187-81.5-17.128-103.926c-10.941-22.426-15.504,8.322-16.083,7.935c-10.979-7.354-0.758,75.114-23.662,29.472
		C3475.034,1653.559,3467.371,1646.78,3463.014,1642.375z"/>
	<path id="XMLID_1555_" fill="#C15FA6" d="M3455.704,1583.739c0,0,3.191,25.744,7.31,58.636
		c4.357,4.405,15.053,21.024,21.115,34.764c25.104,56.904,24.944-24.306,25.584-24.596c0.642-0.271,0.201-39.943,11.143-17.516
		s10.796,73.495,18.088,102.964c7.277,29.507,41.389,27.851,69.267,27.909c27.859,0.042,71.839-11.407,78.899-18.099
		c7.061-6.692,37.761-64.874,47.812-47.316c10.086,17.555,51.428,33.068,51.428,33.068s22.412-57.237,28.189-48.082
		c5.777,9.154,7.555,27.432,22.242-0.135c7.761-14.558,11.26-53.956,15.956-83.497l-4.979-65.959
		C3838.995,1524.646,3455.704,1583.739,3455.704,1583.739z"/>
	<path id="XMLID_1554_" fill="#993D85" d="M3681.646,1707.364c0,0-115.339,4.033-116.296-0.079s-52.224-132.211-52.224-132.211
		s208.692-33.047,314.634-40.027L3681.646,1707.364z"/>
	<path id="XMLID_1553_" fill="#8C347C" d="M3513.083,1574.564c0,0,168.083-29.551,274.024-36.531l-104.717,154.428"/>
	<path id="XMLID_1552_" fill="#7A276F" d="M3513.083,1574.564c0,0,118.141-25.098,224.082-32.078l-54.775,149.975"/>
	<g id="XMLID_1550_">
		<path id="XMLID_1551_" fill="#A84890" d="M3828.694,1740.437c-1.597-18.432-14.675-202.871-14.807-204.732l-5.362,0.38
			c0.132,1.861,13.776,182.647,14.814,204.815C3823.679,1748.149,3828.694,1740.437,3828.694,1740.437z"/>
	</g>
	<g id="XMLID_1548_">
		<path id="XMLID_1549_" fill="#A84890" d="M3802.218,1746.251c-2.389-37.772-14.977-206.325-15.111-208.218l-5.362,0.382
			c0.135,1.893,13.063,195.656,15.118,208.3C3797.501,1750.641,3802.303,1747.592,3802.218,1746.251z"/>
	</g>
	<g id="XMLID_1546_">
		<path id="XMLID_1547_" fill="#A84890" d="M3775.33,1752.569c-1.656-19.104-15.317-210.241-15.455-212.17l-5.361,0.384
			c0.138,1.929,13.802,193.105,15.462,212.25L3775.33,1752.569z"/>
	</g>
	<g id="XMLID_1544_">
		<path id="XMLID_1545_" fill="#A84890" d="M3747.228,1748.418c3.036-28.133-13.195-201.697-13.322-203.501l-5.362,0.377
			c0.127,1.805,12.719,180.646,14.271,198.556C3742.814,1743.85,3747.084,1749.754,3747.228,1748.418z"/>
	</g>
	<g id="XMLID_1542_">
		<path id="XMLID_1543_" fill="#A84890" d="M3724.713,1752.989c-1.62-18.693-14.923-205.722-15.057-207.609l-5.362,0.382
			c0.134,1.887,13.651,185.121,15.064,207.691C3719.819,1760.796,3724.713,1752.989,3724.713,1752.989z"/>
	</g>
	<g id="XMLID_1540_">
		<path id="XMLID_1541_" fill="#A84890" d="M3698.278,1759.268c-1.634-18.84-15.065-207.341-15.2-209.242l-5.362,0.382
			c0.135,1.902,13.57,190.444,15.207,209.324L3698.278,1759.268z"/>
	</g>
	<g id="XMLID_1538_">
		<path id="XMLID_1539_" fill="#A84890" d="M3670.812,1765.418c-1.663-19.178-15.387-211.042-15.525-212.977l-5.361,0.384
			c0.138,1.936,13.865,193.84,15.532,213.058L3670.812,1765.418z"/>
	</g>
	<g id="XMLID_1536_">
		<path id="XMLID_1537_" fill="#A84890" d="M3643.818,1768.893c-1.662-19.178-15.513-212.503-15.651-214.438l-5.925,0.775
			c0.138,1.936,14.556,194.909,16.221,214.127L3643.818,1768.893z"/>
	</g>
	<g id="XMLID_1534_">
		<path id="XMLID_1535_" fill="#A84890" d="M3618.193,1771.999c-1.663-19.178-15.387-211.043-15.525-212.978l-5.362,0.384
			c0.138,1.936,13.866,193.841,15.532,213.058L3618.193,1771.999z"/>
	</g>
	<g id="XMLID_1532_">
		<path id="XMLID_1533_" fill="#A84890" d="M3592.956,1774.862c-1.662-19.178-15.358-210.367-15.496-212.303l-5.309,0.839
			c0.138,1.936,13.786,192.71,15.451,211.927L3592.956,1774.862z"/>
	</g>
	<g id="XMLID_1530_">
		<path id="XMLID_1531_" fill="#A84890" d="M3565.17,1770.84c-1.612-18.6-14.836-204.711-14.179-203.679l-5.846,1.101
			c-0.657-1.03,11.152,177.72,14.076,196.201C3560.577,1773.037,3565.17,1770.84,3565.17,1770.84z"/>
	</g>
	<g id="XMLID_1528_">
		<path id="XMLID_1529_" fill="#A84890" d="M3538.661,1769.165c-1.574-18.163-14-195.1-14.129-196.933l-5.375,1.079
			c0.13,1.834,12.994,176.123,14.15,196.318C3533.632,1775.322,3538.661,1769.165,3538.661,1769.165z"/>
	</g>
	<g id="XMLID_1526_">
		<path id="XMLID_1527_" fill="#A84890" d="M3519.578,1760.563c-1.436-16.579-12.907-182.526-13.022-184.201l-5.363,0.371
			c0.116,1.674,11.856,170.732,13.297,187.357L3519.578,1760.563z"/>
	</g>
	<g id="XMLID_1480_">
		<path id="XMLID_1481_" fill="#A84890" d="M3494.526,1782.75c-1.785-23.896-14.474-200.543-14.604-202.382l-5.362,0.378
			c0.13,1.84,13.029,184.205,14.611,202.467C3489.171,1783.214,3494.922,1788.049,3494.526,1782.75z"/>
	</g>
	<g id="XMLID_1474_">
		<path id="XMLID_1475_" fill="#A84890" d="M3852.778,1731.594c-1.54-17.775-14.048-195.652-14.175-197.446l-5.362,0.377
			c0.126,1.795,13.404,164.189,14.182,197.533C3847.585,1738.986,3852.778,1731.594,3852.778,1731.594z"/>
	</g>
	<g id="XMLID_1408_">
		<path id="XMLID_1409_" fill="#590D49" d="M3821.9,1658.905c-1.163-13.43-7.928-121.867-8.016-123.223l-1.788,0.117
			c0.088,1.356,8.818,135.779,9.983,149.229L3821.9,1658.905z"/>
	</g>
	<g id="XMLID_1406_">
		<path id="XMLID_1407_" fill="#590D49" d="M3796.018,1674.942c-1.066-12.323-8.835-135.685-8.913-136.93l-1.789,0.113
			c0.078,1.244,7.691,115.949,8.759,128.294L3796.018,1674.942z"/>
	</g>
	<g id="XMLID_1404_">
		<path id="XMLID_1405_" fill="#590D49" d="M3767.274,1659.908c-0.927-10.717-7.302-118.059-7.366-119.142l-1.789,0.106
			c0.064,1.083,5.475,90.472,6.404,101.215L3767.274,1659.908z"/>
	</g>
	<g id="XMLID_1402_">
		<path id="XMLID_1403_" fill="#590D49" d="M3740.722,1657.721c-0.894-10.333-6.936-113.84-6.997-114.885l-1.789,0.105
			c0.061,1.045,5.751,95.688,6.647,106.046L3740.722,1657.721z"/>
	</g>
	<g id="XMLID_1400_">
		<path id="XMLID_1401_" fill="#590D49" d="M3721.738,1718.772c-1.351-15.599-11.96-171.637-12.067-173.212l-1.788,0.122
			c0.107,1.574,10.671,150.232,12.024,165.848L3721.738,1718.772z"/>
	</g>
	<g id="XMLID_1398_">
		<path id="XMLID_1399_" fill="#590D49" d="M3695.246,1724.401c-1.364-15.749-12.105-173.293-12.213-174.882l-1.788,0.122
			c0.108,1.589,7.931,118.706,9.296,134.472L3695.246,1724.401z"/>
	</g>
	<g id="XMLID_1396_">
		<path id="XMLID_1397_" fill="#590D49" d="M3667.727,1729.937c-1.388-16.031-12.373-176.385-12.484-178.002l-1.788,0.122
			c0.111,1.618,11.418,158.816,12.808,174.864L3667.727,1729.937z"/>
	</g>
	<g id="XMLID_1394_">
		<path id="XMLID_1395_" fill="#590D49" d="M3640.718,1733.228c-1.389-16.032-12.373-176.385-12.484-178.002l-1.788,0.122
			c0.111,1.618,11.635,154.381,12.487,178.036C3638.95,1733.831,3640.718,1733.228,3640.718,1733.228z"/>
	</g>
	<g id="XMLID_1392_">
		<path id="XMLID_1393_" fill="#590D49" d="M3615.08,1736.189c-1.388-16.031-12.373-176.385-12.484-178.002l-1.788,0.122
			c0.111,1.618,10.787,151.565,12.177,167.613L3615.08,1736.189z"/>
	</g>
	<g id="XMLID_1390_">
		<path id="XMLID_1391_" fill="#590D49" d="M3589.833,1738.944c-1.388-16.031-12.263-174.768-12.374-176.385l-1.788,0.123
			c0.111,1.618,10.522,155.031,11.912,171.079L3589.833,1738.944z"/>
	</g>
	<g id="XMLID_1388_">
		<path id="XMLID_1389_" fill="#590D49" d="M3562.138,1735.974c-1.347-15.549-11.041-167.242-11.148-168.812l-2.367,0.454
			c0.107,1.569,9.557,136.598,10.905,152.164L3562.138,1735.974z"/>
	</g>
	<g id="XMLID_1386_">
		<path id="XMLID_1387_" fill="#590D49" d="M3535.687,1734.948c-1.316-15.183-11.052-161.184-11.155-162.716l-1.784,0.356
			c0.104,1.533,9.351,134.861,10.668,150.062L3535.687,1734.948z"/>
	</g>
	<g id="XMLID_1384_">
		<path id="XMLID_1385_" fill="#590D49" d="M3512.573,1673.119c-0.84-9.708-5.962-95.776-6.017-96.758l-1.867-0.034
			c0.055,0.982,5.436,96.129,6.278,105.864L3512.573,1673.119z"/>
	</g>
	<g id="XMLID_1382_">
		<path id="XMLID_1383_" fill="#590D49" d="M3482.033,1630.417c-0.489-7.217-2.694-49.48-2.732-50.185l-1.788,0.096
			c0.037,0.705,3.764,70.653,4.388,77.888C3481.9,1658.215,3483.639,1654.147,3482.033,1630.417z"/>
	</g>
	<g id="XMLID_1380_">
		<path id="XMLID_1381_" fill="#590D49" d="M3843.712,1627.32c-0.723-8.381-5.074-92.433-5.118-93.281l-1.789,0.092
			c0.044,0.849,3.955,72.999,4.681,81.411L3843.712,1627.32z"/>
	</g>
	<path id="XMLID_1379_" fill="#701E61" d="M3626.062,1851.002c0,0,0.965,7.222,0.669,7.697s-2.149,2.435-2.008,0.175
		c0.141-2.26-1.649-7.719-0.745-8.14C3624.882,1850.313,3625.893,1849.678,3626.062,1851.002z"/>
	<path id="XMLID_1378_" fill="#701E61" d="M3632.877,1916.418c0,0,0.965,7.222,0.669,7.697c-0.296,0.475-2.148,2.435-2.008,0.175
		c0.141-2.26-1.649-7.719-0.745-8.14C3631.697,1915.73,3632.708,1915.095,3632.877,1916.418z"/>
	<path id="XMLID_1186_" fill="#56104D" d="M3624.396,1851.877c0,0,1.234,7.086,0.938,7.561c-0.296,0.475-0.752,1.695-0.611-0.565
		c0.141-2.26-1.649-7.719-0.745-8.14C3624.882,1850.313,3624.227,1850.553,3624.396,1851.877z"/>
	<path id="XMLID_1185_" fill="#56104D" d="M3631.258,1917.873c0,0,1.032,6.053,0.736,6.528s-0.596,2.148-0.455-0.112
		c0.141-2.26-1.649-7.719-0.745-8.14C3631.697,1915.73,3631.088,1916.549,3631.258,1917.873z"/>
	<path id="XMLID_1184_" fill="#CE8DBC" d="M3625.48,1850.771c0,0,0.589,2.254,0.669,4.466c0.08,2.212,0.245,4.109,0.582,3.461
		c0.337-0.647-0.059-3.592-0.292-5.088C3626.205,1852.113,3626.149,1849.421,3625.48,1850.771z"/>
	<path id="XMLID_1183_" fill="#CE8DBC" d="M3632.414,1915.657c0,0,0.59-0.237,0.667,1.383s0.438,4.797,0.465,5.298
		s0.357,1.34,0,1.777s-0.547,0.856-0.45-0.614s0.008-3.429-0.12-4.429S3632.664,1915.936,3632.414,1915.657z"/>
	<polygon id="XMLID_1182_" opacity="0.55" fill="#D381BC" points="3614.053,1883.516 3589.92,1866.224 3591.389,1873.957 
		3608.406,1885.136 	"/>
	<polygon id="XMLID_1181_" opacity="0.55" fill="#D381BC" points="3614.865,1867.654 3597.434,1856.58 3604.321,1855.597 
		3614.717,1862.497 	"/>
	<polygon id="XMLID_1180_" opacity="0.55" fill="#D381BC" points="3619.191,1907.008 3610.181,1899.094 3605.357,1900.467 
		3619.695,1912.801 	"/>
	<path id="XMLID_1179_" opacity="0.55" fill="#D381BC" d="M3616.351,1923.516c-0.062-0.071-20.317-15-20.317-15l0.703,8.087
		l12.541,8.856L3616.351,1923.516z"/>
	<polygon id="XMLID_1178_" fill="#933A7F" points="3807.627,1822.291 3812.438,1822.472 3819.534,1918.962 3816.162,1920.454 	"/>
	<path id="XMLID_1177_" fill="#701E61" d="M3760.441,1841.226c0,0,0.296,7.28,0.669,7.697c0.374,0.417,2.537,2.027,2.008-0.175
		c-0.529-2.202,0.292-7.888-0.671-8.146C3761.485,1840.344,3760.38,1839.893,3760.441,1841.226z"/>
	<path id="XMLID_1176_" fill="#56104D" d="M3762.233,1841.801c0,0,0.007,7.193,0.381,7.61c0.373,0.417,1.033,1.54,0.504-0.662
		c-0.529-2.202,0.292-7.888-0.671-8.146C3761.485,1840.344,3762.172,1840.468,3762.233,1841.801z"/>
	<path id="XMLID_1175_" fill="#CE8DBC" d="M3760.975,1840.899c0,0-0.192,2.322,0.112,4.515c0.303,2.193,0.468,4.089,0.024,3.51
		c-0.444-0.58-0.562-3.548-0.59-5.063C3760.492,1842.346,3760.083,1839.684,3760.975,1840.899z"/>
	<path id="XMLID_1174_" fill="#701E61" d="M3766.264,1908.838c0,0,0.296,7.28,0.669,7.697c0.373,0.417,2.536,2.027,2.008-0.175
		s0.292-7.888-0.67-8.146C3767.308,1907.956,3766.202,1907.505,3766.264,1908.838z"/>
	<path id="XMLID_1173_" fill="#56104D" d="M3768.056,1909.413c0,0,0.007,7.193,0.381,7.609c0.374,0.417,1.033,1.54,0.504-0.662
		s0.292-7.888-0.67-8.146C3767.308,1907.956,3767.994,1908.08,3768.056,1909.413z"/>
	<path id="XMLID_1172_" fill="#CE8DBC" d="M3766.797,1908.511c0,0-0.191,2.322,0.112,4.515c0.303,2.193,0.468,4.089,0.024,3.51
		c-0.444-0.58-0.562-3.548-0.59-5.062C3766.315,1909.958,3765.905,1907.296,3766.797,1908.511z"/>
</g>
<g id="Layer_1">
</g>
</svg>
