<?xml version="1.0" encoding="utf-8"?>
<!-- Generator: Adobe Illustrator 19.0.0, SVG Export Plug-In . SVG Version: 6.00 Build 0)  -->
<!DOCTYPE svg PUBLIC "-//W3C//DTD SVG 1.1//EN" "http://www.w3.org/Graphics/SVG/1.1/DTD/svg11.dtd">
<svg version="1.1" xmlns="http://www.w3.org/2000/svg" xmlns:xlink="http://www.w3.org/1999/xlink" x="0px" y="0px"
	 viewBox="0 0 9870.104 2778.383" enable-background="new 0 0 9870.104 2778.383" xml:space="preserve">
<g id="bottom_x5F_floor_x5F_pieces">
	<polygon id="XMLID_1222_" fill="#560F4C" points="3650.459,2013.952 3662.376,2032.22 3664.341,2030.842 3653.747,2009.312 	"/>
	<polygon id="XMLID_1201_" fill="#701E61" points="3649.921,2013.998 3662.376,2032.22 3663.803,2030.888 3651.068,2011.357 	"/>
	<polygon id="XMLID_12_" fill="#54104B" points="3857.811,1994.052 3848.277,2020.27 3846.358,2018.493 3855.711,1992.081 	"/>
	<polygon id="XMLID_400_" fill="#9B6286" points="3741.593,1998.685 3757.262,2022.189 3758.533,2021.342 3743.075,1997.838 	"/>
	<polygon id="XMLID_14_" fill="#8E547B" points="3742.44,1998.261 3758.109,2021.766 3759.38,2020.919 3743.922,1997.414 	"/>
	<polygon id="XMLID_53_" fill="#A87696" points="3800.333,2000.734 3802,2008.688 3825.821,2005.792 3823.95,1997.557 	"/>
	<polygon id="XMLID_381_" fill="#B783A2" points="3775.308,2001.399 3776.446,2012.855 3802,2008.688 3799.958,1999.087 	"/>
	<polygon id="XMLID_386_" fill="#9B6286" points="3825.821,2005.792 3823.348,1996.442 3845.028,1994.255 3846.655,2003.564 	"/>
	<polygon id="XMLID_388_" fill="#874D74" points="3814.126,2007.115 3815.225,2012.869 3793.951,2015.619 3792.633,2010.126 	"/>
	<polygon id="XMLID_389_" fill="#560F4C" points="3710.254,2004.614 3693.42,2018.484 3695.008,2020.283 3715.23,2007.367 	"/>
	<polygon id="XMLID_390_" fill="#56104D" points="3731.217,2005.673 3732.064,2018.589 3734.817,2018.378 3733.758,2004.402 	"/>
	<polygon id="XMLID_391_" fill="#9B6286" points="3723.806,2007.155 3755.992,2013.507 3755.992,2016.472 3723.382,2009.272 	"/>
	<polygon id="XMLID_392_" fill="#56104D" points="3823.407,2005.998 3828.49,2013.592 3830.395,2011.965 3825.737,2005.727 	"/>
	<polygon id="XMLID_393_" fill="#701E61" points="3857.414,1993.02 3848.103,2018.536 3846.358,2018.493 3855.314,1991.049 	"/>
	<path id="XMLID_396_" fill="#3D0B39" d="M3830.395,2011.965l-4.574-6.172l-1.381,0.039c0,0,4.526,5.717,4.605,6.114
		c0.079,0.397-0.318,1.35-0.318,1.35L3830.395,2011.965"/>
	<path id="XMLID_395_" fill="#CE99B6" d="M3845.35,1999.32c0,0-1.112,0.953-1.218,1.376s-1.218,1.694-1.588,1.853
		s-1.271-0.053-3.176,0.529c-1.906,0.582-8.841,1.588-8.841,1.588s-1.376,0.582-0.9,0.582c0.477,0,16.675-1.8,16.675-1.8
		s-0.053-2.17-0.318-2.964S3845.932,1999.426,3845.35,1999.32z"/>
	<path id="XMLID_397_" fill="#9B678B" d="M3775.632,2002.814l0.9,9.105c0,0,0.053,0.529,0.318,0.741
		c0.265,0.212,1.482-0.106,2.488-0.106s7.941-1.747,7.941-1.747s0.159-2.223-4.182-1.482s-4.076-3.07-2.594-3.547
		c1.482-0.476,7.729,1.482,10.376,0.953c2.647-0.529,8.152-1.959,8.152-1.959s-0.847,0.371,0,1.535
		c0.847,1.165,2.541,1.429,2.541,1.429l-0.476-6.776L3775.632,2002.814"/>
	<path id="XMLID_394_" fill="#ECD3DE" d="M3792.572,2009.643c0,0,2.091,0.318,2.567,0.079c0.477-0.238,1.932-0.609,2.726-0.768
		c0.794-0.159,2.991-0.185,2.991-0.185s0.715,0.238,0.477-0.318c-0.238-0.556-0.874,0.318-0.953-1.906
		c-0.08-2.223-0.397-3.653-0.556-4.367c-0.159-0.715-0.556-0.476-0.794-0.476c-0.238,0-4.923,0.794-5.955,0.715
		c-1.032-0.079-2.779,0.556-3.891,0.635c-1.112,0.079-3.891,0.238-5.32,0.318c-1.429,0.079-3.176,0-4.208,0.238
		c-1.032,0.238-4.5-0.212-4.5-0.212l70.486-7.094c0,0-0.08,1.032-0.794,1.032s-4.367,0.159-5.082,0.238
		c-0.715,0.079-5.161,0.715-5.717,0.715c-0.556,0-6.75,0.476-7.782,0.635s-1.509,0.556-1.509,0.556s0.159,0.953,0.476,1.588
		c0.318,0.635-0.159,0.556,0,1.35c0.159,0.794,0.556,1.032,0.794,1.588c0.238,0.556,0.556,1.588,0.556,1.588l-1.667,0.318
		c0,0,0-0.715-0.159-1.668c-0.159-0.953-0.397-1.906-0.635-2.938c-0.238-1.032-0.794-1.429-0.874-1.667
		c-0.079-0.238-0.953-0.238-1.271-0.238s-10.64,1.271-11.435,1.509c-0.794,0.238-2.223,1.112-2.223,1.112s-1.509-0.635-1.747-0.635
		s-0.715-0.318-1.509-0.159c-0.794,0.159-3.017,0.318-3.017,0.318s-0.953,0.159-0.874,0.397c0.079,0.238,0.397,0.159,0.715,1.191
		c0.318,1.032,0.238,1.191,0.238,1.747c0,0.556,0,0.159,0,0.874c0,0.715,0.159,0.953,0.397,1.429
		c0.238,0.476,0.318,1.112,0.794,1.112c0.476,0,5.558-0.397,5.876-0.476c0.318-0.079,4.933-0.701,4.933-0.701l0.308,1.257
		c0,0,1.191,1.429,0.159,1.032c-1.032-0.397-1.112-1.429-1.906-1.35c-0.794,0.079-1.667,0.556-1.667,0.556s-1.826,0-2.62,0.079
		c-0.794,0.079-3.256,0.397-3.732,0.635c-0.477,0.238-1.588,0.635-2.223,0.476s-2.462-0.159-3.256,0.159
		c-0.794,0.318-1.191,0.238-1.906,0.476c-0.715,0.238-1.429,1.429-2.382,2.065s-2.065-1.376-2.065-1.376s1.271,2.964,0.715,2.647
		c-0.556-0.318-2.47-3.084-0.917-3.646"/>
	<path id="XMLID_399_" fill="#AF75A1" d="M3814.223,2010.49c0,0,0.371,1.641,0.265,1.8c-0.106,0.159-2.117,0.265-2.647,0.476
		c-0.53,0.212-7.464,0.953-8.364,1.112s-5.664,1.165-5.664,1.165l17.413-2.173l-0.631-3.465
		C3814.594,2009.405,3814.117,2009.749,3814.223,2010.49z"/>
	<polygon id="XMLID_398_" fill="#701E61" points="3710.148,2004.084 3693.42,2018.484 3694.902,2019.754 3712.901,2004.932 	"/>
	<polygon id="XMLID_413_" fill="#B280A1" points="3723.488,2006.625 3755.674,2012.978 3755.674,2015.943 3723.065,2008.743 	"/>
	<polygon id="XMLID_1229_" fill="#54104B" points="3647.561,2015.802 3638.027,2042.02 3636.108,2040.243 3645.461,2013.831 	"/>
	<polygon id="XMLID_1226_" fill="#A87696" points="3590.083,2022.484 3591.75,2030.438 3615.571,2027.542 3613.7,2019.307 	"/>
	<polygon id="XMLID_1225_" fill="#B783A2" points="3565.058,2023.149 3566.196,2034.605 3591.75,2030.438 3589.708,2020.837 	"/>
	<polygon id="XMLID_1224_" fill="#9B6286" points="3615.571,2027.542 3613.098,2018.192 3634.778,2016.005 3636.405,2025.314 	"/>
	<polygon id="XMLID_1223_" fill="#874D74" points="3603.876,2028.865 3604.975,2034.619 3583.701,2037.369 3582.383,2031.876 	"/>
	<polygon id="XMLID_1217_" fill="#56104D" points="3613.157,2027.748 3618.24,2035.342 3620.145,2033.715 3615.487,2027.477 	"/>
	<polygon id="XMLID_1216_" fill="#701E61" points="3647.164,2014.77 3637.853,2040.286 3636.108,2040.243 3645.064,2012.799 	"/>
	<path id="XMLID_1215_" fill="#3D0B39" d="M3620.145,2033.715l-4.574-6.172l-1.381,0.039c0,0,4.526,5.717,4.605,6.114
		c0.079,0.397-0.318,1.35-0.318,1.35L3620.145,2033.715"/>
	<path id="XMLID_1214_" fill="#CE99B6" d="M3635.1,2021.07c0,0-1.112,0.953-1.218,1.376s-1.218,1.694-1.588,1.853
		s-1.271-0.053-3.176,0.529c-1.906,0.582-8.841,1.588-8.841,1.588s-1.376,0.582-0.9,0.582c0.477,0,16.675-1.8,16.675-1.8
		s-0.053-2.17-0.318-2.964S3635.682,2021.176,3635.1,2021.07z"/>
	<path id="XMLID_1213_" fill="#9B678B" d="M3565.382,2024.564l0.9,9.105c0,0,0.053,0.529,0.318,0.741
		c0.265,0.212,1.482-0.106,2.488-0.106s7.941-1.747,7.941-1.747s0.159-2.223-4.182-1.482s-4.076-3.07-2.594-3.547
		c1.482-0.476,7.729,1.482,10.376,0.953c2.647-0.529,8.152-1.959,8.152-1.959s-0.847,0.371,0,1.535
		c0.847,1.165,2.541,1.429,2.541,1.429l-0.476-6.776L3565.382,2024.564"/>
	<path id="XMLID_1212_" fill="#ECD3DE" d="M3582.322,2031.393c0,0,2.091,0.318,2.567,0.079c0.477-0.238,1.932-0.609,2.726-0.768
		c0.794-0.159,2.991-0.185,2.991-0.185s0.715,0.238,0.477-0.318c-0.238-0.556-0.874,0.318-0.953-1.906
		c-0.08-2.223-0.397-3.653-0.556-4.367c-0.159-0.715-0.556-0.476-0.794-0.476c-0.238,0-4.923,0.794-5.955,0.715
		c-1.032-0.079-2.779,0.556-3.891,0.635c-1.112,0.079-3.891,0.238-5.32,0.318c-1.429,0.079-3.176,0-4.208,0.238
		c-1.032,0.238-4.5-0.212-4.5-0.212l70.486-7.094c0,0-0.08,1.032-0.794,1.032s-4.367,0.159-5.082,0.238
		c-0.715,0.079-5.161,0.715-5.717,0.715c-0.556,0-6.75,0.476-7.782,0.635s-1.509,0.556-1.509,0.556s0.159,0.953,0.476,1.588
		c0.318,0.635-0.159,0.556,0,1.35c0.159,0.794,0.556,1.032,0.794,1.588c0.238,0.556,0.556,1.588,0.556,1.588l-1.667,0.318
		c0,0,0-0.715-0.159-1.668c-0.159-0.953-0.397-1.906-0.635-2.938c-0.238-1.032-0.794-1.429-0.874-1.667
		c-0.079-0.238-0.953-0.238-1.271-0.238s-10.64,1.271-11.435,1.509c-0.794,0.238-2.223,1.112-2.223,1.112s-1.509-0.635-1.747-0.635
		s-0.715-0.318-1.509-0.159c-0.794,0.159-3.017,0.318-3.017,0.318s-0.953,0.159-0.874,0.397c0.079,0.238,0.397,0.159,0.715,1.191
		c0.318,1.032,0.238,1.191,0.238,1.747c0,0.556,0,0.159,0,0.874c0,0.715,0.159,0.953,0.397,1.429
		c0.238,0.476,0.318,1.112,0.794,1.112c0.476,0,5.558-0.397,5.876-0.476c0.318-0.079,4.933-0.701,4.933-0.701l0.308,1.257
		c0,0,1.191,1.429,0.159,1.032c-1.032-0.397-1.112-1.429-1.906-1.35c-0.794,0.079-1.667,0.556-1.667,0.556s-1.826,0-2.62,0.079
		c-0.794,0.079-3.256,0.397-3.732,0.635c-0.477,0.238-1.588,0.635-2.223,0.476s-2.462-0.159-3.256,0.159
		c-0.794,0.318-1.191,0.238-1.906,0.476c-0.715,0.238-1.429,1.429-2.382,2.065s-2.065-1.376-2.065-1.376s1.271,2.964,0.715,2.647
		c-0.556-0.318-2.47-3.084-0.917-3.646"/>
	<path id="XMLID_1211_" fill="#AF75A1" d="M3603.973,2032.24c0,0,0.371,1.641,0.265,1.8c-0.106,0.159-2.117,0.265-2.647,0.476
		c-0.53,0.212-7.464,0.953-8.364,1.112s-5.664,1.165-5.664,1.165l17.413-2.173l-0.631-3.465
		C3604.344,2031.155,3603.867,2031.499,3603.973,2032.24z"/>
</g>
<g id="Layer_1">
</g>
</svg>
