<?xml version="1.0" encoding="utf-8"?>
<!-- Generator: Adobe Illustrator 19.0.0, SVG Export Plug-In . SVG Version: 6.00 Build 0)  -->
<!DOCTYPE svg PUBLIC "-//W3C//DTD SVG 1.1//EN" "http://www.w3.org/Graphics/SVG/1.1/DTD/svg11.dtd">
<svg version="1.1" xmlns="http://www.w3.org/2000/svg" xmlns:xlink="http://www.w3.org/1999/xlink" x="0px" y="0px"
	 viewBox="0 0 9870.104 2778.383" enable-background="new 0 0 9870.104 2778.383" xml:space="preserve">
<g id="chute2">
	<path id="XMLID_823_" fill="#661F82" d="M3927.095,1572.733c-2.354-6.389-158.379-329.852-158.508-338.232
		c0,0-3.167,2.476-9.917,0.976c-5.875-1.306-9.893-3.899-9.893-3.899c0.569,6.544,142.522,324.76,143.143,331.899
		C3892.541,1570.615,3929.449,1579.122,3927.095,1572.733z"/>
	<path id="XMLID_822_" fill="#4E116B" d="M3927.095,1572.733c-4.164-5.387-151.926-318.257-158.508-338.232
		c0,0-3.306,1.698-4.417,1.976c-1.238,0.309-4.981,0.372-4.981,0.372c0.569,6.544,145.276,321.468,148.481,327.878
		C3912.42,1574.226,3927.67,1573.476,3927.095,1572.733z"/>
	<path id="XMLID_1306_" fill="#54157C" d="M3775.531,1226.019c0,0-7.472,6.742-4.826,9.578c2.645,2.836,3.265,7.577,3.265,7.577
		l-36.937,5.01l-1.624-18.676L3775.531,1226.019z"/>
	<path id="XMLID_1295_" fill="#3F0E68" d="M3770.705,1235.597c2.645,2.836,3.265,7.577,3.265,7.577l-36.937,5.01l-1.624-18.676
		l0.358-0.031c0.971,3.743,5.443,5.703,7.897,6.517c4.398,1.458,11.266,3.121,11.266,3.121s5.775,0.4,10.606-0.922
		c1.816-0.497,3.301-3.712,4.607-4.051c0.003-0.001,0.011-0.002,0.014-0.003C3770.168,1234.683,3770.32,1235.184,3770.705,1235.597z
		"/>
	<path id="XMLID_1294_" fill="#6C3990" d="M3754.094,1229.487c-0.689,0.109-7.252,0.627-8.769-0.842l26.104-2.27
		c-1.744,1.656-6.968,3.562-9.052,3.922C3759.499,1230.795,3757.86,1228.89,3754.094,1229.487z"/>
	<path id="XMLID_1289_" fill="#0B051B" d="M3740.063,1233.342c0.078,0.898,0.674,1.579,1.953,1.468
		c1.279-0.111,1.471-0.861,1.394-1.759c-0.078-0.898-0.397-1.603-1.676-1.492S3739.985,1232.445,3740.063,1233.342z"/>
	
		<ellipse id="XMLID_1288_" transform="matrix(-0.9962 0.0866 -0.0866 -0.9962 7575.5801 2158.6252)" fill="#0B051B" cx="3740.96" cy="1243.661" rx="1.787" ry="1.573"/>
</g>
<g id="Layer_1">
</g>
</svg>
