<?xml version="1.0" encoding="utf-8"?>
<!-- Generator: Adobe Illustrator 19.0.0, SVG Export Plug-In . SVG Version: 6.00 Build 0)  -->
<!DOCTYPE svg PUBLIC "-//W3C//DTD SVG 1.1//EN" "http://www.w3.org/Graphics/SVG/1.1/DTD/svg11.dtd">
<svg version="1.1" xmlns="http://www.w3.org/2000/svg" xmlns:xlink="http://www.w3.org/1999/xlink" x="0px" y="0px"
	 viewBox="0 0 9870.104 2778.383" enable-background="new 0 0 9870.104 2778.383" xml:space="preserve">
<g id="chute4">
	<path id="XMLID_1311_" fill="#661F82" d="M3921.735,1986.803c0,0-29.434-7.607-37.246-28.519
		c-7.812-20.912,1.785-69.101,4.061-84.285c2.276-15.184,40.899-294.877,38.545-301.266c0,0-5.243,3.018-11.176,3.493
		c-7.363,0.589-16.25,0.5-16.25,0.5c0.621,7.139-34.948,326.566-32.58,374.491c2.368,47.924,41.727,59.369,41.727,59.369
		L3921.735,1986.803z"/>
	<path id="XMLID_1310_" fill="#4E116B" d="M3921.735,1986.803c0,0-29.434-7.607-37.246-28.519
		c-7.812-20.912,1.785-69.101,4.061-84.285c2.276-15.184,37.866-308.041,38.545-301.266c0.074,0.743-2.099,1.168-5.676,1.743
		c-3.628,0.583-9.579,1.045-9.579,1.045c0.621,7.139-43.572,338.59-37.854,376.47c4.583,30.357,41.501,46.312,41.501,46.312
		L3921.735,1986.803z"/>
	<path id="XMLID_1304_" fill="#54157C" d="M3888.626,1950.719c2.273-6.9,4.708,12.778,1.293,14.873
		c-3.414,2.095-38.075,3.31-38.075,3.31l-1.293-14.873C3850.551,1954.029,3887.203,1955.039,3888.626,1950.719z"/>
	<path id="XMLID_1303_" fill="#54157C" d="M3865.595,1962.462c-4.584-1.161-7.129-4.193-8.604-8.338
		c3.924,0.024,9.133-0.003,14.206-0.207c2.121,1.351,4.007,2.617,5.204,3.56c4.556,3.587,9.613-0.611,13.163-1.144
		c0.739-0.111,1.359-0.508,1.889-1.052c0.135,1.444,0.191,2.984,0.14,4.43c-1.412,1.298-3.26,2.899-4.978,4.072
		C3883.22,1966.1,3870.882,1963.801,3865.595,1962.462z"/>
	<path id="XMLID_1302_" fill="#3F0E68" d="M3889.919,1965.592c-3.414,2.095-38.075,3.31-38.075,3.31l-1.293-14.873
		c0,0,2.606,0.071,6.44,0.094c1.475,4.145,4.02,7.177,8.604,8.338c5.286,1.339,17.625,3.638,21.02,1.319
		c1.718-1.173,3.566-2.773,4.978-4.072C3891.494,1962.499,3891.001,1964.929,3889.919,1965.592z"/>
	<path id="XMLID_1301_" fill="#6C3990" d="M3876.401,1957.477c-1.197-0.942-3.083-2.208-5.204-3.56
		c8.603-0.346,16.773-1.203,17.429-3.198c1.179-3.581,2.4-0.002,2.827,4.561c-0.53,0.545-1.151,0.941-1.889,1.052
		C3886.014,1956.866,3880.957,1961.063,3876.401,1957.477z"/>
	<path id="XMLID_1285_" fill="#0B051B" d="M3854.35,1964.723c0.065,0.748,0.561,1.315,1.626,1.222
		c1.065-0.093,1.226-0.717,1.161-1.465c-0.065-0.748-0.331-1.335-1.396-1.243S3854.285,1963.976,3854.35,1964.723z"/>
	
		<ellipse id="XMLID_1284_" transform="matrix(-0.9962 0.0866 -0.0866 -0.9962 7865.4849 3573.6719)" fill="#0B051B" cx="3855.214" cy="1957.474" rx="1.488" ry="1.31"/>
	<path id="XMLID_1283_" fill="#0B051B" d="M3861.895,1957.478c0.065,0.748,0.561,1.315,1.626,1.222
		c1.065-0.093,1.225-0.717,1.16-1.465c-0.065-0.748-0.331-1.335-1.396-1.243C3862.221,1956.086,3861.83,1956.73,3861.895,1957.478z"
		/>
	
		<ellipse id="XMLID_1282_" transform="matrix(-0.9962 0.0866 -0.0866 -0.9962 7879.7471 3586.2097)" fill="#0B051B" cx="3862.073" cy="1964.052" rx="1.488" ry="1.31"/>
	<path id="XMLID_1270_" fill="#4E116B" d="M3904.86,1979.729c0,0,0.027-2.285-0.953-3.211s-2.987,0.801-2.987,0.801
		s-1.448,2.991,0.276,3.178C3902.92,1980.684,3904.86,1979.729,3904.86,1979.729l-5.857-3.733c0,0,0.421-1.619-0.412-2.446
		c-0.833-0.827-2.479,0.224-2.479,0.224s-0.746,2.059,0.22,2.537c0.967,0.478,2.671-0.315,2.671-0.315"/>
	<path id="XMLID_1269_" fill="#4E116B" d="M3904.991,1980.953c0,0,3.283-2.028,4.712-1.112s0.546,3.69,0.371,4.267
		c-0.175,0.577-4.131-0.934-3.033-3.193"/>
	<path id="XMLID_1268_" fill="#4E116B" d="M3890.418,1970.703c0,0,1.234-1.99,2.662-1.074c1.428,0.916,0.546,3.69,0.371,4.267
		C3893.276,1974.473,3889.32,1972.961,3890.418,1970.703"/>
	<path id="XMLID_1267_" fill="#3F0E68" d="M3899.003,1975.996c0,0-1.457,3.244-5.201,6.267s-10.913,5.894-10.913,5.894
		s8.323-0.685,14.133-5.781S3899.003,1975.996,3899.003,1975.996"/>
	<path id="XMLID_1266_" fill="#3F0E68" d="M3904.882,1979.281c0,0-1.457,3.244-5.201,6.267s-10.912,5.894-10.912,5.894
		s7.992-0.631,13.802-5.726C3908.381,1980.62,3904.882,1979.281,3904.882,1979.281"/>
	<path id="XMLID_1265_" fill="#3F0E68" d="M3910.134,1982.511c0,0-1.546,3.526-5.53,6.808s-11.617,6.391-11.617,6.391
		s9.27-0.982,15.451-6.513C3914.62,1983.664,3910.134,1982.511,3910.134,1982.511"/>
	<path id="XMLID_1264_" fill="#3F0E68" d="M3893.891,1972.009c0,0-1.16,2.944-4.185,5.667c-3.025,2.723-8.842,5.278-8.842,5.278
		s7.062-0.432,11.753-5.026C3897.308,1973.333,3893.891,1972.009,3893.891,1972.009"/>
	<polygon id="XMLID_1262_" fill="#7E4297" points="3906.17,1576.726 3870.92,1916.976 3871.176,1908.803 3902.17,1574.976 	"/>
	<path id="XMLID_1308_" fill="#54157C" d="M3927.38,1555.325c0,0,12.417,19.57,6.026,21.055c-6.39,1.485-88.05,7.655-88.05,7.655
		l-1.655-19.038L3927.38,1555.325z"/>
	<path id="XMLID_1299_" fill="#3F0E68" d="M3849.937,1569.632c4.706,4.005,0.699,6.09,18.893,8.61
		c18.194,2.52,39.86-3.466,39.86-3.466l12.711,3.009c-24.345,2.344-76.044,6.251-76.044,6.251l-1.409-16.208
		C3845.661,1567.566,3847.806,1567.818,3849.937,1569.632z"/>
	<path id="XMLID_1298_" fill="#6C3990" d="M3904.964,1557.916l22.416-2.591c0,0,2.734,4.31,4.977,9.038
		c-3.12-0.745-6.562-1.365-10.188-2.258C3917.126,1560.864,3910.849,1558.881,3904.964,1557.916z"/>
	<path id="XMLID_1297_" fill="#3F0E68" d="M3861.22,1562.973l29.253-3.382c-0.056,0.041-0.121,0.07-0.176,0.113
		C3886.193,1562.89,3872.167,1563.235,3861.22,1562.973z"/>
	<path id="XMLID_1287_" fill="#0B051B" d="M3847.28,1569.159c0.078,0.898,0.674,1.579,1.953,1.468
		c1.279-0.111,1.472-0.861,1.394-1.759s-0.397-1.603-1.676-1.492C3847.671,1567.487,3847.201,1568.261,3847.28,1569.159z"/>
	
		<ellipse id="XMLID_1286_" transform="matrix(-0.9962 0.0866 -0.0866 -0.9962 7818.6973 2819.7097)" fill="#0B051B" cx="3848.177" cy="1579.477" rx="1.787" ry="1.573"/>
</g>
<g id="Layer_1">
</g>
</svg>
