<?xml version="1.0" encoding="utf-8"?>
<!-- Generator: Adobe Illustrator 19.0.0, SVG Export Plug-In . SVG Version: 6.00 Build 0)  -->
<!DOCTYPE svg PUBLIC "-//W3C//DTD SVG 1.1//EN" "http://www.w3.org/Graphics/SVG/1.1/DTD/svg11.dtd">
<svg version="1.1" xmlns="http://www.w3.org/2000/svg" xmlns:xlink="http://www.w3.org/1999/xlink" x="0px" y="0px"
	 viewBox="0 0 9870.104 2778.383" enable-background="new 0 0 9870.104 2778.383" xml:space="preserve">
<g id="chute3">
	<path id="XMLID_826_" fill="#661F82" d="M3768.587,1234.501c-2.704-7.934,63.559-98.887,64.93-103.801
		c1.371-4.915-26.461-7.89-28.375-2.328c-1.914,5.561-55.755,96.666-56.365,103.206c-0.107,1.149,4.641-1.296,9.893-0.601
		C3763.119,1231.565,3768.92,1235.476,3768.587,1234.501z"/>
	<path id="XMLID_825_" fill="#4E116B" d="M3768.587,1234.501c-0.129-8.381,63.559-98.887,64.93-103.801
		c1.371-4.915-12.683-7.535-14.597-1.973c-1.914,5.561-57.25,102.5-59.731,108.122L3768.587,1234.501z"/>
	<polygon id="XMLID_1309_" fill="#7E4297" points="3811.67,1126.476 3758.581,1229.859 3754.094,1229.487 3806.92,1126.476 	"/>
	<path id="XMLID_1307_" fill="#54157C" d="M3775.591,1119.418l1.563,17.98l59.26-0.956c0,0,5.354-14.252,4.346-18.96
		C3839.751,1112.774,3775.591,1119.418,3775.591,1119.418z"/>
	<path id="XMLID_1305_" fill="#3F0E68" d="M3777.154,1137.398l-1.563-17.98c0,0,7.172-0.742,16.744-1.553
		c6.129,4.122,14.457,9.371,22.088,12.974c7.616,3.596,16.015,4.709,22.223,4.972c-0.146,0.403-0.232,0.63-0.232,0.63
		L3777.154,1137.398z"/>
	<path id="XMLID_1300_" fill="#6C3990" d="M3801.327,1117.144c19.085-1.619,38.76-2.798,39.432,0.337
		c0.882,4.116,0.234,4.639-0.782,7.444c-6.208-0.263,1.178-3.295-6.438-6.891"/>
	<path id="XMLID_1293_" fill="#0B051B" d="M3781.409,1123.435c0.078,0.898,0.674,1.579,1.953,1.468
		c1.279-0.111,1.471-0.861,1.394-1.759c-0.078-0.898-0.397-1.603-1.676-1.492
		C3781.801,1121.763,3781.332,1122.537,3781.409,1123.435z"/>
	
		<ellipse id="XMLID_1292_" transform="matrix(-0.9962 0.0866 -0.0866 -0.9962 7648.5986 1935.6416)" fill="#0B051B" cx="3782.307" cy="1133.753" rx="1.787" ry="1.573"/>
	<path id="XMLID_1291_" fill="#0B051B" d="M3787.879,1122.872c0.078,0.898,0.674,1.579,1.953,1.468s1.472-0.861,1.394-1.759
		s-0.397-1.603-1.676-1.492C3788.271,1121.201,3787.801,1121.975,3787.879,1122.872z"/>
	
		<ellipse id="XMLID_1290_" transform="matrix(-0.9962 0.0866 -0.0866 -0.9962 7661.4653 1933.9584)" fill="#0B051B" cx="3788.776" cy="1133.191" rx="1.787" ry="1.573"/>
</g>
<g id="Layer_1">
</g>
</svg>
