<?xml version="1.0" encoding="utf-8"?>
<!-- Generator: Adobe Illustrator 19.0.0, SVG Export Plug-In . SVG Version: 6.00 Build 0)  -->
<!DOCTYPE svg PUBLIC "-//W3C//DTD SVG 1.1//EN" "http://www.w3.org/Graphics/SVG/1.1/DTD/svg11.dtd">
<svg version="1.1" xmlns="http://www.w3.org/2000/svg" xmlns:xlink="http://www.w3.org/1999/xlink" x="0px" y="0px"
	 viewBox="0 0 9870.104 2778.383" enable-background="new 0 0 9870.104 2778.383" xml:space="preserve">
<g id="chute1">
	<path id="XMLID_829_" fill="#661F82" d="M3833.517,1130.699c1.371-4.915,39.039-454.163,39.039-454.163
		s29.359-13.942,34.791-20.408c5.432-6.467,15.339-23.512,15.339-23.512s-35.567,11.484-67.848,12.492
		c-32.281,1.008-71.547,4.422-71.547,4.422s7.527,10.735,17.563,15.856s44.878,12.882,44.878,12.882s-38.677,444.541-40.591,450.102
		c-1.116,3.243,7.501-2.46,15.778-2.395C3826.835,1126.023,3832.946,1132.748,3833.517,1130.699z"/>
	<path id="XMLID_828_" fill="#4E116B" d="M3833.517,1130.699c1.371-4.915,39.039-454.163,39.039-454.163
		s29.359-13.942,34.791-20.408c5.432-6.467,15.339-23.512,15.339-23.512s-5.093,9.57-36.166,18.378
		c-13.184,3.737-30.298,3.135-30.298,3.135s-12.791-3.587-5.89,5.32c1.079,1.392,4.811,16.735,4.811,16.735
		s-31.42,443.346-33.334,448.907c0,0,4.283,0.602,7.112,2.635C3831.616,1129.664,3832.848,1133.098,3833.517,1130.699z"/>
	<polygon id="XMLID_824_" fill="#7E4297" points="3848.466,696.59 3814.51,1118.919 3810.462,1118.896 	"/>
	<polygon id="XMLID_821_" fill="#7E4297" points="3848.466,696.59 3850.17,697.726 3814.51,1118.919 3810.462,1118.896 	"/>
	<path id="XMLID_1281_" fill="#360D51" d="M3865.927,665.424l-7.676,17.222c0,0,32.159-12.756,44.821-22.249
		c8.651-6.486,19.614-27.78,19.614-27.78S3902.851,660.565,3865.927,665.424z"/>
	<path id="XMLID_1280_" fill="#54157C" d="M3708.628,688.99c-3.972-0.688-2.503,15.042,1.396,16.063
		c80.219,20.997,168.118-19.412,168.118-19.412l2.768-13.234C3880.911,672.407,3784.569,702.145,3708.628,688.99z"/>
	<path id="XMLID_1279_" fill="#54157C" d="M3755.051,711.052l48.549-3.722C3788.484,709.834,3771.999,711.401,3755.051,711.052z"/>
	<path id="XMLID_1278_" fill="#3F0E68" d="M3710.025,705.053c-3.003-0.786-4.552-10.271-3.298-14.288
		c4.706,2.172,10.953,5.883,13.616,6.931c26.998,10.619,59.048,1.775,74.763,3.533c10.261,1.147,47.989-6.197,72.94-11.433
		c-12.648,4.863-36.14,12.842-64.446,17.532c0,0-28.206,4.779-48.549,3.722C3734.533,709.986,3724.973,708.966,3710.025,705.053z"/>
	<path id="XMLID_1277_" fill="#0B051B" d="M3756.048,697.279c0.078,0.898,0.674,1.579,1.953,1.468
		c1.279-0.111,1.472-0.861,1.394-1.759c-0.078-0.898-0.397-1.603-1.676-1.492C3756.439,695.607,3755.97,696.381,3756.048,697.279z"
		/>
	
		<ellipse id="XMLID_1276_" transform="matrix(-0.9962 0.0866 -0.0866 -0.9962 7561.0591 1087.1283)" fill="#0B051B" cx="3756.945" cy="707.597" rx="1.787" ry="1.573"/>
	
		<ellipse id="XMLID_1275_" transform="matrix(-0.9962 0.0866 -0.0866 -0.9962 7472.8408 1075.9611)" fill="#0B051B" cx="3713.078" cy="700.1" rx="1.624" ry="1.765"/>
	
		<ellipse id="XMLID_1274_" transform="matrix(-0.9962 0.0866 -0.0866 -0.9962 7494.3804 1066.5138)" fill="#0B051B" cx="3724.053" cy="695.844" rx="1.622" ry="1.525"/>
	<path id="XMLID_1273_" fill="#0B051B" d="M3838.071,686.67c0.078,0.898,0.674,1.579,1.953,1.468
		c1.279-0.111,1.472-0.861,1.394-1.759s-0.397-1.603-1.676-1.492C3838.462,684.999,3837.993,685.773,3838.071,686.67z"/>
	
		<ellipse id="XMLID_1272_" transform="matrix(-0.9962 0.0866 -0.0866 -0.9962 7724.6777 1051.418)" fill="#0B051B" cx="3839.529" cy="693.292" rx="1.787" ry="1.573"/>
	<path id="XMLID_1271_" fill="#7E4297" d="M3783.291,649.531c0,0,12.558-0.343,27.768-1.215c15.209-0.873,55.998-4.038,55.998-4.038
		S3789.06,646.931,3783.291,649.531z"/>
	<path id="XMLID_1263_" fill="#7E4297" d="M3838.513,652.972c0,0,9.438,7.721,11.358,14.298c1.92,6.577,0.954,10.968,0.954,10.968
		s-0.776-8.924-7.829-12.488c-7.053-3.564-32.098-7.231-37.724-9.888c-5.626-2.658-9.038-4.627-9.038-4.627
		S3820.804,651.814,3838.513,652.972z"/>
</g>
<g id="Layer_1">
</g>
</svg>
