<?xml version="1.0" encoding="utf-8"?>
<!-- Generator: Adobe Illustrator 19.0.0, SVG Export Plug-In . SVG Version: 6.00 Build 0)  -->
<!DOCTYPE svg PUBLIC "-//W3C//DTD SVG 1.1//EN" "http://www.w3.org/Graphics/SVG/1.1/DTD/svg11.dtd">
<svg version="1.1" xmlns="http://www.w3.org/2000/svg" xmlns:xlink="http://www.w3.org/1999/xlink" x="0px" y="0px"
	 viewBox="0 0 9870.104 2778.383" enable-background="new 0 0 9870.104 2778.383" xml:space="preserve">
<g id="flagpole">
	<polygon id="XMLID_1634_" fill="#5E555F" points="3474.091,1730.743 3363.345,1640.736 3360.382,1642.341 3477.035,1743.373 	"/>
	<polygon id="XMLID_1633_" fill="#302C36" points="3474.091,1730.743 3363.345,1640.736 3362.289,1641.308 3476.419,1736.297 	"/>
	<path id="XMLID_1632_" fill="#302C36" d="M3361.948,1630.87c-2.936-2.923-7.686-2.912-10.609,0.024
		c-2.923,2.936-2.912,7.686,0.024,10.609c6.001,5.974,12.234,3.412,13.165,2.52
		C3365.932,1642.678,3368.048,1636.943,3361.948,1630.87z"/>
	<path id="XMLID_1171_" fill="#5E555F" d="M3352.893,1630.297c0,0,3.508-0.906,5.196-0.452s3.938,2.207,4.475,3.209
		c0.537,1.002,2.541,3.376,0.97,4.261c-1.571,0.886-5.652,0.491-8.051-1.248C3353.083,1634.328,3350.244,1632.474,3352.893,1630.297
		z"/>
</g>
<g id="Layer_1">
</g>
</svg>
