<?xml version="1.0" encoding="utf-8"?>
<!-- Generator: Adobe Illustrator 19.0.0, SVG Export Plug-In . SVG Version: 6.00 Build 0)  -->
<!DOCTYPE svg PUBLIC "-//W3C//DTD SVG 1.1//EN" "http://www.w3.org/Graphics/SVG/1.1/DTD/svg11.dtd">
<svg version="1.1" xmlns="http://www.w3.org/2000/svg" xmlns:xlink="http://www.w3.org/1999/xlink" x="0px" y="0px"
	 viewBox="0 0 9870.104 2778.383" enable-background="new 0 0 9870.104 2778.383" xml:space="preserve">
<g id="flag">
	<path id="XMLID_1618_" fill="#F39D29" d="M3364.201,1644.997c0,0-4.24,7.016,3.392,11.747c7.632,4.731,12.424,5.551,14.436,8.017
		s7.742,3.034,7.742,3.034s-6.515,2.648-12.272,7.869c-5.757,5.221,6.837,14.764-23.191,20.148s-61.921-4.656-60.157,17.683
		c0.981,12.426-4.749-12.714,1.954-15.769c6.703-3.055,38.75-9.138,44.325-16.142c5.575-7.003,4.858-13.685,10.684-22.508
		C3356.941,1650.252,3364.201,1644.997,3364.201,1644.997z"/>
	<path id="XMLID_1617_" fill="#E48219" d="M3364.439,1658.738c0,0,2.837-0.468,10.469,4.263s5.605,2.416,7.618,4.882
		s7.246-0.089,7.246-0.089s-6.515,2.648-12.272,7.869c-5.757,5.221,6.837,14.764-23.191,20.148s-61.921-4.656-60.157,17.683
		c0.981,12.426-3.276-11.29,3.426-14.345c6.703-3.055,55.026-6.111,60.601-13.115c5.575-7.003,8.601-2.771,14.427-11.594
		S3364.439,1658.738,3364.439,1658.738z"/>
	<path id="XMLID_1616_" fill="#F4AB53" d="M3317.465,1691.489c0,0,10.062-2.939,13.696-2.505c3.634,0.433,14.866-1.373,16.997-2.717
		c2.131-1.344-0.306,1.647-5.878,3.064c-5.571,1.418-10.305,2.129-13.926,1.844
		C3324.733,1690.891,3317.465,1691.489,3317.465,1691.489z"/>
	<path id="XMLID_1615_" fill="#F4AB53" d="M3347.801,1665.261c0,0-3.422,8.567,2.595,8.828c6.017,0.261,18.775,0.808,18.775,0.808
		s-19.274,6.763-20.716,5.689c-1.442-1.073-3.903-6.302-3.186-8.391C3345.987,1670.108,3347.801,1665.261,3347.801,1665.261z"/>
	<path id="XMLID_1614_" fill="#E48219" d="M3346.457,1668.758c0,0-2.294,11.195,2.737,10.458c5.031-0.737,19.978-4.319,19.978-4.319
		c1.035,1.251,1.286,0.038-3.83,1.524s-17.516,8.74-20.435,6.872c-2.919-1.868-2.219-5.088-2.219-5.088L3346.457,1668.758z"/>
	<path id="XMLID_1613_" fill="#F4AB53" d="M3364.201,1644.997c-1.003,0.78-6.201,4.297-10.25,10.168
		c-4.049,5.872,0.636,3.758,0.636,3.758l4.096-2.154c0,0-4.531-0.355,0.101-5.404
		C3363.417,1646.317,3364.201,1644.997,3364.201,1644.997z"/>
	<path id="XMLID_1612_" fill="#F4AB53" d="M3338.24,1692.471c0,0,12.068-1.533,16.004-3.984c3.935-2.451,5.622-7.369,9.453-8.026
		c3.831-0.657,9.677-6.569,10.042-12.354c0.365-5.785,5.024,1.304,0.963,6.302c-4.061,4.999-3.772,6.604-9.83,7.589
		c-6.058,0.985-3.271,2.241-7.775,5.78c-4.503,3.539-4.576,2.196-9.238,3.651C3344.181,1692.575,3338.24,1692.471,3338.24,1692.471z
		"/>
</g>
<g id="Layer_1">
</g>
</svg>
