<?xml version="1.0" encoding="utf-8"?>
<!-- Generator: Adobe Illustrator 19.0.0, SVG Export Plug-In . SVG Version: 6.00 Build 0)  -->
<!DOCTYPE svg PUBLIC "-//W3C//DTD SVG 1.1//EN" "http://www.w3.org/Graphics/SVG/1.1/DTD/svg11.dtd">
<svg version="1.1" xmlns="http://www.w3.org/2000/svg" xmlns:xlink="http://www.w3.org/1999/xlink" x="0px" y="0px"
	 viewBox="0 0 9870.104 2778.383" enable-background="new 0 0 9870.104 2778.383" xml:space="preserve">
<g id="middle_x5F_floor">
	<path id="XMLID_1146_" fill="#C96FB1" d="M3283.642,962.055l68.188,295.642l23.052,3.156l334.351-29.069l31.992-87.066
		l54.139-4.707c0,0-1.783-123.926-3.542-157.941c-1.758-34.014-7.241-83.29-7.241-83.29L3283.642,962.055z"/>
	<path id="XMLID_1140_" fill="#BC64A7" d="M3784.581,898.78c0,0,8.482,71.123,9.107,89.737s8.004,150.944,3.244,151.358
		c-4.759,0.414-55.707,4.843-55.707,4.843l-31.992,87.066l-146.647,12.75l-33.319,2.897l-18.362,1.596
		c0,0,12.438-63.786,25.164-82.875s17.42-27.158,32.261-28.814c14.842-1.656,85.975-10.838,114.272-16.295
		c28.298-5.457,23.825-59.953,54.722-47.785c30.897,12.168,44.344,8.265,37.349-3.247c-6.995-11.512-35.572-49.788-17.933-78.296
		c17.639-28.508,13.86-50.447-5.021-57.752s-33.716-26.902-33.716-26.902L3784.581,898.78z"/>
	<path id="XMLID_1051_" opacity="0.57" fill="#A34B90" d="M3525.399,1247.766l183.833-15.983l31.992-87.066l-189.636,20.683
		C3551.589,1165.401,3528.664,1234.44,3525.399,1247.766z"/>
	<polygon id="XMLID_1150_" opacity="0.87" fill="#822775" points="3294.563,1033.373 3323.44,1158.689 3329.347,1159.397 
		3301.799,1032.744 	"/>
	<polygon id="XMLID_1149_" fill="#AD1C55" points="3335.322,1155.731 3313.977,1163.206 3315.768,1170.507 3339.363,1183.253 	"/>
	<path id="XMLID_1148_" fill="#891241" d="M3337.443,1161.166l1.92,22.087l-19.865-7.864c0,0-7.021-6.372-1.831-5.842
		s10.661,1.403,13.833-0.896S3337.443,1161.166,3337.443,1161.166z"/>
	<path id="XMLID_1147_" fill="#EE86AF" d="M3323.44,1158.689l-8.92,0.815c0,0-1.619,5.818,0.716,4.941s-0.206-2.047,3.533-2.801
		c3.739-0.754,10.577-2.247,10.577-2.247L3323.44,1158.689z"/>
	<polygon id="XMLID_1145_" fill="#AD1C55" points="3306.465,1032.338 3265.415,1035.907 3262.364,1000.807 3295.266,993.151 	"/>
	<path id="XMLID_1144_" fill="#891241" d="M3286.053,1010.136c0,0,1.617,5.254-6.768,12.577c-8.386,7.323-13.87,13.194-13.87,13.194
		l41.05-3.569l-11.2-39.188C3295.266,993.151,3290.325,999.984,3286.053,1010.136z"/>
	<path id="XMLID_1143_" fill="#EE86AF" d="M3273.331,998.255c0,0,3.117,2.526-0.142,6.406c-3.259,3.88-2.468,0.914-5.236,3.552
		c-2.768,2.638-4.089,9.846-4.089,9.846l-1.5-17.253L3273.331,998.255z"/>
	<path id="XMLID_1142_" fill="#B55B9F" d="M3514.212,932.931l-230.57,29.124l46.396,201.16c0,0-1.421-44.964-5.902-63.756
		c-4.481-18.792,8.209-52.086,11.908-44.016c3.699,8.07-13.917,42.392-2.202,41.373c6.544-0.569,58.819-4.343,37.908-51.25
		c-25.61-57.447,0.589-67.985,61.732-69.227c20.125-0.409,15.113-26.769,53.544-22.728
		C3500.091,954.985,3514.212,932.931,3514.212,932.931z"/>
	<path id="XMLID_1141_" opacity="0.87" fill="#9B3A88" d="M3443.347,942.029c-0.8,0.874-161.251,16.551-161.251,16.551
		l29.325,123.922c0,0-2.366-69.248,4.541-77.042c6.907-7.794,19.338,9.939,29.442,6.432c11.125-3.862,9.569-35.177,24.727-40.094
		c15.157-4.917,14.382,0.582,26.891-0.957C3413.675,968.791,3443.347,942.029,3443.347,942.029z"/>
	<path id="XMLID_1139_" fill="#B55B9F" d="M3579.463,1113.094c0,0,13.358,5.467,18.815,6.191c5.458,0.724,5.251-1.655,5.458,0.724
		c0.207,2.38,3.411,11.65-4.011,15.913c-7.422,4.263-21.221,12.296-40.718,11.473c-19.497-0.822-38.823-2.478-43.542-1.598
		s-8.853-7.153-7.07-13.303C3510.177,1126.345,3500.793,1121.698,3579.463,1113.094z"/>
	<path id="XMLID_1138_" fill="#B55B9F" d="M3395.37,1149.012c-3.885,6.332-0.047,10.494,1.332,15.319
		c1.379,4.825,12.863,12.818,25.344,8.137s49.435-11.828,49.435-11.828s4.288-10.571-1.279-14.71s-8.826-7.095-20.599-5.229
		C3437.83,1142.565,3395.37,1149.012,3395.37,1149.012z"/>
	<path id="XMLID_1137_" fill="#B55B9F" d="M3639.387,1113.41c0,0-9.025,17.52,1.371,15.766s-0.533,8.999,17.148,5.533
		c17.681-3.466,36.939-4.091,47.538-5.537s14.591-11.18,11.944-13.551c-2.647-2.371-5.955-13.338-18.989-11.571
		C3685.365,1105.816,3639.387,1113.41,3639.387,1113.41z"/>
	<g id="XMLID_1135_" opacity="0.66">
		<path id="XMLID_1136_" fill="#9B3A88" d="M3767.949,1128.055c-0.162-14.599,3.679-44.366,2.118-72.163
			c-1.556-27.693-11.714-152.03-11.777-153.494l-7.159,0.308c0.063,1.464,6.302,146.68,7.861,174.42
			c1.552,27.634,4.62,59.165,4.988,59.246C3766.229,1136.871,3767.949,1128.055,3767.949,1128.055z"/>
	</g>
	<g id="XMLID_1133_" opacity="0.66">
		<path id="XMLID_1134_" fill="#9B3A88" d="M3734.67,1163.726c0.278-0.257-2.168-54.024-3.73-81.821
			c-1.556-27.692-8.082-173.966-8.145-175.429l-3.75,0.375l2.625-57.625c0.022,0.509-5.966,27.523-6,58
			c-0.063,57.116,4.417,139.632,5.432,157.719c1.553,27.634,7.492,109.079,7.568,109.448
			C3729.339,1177.654,3733.589,1164.727,3734.67,1163.726z"/>
	</g>
	<g id="XMLID_1131_">
		<path id="XMLID_1132_" opacity="0.66" fill="#9B3A88" d="M3695.028,1134.395c-0.021-0.378,0.031-9.271-2.707-36.977
			c-2.73-27.602-17.151-202.359-17.276-203.818l-7.125-38.875l-4.583,0.333l8.708,58.167c0.125,1.46,11.921,147.223,14.655,174.87
			c2.723,27.54,9.854,139.291,13.97,142.963C3702.042,1232.283,3695.028,1134.395,3695.028,1134.395z"/>
	</g>
	<g id="XMLID_1129_">
		<path id="XMLID_1130_" opacity="0.66" fill="#9B3A88" d="M3662.503,1235.809c1.226-2.333-6.36-115.046-8.723-142.787
			c-2.355-27.635-13.331-167.507-14.451-168.451c-5.137-4.332-2.746,9.765-2.746,9.765c0.105,1.461,7.697,131.612,10.056,159.295
			c2.349,27.579,12.681,129.719,12.696,130.095c0,0,1.479,30.605,2.25,32.917c0.083,0.25,2.417,0.083,2.417,0.083
			C3663.753,1256.226,3662.224,1236.341,3662.503,1235.809z"/>
	</g>
	<g id="XMLID_1125_" opacity="0.66">
		<path id="XMLID_1126_" fill="#9B3A88" d="M3576.003,1243.726c-0.013-0.378-5.898-114.693-8.121-142.445
			c-2.213-27.648-11.959-167.433-13.371-167.825c-2.054-0.571-4.88,6.996-4.88,6.996c0.097,1.461,5.896,122.496,8.113,150.191
			c2.209,27.587,12.911,153.373,12.925,153.75L3576.003,1243.726z"/>
	</g>
	<g id="XMLID_1123_">
		<path id="XMLID_1124_" opacity="0.66" fill="#9B3A88" d="M3541.16,1246.51c-0.062-1.112-6.131-111.497-8.349-139.212
			c-2.214-27.647-12.917-167.103-13.819-168.256c-4.78-6.111-3.323,10.642-3.323,10.642c2.009,16.046,7.782,130.492,9.999,158.187
			c2.211,27.626,8.277,137.922,8.338,139.033L3541.16,1246.51z"/>
	</g>
	<g id="XMLID_1121_" opacity="0.66">
		<path id="XMLID_1122_" fill="#9B3A88" d="M3502.771,1245.882c4.404-0.982-3.655-36.957-3.655-36.957
			c-1.154-4.105,0.119-67.65-3.275-95.261c-3.385-27.528-20.253-165.305-20.412-166.761c0,0-5.479-12.864-4.646,11.483
			c0.05,1.464,11.636,144.397,15.027,171.972C3489.189,1157.851,3496.06,1247.378,3502.771,1245.882z"/>
	</g>
	<g id="XMLID_1119_">
		<path id="XMLID_1120_" opacity="0.66" fill="#9B3A88" d="M3461.175,1236.23c-0.063-1.021-2.963-96.884-5.922-123.841
			c-2.948-26.856-16.488-167.746-16.624-169.166l-7.134,0.682c0.136,1.421,17.28,146.619,20.232,173.521
			c2.942,26.8,0.522,109.605,6.515,129.206L3461.175,1236.23z"/>
	</g>
	<g id="XMLID_1117_">
		<path id="XMLID_1118_" opacity="0.66" fill="#9B3A88" d="M3422.466,1256.725c-0.091-1.08-9.117-108.304-12.52-135.924
			c-3.391-27.528-19.252-171.963-19.412-173.419l-7.123,0.783c0.16,1.456,16.027,145.938,19.424,173.513
			c3.386,27.483,15.477,135.397,12.49,135.647L3422.466,1256.725z"/>
	</g>
	<g id="XMLID_1115_" opacity="0.66">
		<path id="XMLID_1116_" fill="#9B3A88" d="M3367.177,1243.733c0,0,3.675,11.34,6.508,10.251
			c0.864-0.332-6.945-83.736-9.671-111.238c-2.746-27.706-28.399-179.401-28.626-180.953l-6.045,8.891
			c0.227,1.55,22.485,155.833,25.214,183.375C3357.308,1181.803,3360.378,1220.815,3367.177,1243.733z"/>
	</g>
	<path id="XMLID_1114_" fill="#842577" d="M3765.003,1138.726c0,0,0.732-32.155,0.09-49.708
		c-0.727-17.545-1.695-40.938-2.664-64.331c-0.244-5.846-0.473-11.693-0.61-17.442c-0.14-5.767-0.46-11.46-0.831-16.94
		c-0.775-10.965-1.899-21.157-2.846-29.89c-0.959-8.733-1.952-15.987-2.612-21.067c-0.715-5.074-1.124-7.973-1.124-7.973
		s0.283,2.914,0.777,8.013c0.472,5.1,1.146,12.386,1.955,21.128c0.801,8.742,1.585,18.953,2.299,29.892
		c0.332,5.474,0.611,11.11,0.71,16.867c0.1,5.774,0.282,11.628,0.494,17.482c0.499,11.703,1.089,23.398,1.659,34.362
		c0.569,10.963,1.257,21.187,1.79,29.953c0.541,8.765-0.104,30.211,0.246,35.322
		C3764.727,1129.501,3765.003,1138.726,3765.003,1138.726z"/>
	<path id="XMLID_1113_" fill="#842577" d="M3718.295,907.101c0,0,2.007,1.974,1.939,8.167c-0.001,3.096-0.002,6.855-0.004,11.166
		c-0.015,4.312,0.056,9.175,0.115,14.479c0.055,5.305,0.111,11.052,0.287,17.128c0.11,6.077,0.412,12.48,0.635,19.107
		c0.246,6.626,0.501,13.472,0.76,20.43c0.172,6.96,0.273,14.032,0.353,21.107c0.078,7.076,0.199,14.15,0.517,21.122
		c0.195,3.506,0.311,6.9,0.938,10.452c0.634,3.247,0.733,6.566,0.946,9.885c0.333,6.621,0.655,13.021,0.96,19.089
		c0.326,6.078,0.749,11.825,1.541,17.13c0.183,1.327,0.449,2.625,0.782,3.903c0.19,0.617,0.377,1.226,0.562,1.828
		c0.19,0.59,0.395,1.177,0.491,1.732c0.513,2.239,0.785,4.546,0.952,6.664c0.352,4.268,0.362,8.024,0.386,11.112
		c0.009,6.181,0.546,13.457,0.546,13.457c-4.926,16.409,0.284,32.331,0.333,32.333c0.048,0.003-0.901-36.015-0.896-36.062
		c0,0,1.233-2.078,1.562-8.272c0.155-3.098-0.595-8.306-0.775-12.643c-0.105-2.179-0.24-4.458-0.767-6.944
		c-0.105-0.639-0.293-1.214-0.469-1.808c-0.166-0.586-0.334-1.18-0.504-1.781c-0.277-1.179-0.51-2.441-0.658-3.744
		c-0.649-5.209-0.928-10.947-1.264-17.003c-0.324-6.062-0.508-12.468-0.933-19.101c-0.119-1.66-0.223-3.332-0.389-5.024
		c-0.142-1.684-0.366-3.471-0.733-5.162c-0.605-3.163-0.782-6.696-1.039-10.131c-0.447-6.932-0.765-13.999-1.112-21.062
		c-0.334-7.065-0.573-14.134-0.78-21.094c-0.165-6.966-0.438-13.81-0.349-20.444c-0.021-6.633,0.044-13.047-0.07-19.124
		c-0.048-6.079-0.204-11.823-0.344-17.126c-0.136-5.303-0.244-10.164-0.418-14.47c-0.16-4.307-0.3-8.061-0.416-11.154
		c-0.296-6.182-1.94-8.394-1.94-8.394c-0.002-0.049,2.3-45.252,2.25-45.25C3721.247,861.603,3719.295,892.476,3718.295,907.101z"/>
	<g id="XMLID_1106_">
		<path id="XMLID_1107_" fill="#842577" d="M3701.003,1237.476c0.5,18.417,1.574,20.651,1.5,17.167
			c-0.01-0.45-0.32-13.837-0.333-14.333c-0.022-0.803-0.384-12.749-0.417-13.667c-1-28.433-7.366-108.601-7.395-109.006
			c-0.136-1.904-3.381-46.785-7.471-61.203c-2.666-9.395-3.605-41.99-4.226-63.559c-0.349-12.122-0.601-20.881-1.022-22.73
			c-1.147-5.033-8.01-56.397-8.094-56.918c-0.077-0.488-8.614-57.844-9.125-57.75c-0.488,0.078,7.422,56.762,7.5,57.25
			c0.339,2.136,6.812,52.724,7.972,57.816c0.382,1.679,0.658,11.273,0.979,22.383c0.66,22.953,1.565,54.388,4.292,64
			c4.042,14.242,7.375,60.376,7.408,60.84c0.035,0.494,4.939,74.664,5.432,74.629
			C3698.008,1192.392,3700.999,1237.477,3701.003,1237.476z"/>
	</g>
	<g id="XMLID_1102_">
		<path id="XMLID_1103_" fill="#842577" d="M3573.67,1243.393c0.037-0.003,0.296-8.658,0.333-8.667
			c0.483-0.104-4.257-73.89-4.36-74.374c-0.04-0.19-4.05-19.083-4.659-26.086c-0.148-1.705-0.298-6.907-0.504-14.109
			c-0.65-22.671-1.859-64.873-5.441-81.774c-4.631-21.855-3.858-98.686-3.849-99.459c0.005-0.496-0.391-0.9-0.886-0.906
			c-0.506,0.011-0.9,0.393-0.906,0.887c-0.008,0.775-0.783,77.805,3.889,99.849c3.548,16.744,4.755,58.84,5.403,81.456
			c0.207,7.231,0.357,12.457,0.509,14.212c0.619,7.113,4.526,25.523,4.692,26.305
			C3567.986,1161.172,3573.225,1243.431,3573.67,1243.393z"/>
	</g>
	<path id="XMLID_1101_" fill="#842577" d="M3501.98,1240.393l-3.452-34.856l-1.766-17.421c-0.558-5.806-1.069-11.619-1.534-17.435
		l-2.599-34.922l-0.714-8.728l-0.48-8.721l-0.941-17.496c-0.349-5.833-0.767-11.665-1.368-17.491
		c-0.637-5.787-1.26-11.732-3.029-17.362c-0.406-1.419-0.62-2.825-0.84-4.232c-0.247-1.395-0.449-2.825-0.621-4.277
		c-0.391-2.881-0.713-5.776-1.019-8.675c-0.621-5.795-1.148-11.606-1.653-17.418c-1.031-11.623-1.968-23.259-2.836-34.9
		l-2.554-34.929l-0.002-0.029l-0.008-0.022l-5.369-15.34l5.005,15.463l-0.01-0.05l0.857,17.494
		c0.288,5.832,0.657,11.658,1.009,17.486c0.722,11.655,1.477,23.308,2.392,34.954c0.479,5.821,0.982,11.641,1.579,17.457
		c0.293,2.908,0.604,5.816,0.986,8.721c0.165,1.448,0.364,2.908,0.62,4.389c0.228,1.479,0.457,2.958,0.849,4.352
		c1.715,5.54,2.285,11.296,2.9,17.093c0.556,5.792,0.971,11.607,1.362,17.425l1.016,17.474l0.521,8.763l0.752,8.722
		c0.903,11.632,1.761,23.286,2.881,34.912c1.074,11.631,2.377,23.246,3.794,34.831L3501.98,1240.393z"/>
	<path id="XMLID_1100_" fill="#842577" d="M3366.264,1216.88c0,0-0.064-3.051-0.29-8.385c-0.25-5.333-0.573-12.956-1.239-22.088
		c-0.329-4.566-0.724-9.51-1.184-14.737c-0.478-5.225-1.006-10.736-1.723-16.419c-0.727-5.682-1.501-11.553-2.566-17.485
		c-0.476-2.974-1.123-5.947-1.747-8.937c-0.694-2.984-1.484-5.954-2.275-8.889c-1.501-5.824-2.487-11.848-3.271-17.774
		c-0.792-5.934-1.369-11.808-1.889-17.497c-1.019-11.381-1.926-22.027-2.953-31.132c-1.019-9.103-2.351-16.66-3.877-21.798
		c-0.764-2.566-1.55-4.528-2.231-5.791c-0.292-0.655-0.64-1.092-0.816-1.415c-0.194-0.314-0.295-0.476-0.295-0.476
		s0.093,0.167,0.273,0.489c0.162,0.332,0.488,0.779,0.75,1.445c0.628,1.283,1.296,3.273,1.982,5.841
		c1.378,5.148,2.353,12.716,3.21,21.809c0.879,9.097,1.446,19.756,2.408,31.163c0.484,5.704,1.023,11.599,1.779,17.576
		c0.755,5.98,1.69,12.029,3.203,18.032c0.816,2.949,1.613,5.873,2.315,8.8c0.637,2.955,1.297,5.892,1.79,8.846
		c1.097,5.883,1.908,11.729,2.669,17.387c0.721,5.664,1.391,11.146,1.968,16.352c0.564,5.208,1.057,10.136,1.478,14.69
		c0.827,9.108,1.499,16.704,1.893,22.026C3366.032,1213.838,3366.264,1216.88,3366.264,1216.88z"/>
	<path id="XMLID_1099_" fill="#842577" d="M3391.038,965.32c0,0,0.168,4.22,0.461,11.605c0.32,7.384,0.7,17.936,1.361,30.589
		c0.669,12.652,1.398,27.417,2.482,43.222c0.53,7.903,1.144,16.066,1.887,24.359c0.717,8.319,2.011,16.671,2.879,25.055
		c1.952,16.771,3.739,33.573,5.78,49.29c1.016,7.859,2.104,15.446,3.494,22.601c0.624,3.552,1.587,7.105,2.757,10.284
		c1.059,3.201,1.579,6.4,2.021,9.543c0.854,6.252,1.312,12.04,1.679,17.168c0.353,5.131,0.568,9.612,0.714,13.303
		c0.298,7.383,0.347,11.607,0.347,11.607s0.061-4.223-0.046-11.615c-0.051-3.696-0.149-8.184-0.369-13.331
		c-0.227-5.146-0.531-10.956-1.326-17.267c-0.389-3.127-0.89-6.488-1.931-9.785c-1.137-3.251-1.972-6.542-2.562-10.152
		c-1.275-7.116-2.229-14.708-3.236-22.552c-1.964-15.702-3.663-32.505-5.543-49.298c-0.913-8.414-2.247-16.762-2.996-25.009
		c-0.78-8.264-1.433-16.417-2.001-24.311c-1.151-15.788-2.21-30.53-3.027-43.171C3392.168,982.174,3391.038,965.32,3391.038,965.32z
		"/>
	<polygon id="XMLID_1096_" fill="#892E80" points="3612.373,966.929 3645.169,1123.526 3707.042,1118.146 3707.562,958.654 	"/>
	<polygon id="XMLID_1095_" fill="#892E80" points="3450.825,982.944 3454.32,1147.249 3397.589,1156.611 3351.497,998.773 	"/>
	<polygon id="XMLID_1094_" fill="#892E80" points="3570.423,971.251 3580.666,1130.439 3517.816,1138.366 3485.348,978.648 	"/>
	<polygon id="XMLID_1093_" fill="#0B051B" points="3698.483,971.431 3697.482,1017.808 3632.108,1021.56 3622.461,972.646 	"/>
	<polygon id="XMLID_1090_" fill="#0B051B" points="3699.18,1027.717 3698.341,1109.301 3649.153,1114.188 3632.781,1029.294 	"/>
	<polygon id="XMLID_1078_" fill="#0B051B" points="3445.34,1043.963 3449.603,1140.7 3399.296,1148.67 3377.304,1054.292 	"/>
	<polygon id="XMLID_1070_" fill="#0B051B" points="3444.512,1034.444 3440.753,991.207 3361.378,1002.11 3371.75,1045.566 	"/>
	<polygon id="XMLID_1069_" fill="#0B051B" points="3563.904,979.011 3565.152,1022.661 3502.238,1028.13 3494.892,985.011 	"/>
	<polygon id="XMLID_1068_" fill="#0B051B" points="3566.121,1033.809 3572.454,1125.612 3524.86,1129.75 3504.397,1039.176 	"/>
	<path id="XMLID_1067_" fill="#C96FB1" d="M3445.762,1035.029c-0.126,0.025-73.637,11.404-73.637,11.404l-0.749-2.432
		c0,0,57.788-8.672,70.779-10.658C3442.155,1033.342,3446.047,1034.969,3445.762,1035.029z"/>
	<path id="XMLID_1066_" fill="#0B051B" d="M3378.682,1183.903"/>
	<polygon id="XMLID_1065_" fill="#AD4994" points="3444.738,990.892 3445.762,1035.029 3442.155,1033.342 3440.753,991.207 	"/>
	<path id="XMLID_1064_" fill="#C96FB1" d="M3565.941,1023.24l-64.116,4.926c-0.322,0.064,0.178-3.309-0.135-3.251
		c0,0,51.154-3.889,60.59-4.253C3562.281,1020.662,3566.226,1023.18,3565.941,1023.24z"/>
	<polygon id="XMLID_1063_" fill="#AD4994" points="3564.917,979.103 3565.941,1023.24 3562.281,1020.662 3560.753,979.33 	"/>
	<path id="XMLID_1062_" fill="#C96FB1" d="M3698.032,1018.825l-65.924,2.734l-0.602-3.053c0,0,63.802-2.47,64.255-2.535
		C3695.761,1015.971,3698.404,1018.793,3698.032,1018.825z"/>
	<polygon id="XMLID_1061_" fill="#AD4994" points="3698.483,971.431 3698.404,1018.793 3695.761,1015.971 3695.21,971.716 	"/>
	<path id="XMLID_1060_" fill="#C96FB1" d="M3573.514,1126.314l-48.655,3.436c-0.322,0.065-0.198-2.321-0.511-2.262
		c0,0,36.489-2.453,45.927-2.805C3570.275,1124.682,3573.8,1126.253,3573.514,1126.314z"/>
	<polygon id="XMLID_1059_" fill="#AD4994" points="3566.121,1033.809 3573.514,1126.314 3570.275,1124.682 3562.403,1034.133 	"/>
	<path id="XMLID_1058_" fill="#C96FB1" d="M3449.603,1140.7l-50.307,7.97c-0.322,0.064-0.05-3.023-0.363-2.966
		c0,0,40.528-7.026,47.634-8.337C3446.567,1137.367,3449.888,1140.64,3449.603,1140.7z"/>
	<polygon id="XMLID_1057_" fill="#AD4994" points="3445.34,1043.963 3450.35,1141.234 3446.567,1137.367 3441.924,1044.482 	"/>
	<path id="XMLID_1056_" fill="#C96FB1" d="M3699.005,1109.854l-49.852,4.334c-0.322,0.064-0.211-2.777-0.524-2.719
		c0,0,38.003-3.693,47.44-4.057C3696.069,1107.411,3699.291,1109.794,3699.005,1109.854z"/>
	<polygon id="XMLID_1055_" fill="#AD4994" points="3699.18,1027.717 3699.005,1109.854 3696.069,1107.411 3695.885,1027.734 	"/>
	<polygon id="XMLID_1054_" fill="#540854" points="3351.497,998.773 3351.871,997.526 3448.377,982.371 3450.825,982.944 	"/>
	<polygon id="XMLID_1053_" fill="#540854" points="3570.423,971.251 3569.079,970.019 3486.47,977.763 3485.348,978.648 	"/>
	<polygon id="XMLID_1052_" fill="#540854" points="3707.562,958.654 3612.373,966.929 3614.228,965.419 3705.457,957.488 	"/>
	<path id="XMLID_1050_" opacity="0.87" fill="#8E3080" d="M3294.524,1011.096l-12.428-52.517l86.076-9.311
		c0,0-35.047,19.183-46.965,25.165c-11.918,5.981-20.107,27.427-20.107,27.427l-3.168,22.155L3294.524,1011.096z"/>
	<g id="XMLID_1127_">
		<path id="XMLID_1128_" opacity="0.66" fill="#9B3A88" d="M3618.92,1261.726c0.161-0.147,2.333-0.417,2.333-0.417
			c-0.067-6.911-2.441-29.587-2.559-32.171c-1.29-28.376-8.611-113.51-10.905-136.652c-2.736-27.601-17.155-169.083-18.454-169.76
			c-1.302-0.679-1.333-16.333-1.333-16.333c0.053,0.62-2.846,4.658-1.708,37.833c1.542,44.953,7.385,124.066,8.961,139.974
			c2.731,27.543,16.283,104.578,16.747,116.193c0,0-1.972,40.104,5,39.25C3617.55,1239.576,3618.255,1262.333,3618.92,1261.726z"/>
	</g>
	<g id="XMLID_1104_">
		<path id="XMLID_1105_" fill="#842577" d="M3612.003,1189.059c3.239,31.758,3.99,50.001,4,50c0.264-0.031,0.585,0.065,1.083,1.083
			c0.949,1.938,1.833,29.083,1.75,10.5c-0.012-2.641-2.147-29.421-2.167-29.583c-0.051-0.433-13.247-125.455-13.553-143.574
			c-0.182-10.751-2.18-30.466-3.941-47.858c-1.246-12.297-2.422-23.913-2.734-30.237c-0.741-15.065-5.122-63.211-5.166-63.695
			c-0.044-0.491-2.989-21.137-3.481-21.094c-0.001,0-0.499-3.375-0.5-3.375c-0.493,0.045,2.152,24.138,2.197,24.631
			c0.044,0.484,4.421,48.594,5.161,63.622c0.313,6.369,1.492,18.006,2.74,30.327c1.759,17.357,3.752,37.032,3.932,47.708
			c0.309,18.211,5.422,61.236,5.474,61.667C3606.855,1139.663,3607.67,1155.726,3612.003,1189.059z"/>
	</g>
	<circle id="XMLID_788_" fill="#A34B90" cx="3470.336" cy="1241.726" r="1.5"/>
	<circle id="XMLID_789_" fill="#A34B90" cx="3491.336" cy="1237.226" r="1.5"/>
	<circle id="XMLID_790_" fill="#A34B90" cx="3526.336" cy="941.059" r="1.5"/>
	<circle id="XMLID_791_" fill="#A34B90" cx="3543.336" cy="943.393" r="1.5"/>
	<circle id="XMLID_792_" fill="#A34B90" cx="3728.503" cy="926.059" r="1.5"/>
	<circle id="XMLID_793_" fill="#A34B90" cx="3743.67" cy="916.726" r="1.5"/>
	<circle id="XMLID_794_" fill="#A34B90" cx="3383.336" cy="1251.059" r="1.5"/>
	<circle id="XMLID_795_" fill="#A34B90" cx="3406.67" cy="1229.393" r="1.5"/>
	<circle id="XMLID_796_" fill="#A34B90" cx="3774.503" cy="1110.393" r="1.5"/>
	<circle id="XMLID_798_" fill="#A34B90" cx="3790.836" cy="1114.393" r="1.5"/>
	<circle id="XMLID_807_" fill="#A34B90" cx="3444.17" cy="955.059" r="1.5"/>
	<circle id="XMLID_809_" fill="#A34B90" cx="3466.003" cy="968.726" r="1.5"/>
	<circle id="XMLID_813_" fill="#A34B90" cx="3661.336" cy="928.393" r="1.5"/>
	<circle id="XMLID_819_" opacity="0.87" fill="#8E3080" cx="3348.836" cy="969.726" r="1.5"/>
	<circle id="XMLID_820_" fill="#892E80" cx="3341.503" cy="1111.726" r="1.5"/>
</g>
<g id="Layer_1">
</g>
</svg>
