<?xml version="1.0" encoding="utf-8"?>
<!-- Generator: Adobe Illustrator 19.0.0, SVG Export Plug-In . SVG Version: 6.00 Build 0)  -->
<!DOCTYPE svg PUBLIC "-//W3C//DTD SVG 1.1//EN" "http://www.w3.org/Graphics/SVG/1.1/DTD/svg11.dtd">
<svg version="1.1" xmlns="http://www.w3.org/2000/svg" xmlns:xlink="http://www.w3.org/1999/xlink" x="0px" y="0px"
	 viewBox="0 0 9870.104 2778.383" enable-background="new 0 0 9870.104 2778.383" xml:space="preserve">
<g id="middle_x5F_floor_x5F_pieces">
	<polyline id="XMLID_779_" fill="#C96FB1" points="3672.67,917.726 3663.336,855.059 3722.003,849.059 3718.67,913.059 
		3672.67,917.726 	"/>
	<polyline id="XMLID_780_" fill="#BC64A7" points="3754.67,913.726 3756.003,841.059 3777.17,837.226 3786.67,915.726 
		3755.336,903.726 	"/>
	<polygon id="XMLID_781_" fill="#C96FB1" points="3589.491,935.857 3588.003,906.393 3553.336,909.059 3553.336,937.393 	"/>
	<polygon id="XMLID_782_" fill="#C96FB1" points="3661.003,1219.726 3664.003,1256.726 3618.67,1261.726 3615.336,1216.393 	"/>
	<polyline id="XMLID_783_" fill="#C96FB1" points="3699.003,1200.726 3701.67,1256.393 3733.003,1256.393 3731.336,1151.393 
		3699.003,1200.726 	"/>
	<polygon id="XMLID_785_" fill="#BC64A7" points="3661.003,1219.726 3664.003,1256.726 3618.67,1261.726 3615.336,1216.393 	"/>
	<polyline id="XMLID_784_" fill="#BC64A7" points="3699.003,1200.726 3701.67,1256.393 3733.003,1256.393 3731.336,1151.393 
		3699.003,1200.726 	"/>
	<polygon id="XMLID_787_" opacity="0.57" fill="#A34B90" points="3661.003,1219.726 3664.003,1256.726 3618.67,1261.726 
		3615.336,1216.393 	"/>
	<polyline id="XMLID_786_" opacity="0.57" fill="#A34B90" points="3699.003,1200.726 3701.67,1256.393 3733.003,1256.393 
		3731.336,1151.393 3699.003,1200.726 	"/>
	<circle id="XMLID_814_" fill="#A34B90" cx="3711.336" cy="859.059" r="1.5"/>
	<circle id="XMLID_815_" fill="#A34B90" cx="3679.503" cy="871.059" r="1.5"/>
	<circle id="XMLID_816_" fill="#A34B90" cx="3561.67" cy="918.226" r="1.5"/>
	<circle id="XMLID_817_" fill="#A34B90" cx="3628.503" cy="1244.726" r="1.5"/>
	<circle id="XMLID_818_" fill="#A34B90" cx="3655.336" cy="1250.226" r="1.5"/>
</g>
<g id="Layer_1">
</g>
</svg>
