<?xml version="1.0" encoding="utf-8"?>
<!-- Generator: Adobe Illustrator 19.0.0, SVG Export Plug-In . SVG Version: 6.00 Build 0)  -->
<!DOCTYPE svg PUBLIC "-//W3C//DTD SVG 1.1//EN" "http://www.w3.org/Graphics/SVG/1.1/DTD/svg11.dtd">
<svg version="1.1" xmlns="http://www.w3.org/2000/svg" xmlns:xlink="http://www.w3.org/1999/xlink" x="0px" y="0px"
	 viewBox="0 0 9870.104 2778.383" enable-background="new 0 0 9870.104 2778.383" xml:space="preserve">
<g id="Layer_31">
	<polygon id="XMLID_754_" fill="#77220C" points="3362.336,1244.062 3558.913,1215.374 3559.17,1216.559 3362.405,1245.569 	"/>
	<polygon id="XMLID_740_" fill="#77220C" points="3392.67,1248.393 3387.336,1210.393 3388.503,1210.059 3394.17,1248.226 	"/>
	<polygon id="XMLID_741_" fill="#77220C" points="3420.336,1257.393 3415.003,1219.393 3416.17,1219.059 3421.836,1257.226 	"/>
	<polygon id="XMLID_742_" fill="#77220C" points="3443.336,1243.059 3438.003,1205.059 3439.17,1204.726 3444.836,1242.893 	"/>
	<polygon id="XMLID_743_" fill="#77220C" points="3468.17,1239.393 3462.836,1201.393 3464.003,1201.059 3469.67,1239.226 	"/>
	<polygon id="XMLID_744_" fill="#77220C" points="3494.67,1236.059 3489.336,1198.059 3490.503,1197.726 3496.17,1235.893 	"/>
	<polygon id="XMLID_745_" fill="#77220C" points="3519.836,1232.559 3514.503,1194.559 3515.67,1194.226 3521.336,1232.393 	"/>
	<polygon id="XMLID_747_" fill="#77220C" points="3548.003,1244.559 3542.67,1206.559 3543.836,1206.226 3549.503,1244.393 	"/>
	<polygon id="XMLID_749_" fill="#77220C" points="3366.503,1253.726 3361.17,1215.726 3362.336,1215.393 3368.003,1253.559 	"/>
	<polygon id="XMLID_750_" fill="#77220C" points="3358.836,1222.062 3495.08,1202.54 3495.336,1203.726 3358.905,1223.569 	"/>
	<path id="XMLID_751_" fill="#A31953" d="M3382.336,1246.726c0,0,3-1,4.167-2.667c1.167-1.667,2.833-2.667,4-3.333
		c1.167-0.667,2.667-1.333,3.167-1.333s3.833,2,3.833,2l-0.333,1.5l2.167,0.333l3.5,1l0.5,0.667l-20.833,4
		C3382.503,1248.893,3380.836,1247.059,3382.336,1246.726z"/>
	<path id="XMLID_752_" fill="#A31953" d="M3439.503,1237.187l-2.167,1.912c0,0-1,0.765,0.333,0.956c1.333,0.191,3-0.382,4-0.382
		s5.167,0.573,6,0c0.833-0.573,4-1.338,4-1.338s2-0.956,1-1.338s-5.333-1.72-6-1.72c-0.667,0-0.333-2.294-2.167-1.529
		c-1.833,0.765-2.667,0.765-3,1.912C3441.17,1236.805,3439.503,1237.187,3439.503,1237.187z"/>
	<path id="XMLID_753_" fill="#A31953" d="M3516.808,1225.52l-1.285,1.912c0,0-0.593,0.765,0.198,0.956s1.779-0.382,2.372-0.382
		s3.064,0.573,3.558,0c0.494-0.573,2.372-1.338,2.372-1.338s1.186-0.956,0.593-1.338c-0.593-0.382-3.163-1.72-3.558-1.72
		c-0.395,0-0.198-2.294-1.285-1.529c-1.087,0.765-1.582,0.765-1.779,1.912S3516.808,1225.52,3516.808,1225.52z"/>
	<path id="XMLID_755_" fill="#A31953" d="M3462.67,1204.059c0,0,2-0.667,2.333,0c0.333,0.667,1.5,2,2.167,2.167
		c0.667,0.167,3.167,1,3.167,1s-0.667,1.667-1.333,4c-0.667,2.333-1,4.333-0.833,6.167c0.167,1.833-1.667,4-1.667,4
		s-0.667-1-1.333-1.667c-0.667-0.667-2.5-3.5-3.833-4.333s-2.5-3.333-5.5-3.5s-7.167-1.167-7.167-1.167l1.5-3
		C3450.17,1207.726,3461.336,1204.893,3462.67,1204.059z"/>
	<path id="XMLID_757_" fill="#D33D6F" d="M3451.334,1207.909l11.336-3.85c0,0,1.958-0.865,2.333,0
		c0.375,0.865,1.956,2.094,2.833,2.445c0.878,0.351-0.878,1.756-2.458,0.878s-4.213-0.351-5.091,0
		c-0.878,0.351-4.038,1.58-6.32,1.58S3451.334,1207.909,3451.334,1207.909"/>
	<path id="XMLID_756_" fill="#891449" d="M3467.31,1211.245c0,0-1.405,0.702-0.878,1.931c0.527,1.229,0.702,2.984,0.527,3.511
		c-0.176,0.527-0.702,2.458-0.702,2.458l0.247,2.248c0,0,1.684-1.897,1.684-2.424c0-0.527,0.176-3.511,0.176-4.565
		s0.64-3.178,0.64-3.178L3467.31,1211.245z"/>
</g>
<g id="Layer_1">
</g>
</svg>
