<?xml version="1.0" encoding="utf-8"?>
<!-- Generator: Adobe Illustrator 19.0.0, SVG Export Plug-In . SVG Version: 6.00 Build 0)  -->
<!DOCTYPE svg PUBLIC "-//W3C//DTD SVG 1.1//EN" "http://www.w3.org/Graphics/SVG/1.1/DTD/svg11.dtd">
<svg version="1.1" xmlns="http://www.w3.org/2000/svg" xmlns:xlink="http://www.w3.org/1999/xlink" x="0px" y="0px"
	 viewBox="0 0 9870.104 2778.383" enable-background="new 0 0 9870.104 2778.383" xml:space="preserve">
<g id="strugture_x5F_floor">
	<path id="XMLID_1351_" fill="#F6A5C0" d="M3695.307,1457.714l-13.661,249.65l-146.766,7.965c0,0-3.932-3.854-4.966-15.753
		c-1.034-11.899-88.664-399.302-88.664-399.302l259.389-22.552L3695.307,1457.714z"/>
	<path id="XMLID_1350_" fill="#ED95B6" d="M3694.878,1465.569l-97.897-4.4l15.864,14.409c0,0-0.913,69.412,3.406,82.89
		c4.319,13.478,0.136,29.141-1.08,32.393s-9.946,17.524,0.178,42.346c10.124,24.823,34.814,44.076,17.193,53.7
		c-17.621,9.624-29.319,13.012-49.106,14.671c-19.787,1.659-32.725,12.892-32.725,12.892l130.934-7.106L3694.878,1465.569z"/>
	<path id="XMLID_1349_" fill="#DC7FA4" d="M3694.878,1465.569l-83.24-3.877c0,0,9.634,108.746,11.21,113.705
		s12.245,44.663,31.012,89.876c9.956,23.986,27.786,42.092,27.786,42.092L3694.878,1465.569z"/>
	<path id="XMLID_1348_" fill="#D16596" d="M3660.476,1591.417c-13.931-25.786-9.574-49.519-23.535-77.078
		c-4.302-8.493-27.291-52.475-27.291-52.475l85.227,3.704l-9.014,164.732C3685.863,1630.301,3665.994,1601.632,3660.476,1591.417z"
		/>
	<path id="XMLID_1347_" fill="#BF4C86" d="M3616.747,1462.173c0,0,23.384,36.604,33.951,37.483s14.683,16.35,15.42,20.782
		c0.737,4.432,4.153,42.23,7.214,43.027c3.061,0.797,15.152,18.957,15.152,18.957l6.394-116.854l-75.09-0.871"/>
	<path id="XMLID_1346_" fill="#AA3D79" d="M3616.747,1462.173c0,0,11.799,3.288,22.365,4.167
		c10.567,0.88,23.044,12.582,23.781,17.014c0.737,4.432,6.528,27.562,9.589,28.359s18.576,23.668,18.576,23.668l3.82-69.812
		l-75.09-0.871"/>
	<path id="XMLID_1345_" fill="#ED95B6" d="M3441.922,1308.008l21.625,22.097c0,0,7.358,25.136,12.557,22.885
		c5.199-2.25,12.378-33.445,12.378-33.445l20.228-1.759c0,0,16.932,0.176,19.435,3.106c2.503,2.929,5.095,58.6,5.095,58.6
		s-3.204,7.771-7.071,8.108c-3.867,0.336-20.233,1.759-20.233,1.759s-13.211,4.895-0.657,9.648s18.303,3.654,20.618,9.597
		s11.944-2.237,13.386-1.164c1.442,1.073,3.608,3.583,6.531,9.622s13.407,24.909,15.992,30.529
		c2.586,5.62,5.675,20.47,11.075,20.533c5.4,0.063,121.716,2.58,121.716,2.58l0.896-193.331
		C3695.492,1277.374,3455.168,1310.895,3441.922,1308.008"/>
	<path id="XMLID_1344_" fill="#ED95B6" d="M3573.178,1557.717c-5.522,0.179-29.207,0.187-32.025,2.247
		c-2.818,2.06-11.548,6.787-10.588,9.215s8.451,13.017,17.277,12.699c8.826-0.318,32.61-5.982,32.61-5.982
		S3594.365,1557.029,3573.178,1557.717z"/>
	<path id="XMLID_1343_" fill="#DC7FA4" d="M3565.69,1497.456c-4.752,0.26-16.146,60.49-18.63,61.632
		c-2.485,1.142-10.132,3.83-9.38,5.047c0.752,1.216,6.868,6.417,14.464,5.986c5.735-0.325,18.892-2.473,24.994-3.505
		c2.7-0.457-2.121-3.284-0.681-5.613C3578.163,1558.24,3576.325,1496.875,3565.69,1497.456z"/>
	<path id="XMLID_1342_" fill="#DC7FA4" d="M3594.04,1451.233l-20.044-154.708c0,0-91.664,5.782-95.303,6.961
		c-3.639,1.178,13.17,4.975,29.24,5.377c16.07,0.401,28.842,7.083,32.301,10.979c3.459,3.895,11.832,27.894,16.588,36.022
		c4.757,8.128,2.806,33.923,2.268,39.815c-0.538,5.891,7.896-1.286,11.458,9.044s13.656,24.738,13.081,30.183
		C3583.054,1440.35,3586.743,1451.236,3594.04,1451.233"/>
	<polygon id="XMLID_1341_" fill="#0B051B" points="3531.73,1320.581 3534.497,1386.876 3517.839,1388.325 3509.123,1322.546 	"/>
	<polygon id="XMLID_1340_" fill="#0B051B" points="3565.949,1500.431 3571.276,1561.708 3548.074,1563.726 3540.108,1499.68 
		3565.69,1497.456 	"/>
	<path id="XMLID_1339_" fill="#C96B96" d="M3608.511,1441.77l-20.044-154.708c0,0-74.892,5.649-78.531,6.828
		c-3.639,1.178-7.316,8.251,8.753,8.653s31.445,8.822,34.905,12.718c3.459,3.895,9.065,16.021,13.822,24.15
		c4.757,8.128,1.129,27.124,0.591,33.015c-0.538,5.891,12.382,17.959,15.944,28.289c3.562,10.33,14.725,19.284,14.149,24.729
		C3597.525,1430.886,3601.215,1441.773,3608.511,1441.77"/>
	<path id="XMLID_1338_" fill="#F05E89" d="M3362.429,1250.274l24.423,51.733c0,0,53.21,2.534,55.07,6.002
		c1.86,3.468,132.074-11.483,132.074-11.483l-12.16-75.133L3362.429,1250.274z"/>
	<path id="XMLID_1337_" fill="#D33D6F" d="M3568.164,1287.028c0,0-14.689-9.376-27.315-9.799
		c-12.626-0.423-44.257-9.764-57.85-6.959c-13.593,2.805-62.087-4.491-72.553-2.472c-10.466,2.019-34.696-0.227-41.927-7.817
		c-4.848-5.088-6.088-9.707-6.088-9.707l204.746-29.393c0,0,20.418,71.646,19.61,69.149S3582.613,1290.393,3568.164,1287.028z"/>
	<path id="XMLID_1336_" fill="#B5265E" d="M3565.858,1276.178c0,0-5.323-6.908-17.949-7.331c-12.626-0.423-15.34-7.308-28.933-4.503
		c-13.593,2.805-22.033-5.64-32.499-3.62c-10.466,2.019-11.166-5.259-19.415-11.73s-12.392-11.934-12.392-11.934l148.483-22.105
		c0,0-16.715,76.539-17.523,74.042C3584.822,1286.5,3580.307,1279.543,3565.858,1276.178z"/>
	<polygon id="XMLID_1335_" fill="#733D50" points="3567.352,1557.074 3571.276,1561.708 3548.074,1563.726 3547.587,1559.273 	"/>
	<polygon id="XMLID_1334_" fill="#361023" points="3565.69,1497.456 3571.276,1561.708 3567.352,1557.074 3561.303,1497.844 	"/>
	<polygon id="XMLID_1333_" fill="#733D50" points="3534.497,1386.876 3530.685,1383.536 3517.358,1384.695 3517.839,1388.325 	"/>
	<polygon id="XMLID_1332_" fill="#361023" points="3528.143,1320.893 3530.685,1383.536 3534.497,1386.876 3531.73,1320.581 	"/>
</g>
<g id="Layer_1">
</g>
</svg>
