<?xml version="1.0" encoding="utf-8"?>
<!-- Generator: Adobe Illustrator 19.0.0, SVG Export Plug-In . SVG Version: 6.00 Build 0)  -->
<!DOCTYPE svg PUBLIC "-//W3C//DTD SVG 1.1//EN" "http://www.w3.org/Graphics/SVG/1.1/DTD/svg11.dtd">
<svg version="1.1" xmlns="http://www.w3.org/2000/svg" xmlns:xlink="http://www.w3.org/1999/xlink" x="0px" y="0px"
	 viewBox="0 0 9870.104 2778.383" enable-background="new 0 0 9870.104 2778.383" xml:space="preserve">
<g id="top_x5F_floor">
	<polygon id="XMLID_969_" fill="#7A7277" points="3663.948,511.95 3687.677,528.805 3722.846,319.706 3686.215,222.422 
		3650.366,233.894 3707.249,340.244 3672.122,349.898 	"/>
	<polygon id="XMLID_968_" fill="#302C36" points="3707.249,340.244 3650.652,233.713 3690.515,209.825 3743.074,317.948 	"/>
	<polygon id="XMLID_967_" fill="#413D48" points="3678.495,522.28 3707.249,340.244 3743.074,317.948 3687.677,528.806 	"/>
	<polygon id="XMLID_966_" fill="#090518" points="3674.704,219.3 3661.495,198.096 3656.188,201.102 3666.657,224.122 	"/>
	<polygon id="XMLID_965_" fill="#302C36" points="3633.46,244.016 3621.948,213.983 3616.588,214.449 3628.655,246.896 	"/>
	<path id="XMLID_964_" fill="#37373F" d="M3682.936,184.709c0,0-28.308,19.128-44.594,24.857
		c-16.286,5.729-40.636,8.328-40.636,8.328l5.692-72.426L3682.936,184.709z"/>
	<polygon id="XMLID_963_" fill="#5E555F" points="3625,249.083 3672.122,349.898 3707.249,340.244 3650.652,233.713 	"/>
	<path id="XMLID_962_" fill="#25212B" d="M3690.515,209.825l52.559,108.123c0,0-15.556,11.279-16.267,10.124
		c-0.711-1.155-55.078-106.989-55.078-106.989L3690.515,209.825z"/>
	<polygon id="XMLID_961_" fill="#302C36" points="3743.074,317.948 3726.807,328.072 3685.553,518.137 3689.955,520.135 	"/>
	<path id="XMLID_960_" fill="#302C36" d="M3682.936,184.709c0,0-28.308,19.128-44.594,24.857l-34.945-64.098L3682.936,184.709z"/>
	<polygon id="XMLID_959_" fill="#AD1C55" points="3286.426,827.222 3295.657,933.402 3286.138,934.229 3272.742,828.412 	"/>
	<polygon id="XMLID_958_" fill="#AD1C55" points="3245.866,832.529 3259.786,937.104 3252.647,937.725 3234,833.56 	"/>
	<polygon id="XMLID_957_" fill="#660C30" points="3233.674,834.172 3248.063,937.54 3242.701,938.006 3222.972,835.103 	"/>
	<polygon id="XMLID_956_" fill="#AD1C55" points="3206.914,837.405 3225.621,941.407 3215.864,940.339 3193.902,839.119 	"/>
	<polygon id="XMLID_955_" fill="#660C30" points="3178.048,841.161 3196.023,943.98 3191.539,944.37 3166.81,842.642 	"/>
	<polygon id="XMLID_954_" fill="#AD1C55" points="3156.614,844.04 3169.315,948.759 3160.371,949.28 3143.008,846.118 	"/>
	<path id="XMLID_953_" fill="#891241" d="M3245.866,832.529l-6.831,1.178c0,0,5.443-0.062,10.863,43.825
		c2.855,23.117,6.133,57.333,6.133,57.333l2.717,0.262L3245.866,832.529z"/>
	<path id="XMLID_952_" fill="#891241" d="M3206.914,837.405l18.413,100.627l-2.16,1.536c0,0-11.098-68.405-14.191-78.443
		c-3.093-10.039-3.158-24.093-7.835-23.218C3196.465,838.782,3206.914,837.405,3206.914,837.405z"/>
	<path id="XMLID_951_" fill="#891241" d="M3156.614,844.04l12.153,98.411l-1.785,0.155c0,0-9.636-81.005-10.593-85.118
		s-2.012-12.381-7.035-11.976C3144.33,845.916,3156.614,844.04,3156.614,844.04z"/>
	<path id="XMLID_950_" fill="#D33D6F" d="M3277.518,866.131l8.621,68.099l2.728,0.347
		C3288.866,934.576,3279.143,892.956,3277.518,866.131z"/>
	<path id="XMLID_949_" fill="#D33D6F" d="M3240.095,867.611l12.735,68.409l3.201-1.156
		C3256.032,934.864,3249.888,916.656,3240.095,867.611z"/>
	<path id="XMLID_948_" fill="#D33D6F" d="M3215.596,938.658l3.248-0.561c0,0-4.007-8.665-6.906-22.799
		c-2.899-14.134-11.991-48.318-11.991-48.318L3215.596,938.658z"/>
	<path id="XMLID_947_" fill="#D33D6F" d="M3160.14,943.201l2.575-0.224c0,0-3.818-15.275-8.125-40.676s-7.071-29.379-7.071-29.379
		L3160.14,943.201z"/>
	<polygon id="XMLID_946_" fill="#D33D6F" points="3305.657,807.105 3121.668,835.089 3122.858,848.773 3310.131,824.099 	"/>
	<path id="XMLID_945_" fill="#AD1C55" d="M3305.657,807.105l4.475,16.994l-23.702,3.161l-37.525,5.005c0,0-9.911-0.241,16.382-4.625
		c26.293-4.384,31.542-6.067,33.91-9.86C3301.564,813.986,3300.851,808.181,3305.657,807.105z"/>
	<path id="XMLID_944_" fill="#891241" d="M3290.622,875.489l-4.193-48.229l-4.976,0.173c0,0,2.561-3.819,4.184,19.417
		c1.623,23.237,7.379,84.871,7.379,84.871l2.477-0.215L3290.622,875.489z"/>
	<path id="XMLID_943_" fill="#EE86AF" d="M3122.379,843.265l-0.711-8.175l131.156-19.949c0,0,13.161-0.15-32.661,7.131
		c-45.823,7.281-74.99,9.634-81.061,12.201c-6.071,2.567-12.201,1.002-12.615,3.136S3124.996,850.434,3122.379,843.265z"/>
	<polygon id="XMLID_942_" fill="#E86B83" points="3279.537,633.382 3265.222,542.914 3272.698,475.912 3312.613,568.765 	"/>
	<polygon id="XMLID_941_" fill="#5E0A2B" points="3267.266,686.138 3404.605,727.111 3794.683,633.405 3560.443,451.494 
		3471.753,375.695 	"/>
	<polygon id="XMLID_940_" fill="#EE7587" points="3290.093,670.845 3300.359,962.054 3784.047,899.44 3754.735,617.546 
		3465.758,384.511 	"/>
	<polygon id="XMLID_939_" fill="#720D35" points="3252.487,549.416 3271.494,471.637 3275.334,480.714 3266.05,552.433 	"/>
	<path id="XMLID_938_" fill="#891241" d="M3264.746,688.514l214.958-288.026l314.979,232.916l13.421-19.006l-346.194-276.206
		c0,0-26.992,43.851-49.672,83.731c-0.624,1.097-1.248,2.195-1.855,3.272l-0.018,0.002l-138.872,46.439l40.8,97.569
		c-43.616,60.096-75.308,105.643-75.308,105.643C3243.912,687.553,3264.746,688.514,3264.746,688.514z"/>
	<polygon id="XMLID_937_" fill="#720D35" points="3410.366,425.198 3312.613,568.765 3293.144,524.281 	"/>
	<path id="XMLID_936_" fill="#E86B83" d="M3711.327,876.976c0.917,3.698,18.025,33.799,18.025,33.799l54.926-8.672l-29.544-284.557
		L3497.062,417.66l-107.181,119.814c0,0,11.431,17.885,24.985,42.785c13.554,24.9,73.12-12.351,102.92,9.634
		c29.937,22.087,103.645,4.776,127.26,21.305c23.616,16.529,42.997,37.952,38.571,42.203s-3.739,34.994-1.919,75.645
		c1.82,40.652,8.456,44.861-5.221,58.947c-13.677,14.086-60.095,4.179-68.456,14.874c-8.361,10.695,11.66,19.047,36.013,20.575
		s57.29-0.355,53.777,6.147c-3.513,6.502,31.094,24.761,24.747,32.564C3716.213,869.957,3707.406,861.167,3711.327,876.976z"/>
	<polygon id="XMLID_935_" fill="#D85574" points="3754.735,617.546 3471.753,375.695 3290.04,670.236 3528.45,476.194 	"/>
	<polygon id="XMLID_933_" fill="#CD456C" points="3471.753,375.695 3526.664,422.625 3312.282,634.184 	"/>
	<path id="XMLID_932_" fill="#E86B83" d="M3375.996,783.77c5.124,73.038,4.9,107.548,3.214,116.087
		c-1.687,8.539-24.504,25.508-36.196,1.349c-11.691-24.159-7.427-103.268-8.156-111.651c-0.729-8.384-15.685-71.685-9.066-85.179
		c6.619-13.493,38.17-22.464,42.051-19.205C3371.723,688.429,3375.138,771.53,3375.996,783.77z"/>
	<path id="XMLID_931_" fill="#E86B83" d="M3318.937,740.33c-0.343-3.693,0.557,100.469,5.707,156.42
		c1.1,11.951-9.521,31.071-14.018,10.268c-4.498-20.802-4.189-97.851-4.499-104.884c-0.311-7.032-6.361-78.217-3.934-89.1
		c2.427-10.883,13.262-23.862,14.734-20.926S3318.485,730.076,3318.937,740.33z"/>
	<path id="XMLID_930_" fill="#E2667E" d="M3494.902,793.699c0,0-108.35,3.454-108.433,11.209
		c-0.083,7.754,7.195,26.873,18.199,26.068c11.004-0.805,109.287-0.467,111.624-8.558
		C3518.627,814.328,3507.4,793.601,3494.902,793.699z"/>
	<path id="XMLID_929_" fill="#E86B83" d="M3602.862,831.929c-4.194,0.378-120.427,10.012-131.883,11.466
		c-11.456,1.454-34.889,17.424-37.537,26.928c-2.647,9.504-7.492,31.038,5.5,31.532c12.992,0.494,13.238,7.12,32.79,12.924
		c19.552,5.803,159.719-14.488,174.322-18c45.416-10.924,17.26-35.894,5.506-35.605
		C3582.097,862.883,3636.169,828.931,3602.862,831.929z"/>
	<path id="XMLID_928_" fill="#E2667E" d="M3656.109,780.529c0,0-104.596,8.673-104.258,16.42
		c0.339,7.747,7.629,25.029,18.573,23.626s108.585-2.873,108.301-11.289C3678.352,798.245,3663.643,779.177,3656.109,780.529z"/>
	<path id="XMLID_927_" fill="#E2667E" d="M3656.584,657.387c-21.18-2.661-29.792-32.85-65.168-29.731
		c-28.508,2.513-44.407,35.934-60.855,40.682c0,0,33.669-0.57,63.541-3.492C3624.434,661.878,3625.784,665.736,3656.584,657.387z"/>
	<path id="XMLID_926_" fill="#EFBACE" d="M3656.604,657.654c-21.156-2.336-29.594-30.151-64.974-27.073
		c-28.51,2.48-44.592,33.415-61.059,37.89c0,0,33.658-0.716,63.534-3.581C3624.441,661.981,3625.769,665.534,3656.604,657.654z"/>
	<path id="XMLID_925_" fill="#E2667E" d="M3656.604,657.654c-21.156-2.336-36.153-25.955-64.637-23.193
		c-28.484,2.762-44.929,29.535-61.396,34.01c0,0,33.996,3.164,63.872,0.299C3624.318,665.905,3656.604,657.654,3656.604,657.654z"/>
	<g id="XMLID_922_">
		<path fill="#E2667E" d="M3632.944,659.507c4.916-0.148,18.744-1.705,23.66-1.854c6.448,15.195-1.348,37.354-5.646,53.316
			c-1.498,5.563,2.368,21.351,1.701,27.043c-1.259,10.742-3.293,31.474-9.408,40.713c-7.322-20.189-10.082-60.831-12.688-82.053
			c-1.426-11.61-2.8-23.692,1.364-34.782"/>
	</g>
	<path id="XMLID_921_" fill="#E2667E" d="M3477.299,670.549c-19.725-2.771-36.445-34.528-62.933-31.888
		c-26.488,2.64-45.748,40.068-57.353,44.246c0,0,32.28-4.485,60.062-7.22S3477.299,670.549,3477.299,670.549z"/>
	<path id="XMLID_920_" fill="#EFBACE" d="M3477.318,670.809c-19.703-2.463-36.247-31.811-62.738-29.222
		c-26.491,2.589-45.944,37.385-57.567,41.319c0,0,32.292-4.33,60.077-7.014C3444.876,673.209,3477.318,670.809,3477.318,670.809z"/>
	<path id="XMLID_919_" fill="#E2667E" d="M3477.318,670.809c-19.703-2.463-33.801-26.16-60.292-23.571
		c-26.491,2.589-44.715,31.295-60.013,35.668c0,0,34.737,1.321,62.523-1.362C3447.322,678.86,3477.318,670.809,3477.318,670.809z"/>
	<g id="XMLID_916_">
		<path fill="#E2667E" d="M3471.707,672.228c1.62-3.052,8.558-1.371,11.398,0.597s4.748,1.49,4.885,4.943
			c0.137,3.452-1.611,18.046-2.033,21.475c-1.13,9.171,1.245,28.239,1.895,37.457c0.65,9.218,2.234,25.701-1.952,20.893
			c-1.464-3.881-0.342-4.64-1.807-8.521c-3.377,13.546-1.852,35.754-4.969,28.894c-3.179-18.11-6.358-36.22-9.538-54.329
			c-0.718-4.092-1.437-8.289-0.688-12.375c0.666-3.633-4.433-23.676-3.102-27.122c3.25-8.415-10.718-15.419,2.571-12.994"/>
	</g>
	<polygon id="XMLID_915_" fill="#EFBACE" points="3636.1,662.265 3644.692,781.376 3658.285,780.368 3659.966,803.672 
		3544.902,808.785 3543.361,787.423 3557.382,785.407 3544.703,670.186 	"/>
	<path id="XMLID_914_" fill="#9C3665" d="M3627.95,687.074l1.804,20.332c0.064,0.882-1.801,3.46-2.872,3.539l-24.208,1.792
		c-1.071,0.079-1.99-0.572-2.054-1.454l-2.292-25.833c-0.063-0.882,1.003-4.192,2.074-4.271l21.553-1.595
		C3624.492,679.395,3627.563,682.71,3627.95,687.074z"/>
	<polygon id="XMLID_913_" fill="#9C3665" points="3629.516,718.56 3631.369,744.291 3603.707,747.319 3601.854,721.587 	"/>
	<path id="XMLID_912_" fill="#9C3665" d="M3631.765,751.583l3.045,27.876l-29.703,2.528c0,0-5.014-21.537-2.005-28.284
		C3603.683,752.404,3631.765,751.583,3631.765,751.583z"/>
	<path id="XMLID_911_" fill="#9C3665" d="M3589.545,682.036l2.309,31.555l-31.555,2.309c0,0-3.792-30.308-2.309-31.555
		C3559.071,683.437,3589.545,682.036,3589.545,682.036z"/>
	<path id="XMLID_910_" fill="#9C3665" d="M3592.183,722.357l2.188,18.939c0.178,2.428-2.481,4.366-4.682,5.834l-27.178,3.265
		l-1.883-25.729L3592.183,722.357z"/>
	<path id="XMLID_909_" fill="#9C3665" d="M3563.044,757.677l31.555-2.309l1.827,27.28c0,0-30.801,3.636-31.499,0.758
		S3560.344,760.803,3563.044,757.677z"/>
	<path id="XMLID_907_" fill="#EFBACE" d="M3468.862,673.182l11.339,121.621l12.622-0.924l1.496,20.441
		c0,0-109.572,9.97-111.171,8.134c-1.598-1.835-7.244-20.539-5.891-22.05c1.354-1.511,8.446-3.523,8.446-3.523l-9.813-113.644
		L3468.862,673.182z"/>
	<path id="XMLID_906_" fill="#9C3665" d="M3461.183,688.501c2.676,0.224,5.024,30.868,2.344,32.04
		c-2.68,1.172-27.332,4.44-29.937,2.19s-4.902-26.973-2.202-30.099C3434.087,689.507,3458.073,688.241,3461.183,688.501z"/>
	<path id="XMLID_905_" fill="#9C3665" d="M3465.137,729.209c1.118,0.526,2.893,21.751,0.77,23.859
		c-2.123,2.108-31.274,5.705-31.943,2.337c-0.669-3.367-3.676-22.67-1.74-23.788S3462.441,727.942,3465.137,729.209z"/>
	<path id="XMLID_904_" fill="#9C3665" d="M3467.624,763.191c3.146,0.746,4.905,26.973,3.113,28.08
		c-1.791,1.107-31.534,3.283-33.967,2.485c-2.434-0.798-5.038-27.939-2.06-28.157
		C3437.687,765.381,3467.624,763.191,3467.624,763.191z"/>
	<path id="XMLID_903_" fill="#9C3665" d="M3424.099,766.449c0,0,3.858,26.052,1.993,27.242s-28.527,3.667-30.099,2.202
		c-1.571-1.465-3.334-25.563-1.993-27.242C3395.342,766.973,3421.595,765.579,3424.099,766.449z"/>
	<path id="XMLID_898_" fill="#9C3665" d="M3422.403,731.411c0,0,3.727,25.737,1.957,26.745c-1.77,1.008-31.055,4.322-32.054,2.345
		c-0.999-1.976-3.495-26.093-1.957-26.745C3391.888,733.104,3422.403,731.411,3422.403,731.411z"/>
	<path id="XMLID_897_" fill="#9C3665" d="M3421.718,721.601c0,0-28.925,7.109-30.964,4.818c-2.039-2.291-4.255-29.153-2.825-30.722
		c1.43-1.569,29.069-3.772,31.737-2.134C3422.335,695.201,3421.718,721.601,3421.718,721.601z"/>
	<path id="XMLID_896_" fill="#F2DEE6" d="M3612.699,671.788c0,0-59.562,0.537-61.554,2.909s-3.3,4.196-2.151,8.982
		c1.149,4.786,2.18,26.655,2.75,33.826s2.541,29.231,2.541,29.231s3.457,9.471,3.131-2.715s-3.54-37.902-3.229-42.765
		c0.31-4.863-1.197-19.39-0.923-21.857s0.986-0.386,2.965-1.263c1.979-0.877,24.745-3.156,27.984-2.433
		C3587.451,676.426,3623.293,672.821,3612.699,671.788z"/>
	<path id="XMLID_895_" fill="#F2DEE6" d="M3579.716,719.521c0,0,35.969-2.15,34.915-3.036c-1.054-0.886-17.532,0.547-17.183-0.949
		c0.349-1.496-0.809-15.146-1.627-13.207c-0.818,1.938,1.818,12.799-4.065,13.873S3580.296,717.761,3579.716,719.521z"/>
	<path id="XMLID_894_" fill="#F2DEE6" d="M3582.529,751.876c0,0,35.969-2.15,34.915-3.036s-17.532,0.547-17.183-0.949
		s-0.809-15.146-1.627-13.207s1.818,12.8-4.065,13.873C3588.685,749.63,3583.108,750.115,3582.529,751.876z"/>
	<path id="XMLID_893_" fill="#F2DEE6" d="M3612.063,785.3c0,0-42.781,2.479-49.563,3.148c-6.782,0.67-16.748-1.563-17.215,1.493
		c-0.467,3.056-0.035,10.836,0.935,10.752c0.97-0.084,2.151-8.974,4.85-8.846s44.802-3.537,49.462-3.818
		C3605.191,787.749,3622.037,784.714,3612.063,785.3z"/>
	<path id="XMLID_892_" fill="#F2DEE6" d="M3447.536,796.781c0,0-42.781,2.479-49.563,3.148c-6.782,0.67-16.748-1.563-17.215,1.493
		c-0.467,3.056-0.035,10.836,0.935,10.752c0.97-0.084,2.151-8.974,4.85-8.846c2.698,0.128,44.802-3.537,49.462-3.818
		C3440.664,799.23,3457.51,796.195,3447.536,796.781z"/>
	<path id="XMLID_891_" fill="#F2DEE6" d="M3443.8,679.699c0,0-61.076,5.066-63.068,7.438s-3.3,4.196-2.151,8.982
		s2.18,26.655,2.75,33.826c0.57,7.171,2.542,29.231,2.542,29.231s3.457,9.471,3.13-2.715s-3.54-37.902-3.229-42.765
		c0.31-4.863-1.197-19.39-0.923-21.857s0.986-0.386,2.965-1.263c1.979-0.877,22.961-5.172,28.268-5.634
		C3417.39,684.655,3454.395,680.732,3443.8,679.699z"/>
	<path id="XMLID_890_" fill="#F2DEE6" d="M3409.745,727.451c0,0,35.969-2.15,34.915-3.036s-17.532,0.547-17.183-0.949
		s-0.809-15.146-1.627-13.207c-0.818,1.938,1.818,12.8-4.065,13.873C3415.902,725.205,3410.325,725.69,3409.745,727.451z"/>
	<path id="XMLID_889_" fill="#F2DEE6" d="M3413.933,764.38c0,0,37.917-3.328,36.863-4.214c-1.054-0.886-20.595,0.143-20.247-1.353
		c0.349-1.496-0.572-12.419-1.39-10.481c-0.819,1.938,2.258,11.523-3.625,12.597C3419.652,762.002,3414.513,762.619,3413.933,764.38
		z"/>
	<path id="XMLID_888_" fill="#D85574" d="M3544.703,670.186c0,0,25.944-19.63,31.019-21.674c5.075-2.044,27.128-2.17,36.836,0.732
		c9.708,2.902,27.222,7.975,27.799,11.589s10.322,92.75,3.415,107.787c-0.838,1.825-8.771-106.259-8.771-106.259L3544.703,670.186z"
		/>
	<path id="XMLID_887_" fill="#D85574" d="M3375.89,683.239c0,0-6.68-1.696,0.686-7.711c7.366-6.015,21.65-13.123,36.662-11.861
		c15.012,1.261,29.633-1.964,37.814,2.21c8.18,4.175,21.516,5.83,22.101,6.937c0.585,1.107,4.846,30.785,5.145,36.867
		s-0.226,62.296-0.226,62.296l-9.211-98.793L3375.89,683.239z"/>
	<path id="XMLID_886_" fill="#D85574" d="M3658.285,780.368l1.681,23.304l-96.329,4.281c0,0-2.397,1.717,4.247,3.612
		c6.644,1.895,55.333-2.704,70.633-3.363c15.3-0.659,30.313-0.701,31.116-2.705c0.803-2.004,0.624-4.15-0.8-7.18
		C3667.41,795.287,3658.285,780.368,3658.285,780.368z"/>
	<path id="XMLID_885_" fill="#D85574" d="M3492.823,793.88l1.427,20.603l-87.851,6.994c0,0,16.253,2.925,26.598,2.025
		c6.883-0.598,32.296-2.631,47.596-3.29c15.3-0.659,24.987-1.087,25.79-3.091s-1.843-4.965-3.266-7.995
		C3501.694,806.098,3492.823,793.88,3492.823,793.88z"/>
	<path id="XMLID_884_" fill="#E2667E" d="M3517.582,507.767c0,0,23.716,3.761,33.535,16.054s53.083,25.708,47.094,38.379
		c-5.989,12.671-42.649,2.102-55.352-5.393s-33.665-5.728-43.472-28.852C3495.13,517.917,3502.98,503.806,3517.582,507.767z"/>
	<path id="XMLID_883_" fill="#E2667E" d="M3582.472,851.014c-20.539-14.654-82.747,6.595-100.543,8.741
		c-17.796,2.147-32.41-7.372-35.696,3.103c-3.285,10.476-4.191,20.745,18.236,23.59s8.907,7.618,34.575,8.983
		c25.668,1.365,74.763-19.989,90.735-15.532c15.973,4.457,47.271-9.654,40.093-12.027c-7.177-2.373-24.379-14.066-28.44-12.513
		C3597.371,856.912,3588.386,855.233,3582.472,851.014z"/>
	<path id="XMLID_882_" fill="#E2667E" d="M3710.025,705.053c0,0,2.146,2.548,9.526,4.216c7.38,1.668,24.724,1.587,27.656,7.837
		c2.931,6.25,9.958,4.229,11.174,11.317c1.216,7.087,15.21,70.459,15.21,70.459l-10.417-100.185L3710.025,705.053"/>
	<path id="XMLID_881_" fill="#0B051B" d="M3626.35,689.287l1.697,19.042c0.06,0.826-1.736,3.244-2.764,3.32l-23.251,1.721
		c-1.029,0.076-1.911-0.532-1.97-1.359l-2.156-24.194c-0.06-0.826,0.97-3.928,1.999-4.004l20.701-1.532
		C3623.042,682.1,3625.986,685.2,3626.35,689.287z"/>
	<path id="XMLID_880_" fill="#0B051B" d="M3587.536,685.941l2.128,27.873l-29.689,2.711c0,0-3.556-27.836-2.121-28.986
		C3558.9,686.702,3587.536,685.941,3587.536,685.941z"/>
	<path id="XMLID_879_" fill="#0B051B" d="M3590.082,725.912l2.009,17.316c0.162,2.22-2.298,3.994-4.335,5.338l-25.142,3.007
		l-1.721-23.525L3590.082,725.912z"/>
	<polygon id="XMLID_878_" fill="#0B051B" points="3627.046,721.599 3628.701,744.593 3603.72,747.318 3602.064,724.323 	"/>
	<path id="XMLID_877_" fill="#0B051B" d="M3629.104,755.543l2.717,24.523l-27.251,2.306c0,0-4.54-18.939-1.761-24.885
		C3603.344,756.342,3629.104,755.543,3629.104,755.543z"/>
	<path id="XMLID_876_" fill="#0B051B" d="M3562.305,761.016l29.989-2.194l1.6,24.063c0,0-29.279,3.361-29.928,0.826
		C3563.316,781.175,3559.725,763.788,3562.305,761.016z"/>
	<path id="XMLID_875_" fill="#0B051B" d="M3458.523,692.686c2.476,0.193,4.569,27.456,2.086,28.506
		c-2.483,1.05-25.303,4.022-27.707,2.027c-2.405-1.995-4.465-23.99-1.959-26.778S3455.646,692.462,3458.523,692.686z"/>
	<path id="XMLID_874_" fill="#0B051B" d="M3462.378,733.303c1.031,0.441,2.557,18.489,0.582,20.293s-28.951,5.023-29.552,2.162
		s-3.276-19.266-1.48-20.227C3433.724,734.57,3459.892,732.24,3462.378,733.303z"/>
	<path id="XMLID_873_" fill="#0B051B" d="M3464.944,767.418c2.973,0.639,4.504,23.643,2.804,24.623
		c-1.7,0.981-29.854,3.041-32.153,2.353c-2.299-0.688-4.625-24.49-1.807-24.696S3464.944,767.418,3464.944,767.418z"/>
	<path id="XMLID_872_" fill="#0B051B" d="M3421.337,770.546c0,0,3.471,22.48,1.721,23.517c-1.751,1.037-26.701,3.318-28.164,2.061
		c-1.462-1.257-2.984-22.061-1.721-23.517S3419,769.807,3421.337,770.546z"/>
	<path id="XMLID_871_" fill="#0B051B" d="M3419.654,735.612c0,0,3.344,22.36,1.701,23.244s-28.768,3.886-29.684,2.172
		c-0.917-1.714-3.128-22.67-1.701-23.244C3391.396,737.211,3419.654,735.612,3419.654,735.612z"/>
	<path id="XMLID_870_" fill="#0B051B" d="M3418.736,722.221c0,0-26.637,6.328-28.506,4.324c-1.869-2.004-3.823-25.562-2.502-26.943
		c1.321-1.381,26.759-3.401,29.209-1.972S3418.736,722.221,3418.736,722.221z"/>
	<polygon id="XMLID_869_" fill="#5E0A2B" points="3375.63,467.562 3302.35,545.315 3312.293,569.206 3388.878,456.61 	"/>
	<polygon id="XMLID_868_" fill="#CD456C" points="3283.708,500.549 3266.05,552.433 3274.391,478.481 	"/>
	<polygon id="XMLID_867_" fill="#D85574" points="3293.413,524.054 3274.97,566.946 3282.048,608.946 3277.264,621.145 
		3266.05,552.433 3283.708,500.549 	"/>
	<polygon id="XMLID_866_" fill="#C12C5E" points="3298.943,587.659 3293.413,524.054 3274.559,541.356 3286.175,605.413 	"/>
	<polygon id="XMLID_865_" fill="#0B051B" points="3298.943,587.659 3294.26,533.799 3281.091,546.933 3290.584,599.27 	"/>
	<path id="XMLID_864_" fill="#090518" d="M3461.911,338.196l7.721,6.072l-8.813-136.946c18.597-3.271,22.829-39.605,22.829-39.605
		c-10.545,11.706-34.472,12.006-33.45,7.422c1.004-4.583-0.474-19.308-13.123-20.007s-12.401,12.741-12.401,12.741l-12.088,4.674
		c0,0,10.051,1.842,10.652,3.588c0.601,1.746,8.051,4.695,8.051,4.695s0.349,4.016,0.892,10.263
		c0.469,5.39,7.591,15.956,21.448,16.694L3461.911,338.196z"/>
	<path id="XMLID_863_" fill="#D33D6F" d="M3812.27,881.986l2.741,31.531l-99.132,8.619c0,0-0.466,8.432-10.76,14.123
		c-10.295,5.69-26.772,2.328-30.057-14.77c-3.285-17.098,8.64-24.728,21.082-26.409
		C3708.585,893.399,3812.27,881.986,3812.27,881.986z"/>
	<path id="XMLID_862_" fill="#D33D6F" d="M3404.999,953.027c0,0,0.912,15.765,15.889,15.662c14.977-0.103,32.308-14.485,23.94-34.9
		c-8.369-20.415-30.15-11.54-44.429-10.299s-244.739,20.174-244.739,20.174l2.845,29.523L3404.999,953.027z"/>
	<path id="XMLID_861_" fill="#AD1C55" d="M3815.322,917.087l-1.046-35.275c0,0-11.523,1.901-16.671,4.746
		c-5.147,2.845-19.142,14.252-31.583,15.933c-12.442,1.681-30.522,7.449-35.554,8.186c-5.031,0.737-11.9,2.744-11.9,2.744
		s-8.29-12.977-19.664-8.991c-7.46,2.615-11.696,8.535-9.511,12.978c2.185,4.443,4.677,7.476,6.666,7.72
		c4.451,0.545-0.394-4.531-0.226-6.044s2.298-10.919,6.937-9.559c4.639,1.36,9.981,1.84,11.545,7.226s1.564,5.386,1.564,5.386
		L3815.322,917.087z"/>
	<path id="XMLID_860_" fill="#961349" d="M3704.138,914.676c0,0,1.58-0.048,3.264,4.301c1.684,4.349,1.836,7.333-0.632,9.346
		c-2.469,2.013,5.692,1.303,6.655-2.377c0.964-3.68-0.883-10.158-5.159-11.562S3705.197,913.234,3704.138,914.676z"/>
	<path id="XMLID_859_" fill="#EE86AF" d="M3704.138,914.676c0,0,5.457,5.354,5.2,9.297s-4.434,6.024-4.003,4.475
		C3706.874,922.919,3706.075,916.306,3704.138,914.676z"/>
	<path id="XMLID_858_" fill="#891241" d="M3783.862,907.745c6.371-2.563,20.015-7.645,23.624-10.956
		c3.608-3.311,7.062-5.783,7.062-5.783l0.773,26.082l-99.442,5.049l-0.931-3.205c20.034-0.543,44.646-4.192,50.815-5.627
		S3783.862,907.745,3783.862,907.745z"/>
	<path id="XMLID_857_" fill="#891241" d="M3711.331,912.549c0,0-5.458-3.442-9.081-2.25s-4.796,2.645-5.489,5.085
		c-0.692,2.441,0.246,6.865,0.687,7.905c0.441,1.04-2.289-1.599-2.541-2.776s-1.461-6.467,1.293-9.254
		c2.755-2.787,5.81-3.053,8.909-2.273S3711.331,912.549,3711.331,912.549z"/>
	<path id="XMLID_856_" fill="#EE86AF" d="M3684.956,900.841c0,0-8.581,6.448-8.878,13.367c-0.298,6.919,2.842,15.453,5.64,17.475
		c2.798,2.022,9.219,5.21,12.492,4.926c3.272-0.284-12.064-3.688-14.658-13.471c-3.811-14.367,4.377-22.051,6.744-22.406
		C3688.662,900.376,3684.956,900.841,3684.956,900.841z"/>
	<path id="XMLID_855_" fill="#AD1C55" d="M3158.505,973.186l-2.845-29.523c0,0,122.703-11.292,128.265-9.378
		s45.621,14.101,58.166,13.609c12.545-0.491,40.924,1.87,46.006,1.727c5.083-0.142,13.138-2.716,13.138-2.716
		s3.977-16.305,17.427-14.25c7.815,1.194,12.993,6.388,11.608,11.142s-3.316,8.171-5.233,8.754
		c-4.291,1.305,0.678-2.011,0.661-6.087c-0.017-3.938-5.229-9.095-9.964-8.124c-5.701,1.169-9.514,3.535-10.125,9.11
		c-0.611,5.575-0.611,5.575-0.611,5.575L3158.505,973.186z"/>
	<path id="XMLID_854_" fill="#961349" d="M3418.846,943.342c0,0-4.019,1.372-4.927,5.947s0.766,6.902,3.545,8.458
		c2.779,1.557-4.236,1.758-5.82-1.701s-2.25-9.131,1.719-11.252C3417.332,942.672,3415.409,943.667,3418.846,943.342z"/>
	<path id="XMLID_853_" fill="#EE86AF" d="M3414.123,944.151c0,0-5.921,3.499-5.355,9.566c0.366,3.935,7.221,5.392,5.891,4.488
		C3406.812,952.872,3412.497,946.091,3414.123,944.151z"/>
	<path id="XMLID_852_" fill="#891241" d="M3335.552,950.583c-6.718-1.425-83.62-4.645-88.284-6.14
		c-31.447-10.077-90.927,3.861-90.927,3.861l2.163,24.882l246.493-20.16l0.865-7.036c-4.938,5.101-9.9,6.207-16.224,5.858
		C3383.315,951.5,3335.552,950.583,3335.552,950.583z"/>
	<path id="XMLID_851_" fill="#891241" d="M3410.557,933.898c0,0,5.857-1.48,9.631-0.931s6.805,5.166,7.907,7.451
		c1.103,2.285-0.005,8.252-0.26,9.353c-0.255,1.1,2.926-4.712,2.971-5.915c0.045-1.203-0.569-6.813-3.764-9.083
		s-6.607-2.95-9.802-2.857C3413.205,932.033,3410.557,933.898,3410.557,933.898z"/>
	<path id="XMLID_850_" fill="#EE86AF" d="M3424.049,928.402c3.877,0.064,11.215,2.135,12.702,8.899
		c1.487,6.764-0.235,12.928-2.642,15.402c-2.407,2.475-8.552,6.252-11.824,6.537c-3.272,0.284,12.538-5.687,12.114-15.798
		c-0.76-18.121-19.984-13.49-22.376-13.432S3421.088,928.353,3424.049,928.402z"/>
	<path id="XMLID_849_" fill="#CD456C" d="M3544.703,670.186c0,0,66.06-5.655,72.359-6.291c6.299-0.636,17.939-1.534,17.939-1.534
		l7.523,95.757c0,0,3.065,2.089-4.703-98.041c0,0-19.123-3.175-44.164-1.779C3568.615,659.693,3544.703,670.186,3544.703,670.186z"
		/>
	<path id="XMLID_848_" fill="#CD456C" d="M3375.89,683.239c0,0,34.136-6.938,45.666-8.202c12.17-1.334,48.931-1.992,48.931-1.992
		l6.367,85.864l-9.753-82.66L3375.89,683.239z"/>
</g>
<g id="Layer_1">
</g>
</svg>
