<?xml version="1.0" encoding="utf-8"?>
<!-- Generator: Adobe Illustrator 19.0.0, SVG Export Plug-In . SVG Version: 6.00 Build 0)  -->
<!DOCTYPE svg PUBLIC "-//W3C//DTD SVG 1.1//EN" "http://www.w3.org/Graphics/SVG/1.1/DTD/svg11.dtd">
<svg version="1.1" xmlns="http://www.w3.org/2000/svg" xmlns:xlink="http://www.w3.org/1999/xlink" x="0px" y="0px"
	 viewBox="0 0 9870.104 2778.383" enable-background="new 0 0 9870.104 2778.383" xml:space="preserve">
<g id="top_x5F_floor_x5F_pieces">
	<polygon id="XMLID_774_" fill="#77220C" points="3685.651,921.822 3488.336,944.891 3488.113,943.698 3685.625,920.313 	"/>
	<polygon id="XMLID_773_" fill="#77220C" points="3655.453,916.627 3659.7,954.764 3658.524,955.064 3653.949,916.751 	"/>
	<polygon id="XMLID_772_" fill="#77220C" points="3628.054,906.842 3630.92,931.976 3629.744,932.276 3626.55,906.966 	"/>
	<polygon id="XMLID_771_" fill="#77220C" points="3604.655,920.513 3608.902,958.65 3607.726,958.95 3603.151,920.637 	"/>
	<polygon id="XMLID_770_" fill="#77220C" points="3579.727,923.47 3582.17,945.726 3580.994,946.026 3578.223,923.594 	"/>
	<polygon id="XMLID_769_" fill="#77220C" points="3553.143,926.046 3557.895,946.488 3556.724,946.633 3551.641,926.092 	"/>
	<polygon id="XMLID_768_" fill="#77220C" points="3527.886,928.827 3532.134,966.964 3530.958,967.264 3526.382,928.951 	"/>
	<polygon id="XMLID_767_" fill="#77220C" points="3505.573,933.862 3509.821,971.998 3508.645,972.298 3504.069,933.986 	"/>
	<polygon id="XMLID_766_" fill="#77220C" points="3681.761,912.043 3686.008,950.179 3684.833,950.479 3680.257,912.167 	"/>
	<polygon id="XMLID_765_" fill="#77220C" points="3688.522,943.913 3600.92,953.976 3600.697,952.783 3688.496,942.404 	"/>
	<path id="XMLID_762_" fill="#D85574" d="M3640.735,918.838c0,0-3.027,0.914-4.241,2.547c-1.214,1.633-2.908,2.585-4.093,3.218
		c-1.185,0.633-2.704,1.257-3.203,1.242c-0.5-0.014-3.775-2.109-3.775-2.109l0.376-1.49l-2.156-0.395l-3.47-1.099l-0.481-0.681
		l20.939-3.404C3640.63,916.668,3642.243,918.548,3640.735,918.838z"/>
	<path id="XMLID_761_" fill="#D85574" d="M3585.289,926.644l2.22-1.849c0,0,1.021-0.736-0.306-0.965
		c-1.327-0.229-3.01,0.297-4.009,0.268c-1-0.029-5.148-0.721-5.998-0.171c-0.849,0.549-4.037,1.223-4.037,1.223
		s-2.026,0.898-1.038,1.309c0.989,0.411,5.282,1.872,5.948,1.891c0.667,0.019,0.268,2.303,2.122,1.591
		c1.854-0.712,2.687-0.688,3.053-1.825C3583.613,926.978,3585.289,926.644,3585.289,926.644z"/>
	<path id="XMLID_760_" fill="#D85574" d="M3656.717,951.196c0,0-2.018,0.609-2.332-0.067s-1.442-2.042-2.104-2.228
		s-3.137-1.09-3.137-1.09s0.714-1.647,1.447-3.96s1.123-4.303,1.009-6.14s1.78-3.951,1.78-3.951s0.638,1.019,1.285,1.704
		s2.399,3.57,3.708,4.441c1.309,0.871,2.404,3.403,5.398,3.655c2.994,0.252,7.131,1.371,7.131,1.371l-1.585,2.956
		C3669.316,947.887,3658.073,950.401,3656.717,951.196z"/>
	<path id="XMLID_759_" fill="#BC3462" d="M3668.158,947.671l-11.441,3.525c0,0-1.982,0.809-2.332-0.067
		c-0.351-0.875-1.895-2.149-2.762-2.525c-0.867-0.376,0.927-1.73,2.482-0.807c1.554,0.922,4.202,0.471,5.089,0.145
		s4.081-1.464,6.363-1.399C3667.837,946.608,3668.158,947.671,3668.158,947.671"/>
	<path id="XMLID_758_" fill="#EE7587" d="M3652.284,943.881c0,0,1.424-0.662,0.932-1.905c-0.491-1.243-0.617-3.003-0.426-3.525
		c0.191-0.521,0.772-2.437,0.772-2.437l-0.182-2.254c0,0-1.738,1.848-1.753,2.375c-0.015,0.526-0.276,3.505-0.306,4.558
		c-0.03,1.053-0.73,3.159-0.73,3.159L3652.284,943.881z"/>
	<polygon id="XMLID_776_" fill="#77220C" points="3778.002,914.983 3772.555,952.967 3771.342,952.963 3776.515,914.726 	"/>
	<polygon id="XMLID_775_" fill="#77220C" points="3750.886,890.16 3755.134,928.297 3753.958,928.597 3749.382,890.284 	"/>
	<path id="XMLID_777_" fill="#77220C" d="M3716.963,912.539c1.041,21.188,16.431,34.677,16.431,34.677l-1.014,0.666
		c0,0-13.709-9.489-16.799-34.736C3715.535,912.771,3716.944,912.162,3716.963,912.539z"/>
	<path id="XMLID_778_" fill="#891241" d="M3786.735,917.755c0,0-3.027,0.914-4.241,2.547c-1.214,1.633-2.908,2.585-4.093,3.218
		c-1.185,0.633-2.704,1.257-3.203,1.242c-0.5-0.014-3.775-2.109-3.775-2.109l0.376-1.49l-2.156-0.395l-3.47-1.099l-0.481-0.681
		l20.939-3.404C3786.63,915.584,3788.243,917.464,3786.735,917.755z"/>
	<polygon id="XMLID_1242_" fill="#77220C" points="3367.786,953.794 3372.033,991.931 3370.858,992.231 3366.282,953.918 	"/>
	<polygon id="XMLID_1240_" fill="#77220C" points="3316.988,957.68 3321.235,995.817 3320.06,996.117 3315.484,957.804 	"/>
	<polygon id="XMLID_1235_" fill="#77220C" points="3394.094,949.209 3398.342,987.346 3397.166,987.646 3392.59,949.333 	"/>
	<polygon id="XMLID_1234_" fill="#77220C" points="3400.855,981.08 3313.253,991.143 3313.03,989.95 3400.83,979.571 	"/>
	<path id="XMLID_1231_" fill="#D85574" d="M3369.05,988.363c0,0-2.018,0.609-2.333-0.067s-1.442-2.042-2.104-2.228
		s-3.137-1.09-3.137-1.09s0.714-1.647,1.447-3.96c0.733-2.313,1.123-4.303,1.009-6.14c-0.115-1.837,1.78-3.951,1.78-3.951
		s0.638,1.019,1.285,1.704c0.647,0.685,2.399,3.57,3.708,4.441s2.404,3.403,5.398,3.655c2.994,0.252,7.13,1.371,7.13,1.371
		l-1.585,2.956C3381.65,985.054,3370.407,987.568,3369.05,988.363z"/>
	<path id="XMLID_1230_" fill="#BC3462" d="M3380.491,984.838l-11.441,3.525c0,0-1.982,0.809-2.333-0.067
		c-0.351-0.875-1.895-2.149-2.762-2.525c-0.867-0.376,0.927-1.73,2.482-0.807c1.554,0.923,4.202,0.471,5.089,0.145
		c0.887-0.326,4.081-1.464,6.363-1.399C3380.17,983.775,3380.491,984.838,3380.491,984.838"/>
	<path id="XMLID_1228_" fill="#EE7587" d="M3364.617,981.048c0,0,1.424-0.662,0.933-1.905c-0.491-1.243-0.617-3.003-0.426-3.525
		c0.19-0.521,0.772-2.437,0.772-2.437l-0.182-2.254c0,0-1.738,1.848-1.753,2.375c-0.015,0.526-0.276,3.505-0.306,4.558
		s-0.73,3.159-0.73,3.159L3364.617,981.048z"/>
	<polygon id="XMLID_1227_" fill="#77220C" points="3461.335,938.983 3455.889,976.967 3454.676,976.963 3459.848,938.726 	"/>
	<polygon id="XMLID_1220_" fill="#77220C" points="3340.72,956.827 3344.967,994.964 3343.791,995.264 3339.216,956.951 	"/>
	<path id="XMLID_1218_" fill="#77220C" d="M3480.296,937.872c1.041,21.188,16.431,34.677,16.431,34.677l-1.014,0.666
		c0,0-13.709-9.489-16.799-34.736C3478.868,938.104,3480.277,937.495,3480.296,937.872z"/>
	<path id="XMLID_1200_" fill="#891241" d="M3469.735,941.255c0,0-3.027,0.914-4.241,2.547c-1.214,1.633-2.908,2.585-4.094,3.218
		c-1.185,0.633-2.704,1.257-3.203,1.242c-0.5-0.014-3.775-2.109-3.775-2.109l0.376-1.49l-2.156-0.395l-3.47-1.099l-0.481-0.681
		l20.939-3.404C3469.63,939.084,3471.243,940.964,3469.735,941.255z"/>
</g>
<g id="Layer_1">
</g>
</svg>
