<?xml version="1.0" encoding="utf-8"?>
<!-- Generator: Adobe Illustrator 19.0.0, SVG Export Plug-In . SVG Version: 6.00 Build 0)  -->
<!DOCTYPE svg PUBLIC "-//W3C//DTD SVG 1.1//EN" "http://www.w3.org/Graphics/SVG/1.1/DTD/svg11.dtd">
<svg version="1.1" xmlns="http://www.w3.org/2000/svg" xmlns:xlink="http://www.w3.org/1999/xlink" x="0px" y="0px"
	 viewBox="0 0 9870.104 2778.383" enable-background="new 0 0 9870.104 2778.383" xml:space="preserve">
<g id="trailer">
	<path id="XMLID_1783_" fill="#845164" d="M3659.911,2050.298l170.84-14.853c-5.468-3.733-10.294-7.953-13.173-12.522
		c-5.508-8.746-13.067-18.951-18.986-26.636l-147.888,12.858l26.579-0.405c0,0-35.399,20.377-36.641,24.082
		C3639.999,2034.729,3650.038,2042.848,3659.911,2050.298z"/>
	<path id="XMLID_1782_" fill="#996D7E" d="M3802.673,2035.914c0,0-25.041-3.613-55.097-4.597
		c-30.057-0.983-88.355-2.747-88.332,0.967c0.023,3.714,10.14,2.863,8.378,10.181c-1.761,7.318-1.761,7.318-1.761,7.318
		L3802.673,2035.914z"/>
	<path id="XMLID_1781_" fill="#733D50" d="M3798.592,1996.287c5.919,7.686,13.478,17.89,18.986,26.636
		c2.879,4.569,7.706,8.789,13.173,12.522l21.435-1.864c6.246,1.309,6.5-42.519,6.5-42.519L3798.592,1996.287z"/>
	<path id="XMLID_1780_" fill="#403844" d="M3978.01,2002.626c0,0-1.356-9.914-9.403-9.379s-13.158-0.254-14.81,3.296
		c-1.652,3.55-3.589,14.982-3.589,14.982l-94.204,5.099c0,0-0.958,5.456,0.203,5.111c1.161-0.345,58.087-2.612,58.208-3.562
		c0.121-0.95-63.599,11.31-63.599,11.31l0.157,3.972l101.215-17.227c0,0,0.13-4.402,2.967-8.075S3978.01,2002.626,3978.01,2002.626z
		"/>
	<path id="XMLID_1779_" fill="#602D41" d="M3798.592,1996.287c5.919,7.686,19.708,4.221,25.215,12.967
		c2.879,4.569,11.797,0.612,17.264,4.345l11.115,19.982c6.246,1.309,6.5-42.519,6.5-42.519L3798.592,1996.287z"/>
	<path id="XMLID_1778_" fill="#733D50" d="M3555.861,2017.39c0,0,2.43,27.95,2.971,34.179c0.54,6.211,3.022,7.254,3.022,7.254
		l98.056-8.525c-9.873-7.45-19.912-15.568-19.269-17.476c1.242-3.705,42.777-26.595,42.777-26.595l-32.716,2.918L3555.861,2017.39z"
		/>
	<path id="XMLID_1777_" fill="#602D41" d="M3555.861,2017.39c0,0,2.43,27.95,2.971,34.179c0.54,6.211,3.022,7.254,3.022,7.254
		l43.45-5.75c-9.873-7.45-4.788-10.715-4.145-12.623c1.242-3.705,34.056-10.603,34.056-10.603l15.488-20.702L3555.861,2017.39z"/>
	<path id="XMLID_1775_" fill="#28233D" d="M3825.895,2031.969c0.107-0.009,0.212-0.004,0.319-0.01
		c-0.113,0.006-0.224,0.003-0.337,0.012C3825.883,2031.971,3825.889,2031.97,3825.895,2031.969z"/>
	<path id="XMLID_1771_" fill="#28233D" d="M3828.111,2057.301c-0.007,0.001-0.015,0-0.022,0.001c0.14-0.012,0.274-0.041,0.412-0.057
		C3828.371,2057.261,3828.244,2057.29,3828.111,2057.301z"/>
	<path id="XMLID_1766_" fill="#28233D" d="M3644.162,2073.294c-0.007,0-0.015,0-0.021,0c0.14-0.012,0.274-0.04,0.412-0.057
		C3644.422,2073.254,3644.295,2073.283,3644.162,2073.294z"/>
	<path id="XMLID_1761_" fill="#28233D" d="M3590.023,2078.001c-0.007,0.001-0.015,0-0.022,0.001c0.14-0.012,0.274-0.041,0.412-0.057
		C3590.283,2077.961,3590.156,2077.99,3590.023,2078.001z"/>
</g>
<g id="Layer_1">
</g>
</svg>
