<?xml version="1.0" encoding="utf-8"?>
<!-- Generator: Adobe Illustrator 19.0.0, SVG Export Plug-In . SVG Version: 6.00 Build 0)  -->
<!DOCTYPE svg PUBLIC "-//W3C//DTD SVG 1.1//EN" "http://www.w3.org/Graphics/SVG/1.1/DTD/svg11.dtd">
<svg version="1.1" xmlns="http://www.w3.org/2000/svg" xmlns:xlink="http://www.w3.org/1999/xlink" x="0px" y="0px"
	 viewBox="0 0 9870.104 2778.383" enable-background="new 0 0 9870.104 2778.383" xml:space="preserve">
<g id="trailer_x5F_tire3">
	<circle id="XMLID_1641_" fill="#0B051B" cx="3826.843" cy="2043.307" r="22.394"/>
	<path id="XMLID_1640_" fill="#CD456C" d="M3812.85,2044.524c-0.672-7.723,5.038-14.528,12.757-15.212
		c0.156-0.013,0.309-0.01,0.464-0.019c7.547-0.421,14.116,5.214,14.775,12.797c0.659,7.583-4.839,14.267-12.345,15.155
		c-0.155,0.018-0.305,0.047-0.46,0.061C3820.32,2057.964,3813.522,2052.247,3812.85,2044.524z"/>
	<path id="XMLID_1639_" fill="#891241" d="M3817.107,2050.344c4.199,6.348,11.342,8.443,17.114,4.906
		c-6.43,3.972-14.893,2.157-19.092-4.192c-4.199-6.348-2.991-14.868,4.402-19.745
		C3813.88,2035.042,3812.908,2043.996,3817.107,2050.344z"/>
	<path id="XMLID_1638_" fill="#EFBACE" d="M3834.6,2055.026c-0.007,0.004-0.014,0.008-0.021,0.012
		c5.781-3.84,5.817-12.473,2.121-18.248c-4.178-6.529-11.827-9.006-17.623-5.188c0.007-0.005,0.013-0.01,0.02-0.014
		c6.472-4.281,15.19-2.505,19.471,3.968C3842.849,2042.027,3841.073,2050.745,3834.6,2055.026z"/>
</g>
<g id="Layer_1">
</g>
</svg>
