<?xml version="1.0" encoding="utf-8"?>
<!-- Generator: Adobe Illustrator 19.0.0, SVG Export Plug-In . SVG Version: 6.00 Build 0)  -->
<!DOCTYPE svg PUBLIC "-//W3C//DTD SVG 1.1//EN" "http://www.w3.org/Graphics/SVG/1.1/DTD/svg11.dtd">
<svg version="1.1" xmlns="http://www.w3.org/2000/svg" xmlns:xlink="http://www.w3.org/1999/xlink" x="0px" y="0px"
	 viewBox="0 0 9870.104 2778.383" enable-background="new 0 0 9870.104 2778.383" xml:space="preserve">
<g id="trailer_x5F_tire2">
	<circle id="XMLID_1770_" fill="#0B051B" cx="3642.894" cy="2059.3" r="22.394"/>
	<path id="XMLID_1769_" fill="#CD456C" d="M3628.901,2060.517c-0.671-7.723,5.038-14.528,12.757-15.212
		c0.156-0.013,0.309-0.01,0.464-0.019c7.547-0.421,14.116,5.214,14.775,12.797c0.659,7.583-4.839,14.267-12.345,15.155
		c-0.155,0.018-0.305,0.047-0.461,0.061C3636.371,2073.957,3629.573,2068.24,3628.901,2060.517z"/>
	<path id="XMLID_1768_" fill="#891241" d="M3633.158,2066.337c4.199,6.349,11.342,8.443,17.114,4.906
		c-6.43,3.972-14.893,2.157-19.092-4.192c-4.199-6.349-2.991-14.869,4.401-19.745
		C3629.93,2051.035,3628.959,2059.989,3633.158,2066.337z"/>
	<path id="XMLID_1767_" fill="#EFBACE" d="M3650.651,2071.019c-0.007,0.005-0.014,0.008-0.021,0.012
		c5.781-3.84,5.817-12.472,2.121-18.248c-4.178-6.53-11.827-9.006-17.623-5.188c0.007-0.005,0.013-0.01,0.02-0.014
		c6.472-4.281,15.19-2.505,19.471,3.968S3657.124,2066.738,3650.651,2071.019z"/>
</g>
<g id="Layer_1">
</g>
</svg>
