<?xml version="1.0" encoding="utf-8"?>
<!-- Generator: Adobe Illustrator 19.0.0, SVG Export Plug-In . SVG Version: 6.00 Build 0)  -->
<!DOCTYPE svg PUBLIC "-//W3C//DTD SVG 1.1//EN" "http://www.w3.org/Graphics/SVG/1.1/DTD/svg11.dtd">
<svg version="1.1" xmlns="http://www.w3.org/2000/svg" xmlns:xlink="http://www.w3.org/1999/xlink" x="0px" y="0px"
	 viewBox="0 0 9870.104 2778.383" enable-background="new 0 0 9870.104 2778.383" xml:space="preserve">
<g id="trailer_x5F_pieces">
	<polygon id="XMLID_493_" fill="#9B6286" points="3814.464,1979.192 3816.989,1989.333 3793.533,1991.353 3791.922,1981.271 	"/>
	<path id="XMLID_491_" fill="#CE99B6" d="M3793.265,1985.875c0,0,1.216-1.012,1.337-1.468s1.342-1.811,1.745-1.976
		c0.403-0.166,1.372,0.077,3.44-0.522c2.068-0.599,9.575-1.576,9.575-1.576s1.496-0.607,0.981-0.615s-18.043,1.681-18.043,1.681
		s0.023,2.346,0.296,3.208S3792.637,1985.752,3793.265,1985.875z"/>
	<polygon id="XMLID_452_" fill="#A87696" points="3831.673,1993.564 3829.968,1984.951 3804.198,1987.789 3806.119,1996.709 	"/>
	<polygon id="XMLID_451_" fill="#723F64" points="3858.42,1991.059 3857.67,1982.476 3829.968,1984.951 3832.057,1995.348 	"/>
	<polyline id="XMLID_501_" fill="#3F0E68" points="3784.17,1992.643 3781.586,1966.556 3780.586,1966.308 3783.003,1992.519 
		3784.17,1992.643 	"/>
	<polyline id="XMLID_498_" fill="#661F82" points="3783.67,1992.394 3781.086,1966.308 3780.086,1966.059 3782.503,1992.27 
		3783.67,1992.394 	"/>
	<polygon id="XMLID_450_" fill="#874D74" points="3804.198,1987.789 3806.756,1997.921 3782.003,1999.893 3781.253,1990.226 	"/>
	<polygon id="XMLID_426_" fill="#9B678B" points="3816.848,1986.503 3815.42,1978.726 3838.67,1975.851 3840.105,1983.512 	"/>
	<path id="XMLID_425_" fill="#AF75A1" d="M3783.021,1994.543c0,0,1.213-1.016,1.332-1.472c0.12-0.456,1.336-1.815,1.739-1.982
		c0.402-0.167,1.372,0.073,3.438-0.533c2.066-0.606,9.57-1.608,9.57-1.608s1.494-0.612,0.979-0.618
		c-0.515-0.006-18.242,1.98-18.242,1.98s-0.193,2.306,0.083,3.167C3782.196,1994.337,3782.393,1994.422,3783.021,1994.543z"/>
	<polyline id="XMLID_496_" fill="#3F0E68" points="3850.17,1984.643 3847.586,1967.143 3846.586,1966.976 3849.003,1984.559 
		3850.17,1984.643 	"/>
	<polyline id="XMLID_497_" fill="#661F82" points="3849.67,1984.476 3847.086,1966.976 3846.086,1966.809 3848.503,1984.393 
		3849.67,1984.476 	"/>
	<path id="XMLID_423_" fill="#874D74" d="M3858.384,1991.619l-0.714-8.476c0,0,0.283-0.435,0-0.667
		c-0.283-0.232-2.663,0.262-3.75,0.25c-1.086-0.012-8.083,0.75-8.083,0.75s-0.115,2.123,4.583,1.375
		c4.699-0.748,4.346,3.009,2.739,3.506c-1.607,0.497-8.332-1.696-11.198-1.156c-2.866,0.54-8.831,2.017-8.831,2.017
		s0.919-0.39,0.019-1.659c-0.901-1.268-2.728-1.575-2.728-1.575l0.432,7.326L3858.384,1991.619L3858.384,1991.619z"/>
	<path id="XMLID_421_" fill="#ECD3DE" d="M3841.836,1984.309c0,0-2.566,0.415-3.083,0.667c-0.518,0.251-3.455-0.424-4.315-0.262
		c-0.86,0.162-3.233,0.164-3.233,0.164s-0.769-0.266-0.519,0.337c0.251,0.603,0.948-0.333,1.006,2.07
		c0.059,2.403,0.384,3.951,0.547,4.725c0.163,0.774,0.595,0.521,0.852,0.524c0.257,0.003,5.329-0.798,6.443-0.699
		s3.009-0.567,4.211-0.639c1.202-0.072,4.207-0.21,5.751-0.278c1.545-0.068,3.432,0.039,4.55-0.206
		c1.118-0.245,4.859,0.284,4.859,0.284l-77.569,6.814c0,0,1.431-1.124,2.203-1.115c0.772,0.009,4.72-0.118,5.493-0.195
		c0.773-0.077,5.585-0.709,6.185-0.702c0.601,0.007,7.298-0.432,8.415-0.591c1.117-0.159,1.637-0.582,1.637-0.582
		s-0.16-1.031-0.495-1.722c-0.335-0.69,0.178-0.599,0.016-1.458c-0.162-0.86-0.588-1.122-0.838-1.725
		c-0.251-0.604-1.363-2.755-0.658-2.741c9.5,0.188,1.882,0.696,1.882,0.696s-0.009,0.772,0.151,1.803s0.406,2.064,0.65,3.182
		c0.245,1.118,0.84,1.554,0.923,1.812c0.083,0.258,1.026,0.269,1.37,0.273c0.343,0.004,11.511-1.243,12.372-1.49
		c0.861-0.248,2.416-1.174,2.416-1.174s1.622,0.705,1.88,0.708s0.768,0.352,1.628,0.19c0.86-0.162,3.264-0.306,3.264-0.306
		s1.031-0.16,0.948-0.418c-0.083-0.258-0.427-0.176-0.758-1.296c-0.331-1.119-0.243-1.29-0.236-1.89
		c0.007-0.601,0.002-0.172,0.011-0.944c0.009-0.772-0.16-1.031-0.412-1.549c-0.251-0.518-0.33-1.205-0.844-1.211
		c-0.515-0.006-6.01,0.361-6.354,0.443c-0.344,0.082-8.141,1.109-8.141,1.109s2.207-0.573,2.375-1.188
		c0.113-0.411-1.158-2.144-0.048-1.703s1.184,1.558,2.042,1.482c0.859-0.076,1.808-0.58,1.808-0.58s1.973,0.022,2.832-0.054
		c0.859-0.076,3.522-0.389,4.04-0.641s1.723-0.667,2.408-0.488c0.684,0.179,2.657,0.202,3.519-0.132
		c0.862-0.333,1.29-0.243,2.065-0.491c0.775-0.249,1.562-1.527,2.599-2.201c1.037-0.675,2.214,1.512,2.214,1.512
		s-0.825,0.696-0.229,1.046c0.597,0.35,3.434-0.339,1.75,0.25L3841.836,1984.309z"/>
	<path id="XMLID_418_" fill="#C193AF" d="M3816.66,1981.356c0,0-0.38-1.777-0.264-1.948s2.291-0.26,2.865-0.482
		c0.574-0.222,8.075-0.938,9.05-1.099c0.974-0.161,6.134-1.189,6.134-1.189l-18.838,2.135l0.64,3.751
		C3816.247,1982.524,3816.766,1982.158,3816.66,1981.356z"/>
	<polygon id="XMLID_495_" fill="#A87696" points="3737.42,2001.726 3735.744,1993.107 3709.964,1995.859 3711.856,2004.785 	"/>
	<polygon id="XMLID_494_" fill="#B783A2" points="3764.465,2001.404 3763.586,1991.143 3735.744,1993.107 3737.798,2003.511 	"/>
	<polygon id="XMLID_492_" fill="#874D74" points="3732.056,1993.865 3730.961,1987.631 3753.986,1984.997 3755.607,1991.726 	"/>
	<path id="XMLID_488_" fill="#9B678B" d="M3764.137,1999.87l-0.551-7.144c0,0,0.033-1.434-0.25-1.667
		c-0.282-0.233-1.663,0.016-2.75,0s-8.583,1-8.583,1s-0.528,1.391,4.174,0.659c4.701-0.732,4.355,3.381,2.746,3.873
		c-1.609,0.491-8.326-1.724-11.194-1.193c-2.868,0.53-8.838,1.987-8.838,1.987s0.921-0.387,0.024-1.658
		c-0.897-1.272-2.723-1.584-2.723-1.584l0.408,7.328L3764.137,1999.87"/>
	<path id="XMLID_454_" fill="#ECD3DE" d="M3755.795,1991.726c0,0-3.106-0.125-3.625,0.125c-0.518,0.25-2.327,0.528-3.188,0.688
		c-0.86,0.159-9.438,0.938-9.438,0.938s-0.975,0.225-1.438,0.688c-0.562,0.562-1.176-1.653-1.125,0.75
		c0.051,2.403,0.85,4.486,1.01,5.26c0.16,0.775,0.593,0.523,0.85,0.527s5.331-0.78,6.445-0.678c1.114,0.102,3.011-0.557,4.213-0.625
		c1.202-0.068,4.207-0.196,5.752-0.259c1.545-0.063,3.431,0.05,4.55-0.191c1.119-0.241,4.858,0.3,4.858,0.3l-76.259,6.549
		c0,0,0.102-1.114,0.874-1.103c0.772,0.011,4.721-0.103,5.494-0.177c0.773-0.074,5.587-0.69,6.188-0.682
		c0.6,0.009,7.299-0.408,8.417-0.563c1.118-0.155,1.639-0.577,1.639-0.577s-0.156-1.032-0.49-1.723
		c-0.333-0.691,0.18-0.598,0.021-1.458s-0.584-1.124-0.833-1.728s-0.575-1.724-0.575-1.724l1.807-0.317c0,0-0.011,0.772,0.145,1.804
		c0.156,1.032,0.399,2.065,0.64,3.184s0.835,1.557,0.917,1.815c0.082,0.259,1.026,0.272,1.369,0.277
		c0.343,0.005,11.515-1.204,12.377-1.449c0.862-0.245,2.419-1.166,2.419-1.166s1.62,0.71,1.877,0.714s0.767,0.354,1.627,0.195
		c0.86-0.159,3.265-0.295,3.265-0.295s1.032-0.156,0.95-0.415c-0.082-0.259-0.427-0.178-0.753-1.298
		c-0.327-1.12-0.239-1.291-0.23-1.891s0.002-0.172,0.014-0.944c0.011-0.772-0.156-1.032-0.406-1.55s-0.325-1.206-0.84-1.214
		c-0.515-0.008-0.645,0.963-1.457,0.9c-0.353-0.027-1.527-0.633-1.527-0.633l-0.313-1.363c0,0-1.264-1.563-0.155-1.118
		c1.109,0.445,1.178,1.562,2.038,1.489c0.859-0.073,1.81-0.574,1.81-0.574s1.973,0.029,2.832-0.044
		c0.859-0.073,3.523-0.377,4.042-0.627s1.726-0.661,2.409-0.479c0.684,0.182,2.657,0.21,3.52-0.12
		c0.863-0.331,1.291-0.239,2.066-0.485c0.776-0.246,2.677,1.064,3.716,0.393c1.04-0.671,2.625-0.125,2.625-0.125
		s-1.533-3.727-0.938-3.375c0.595,0.352,3.686,3.604,2,4.188"/>
	<path id="XMLID_453_" fill="#AF75A1" d="M3732.006,1990.218c0,0-0.374-1.779-0.257-1.949s2.292-0.252,2.867-0.473
		c0.575-0.22,8.079-0.911,9.053-1.069c0.975-0.157,6.138-1.169,6.138-1.169l-18.845,2.072l0.627,3.753
		C3731.588,1991.384,3732.108,1991.02,3732.006,1990.218z"/>
	<g id="XMLID_515_">
		<path fill="#ECD3DE" d="M3786.858,1988.71c0.134-0.692-0.661-1.374-1.325-1.136c-0.145,0.052-0.282,0.139-0.436,0.146
			c-0.475,0.024-0.634-0.604-0.869-1.017c-0.216-0.38-0.654-0.655-1.085-0.583c-0.431,0.072-0.773,0.561-0.612,0.968
			c-0.532-0.464-1.135-0.846-1.782-1.128c-0.522-0.228-1.228-0.349-1.582,0.098c-0.371,0.468-0.05,1.146,0.274,1.647
			c-0.613-0.001-1.126,0.571-1.192,1.18c-0.066,0.609,0.235,1.212,0.664,1.649c0.085,0.086,0.179,0.178,0.194,0.297
			c0.025,0.202-0.179,0.346-0.337,0.475c-0.676,0.549-0.783,1.669-0.222,2.336c0.198,0.236,0.472,0.431,0.555,0.728
			c0.155,0.555-0.479,1.046-1.054,1.064c-0.575,0.018-1.123-0.242-1.695-0.305c-1.961-0.217-3.534,1.842-5.506,1.929
			c-0.334,0.015-0.686-0.026-0.99,0.114s-0.51,0.562-0.29,0.814c0.112,0.128,0.292,0.169,0.461,0.194
			c0.769,0.114,1.552,0.063,2.327,0.011c1.065-0.071,2.062,0.167,3.127,0.096c1.22-0.082,2.715-0.375,3.938-0.375
			c1.5,0,3.312-0.188,4.375-0.375c-0.109-0.727-0.953-1.843-1.337-2.469c-0.385-0.627-0.5-1.593,0.127-1.976
			c0.158-0.097,0.35-0.144,0.481-0.276c0.436-0.438-0.197-1.192-0.017-1.783c1.053-0.561,2.385,0.228,3.527-0.12
			c0.931-0.284,1.49-1.267,1.646-2.228c0.039-0.24,0.057-0.493-0.031-0.719c-0.23-0.59-0.513,0.458-1.146,0.446"/>
	</g>
	<path id="XMLID_653_" fill="#ECD3DE" d="M3792.795,1988.289c0,0-0.125-0.75,1-0.562s1.562,0.188,2.688,0s1.5-0.438,2.562-0.438
		s1.5,0.125,2.312,0.312s0.938,0.625,0.938,0.625s-0.244,0.082-2.216,0.104c-1.972,0.021-3.034,0.084-3.409,0.396
		s-0.812,0.562-1.812,0.562s-1.312,0-1.688,0.062S3791.482,1988.476,3792.795,1988.289z"/>
	<path id="XMLID_660_" fill="#ECD3DE" d="M3813.17,1980.226c0.971,0.728,1.062-0.688,1.312-0.188s0.188,0.625,0.438,0.812
		s0.125-0.875-0.188-1.438s-0.062-1.25-0.812-1.188s-2.438-0.562-2.625,0.25s-1.188,1.062-1.188,1.25s0.875,0.25,1.375,0.25
		S3812.92,1980.039,3813.17,1980.226z"/>
	<polygon id="XMLID_1210_" fill="#9B6286" points="3601.715,1998.441 3604.24,2008.581 3580.784,2010.601 3579.173,2000.519 	"/>
	<path id="XMLID_1209_" fill="#CE99B6" d="M3580.516,2005.124c0,0,1.216-1.012,1.337-1.468s1.342-1.811,1.745-1.977
		c0.403-0.166,1.372,0.077,3.44-0.522c2.068-0.599,9.576-1.576,9.576-1.576s1.496-0.607,0.981-0.615s-18.043,1.681-18.043,1.681
		s0.023,2.346,0.296,3.208C3580.122,2004.718,3579.889,2005,3580.516,2005.124z"/>
	<polygon id="XMLID_1208_" fill="#A87696" points="3618.924,2012.813 3617.219,2004.2 3591.449,2007.038 3593.37,2015.957 	"/>
	<polygon id="XMLID_1207_" fill="#723F64" points="3645.671,2010.308 3644.921,2001.725 3617.219,2004.2 3619.308,2014.597 	"/>
	<polyline id="XMLID_1206_" fill="#3F0E68" points="3571.421,2011.891 3568.838,1985.805 3567.838,1985.557 3570.254,2011.767 
		3571.421,2011.891 	"/>
	<polyline id="XMLID_1205_" fill="#661F82" points="3570.921,2011.643 3568.338,1985.557 3567.338,1985.308 3569.754,2011.519 
		3570.921,2011.643 	"/>
	<polygon id="XMLID_1204_" fill="#874D74" points="3591.449,2007.038 3594.007,2017.17 3569.254,2019.141 3568.504,2009.475 	"/>
	<polygon id="XMLID_1203_" fill="#9B678B" points="3604.099,2005.751 3602.671,1997.975 3625.921,1995.1 3627.356,2002.761 	"/>
	<path id="XMLID_1202_" fill="#AF75A1" d="M3570.272,2013.792c0,0,1.213-1.016,1.332-1.472c0.12-0.456,1.336-1.815,1.738-1.982
		c0.402-0.167,1.372,0.073,3.438-0.533s9.57-1.608,9.57-1.608s1.494-0.612,0.979-0.618c-0.515-0.006-18.242,1.98-18.242,1.98
		s-0.193,2.306,0.083,3.167C3569.447,2013.586,3569.644,2013.67,3570.272,2013.792z"/>
	<path id="XMLID_1199_" fill="#874D74" d="M3645.635,2010.868l-0.714-8.476c0,0,0.283-0.435,0-0.667
		c-0.283-0.232-2.663,0.262-3.75,0.25c-1.087-0.012-8.083,0.75-8.083,0.75s-0.115,2.123,4.583,1.375
		c4.699-0.748,4.346,3.009,2.739,3.506c-1.607,0.497-8.332-1.696-11.198-1.156c-2.866,0.54-8.831,2.017-8.831,2.017
		s0.919-0.39,0.019-1.659s-2.728-1.575-2.728-1.575l0.432,7.326L3645.635,2010.868L3645.635,2010.868z"/>
	<path id="XMLID_1198_" fill="#ECD3DE" d="M3629.089,2003.411c0,0-2.566,0.396-3.083,0.637c-0.518,0.241-3.455-0.408-4.315-0.253
		c-0.86,0.155-3.233,0.155-3.233,0.155s-0.769-0.255-0.519,0.323c0.251,0.578,0.947-0.318,1.007,1.984s0.386,3.785,0.55,4.526
		c0.163,0.741,0.595,0.5,0.852,0.503s5.328-0.762,6.442-0.667s3.009-0.541,4.211-0.61s4.206-0.199,5.751-0.264
		c1.545-0.065,3.431,0.039,4.549-0.195c1.118-0.234,4.859,0.274,4.859,0.274l-77.566,6.49c0,0,1.431-1.076,2.203-1.067
		c0.772,0.009,4.72-0.111,5.493-0.184c0.773-0.073,5.584-0.677,6.185-0.67c0.6,0.007,7.297-0.411,8.414-0.562
		c1.117-0.152,1.636-0.557,1.636-0.557s-0.16-0.988-0.496-1.649c-0.336-0.661,0.178-0.573,0.016-1.397
		c-0.162-0.824-0.588-1.075-0.839-1.653c-0.251-0.578-1.364-2.64-0.659-2.626c9.5,0.184,1.882,0.668,1.882,0.668
		s-0.008,0.74,0.152,1.728c0.16,0.988,0.407,1.977,0.652,3.048c0.245,1.071,0.841,1.489,0.924,1.736
		c0.083,0.248,1.027,0.258,1.37,0.262c0.343,0.004,11.51-1.185,12.371-1.422s2.415-1.123,2.415-1.123s1.623,0.676,1.88,0.679
		s0.768,0.337,1.628,0.183c0.86-0.155,3.264-0.292,3.264-0.292s1.031-0.153,0.948-0.4c-0.083-0.247-0.427-0.169-0.758-1.241
		c-0.331-1.072-0.243-1.235-0.237-1.811c0.007-0.575,0.002-0.164,0.01-0.904c0.008-0.74-0.16-0.988-0.412-1.484
		c-0.252-0.496-0.33-1.154-0.845-1.16c-0.515-0.006-6.01,0.343-6.354,0.421c-0.344,0.078-8.14,1.058-8.14,1.058
		s2.206-0.547,2.374-1.136c0.113-0.393-1.159-2.054-0.049-1.631s1.184,1.493,2.043,1.42c0.859-0.073,1.808-0.555,1.808-0.555
		s1.973,0.022,2.832-0.05c0.859-0.073,3.522-0.371,4.039-0.612s1.723-0.638,2.407-0.466c0.685,0.172,2.658,0.194,3.519-0.125
		s1.29-0.232,2.064-0.47c0.775-0.238,1.561-1.462,2.598-2.107s2.214,1.449,2.214,1.449s-0.825,0.666-0.228,1.002
		c0.597,0.335,3.434-0.323,1.75,0.24L3629.089,2003.411z"/>
	<path id="XMLID_1197_" fill="#C193AF" d="M3603.911,2000.604c0,0-0.38-1.777-0.264-1.948c0.116-0.17,2.291-0.26,2.865-0.482
		c0.575-0.222,8.076-0.938,9.05-1.099s6.134-1.189,6.134-1.189l-18.838,2.135l0.64,3.751
		C3603.498,2001.772,3604.017,2001.406,3603.911,2000.604z"/>
	<polygon id="XMLID_1196_" fill="#A87696" points="3671.421,2007.975 3669.745,1999.356 3643.965,2002.108 3645.857,2011.034 	"/>
	<polygon id="XMLID_1195_" fill="#B783A2" points="3698.466,2007.652 3697.588,1997.391 3669.745,1999.356 3671.799,2009.76 	"/>
	<polygon id="XMLID_1193_" fill="#874D74" points="3666.058,2000.114 3664.962,1993.88 3687.987,1991.245 3689.608,1997.975 	"/>
	<path id="XMLID_1191_" fill="#9B678B" d="M3698.138,2006.119l-0.551-7.144c0,0,0.032-1.434-0.25-1.667
		c-0.283-0.233-1.663,0.016-2.75,0s-8.583,1-8.583,1s-0.528,1.391,4.173,0.659c4.701-0.732,4.355,3.381,2.746,3.873
		c-1.609,0.491-8.326-1.724-11.194-1.193c-2.868,0.53-8.838,1.987-8.838,1.987s0.921-0.387,0.024-1.659
		c-0.896-1.271-2.722-1.584-2.722-1.584l0.408,7.328L3698.138,2006.119"/>
	<path id="XMLID_1190_" fill="#ECD3DE" d="M3689.796,1997.975c0,0-3.106-0.125-3.625,0.125c-0.518,0.25-2.327,0.529-3.188,0.688
		c-0.86,0.159-9.438,0.938-9.438,0.938s-0.975,0.226-1.438,0.688c-0.562,0.562-1.176-1.653-1.125,0.75
		c0.051,2.403,0.85,4.486,1.01,5.26c0.16,0.775,0.593,0.523,0.85,0.527s5.331-0.78,6.445-0.678c1.114,0.102,3.011-0.557,4.213-0.625
		s4.207-0.196,5.752-0.259c1.545-0.063,3.431,0.05,4.55-0.191c1.119-0.241,4.858,0.3,4.858,0.3l-76.259,6.549
		c0,0,0.102-1.114,0.874-1.103c0.772,0.011,4.721-0.102,5.494-0.177c0.773-0.075,5.587-0.69,6.188-0.682
		c0.6,0.009,7.299-0.408,8.417-0.563s1.639-0.577,1.639-0.577s-0.156-1.032-0.49-1.723c-0.333-0.691,0.18-0.598,0.021-1.458
		c-0.159-0.86-0.584-1.124-0.833-1.728s-1.544-3.559-1.544-3.559l2.25-0.25c0,0,1.75,0.5,0.67,3.572
		c-0.346,0.985,0.399,2.065,0.64,3.184c0.241,1.119,0.835,1.557,0.917,1.815c0.082,0.259,1.026,0.272,1.369,0.277
		c0.343,0.005,11.515-1.204,12.377-1.449c0.862-0.245,2.419-1.166,2.419-1.166s1.62,0.71,1.877,0.714
		c0.257,0.004,0.767,0.354,1.627,0.195c0.86-0.159,3.265-0.295,3.265-0.295s1.032-0.156,0.95-0.415
		c-0.082-0.259-0.427-0.178-0.753-1.298c-0.327-1.12-0.239-1.291-0.23-1.891s0.002-0.172,0.014-0.944
		c0.011-0.772-0.156-1.032-0.406-1.55c-0.25-0.519-0.325-1.206-0.84-1.214c-0.515-0.008-0.645,0.963-1.457,0.9
		c-0.353-0.027-1.527-0.633-1.527-0.633l-0.313-1.363c0,0-1.264-1.563-0.155-1.118s1.178,1.562,2.038,1.488
		c0.859-0.073,1.81-0.574,1.81-0.574s1.973,0.029,2.832-0.044c0.859-0.073,3.523-0.377,4.042-0.627
		c0.518-0.25,1.726-0.661,2.409-0.48c0.684,0.182,2.657,0.211,3.52-0.12s1.291-0.239,2.066-0.485
		c0.776-0.246,2.677,1.064,3.716,0.392c1.04-0.671,2.625-0.125,2.625-0.125s-1.533-3.727-0.938-3.375s3.686,3.605,2,4.188"/>
	<path id="XMLID_1188_" fill="#AF75A1" d="M3666.007,1996.466c0,0-0.374-1.779-0.257-1.949c0.117-0.17,2.292-0.252,2.867-0.473
		c0.575-0.22,8.079-0.911,9.053-1.069c0.975-0.157,6.138-1.169,6.138-1.169l-18.845,2.072l0.627,3.753
		C3665.589,1997.633,3666.11,1997.269,3666.007,1996.466z"/>
	<g id="XMLID_1169_">
		<path fill="#ECD3DE" d="M3574.11,2007.958c0.134-0.692-0.661-1.374-1.325-1.136c-0.145,0.052-0.282,0.139-0.436,0.146
			c-0.475,0.024-0.634-0.604-0.869-1.017c-0.216-0.38-0.654-0.655-1.085-0.583c-0.431,0.072-0.773,0.561-0.612,0.968
			c-0.532-0.464-1.135-0.846-1.782-1.128c-0.522-0.228-1.228-0.349-1.582,0.098c-0.371,0.468-0.05,1.146,0.274,1.647
			c-0.613-0.001-1.126,0.571-1.192,1.18c-0.066,0.609,0.235,1.212,0.664,1.649c0.084,0.086,0.179,0.178,0.194,0.297
			c0.025,0.202-0.179,0.346-0.337,0.475c-0.676,0.549-0.783,1.669-0.222,2.336c0.198,0.236,0.472,0.431,0.555,0.728
			c0.155,0.555-0.479,1.046-1.054,1.064s-1.123-0.242-1.695-0.305c-1.961-0.217-3.534,1.842-5.506,1.929
			c-0.334,0.015-0.686-0.026-0.99,0.113s-0.51,0.562-0.29,0.814c0.112,0.128,0.292,0.169,0.461,0.194
			c0.769,0.114,1.552,0.063,2.327,0.011c1.065-0.071,2.062,0.167,3.127,0.096c1.22-0.081,2.715-0.375,3.938-0.375
			c1.5,0,3.312-0.188,4.375-0.375c-0.109-0.727-0.953-1.843-1.337-2.469s-0.5-1.593,0.127-1.976c0.158-0.097,0.35-0.144,0.481-0.276
			c0.436-0.438-0.197-1.192-0.017-1.783c1.053-0.561,2.385,0.228,3.526-0.12c0.931-0.284,1.49-1.267,1.646-2.228
			c0.039-0.24,0.057-0.493-0.031-0.719c-0.23-0.59-0.513,0.458-1.146,0.446"/>
	</g>
	<path id="XMLID_1167_" fill="#ECD3DE" d="M3580.046,2007.537c0,0-0.125-0.75,1-0.562s1.562,0.188,2.688,0s1.5-0.438,2.562-0.438
		s1.5,0.125,2.312,0.312s0.938,0.625,0.938,0.625s-0.244,0.082-2.216,0.104c-1.971,0.021-3.034,0.084-3.409,0.396
		s-0.812,0.562-1.812,0.562s-1.312,0-1.688,0.062S3578.733,2007.725,3580.046,2007.537z"/>
	<path id="XMLID_1162_" fill="#ECD3DE" d="M3600.421,1999.475c0.971,0.728,1.062-0.688,1.312-0.188s0.188,0.625,0.438,0.812
		s0.125-0.875-0.188-1.438s-0.062-1.25-0.812-1.188s-2.438-0.562-2.625,0.25s-1.188,1.062-1.188,1.25s0.875,0.25,1.375,0.25
		S3600.171,1999.287,3600.421,1999.475z"/>
</g>
<g id="Layer_1">
</g>
</svg>
